<svg width="861" height="572" viewBox="0 0 861 572" fill="none" xmlns="http://www.w3.org/2000/svg">
<g clip-path="url(#clip0_215_113)">
<path d="M455.736 120.527C448.066 107.843 438.979 94.2994 424.746 90.1575C408.264 85.361 391.333 94.8894 376.971 104.292C334.022 132.412 292.661 162.886 253.078 195.575L253.121 196.068C283.938 193.942 314.755 191.817 345.572 189.692C367.838 188.157 390.868 186.409 410.544 175.876C418.011 171.88 425.289 166.541 433.75 166.169C444.262 165.706 453.427 173.048 460.63 180.718C503.237 226.089 515.567 295.472 563.368 335.334C533.226 260.999 497.236 189.171 455.736 120.527Z" fill="#F2F2F2"/>
<path d="M717.637 505.355C712.925 499.406 711 498.012 706.352 492.008C668.509 443.064 632.94 392.466 599.644 340.215C577.028 304.729 555.534 268.561 535.161 231.711C525.462 214.192 516.029 196.536 506.862 178.742C499.748 164.946 492.793 151.066 485.997 137.104C484.054 133.117 482.165 129.111 480.286 125.095C475.858 115.653 471.512 106.165 466.846 96.8508C461.53 86.235 455.058 75.1059 445.294 67.9737C440.851 64.5947 435.537 62.5502 429.975 62.0792C422.027 61.5658 414.693 64.8477 407.8 68.4321C357.361 94.7331 310.14 127.708 267.43 165.23C224.61 202.836 186.336 245.322 153.388 291.821C152.38 293.26 149.997 291.885 151.014 290.437C155.02 284.772 159.106 279.167 163.271 273.624C215.06 204.746 278.56 145.515 350.871 98.6384C363.036 90.7545 375.43 83.2404 388.053 76.0959C394.415 72.4932 400.805 68.9363 407.305 65.5994C413.676 62.3267 420.441 59.3839 427.72 59.2739C452.49 58.8889 465.316 86.9409 474.125 105.816C476.894 111.757 479.696 117.679 482.532 123.583C493.248 145.997 504.377 168.206 515.919 190.211C523.042 203.797 530.321 217.303 537.756 230.73C560.894 272.542 585.487 313.508 611.534 353.627C646.04 406.77 680.271 453.716 719.58 503.412C720.662 504.787 718.728 506.749 717.637 505.355Z" fill="#E4E4E4"/>
<path d="M264.982 151.378C263.543 149.774 262.113 148.169 260.664 146.565C249.242 133.933 236.985 121.447 221.3 114.205C213.821 110.642 205.656 108.75 197.373 108.658C188.811 108.686 180.441 110.932 172.53 114.076C168.789 115.57 165.131 117.266 161.529 119.072C157.413 121.144 153.37 123.354 149.346 125.581C141.792 129.761 134.335 134.125 126.977 138.672C112.337 147.72 98.1551 157.459 84.4318 167.888C77.3177 173.297 70.3505 178.883 63.53 184.646C57.1863 190 50.9709 195.497 44.8839 201.138C43.5822 202.339 41.6386 200.396 42.9403 199.195C44.5445 197.7 46.1672 196.215 47.7898 194.749C52.3735 190.605 57.0305 186.541 61.761 182.556C70.3872 175.277 79.2367 168.279 88.3095 161.563C102.418 151.112 117.012 141.37 132.092 132.337C139.628 127.827 147.268 123.506 155.011 119.375C157.349 118.128 159.714 116.909 162.106 115.754C167.535 113.015 173.176 110.719 178.974 108.887C187.187 106.231 195.877 105.377 204.45 106.385C212.728 107.589 220.703 110.348 227.955 114.516C243.356 123.124 255.301 136.435 266.925 149.425C268.099 150.745 266.164 152.698 264.982 151.378Z" fill="#E4E4E4"/>
<path d="M580.542 282.285L617.447 268.787L635.77 262.085C641.738 259.902 647.691 257.418 653.86 255.855C659.221 254.323 664.913 254.396 670.234 256.063C674.978 257.819 679.321 260.512 683.005 263.98C686.768 267.445 690.269 271.184 693.48 275.166C697.469 279.961 701.399 284.805 705.347 289.633C721.641 309.561 737.829 329.574 753.91 349.675C769.991 369.775 785.964 389.96 801.83 410.231C817.735 430.551 833.53 450.956 849.216 471.446C851.137 473.957 853.057 476.468 854.975 478.981C856.035 480.369 858.425 479 857.35 477.593C841.548 456.896 825.637 436.285 809.615 415.758C793.554 395.182 777.382 374.693 761.099 354.292C744.816 333.891 728.423 313.579 711.92 293.355C707.809 288.316 703.691 283.283 699.566 278.256C696.086 274.015 692.646 269.729 688.829 265.782C681.824 258.537 673.072 252.134 662.595 251.96C656.435 251.858 650.474 253.813 644.751 255.883C638.581 258.115 632.426 260.389 626.265 262.642L589.102 276.235L579.811 279.633C578.163 280.236 578.875 282.895 580.542 282.285Z" fill="#E4E4E4"/>
<path d="M216.444 130.1C197.689 120.462 173.672 122.349 156.438 134.391C189.31 140.063 221.823 147.651 253.809 157.117C240.526 149.333 230.136 137.138 216.444 130.1Z" fill="#F2F2F2"/>
<path d="M136.253 174.358L132.643 177.293C133.864 176.266 135.133 175.303 136.438 174.391C136.376 174.381 136.315 174.369 136.253 174.358Z" fill="#F2F2F2"/>
<path d="M681.615 282.42C677.982 277.998 674.055 273.367 668.621 271.571L663.548 271.771C702.166 340.01 754.322 399.637 816.815 446.992C771.748 392.135 726.682 337.277 681.615 282.42Z" fill="#F2F2F2"/>
<path d="M579.15 488.94C581.497 497.47 586.786 504.894 594.081 509.899C596.901 511.819 600.238 513.661 601.202 516.934C601.71 519.02 601.397 521.221 600.329 523.084C599.262 524.922 597.965 526.616 596.468 528.125L596.331 528.637C589.332 524.49 582.674 519.244 578.809 512.086C574.943 504.928 574.403 495.547 579.15 488.94Z" fill="#F2F2F2"/>
<path d="M114.15 474.94C116.497 483.47 121.786 490.894 129.081 495.899C131.901 497.819 135.238 499.661 136.202 502.934C136.71 505.02 136.397 507.221 135.329 509.084C134.262 510.922 132.965 512.616 131.468 514.125L131.331 514.637C124.332 510.49 117.674 505.244 113.809 498.086C109.943 490.928 109.403 481.547 114.15 474.94Z" fill="#F2F2F2"/>
<path d="M649.249 102C677.416 102 700.249 79.1665 700.249 51C700.249 22.8335 677.416 0 649.249 0C621.083 0 598.249 22.8335 598.249 51C598.249 79.1665 621.083 102 649.249 102Z" fill="#F9A826"/>
<path d="M741.284 11.8704C716.568 8.52949 688.349 21.8891 681.943 45.994C680.329 41.7081 677.394 38.0465 673.562 35.538C669.73 33.0295 665.2 31.8041 660.626 32.0388C656.052 32.2735 651.672 33.9562 648.117 36.8437C644.562 39.7312 642.017 43.6741 640.85 48.1027L643.679 50.1293C696.647 61.5836 751.476 61.3357 804.338 49.403C787.145 31.334 766.001 15.2113 741.284 11.8704Z" fill="#F0F0F0"/>
<path d="M635.284 79.8704C610.568 76.5295 582.349 89.8891 575.943 113.994C574.329 109.708 571.394 106.046 567.562 103.538C563.73 101.03 559.2 99.8041 554.626 100.039C550.052 100.274 545.672 101.956 542.117 104.844C538.562 107.731 536.017 111.674 534.85 116.103L537.679 118.129C590.647 129.584 645.476 129.336 698.338 117.403C681.145 99.334 660.001 83.2113 635.284 79.8704Z" fill="#F0F0F0"/>
<path d="M851.011 92.7283C850.908 92.7285 850.807 92.7127 850.709 92.6814C586.302 9.06326 353.265 19.9978 204.329 43.8953C184.061 47.1463 163.738 50.9011 143.925 55.0564C138.867 56.116 133.62 57.2517 128.329 58.4343C122.01 59.8416 115.775 61.2908 109.796 62.74C107.214 63.3513 104.683 63.9676 102.202 64.5886C98.4434 65.5164 94.6299 66.4832 90.542 67.5456C85.9741 68.7234 81.333 69.9587 76.7446 71.2175C76.7279 71.2234 76.7107 71.2283 76.6934 71.2322L76.6939 71.2332C71.5112 72.6482 66.356 74.1043 61.3706 75.5584C58.6724 76.3377 56.0669 77.1062 53.5713 77.865C53.2925 77.9422 53.0454 78.0164 52.7949 78.0925L52.2588 78.2556C51.9483 78.3503 51.6416 78.4431 51.335 78.531L51.3154 78.5369L51.3159 78.5379L50.5044 78.7899C49.5366 79.0829 48.5923 79.369 47.6636 79.6541C23.1187 87.2205 9.62549 92.6034 9.49219 92.6561C9.3703 92.7049 9.23998 92.7293 9.10866 92.7278C8.97735 92.7263 8.84762 92.6989 8.72687 92.6473C8.60613 92.5956 8.49673 92.5208 8.40494 92.4268C8.31315 92.3329 8.24076 92.2218 8.1919 92.0999C8.14304 91.978 8.11868 91.8477 8.12018 91.7164C8.12169 91.5851 8.14905 91.4554 8.20069 91.3346C8.25233 91.2139 8.32724 91.1045 8.42116 91.0127C8.51508 90.9209 8.62616 90.8485 8.74805 90.7996C8.88233 90.7469 22.4414 85.3368 47.0757 77.742C48.0078 77.4559 48.9546 77.1698 49.9253 76.8758L50.6792 76.6414C50.7051 76.6317 50.731 76.6239 50.7573 76.616C51.0625 76.5291 51.3672 76.4364 51.6768 76.3426L52.2139 76.1795C52.4815 76.0985 52.7451 76.0184 53.0151 75.9442C55.4937 75.1903 58.1079 74.4198 60.813 73.6375C65.8003 72.1825 70.9605 70.7264 76.147 69.3094C76.1631 69.3035 76.1797 69.2996 76.1958 69.2948C80.8003 68.0321 85.4585 66.7908 90.041 65.6092C94.1353 64.5457 97.956 63.577 101.721 62.6473C104.212 62.0272 106.749 61.4096 109.33 60.7947C115.315 59.3436 121.563 57.8924 127.893 56.4822C133.192 55.2986 138.449 54.16 143.515 53.0994C163.358 48.9373 183.713 45.1766 204.012 41.9207C353.161 17.9891 586.533 7.03687 851.312 90.7751C851.539 90.847 851.734 90.998 851.86 91.2008C851.986 91.4035 852.035 91.6447 851.999 91.8807C851.962 92.1167 851.843 92.3319 851.662 92.4873C851.48 92.6428 851.25 92.7283 851.011 92.7283Z" fill="#CCCCCC"/>
<path d="M262.989 419.84C262.642 418.827 262.059 417.912 261.289 417.17C261.004 416.906 260.696 416.668 260.369 416.46C257.759 414.72 253.859 414.33 251.379 416.46C251.129 416.677 250.898 416.914 250.689 417.17C249.949 418.08 249.189 418.97 248.409 419.84C247.129 421.3 245.819 422.71 244.449 424.08C244.059 424.46 243.669 424.85 243.269 425.23C243.039 425.46 242.809 425.68 242.579 425.9C241.699 426.74 240.799 427.55 239.889 428.35C239.409 428.78 238.929 429.2 238.439 429.61C237.709 430.22 236.979 430.83 236.239 431.42C236.169 431.47 236.099 431.52 236.029 431.58C236.009 431.59 235.999 431.61 235.979 431.62C235.969 431.62 235.959 431.62 235.949 431.64C235.922 431.651 235.897 431.668 235.879 431.69C235.659 431.84 235.509 431.94 235.399 432.03C235.439 432.01 235.479 431.98 235.519 431.96C235.339 432.1 235.149 432.24 234.969 432.38C233.219 433.67 231.429 434.91 229.599 436.07C225.071 438.968 220.315 441.493 215.379 443.62C215.049 443.75 214.709 443.89 214.369 444.02C201.443 449.315 187.422 451.382 173.519 450.04C172.099 449.93 170.679 449.78 169.259 449.59C167.619 449.35 165.989 449.06 164.369 448.73C158.201 447.499 152.167 445.678 146.349 443.29C139.071 439.957 132.149 435.897 125.689 431.17C124.689 430.46 123.679 429.75 122.669 429.06C123.819 426.24 124.949 423.42 126.049 420.58C126.599 419.21 127.129 417.84 127.649 416.46C131.739 405.83 135.579 395.1 139.259 384.33C142.979 373.42 146.489 362.447 149.789 351.41C150.129 350.29 150.459 349.17 150.779 348.05C152.509 342.22 154.169 336.377 155.759 330.52C155.909 329.95 156.069 329.39 156.209 328.82C156.669 327.14 157.119 325.46 157.559 323.78C158.559 319.99 156.299 315.46 152.319 314.55C150.402 314.059 148.37 314.33 146.65 315.308C144.93 316.285 143.657 317.892 143.099 319.79C142.669 321.41 142.239 323.02 141.799 324.64C139.689 332.47 137.469 340.273 135.139 348.05C134.799 349.17 134.459 350.29 134.119 351.41C128.979 368.35 123.335 385.12 117.189 401.72C116.449 403.73 115.699 405.733 114.939 407.73C114.569 408.71 114.199 409.69 113.819 410.67C113.089 412.6 112.339 414.53 111.589 416.46C111.159 417.59 110.719 418.72 110.279 419.84C109.989 420.55 109.709 421.26 109.429 421.96C106.577 420.936 103.623 420.225 100.619 419.84L100.139 419.78C97.809 419.5 95.453 419.52 93.1286 419.84C89.6496 420.246 86.3023 421.411 83.3233 423.253C80.3443 425.095 77.8062 427.569 75.8886 430.5C71.1186 438.01 71.1786 448.75 77.8686 455.13C84.7586 461.7 95.1886 461.65 103.299 457.54C107.596 455.215 111.22 451.818 113.819 447.68C114.814 446.18 115.729 444.628 116.559 443.03C116.769 443.17 116.979 443.31 117.189 443.46C117.989 444.02 118.789 444.59 119.579 445.15C124.182 448.485 129.032 451.463 134.089 454.06C144.961 459.465 156.664 463.004 168.709 464.53C168.979 464.56 169.239 464.6 169.509 464.63C170.839 464.8 172.179 464.93 173.519 465.04C192.741 466.489 211.986 462.555 229.099 453.68C230.549 452.93 231.985 452.143 233.409 451.32C235.619 450.04 237.779 448.68 239.889 447.24C241.039 446.46 242.159 445.67 243.269 444.84C248.119 441.267 252.641 437.268 256.779 432.89C258.349 431.24 259.852 429.537 261.289 427.78C262.647 426.343 263.43 424.457 263.489 422.48C263.481 421.577 263.311 420.683 262.989 419.84ZM97.3986 443.66C97.6086 443.51 97.8186 443.35 98.0186 443.19C97.9586 443.34 97.6686 443.51 97.3986 443.66ZM100.609 440.43C100.379 440.69 100.169 440.95 99.9386 441.21C99.2389 441.993 98.4872 442.728 97.6886 443.41C97.5786 443.51 97.4586 443.61 97.3386 443.7C97.3373 443.7 97.3359 443.7 97.3347 443.701C97.3335 443.701 97.3324 443.702 97.3315 443.703C97.3305 443.704 97.3298 443.705 97.3293 443.706C97.3288 443.707 97.3286 443.709 97.3286 443.71C97.1841 443.775 97.0438 443.848 96.9085 443.93C96.4785 444.19 96.0386 444.43 95.5886 444.65C94.7075 444.974 93.8011 445.225 92.8786 445.4C92.1697 445.452 91.4583 445.458 90.7486 445.42H90.7286C90.2388 445.311 89.7548 445.178 89.2786 445.02C89.0386 444.9 88.8086 444.76 88.5786 444.62C88.4886 444.54 88.4085 444.46 88.3586 444.41C88.2609 444.321 88.1706 444.224 88.0887 444.12C88.0887 444.119 88.0884 444.117 88.0879 444.116C88.0874 444.115 88.0867 444.114 88.0858 444.113C88.0849 444.112 88.0837 444.111 88.0825 444.111C88.0813 444.11 88.08 444.11 88.0786 444.11C87.9686 443.91 87.8486 443.71 87.7386 443.51C87.7329 443.505 87.7294 443.498 87.7286 443.49C87.6486 443.24 87.5786 442.98 87.5186 442.72C87.497 442.263 87.5003 441.806 87.5286 441.35C87.6628 440.711 87.8433 440.083 88.0686 439.47C88.2711 439.036 88.5016 438.615 88.7586 438.21C88.7786 438.17 88.8786 438.01 88.9886 437.83C88.9986 437.82 88.9986 437.82 88.9986 437.81C89.1486 437.64 89.2987 437.46 89.4587 437.3C89.7287 437 90.0187 436.74 90.3087 436.47C90.8726 436.101 91.4569 435.764 92.0587 435.46C93.0133 435.121 93.9929 434.857 94.9886 434.67C96.457 434.553 97.9327 434.567 99.3987 434.71C100.787 434.951 102.157 435.288 103.499 435.72C102.686 437.298 101.76 438.815 100.729 440.26C100.689 440.32 100.649 440.38 100.609 440.43ZM89.4886 437.14C89.4005 437.281 89.2965 437.412 89.1786 437.53C89.2579 437.383 89.3629 437.251 89.4886 437.14Z" fill="#A9A9A9"/>
<path d="M232.928 317.71C232.838 320.85 232.748 323.99 232.658 327.13C232.468 334.1 232.272 341.073 232.068 348.05C231.858 355.9 231.638 363.747 231.408 371.59C231.298 375.64 231.185 379.69 231.068 383.74C230.758 394.65 230.452 405.557 230.148 416.46C230.118 417.59 230.078 418.71 230.048 419.84C229.898 425.25 229.748 430.66 229.598 436.07C229.428 441.94 229.262 447.81 229.098 453.68C228.978 458.08 228.855 462.483 228.728 466.89C227.828 498.82 226.928 530.75 226.028 562.68C225.99 564.657 225.188 566.543 223.79 567.941C222.391 569.34 220.506 570.142 218.528 570.18C216.544 570.164 214.646 569.369 213.243 567.966C211.84 566.563 211.044 564.664 211.028 562.68C211.528 544.72 212.035 526.76 212.548 508.8C212.998 492.56 213.455 476.32 213.918 460.08C214.068 454.73 214.218 449.377 214.368 444.02C214.598 435.96 214.825 427.9 215.048 419.84C215.078 418.71 215.118 417.59 215.148 416.46C215.168 415.47 215.198 414.49 215.228 413.5C215.668 397.85 216.108 382.197 216.548 366.54C216.728 360.38 216.902 354.217 217.068 348.05C217.268 341.02 217.468 333.993 217.668 326.97C217.758 323.88 217.838 320.8 217.928 317.71C217.966 315.733 218.769 313.847 220.167 312.449C221.565 311.05 223.451 310.248 225.428 310.21C227.412 310.226 229.311 311.021 230.714 312.424C232.117 313.827 232.912 315.726 232.928 317.71Z" fill="#A9A9A9"/>
<path d="M644.357 319.791C636.492 349.571 627.093 378.924 616.196 407.732C613.189 415.679 610.113 423.609 606.824 431.444L607.58 429.653C606.113 433.385 604.238 436.943 601.991 440.265C601.838 440.479 601.682 440.691 601.524 440.901C602.301 439.907 602.449 439.711 601.967 440.312C601.713 440.613 601.462 440.914 601.199 441.207C600.499 441.991 599.748 442.727 598.95 443.411C598.749 443.582 598.545 443.751 598.338 443.915L599.276 443.186C599.167 443.443 598.404 443.783 598.166 443.929C597.395 444.394 596.591 444.801 595.761 445.147L597.552 444.391C596.191 444.94 594.772 445.329 593.321 445.552L595.315 445.284C593.89 445.481 592.446 445.496 591.017 445.33L593.011 445.598C591.842 445.437 590.698 445.129 589.606 444.681L591.398 445.437C590.815 445.183 590.254 444.884 589.719 444.541C589.447 444.364 588.614 443.732 589.704 444.565C590.837 445.431 589.85 444.64 589.616 444.41C589.422 444.218 589.247 444.01 589.057 443.815C588.174 442.91 590.053 445.371 589.453 444.313C589.133 443.783 588.84 443.237 588.575 442.676L589.331 444.468C588.987 443.615 588.743 442.726 588.603 441.817L588.871 443.81C588.728 442.68 588.727 441.536 588.868 440.406L588.6 442.399C588.784 441.137 589.117 439.902 589.595 438.719L588.839 440.511C589.172 439.715 589.566 438.947 590.017 438.212C590.225 437.833 590.469 437.474 590.745 437.141C590.794 437.157 589.477 438.654 590.176 437.898C590.359 437.7 590.53 437.492 590.715 437.296C591.011 436.982 591.328 436.695 591.641 436.398C592.685 435.404 590.179 437.364 591.384 436.577C592.258 436.003 593.177 435.501 594.133 435.078L592.342 435.834C593.943 435.176 595.622 434.726 597.337 434.494L595.343 434.762C597.491 434.515 599.662 434.541 601.804 434.838L599.81 434.571C602.522 434.982 605.173 435.727 607.702 436.791L605.91 436.034C611.3 438.348 616.073 441.784 620.838 445.152C625.44 448.485 630.29 451.463 635.344 454.059C646.217 459.465 657.921 463.005 669.967 464.533C687.242 466.649 704.772 464.393 720.949 457.971C737.126 451.55 751.431 441.169 762.552 427.781C763.909 426.342 764.691 424.454 764.749 422.477C764.735 420.491 763.947 418.589 762.552 417.174C759.801 414.648 754.603 413.935 751.945 417.174C749.427 420.249 746.72 423.163 743.839 425.901C742.494 427.177 741.113 428.414 739.697 429.611C738.887 430.295 738.067 430.965 737.236 431.622C736.842 431.933 735.617 432.76 737.499 431.425C737.067 431.731 736.654 432.065 736.228 432.379C729.93 437.022 723.106 440.904 715.896 443.944L717.688 443.188C709.951 446.433 701.826 448.659 693.516 449.811L695.51 449.543C686.962 450.667 678.302 450.654 669.757 449.505L671.75 449.773C663.207 448.599 654.852 446.324 646.893 443.002L648.685 443.758C641.005 440.36 633.717 436.139 626.949 431.167C623.426 428.559 619.711 426.221 615.836 424.173C611.321 421.867 606.432 420.381 601.398 419.785C591.959 418.674 582.341 422.35 577.152 430.505C572.376 438.01 572.438 448.749 579.125 455.13C586.013 461.703 596.444 461.647 604.561 457.536C612.378 453.576 617.074 445.35 620.376 437.594C627.807 420.139 634.386 402.28 640.516 384.331C646.58 366.573 652.08 348.635 657.014 330.518C657.625 328.274 658.228 326.028 658.821 323.779C659.822 319.99 657.56 315.459 653.583 314.553C651.666 314.06 649.632 314.33 647.911 315.307C646.19 316.285 644.916 317.892 644.357 319.791Z" fill="#A9A9A9"/>
<path d="M719.19 317.709L716.49 413.503L713.805 508.797L712.286 562.68C712.303 564.664 713.099 566.562 714.502 567.965C715.904 569.368 717.802 570.164 719.786 570.18C721.763 570.142 723.649 569.34 725.047 567.941C726.446 566.543 727.248 564.658 727.286 562.68L729.986 466.887L732.671 371.593L734.19 317.709C734.173 315.726 733.377 313.828 731.974 312.425C730.571 311.022 728.674 310.226 726.69 310.209C724.713 310.248 722.827 311.05 721.429 312.448C720.03 313.847 719.228 315.732 719.19 317.709Z" fill="#A9A9A9"/>
<path d="M519.887 390.061C511.278 373.268 497.941 359.14 482.255 348.757C466.518 338.389 448.461 332.074 429.692 330.377C427.232 330.153 424.766 330.023 422.293 329.984C419.372 329.941 375.427 342.616 360.706 352.966C345.993 363.191 333.89 376.73 325.373 392.493C316.871 408.343 312.689 426.15 313.248 444.127C313.976 462.212 319.017 479.861 327.95 495.603C336.761 511.293 349.272 524.594 364.395 534.348C379.732 544.135 395.14 570.084 413.249 571C431.495 571.923 452.303 547.445 468.944 540.013C485.585 532.519 499.972 520.794 510.67 506.008C521.065 491.517 527.791 474.721 530.269 457.06C532.842 438.977 531.643 420.327 525.467 403.044C523.883 398.603 522.019 394.266 519.887 390.061C518.107 386.555 512.891 385.265 509.626 387.37C507.943 388.406 506.725 390.05 506.224 391.961C505.723 393.873 505.978 395.903 506.935 397.631C507.98 399.69 508.952 401.782 509.85 403.909L509.094 402.117C512.494 410.292 514.806 418.879 515.971 427.656L515.703 425.662C516.942 435.184 516.919 444.828 515.637 454.344L515.905 452.35C514.608 461.866 512.068 471.17 508.35 480.025L509.106 478.233C507.193 482.751 504.964 487.128 502.435 491.331C501.153 493.455 499.792 495.529 498.354 497.553C497.722 498.441 497.071 499.314 496.415 500.184C495.559 501.32 497.582 498.701 496.697 499.815C496.547 500.004 496.397 500.195 496.245 500.384C495.791 500.952 495.331 501.514 494.864 502.072C491.746 505.791 488.343 509.263 484.687 512.455C483.776 513.25 482.85 514.027 481.909 514.786C481.441 515.165 480.977 515.559 480.489 515.911C480.507 515.898 482.068 514.712 481.144 515.4C480.854 515.617 480.566 515.836 480.274 516.052C478.335 517.489 476.343 518.853 474.3 520.144C469.597 523.107 464.662 525.687 459.544 527.857L461.336 527.101C452.508 530.817 443.23 533.356 433.739 534.653L435.733 534.385C426.248 535.667 416.634 535.684 407.144 534.435L409.138 534.703C400.513 533.545 392.076 531.264 384.043 527.919L385.834 528.675C381.181 526.71 376.694 524.372 372.418 521.684C370.302 520.35 368.241 518.935 366.235 517.436C365.948 517.223 365.665 517.006 365.38 516.791C364.464 516.1 366.037 517.301 366.05 517.309C365.518 516.927 365.005 516.518 364.515 516.084C363.546 515.295 362.592 514.488 361.653 513.662C357.898 510.355 354.391 506.775 351.16 502.953C350.352 501.997 349.56 501.027 348.786 500.042C348.451 499.616 347.84 498.752 349.19 500.571C349.013 500.332 348.828 500.097 348.649 499.859C348.218 499.287 347.793 498.711 347.373 498.131C345.905 496.099 344.509 494.017 343.185 491.885C340.195 487.059 337.585 482.008 335.38 476.777L336.136 478.568C332.527 469.982 330.059 460.959 328.796 451.731L329.063 453.725C327.923 445.219 327.907 436.6 329.015 428.089L328.747 430.083C329.883 421.842 332.1 413.786 335.342 406.124L334.586 407.916C336.625 403.119 339.03 398.487 341.781 394.059C343.158 391.844 344.617 389.682 346.159 387.575C346.509 387.096 346.863 386.62 347.221 386.147C347.545 385.719 348.436 384.653 346.916 386.535C347.065 386.351 347.208 386.161 347.355 385.975C348.201 384.903 349.067 383.848 349.955 382.81C353.312 378.879 356.95 375.196 360.838 371.789C361.821 370.928 362.819 370.085 363.833 369.26C364.293 368.885 364.757 368.514 365.224 368.147C365.41 368 365.599 367.856 365.785 367.709C363.788 369.298 365.23 368.141 365.684 367.801C367.773 366.236 369.918 364.749 372.119 363.34C377.012 360.211 382.158 357.499 387.505 355.232L385.714 355.988C393.474 352.73 427.855 345.039 434.108 345.879L432.114 345.611C441.305 346.894 450.288 349.376 458.834 352.993L457.042 352.237C461.373 354.076 465.582 356.19 469.642 358.566C471.671 359.756 473.661 361.01 475.61 362.329C476.532 362.953 477.445 363.591 478.348 364.244C478.799 364.57 479.248 364.899 479.694 365.233C479.942 365.418 480.188 365.605 480.436 365.791C481.475 366.57 479.004 364.662 480.094 365.524C483.74 368.388 487.202 371.479 490.461 374.777C492.062 376.407 493.608 378.089 495.098 379.822C495.863 380.712 496.611 381.614 497.345 382.53C497.709 382.985 498.95 384.631 497.429 382.614C497.801 383.107 498.177 383.597 498.543 384.093C501.703 388.371 504.51 392.898 506.935 397.631C508.728 401.129 513.922 402.433 517.196 400.322C518.879 399.287 520.098 397.642 520.599 395.731C521.101 393.819 520.845 391.789 519.887 390.061Z" fill="#A9A9A9"/>
<path d="M95.249 450C101.324 450 106.249 445.075 106.249 439C106.249 432.925 101.324 428 95.249 428C89.1739 428 84.249 432.925 84.249 439C84.249 445.075 89.1739 450 95.249 450Z" fill="#A9A9A9"/>
<path d="M227.249 570C233.324 570 238.249 565.075 238.249 559C238.249 552.925 233.324 548 227.249 548C221.174 548 216.249 552.925 216.249 559C216.249 565.075 221.174 570 227.249 570Z" fill="#A9A9A9"/>
<path d="M728.249 570C734.324 570 739.249 565.075 739.249 559C739.249 552.925 734.324 548 728.249 548C722.174 548 717.249 552.925 717.249 559C717.249 565.075 722.174 570 728.249 570Z" fill="#A9A9A9"/>
<path d="M755.249 430C761.324 430 766.249 425.075 766.249 419C766.249 412.925 761.324 408 755.249 408C749.174 408 744.249 412.925 744.249 419C744.249 425.075 749.174 430 755.249 430Z" fill="#A9A9A9"/>
<path d="M723.249 328C729.324 328 734.249 323.075 734.249 317C734.249 310.925 729.324 306 723.249 306C717.174 306 712.249 310.925 712.249 317C712.249 323.075 717.174 328 723.249 328Z" fill="#A9A9A9"/>
<path d="M264.249 419C264.242 421.81 263.155 424.509 261.214 426.54C259.272 428.571 256.624 429.778 253.817 429.911C251.01 430.044 248.26 429.092 246.135 427.254C244.011 425.415 242.674 422.83 242.402 420.034C242.13 417.237 242.944 414.443 244.675 412.23C246.406 410.016 248.921 408.553 251.701 408.143C254.48 407.732 257.311 408.406 259.608 410.025C261.905 411.644 263.491 414.084 264.039 416.84C264.18 417.551 264.25 418.275 264.249 419Z" fill="#A9A9A9"/>
<path d="M484.249 360C490.324 360 495.249 355.075 495.249 349C495.249 342.925 490.324 338 484.249 338C478.174 338 473.249 342.925 473.249 349C473.249 355.075 478.174 360 484.249 360Z" fill="#A9A9A9"/>
<path d="M375.249 349C375.242 351.81 374.155 354.509 372.214 356.54C370.272 358.571 367.624 359.778 364.817 359.911C362.01 360.044 359.26 359.092 357.135 357.254C355.011 355.415 353.674 352.83 353.402 350.034C353.13 347.237 353.944 344.443 355.675 342.23C357.406 340.016 359.921 338.553 362.701 338.143C365.48 337.732 368.312 338.406 370.608 340.025C372.905 341.644 374.491 344.084 375.039 346.84C375.18 347.551 375.25 348.275 375.249 349Z" fill="#A9A9A9"/>
<path d="M233.249 317C233.242 319.81 232.155 322.509 230.214 324.54C228.272 326.571 225.624 327.778 222.817 327.911C220.01 328.044 217.26 327.092 215.135 325.254C213.011 323.415 211.674 320.83 211.402 318.034C211.13 315.237 211.944 312.443 213.675 310.23C215.406 308.016 217.921 306.553 220.701 306.143C223.48 305.732 226.311 306.406 228.608 308.025C230.905 309.644 232.491 312.084 233.039 314.84C233.18 315.551 233.25 316.275 233.249 317Z" fill="#A9A9A9"/>
<path d="M599.249 454C605.324 454 610.249 449.075 610.249 443C610.249 436.925 605.324 432 599.249 432C593.174 432 588.249 436.925 588.249 443C588.249 449.075 593.174 454 599.249 454Z" fill="#A9A9A9"/>
<path d="M426.249 354C435.086 354 442.249 346.837 442.249 338C442.249 329.163 435.086 322 426.249 322C417.412 322 410.249 329.163 410.249 338C410.249 346.837 417.412 354 426.249 354Z" fill="#A9A9A9"/>
<path d="M858.941 570.841L1.19067 571.148C1.03431 571.148 0.879476 571.117 0.735016 571.057C0.590556 570.997 0.459305 570.91 0.34874 570.799C0.238175 570.689 0.150459 570.557 0.0906219 570.413C0.0307847 570.268 0 570.114 0 569.957C0 569.801 0.0307847 569.646 0.0906219 569.502C0.150459 569.357 0.238175 569.226 0.34874 569.115C0.459305 569.005 0.590556 568.917 0.735016 568.857C0.879476 568.797 1.03431 568.767 1.19067 568.767L858.941 568.459C859.256 568.46 859.558 568.586 859.78 568.809C860.003 569.032 860.128 569.335 860.128 569.65C860.128 569.965 860.003 570.267 859.78 570.491C859.558 570.714 859.256 570.84 858.941 570.841Z" fill="#F0F0F0"/>
</g>
<defs>
<clipPath id="clip0_215_113">
<rect width="860.131" height="571.148" fill="white"/>
</clipPath>
</defs>
</svg>
