<svg width="879" height="631" viewBox="0 0 879 631" fill="none" xmlns="http://www.w3.org/2000/svg">
<g clip-path="url(#clip0_225_16)">
<path d="M762 0.36499H117.275V413.275H762V0.36499Z" fill="#E6E6E6"/>
<path d="M743.564 52.1541H135.711V388.847H743.564V52.1541Z" fill="white"/>
<path d="M499.08 232.176H380.193V361.158H499.08V232.176Z" fill="#E6E6E6"/>
<path d="M408.928 265.325L430.65 256.737L433.176 299.676C433.176 299.676 437.722 312.81 436.207 317.862C436.207 317.862 437.217 326.45 434.691 326.955C432.165 327.46 425.091 328.471 424.591 327.965C424.091 327.459 424.086 325.944 424.086 325.944C424.086 325.944 419.034 329.48 418.529 333.521C418.529 333.521 397.312 340.088 396.807 334.026C396.302 327.964 407.415 322.912 407.415 322.912L416.003 309.778L408.928 265.325Z" fill="white"/>
<path d="M454.9 265.325L476.619 256.737L479.145 299.676C479.145 299.676 483.691 312.81 482.176 317.862C482.176 317.862 483.186 326.45 480.66 326.955C478.134 327.46 471.06 328.471 470.56 327.965C470.06 327.459 470.055 325.944 470.055 325.944C470.055 325.944 465.003 329.48 464.498 333.521C464.498 333.521 443.281 340.088 442.776 334.026C442.271 327.964 453.384 322.912 453.384 322.912L461.972 309.778L454.9 265.325Z" fill="white"/>
<path d="M499.08 79.848H380.193V208.83H499.08V79.848Z" fill="#E6E6E6"/>
<path d="M457.022 99.5099C457.022 99.5099 452.397 112.434 457.756 118.262L453.288 133.615C453.288 133.615 469.162 181.237 464.627 187.889C464.627 187.889 447.695 196.355 413.827 184.865L427.584 131.498L425.619 108.972L428.34 98.3889L434.387 97.7889C434.387 97.7889 430.759 111.395 437.411 113.512C444.063 115.629 450.552 98.129 450.552 98.129L457.022 99.5099Z" fill="#3F3D56"/>
<path d="M329.387 79.848H210.5V208.83H329.387V79.848Z" fill="#E6E6E6"/>
<path d="M243.421 182.937L249.258 185.325L277.116 148.712L285.871 191.692L291.708 190.631C295.452 153.576 298.508 115.781 294.759 97.9051L273.136 96.9761L263.32 128.287L258.544 149.512L243.421 182.937Z" fill="white"/>
<path d="M668.772 79.848H549.885V208.83H668.772V79.848Z" fill="#E6E6E6"/>
<path d="M597.678 97.6121C597.678 97.6121 589.712 108.686 590.101 113.155C590.49 117.624 595.541 190.482 595.541 190.482L607.393 191.065L603.893 138.607L606.807 124.424L613.996 190.482L628.568 190.871L615.551 105.19L613.025 97.6131L597.678 97.6121Z" fill="white"/>
<path d="M668.772 232.176H549.885V361.158H668.772V232.176Z" fill="#E6E6E6"/>
<path d="M642.7 276.018C640.585 273.48 636.949 272.108 633.458 271.366C633.558 271.049 622.84 268.834 622.658 269.29L618.617 266.071L606.2 272.518L599.223 267.768L595.982 268.918C596.114 268.346 585.921 270.112 585.921 270.112C583.974 270.182 581.487 270.304 578.703 270.518C568.954 271.268 568.203 296.518 568.203 296.518C572.689 294.683 577.471 293.682 582.316 293.563L584.951 323.763C598.504 322.601 612.718 323.953 627.451 327.263L634.36 303.523L650.449 297.266C650.449 297.266 647.7 282.017 642.7 276.018Z" fill="#3F3D56"/>
<path d="M329.387 232.176H210.5V361.158H329.387V232.176Z" fill="#E6E6E6"/>
<path d="M297.441 261.637C295.698 259.546 292.703 258.415 289.826 257.804C289.912 257.542 281.077 255.718 280.926 256.094L277.596 253.442L267.367 258.754L261.618 254.841L258.948 255.789C259.057 255.318 250.658 256.772 250.658 256.772C249.058 256.83 247.004 256.93 244.711 257.107C236.678 257.725 236.06 278.528 236.06 278.528C239.756 277.016 243.697 276.191 247.689 276.093L249.86 337.007C261.027 336.049 272.739 337.164 284.875 339.891L290.567 284.301L303.824 279.146C303.824 279.146 301.56 266.582 297.441 261.637Z" fill="white"/>
<path d="M761.725 0H117V27.39H761.725V0Z" fill="#F9A826"/>
<path d="M137.355 19.081C140.159 19.081 142.432 16.808 142.432 14.004C142.432 11.2001 140.159 8.927 137.355 8.927C134.551 8.927 132.278 11.2001 132.278 14.004C132.278 16.808 134.551 19.081 137.355 19.081Z" fill="white"/>
<path d="M156.624 19.081C159.428 19.081 161.701 16.808 161.701 14.004C161.701 11.2001 159.428 8.927 156.624 8.927C153.82 8.927 151.547 11.2001 151.547 14.004C151.547 16.808 153.82 19.081 156.624 19.081Z" fill="white"/>
<path d="M175.893 19.081C178.697 19.081 180.97 16.808 180.97 14.004C180.97 11.2001 178.697 8.927 175.893 8.927C173.089 8.927 170.816 11.2001 170.816 14.004C170.816 16.808 173.089 19.081 175.893 19.081Z" fill="white"/>
<path d="M192.135 498.739L193.771 576.476L244.096 603.071L335.744 586.705L337.995 505.899L279.896 485.441L192.135 498.739Z" fill="white"/>
<path d="M243.965 603.91L192.978 576.966L191.316 498.05L279.974 484.617L280.163 484.683L338.815 505.335L336.53 587.381L243.965 603.91ZM194.565 575.986L244.227 602.231L334.96 586.028L337.175 506.462L279.819 486.266L192.953 499.427L194.565 575.986Z" fill="#CACACA"/>
<path d="M242.973 519.816L242.776 519.738L191.838 499.485L192.431 497.992L243.173 518.166L337.885 505.103L338.105 506.695L242.973 519.816Z" fill="#CACACA"/>
<path d="M243.877 518.981L242.27 519.001L243.292 603.08L244.9 603.061L243.877 518.981Z" fill="#CACACA"/>
<path d="M232.088 513.962L218.174 508.348L306.569 494.263L320.482 499.877L232.088 513.962Z" fill="#CACACA"/>
<path d="M192.453 521.289L191.817 522.766L213.113 531.935L213.749 530.459L192.453 521.289Z" fill="#CACACA"/>
<path d="M202.097 547.809L201.461 549.286L222.757 558.455L223.393 556.979L202.097 547.809Z" fill="#F9A826"/>
<path d="M279.563 509.397L281.463 599.638L339.882 630.51L446.271 611.512L448.883 517.709L381.44 493.961L279.563 509.397Z" fill="#F9A826"/>
<path d="M339.729 631.484L280.541 600.206L278.613 508.598L381.53 493.004L381.75 493.081L449.834 517.055L447.182 612.296L339.729 631.484ZM282.383 599.069L340.034 629.535L445.359 610.727L447.931 518.363L381.35 494.918L280.513 510.196L282.383 599.069Z" fill="#3F3D56"/>
<path d="M338.578 533.865L338.35 533.774L279.218 510.264L279.907 508.53L338.81 531.949L448.755 516.785L449.01 518.633L338.578 533.865Z" fill="#3F3D56"/>
<path d="M339.627 532.896L337.762 532.918L338.949 630.521L340.815 630.498L339.627 532.896Z" fill="#3F3D56"/>
<path d="M326.888 527.112L309.79 520.553L412.402 504.202L429.501 510.761L326.888 527.112Z" fill="#3F3D56"/>
<path d="M279.932 535.575L279.194 537.289L303.916 547.933L304.653 546.219L279.932 535.575Z" fill="#3F3D56"/>
<path d="M291.127 566.361L290.389 568.074L315.11 578.718L315.848 577.005L291.127 566.361Z" fill="white"/>
<path d="M679.45 277.851H736.45V247.351C736.45 239.792 733.448 232.543 728.103 227.199C722.758 221.854 715.509 218.851 707.95 218.851C700.392 218.851 693.142 221.854 687.798 227.199C682.453 232.543 679.45 239.792 679.45 247.351V277.851Z" fill="#BA893B"/>
<path d="M654.005 617.195H641.746L635.913 569.903H654.007L654.005 617.195Z" fill="#FFB6B6"/>
<path d="M657.133 613.192H632.988C628.907 613.192 624.994 614.813 622.109 617.698C619.223 620.583 617.602 624.497 617.602 628.577V629.077H657.133V613.192Z" fill="#E6E6E6"/>
<path d="M800.559 600.834L789.883 606.861L761.555 568.55L777.312 559.655L800.559 600.834Z" fill="#FFB6B6"/>
<path d="M801.314 595.811L780.289 607.677C776.736 609.683 774.125 613.019 773.031 616.95C771.937 620.882 772.449 625.087 774.455 628.64L774.701 629.075L809.125 609.642L801.314 595.811Z" fill="#E6E6E6"/>
<path d="M722.205 404.524L723.151 409.254C723.151 409.254 725.989 412.092 724.57 413.511C723.151 414.93 723.624 421.553 723.624 421.553C724.418 433.629 740.197 501.489 743.019 514.742C743.019 514.742 764.779 528.933 781.808 556.842C798.837 584.751 799.308 591.847 799.308 591.847L780.39 599.89L733.09 542.652C733.09 542.652 719.845 534.61 715.114 527.515C710.383 520.42 681.05 447.097 681.05 447.097L664.49 523.73C664.49 523.73 665.436 551.639 661.179 569.615C658.562 580.959 656.979 592.517 656.449 604.147L634.216 601.782C634.216 601.782 635.635 534.61 638 527.514C638 527.514 628.066 445.678 647.934 413.038L663.946 370.351L679.628 364.315L722.205 404.524Z" fill="#564FCC"/>
<path d="M708.244 226.307C678.397 226.817 678.402 271.214 708.244 271.719C738.089 271.209 738.085 226.812 708.244 226.307Z" fill="#FFB8B8"/>
<path d="M685.273 247.835H690.346L691.727 244.381L691.036 247.835H718.781L717.881 240.608L724.625 247.835H731.352V243.919C731.354 240.894 730.761 237.897 729.605 235.102C728.449 232.306 726.754 229.765 724.616 227.624C722.478 225.483 719.94 223.784 717.146 222.625C714.351 221.465 711.356 220.867 708.331 220.865C705.305 220.863 702.309 221.456 699.513 222.612C696.717 223.768 694.176 225.463 692.035 227.601C689.895 229.739 688.196 232.277 687.036 235.071C685.876 237.866 685.278 240.861 685.276 243.886V243.919L685.273 247.835Z" fill="#BA893B"/>
<path d="M677.466 284.977L733.866 285.434L721.95 406.351C721.95 406.351 655.991 402.87 655.95 382.737L662.129 364.846L677.466 284.977Z" fill="#FF8868"/>
<path d="M736.29 418.04C735.423 416.978 734.8 415.739 734.463 414.41C734.127 413.081 734.086 411.695 734.344 410.349C734.601 409.002 735.151 407.729 735.953 406.618C736.756 405.506 737.793 404.585 738.99 403.918L736.539 382.631L749.112 377.986L752.151 408.097C753.132 410.182 753.316 412.555 752.666 414.766C752.017 416.977 750.581 418.874 748.628 420.098C746.675 421.323 744.342 421.789 742.068 421.41C739.795 421.03 737.74 419.832 736.29 418.04Z" fill="#FFB6B6"/>
<path d="M726.45 295.851L733.871 285.478C733.871 285.478 738.95 284.351 744.95 291.351C750.95 298.351 754.45 385.851 754.45 385.851L732.45 390.851L719.45 328.851L726.45 295.851Z" fill="#FF8868"/>
<path d="M630.668 403.593C631.909 403.011 633.007 402.163 633.885 401.111C634.763 400.058 635.399 398.826 635.749 397.5C636.099 396.175 636.155 394.789 635.912 393.441C635.668 392.092 635.132 390.812 634.341 389.693L645.763 371.563L636.439 361.935L620.668 387.764C618.876 389.218 617.68 391.279 617.306 393.556C616.932 395.833 617.406 398.169 618.639 400.12C619.871 402.071 621.776 403.502 623.993 404.142C626.21 404.782 628.585 404.587 630.668 403.594V403.593Z" fill="#FFB6B6"/>
<path d="M686.133 289.743L677.95 284.351C677.95 284.351 671.635 285.767 664.919 298.685C658.203 311.603 631.119 369.357 631.119 369.357L642.252 380.657L671.952 335.348L686.133 289.743Z" fill="#FF8868"/>
<path d="M602.135 390.739L603.771 468.476L654.096 495.071L745.744 478.705L747.995 397.899L689.896 377.441L602.135 390.739Z" fill="#8E8E8E"/>
<path d="M653.965 495.91L602.978 468.966L601.316 390.05L689.974 376.617L690.163 376.683L748.815 397.335L746.53 479.381L653.965 495.91ZM604.565 467.986L654.227 494.231L744.96 478.028L747.175 398.462L689.819 378.266L602.953 391.427L604.565 467.986Z" fill="#F9A826"/>
<path d="M652.973 411.816L652.776 411.738L601.838 391.485L602.431 389.992L653.173 410.166L747.885 397.103L748.105 398.695L652.973 411.816Z" fill="#F9A826"/>
<path d="M653.877 410.981L652.27 411.001L653.293 495.08L654.9 495.061L653.877 410.981Z" fill="#F9A826"/>
<path d="M646.536 407.792L628.174 400.348L716.569 386.263L734.931 393.706L646.536 407.792Z" fill="#F9A826"/>
<path d="M602.453 413.289L601.817 414.766L623.113 423.935L623.749 422.459L602.453 413.289Z" fill="#F9A826"/>
<path d="M612.097 439.809L611.461 441.286L632.757 450.455L633.393 448.979L612.097 439.809Z" fill="#F9A826"/>
</g>
<defs>
<clipPath id="clip0_225_16">
<rect width="879" height="631" fill="white"/>
</clipPath>
</defs>
</svg>
