<svg width="356" height="150" viewBox="0 0 356 150" fill="none" xmlns="http://www.w3.org/2000/svg">
<g clip-path="url(#clip0_221_533)">
<g opacity="0.3">
<mask id="path-1-outside-1_221_533" maskUnits="userSpaceOnUse" x="-1" y="26" width="756" height="100" fill="black">
<rect fill="white" x="-1" y="26" width="756" height="100"/>
<path d="M84.2521 60.3544H66.9865C66.4941 57.523 65.5862 55.0147 64.2628 52.8295C62.9394 50.6136 61.2929 48.7363 59.3232 47.1974C57.3535 45.6586 55.1068 44.5045 52.5831 43.7351C50.0902 42.9349 47.3973 42.5348 44.5043 42.5348C39.3646 42.5348 34.8097 43.8274 30.8395 46.4126C26.8693 48.9671 23.7609 52.7218 21.5142 57.6768C19.2675 62.6011 18.1442 68.6179 18.1442 75.7273C18.1442 82.9598 19.2675 89.0535 21.5142 94.0085C23.7917 98.9328 26.9001 102.657 30.8395 105.18C34.8097 107.673 39.3492 108.92 44.4581 108.92C47.2895 108.92 49.9363 108.55 52.3984 107.812C54.8913 107.042 57.1226 105.919 59.0923 104.442C61.0928 102.964 62.7701 101.149 64.1243 98.9943C65.5092 96.84 66.4633 94.3778 66.9865 91.608L84.2521 91.7003C83.6058 96.1937 82.2055 100.41 80.0511 104.349C77.9276 108.289 75.1423 111.767 71.6953 114.783C68.2483 117.768 64.2166 120.107 59.6001 121.8C54.9837 123.462 49.8594 124.293 44.2273 124.293C35.9176 124.293 28.5005 122.369 21.9759 118.522C15.4512 114.675 10.3116 109.12 6.55682 101.857C2.80208 94.5933 0.924716 85.8835 0.924716 75.7273C0.924716 65.5402 2.81747 56.8305 6.60298 49.598C10.3885 42.3348 15.5436 36.7796 22.0682 32.9325C28.5928 29.0855 35.9792 27.1619 44.2273 27.1619C49.4901 27.1619 54.3835 27.9006 58.9077 29.3778C63.4318 30.8551 67.4635 33.0249 71.0028 35.8871C74.5421 38.7185 77.4505 42.1963 79.728 46.3203C82.0362 50.4136 83.5443 55.0916 84.2521 60.3544ZM176.618 75.7273C176.618 85.9143 174.71 94.6394 170.894 101.903C167.108 109.135 161.938 114.675 155.382 118.522C148.858 122.369 141.456 124.293 133.177 124.293C124.898 124.293 117.481 122.369 110.926 118.522C104.401 114.644 99.2306 109.089 95.4143 101.857C91.6288 94.5933 89.736 85.8835 89.736 75.7273C89.736 65.5402 91.6288 56.8305 95.4143 49.598C99.2306 42.3348 104.401 36.7796 110.926 32.9325C117.481 29.0855 124.898 27.1619 133.177 27.1619C141.456 27.1619 148.858 29.0855 155.382 32.9325C161.938 36.7796 167.108 42.3348 170.894 49.598C174.71 56.8305 176.618 65.5402 176.618 75.7273ZM159.399 75.7273C159.399 68.5563 158.275 62.5088 156.029 57.5845C153.813 52.6295 150.735 48.8902 146.796 46.3665C142.856 43.812 138.317 42.5348 133.177 42.5348C128.037 42.5348 123.498 43.812 119.558 46.3665C115.619 48.8902 112.526 52.6295 110.279 57.5845C108.063 62.5088 106.956 68.5563 106.956 75.7273C106.956 82.8982 108.063 88.9612 110.279 93.9162C112.526 98.8404 115.619 102.58 119.558 105.134C123.498 107.658 128.037 108.92 133.177 108.92C138.317 108.92 142.856 107.658 146.796 105.134C150.735 102.58 153.813 98.8404 156.029 93.9162C158.275 88.9612 159.399 82.8982 159.399 75.7273ZM185.01 123V28.4545H202.138V108.643H243.778V123H185.01ZM250.843 123V28.4545H267.97V108.643H309.611V123H250.843ZM316.676 123V28.4545H378.168V42.8118H333.803V68.4794H374.982V82.8366H333.803V108.643H378.537V123H316.676ZM468.768 60.3544H451.502C451.01 57.523 450.102 55.0147 448.778 52.8295C447.455 50.6136 445.808 48.7363 443.839 47.1974C441.869 45.6586 439.622 44.5045 437.099 43.7351C434.606 42.9349 431.913 42.5348 429.02 42.5348C423.88 42.5348 419.325 43.8274 415.355 46.4126C411.385 48.9671 408.277 52.7218 406.03 57.6768C403.783 62.6011 402.66 68.6179 402.66 75.7273C402.66 82.9598 403.783 89.0535 406.03 94.0085C408.307 98.9328 411.416 102.657 415.355 105.18C419.325 107.673 423.865 108.92 428.974 108.92C431.805 108.92 434.452 108.55 436.914 107.812C439.407 107.042 441.638 105.919 443.608 104.442C445.608 102.964 447.286 101.149 448.64 98.9943C450.025 96.84 450.979 94.3778 451.502 91.608L468.768 91.7003C468.121 96.1937 466.721 100.41 464.567 104.349C462.443 108.289 459.658 111.767 456.211 114.783C452.764 117.768 448.732 120.107 444.116 121.8C439.499 123.462 434.375 124.293 428.743 124.293C420.433 124.293 413.016 122.369 406.491 118.522C399.967 114.675 394.827 109.12 391.072 101.857C387.318 94.5933 385.44 85.8835 385.44 75.7273C385.44 65.5402 387.333 56.8305 391.119 49.598C394.904 42.3348 400.059 36.7796 406.584 32.9325C413.108 29.0855 420.495 27.1619 428.743 27.1619C434.006 27.1619 438.899 27.9006 443.423 29.3778C447.947 30.8551 451.979 33.0249 455.518 35.8871C459.058 38.7185 461.966 42.1963 464.244 46.3203C466.552 50.4136 468.06 55.0916 468.768 60.3544ZM472.497 42.8118V28.4545H547.931V42.8118H518.708V123H501.72V42.8118H472.497ZM571.8 28.4545V123H554.673V28.4545H571.8ZM667.028 75.7273C667.028 85.9143 665.12 94.6394 661.303 101.903C657.518 109.135 652.347 114.675 645.792 118.522C639.267 122.369 631.866 124.293 623.587 124.293C615.308 124.293 607.891 122.369 601.335 118.522C594.811 114.644 589.64 109.089 585.824 101.857C582.039 94.5933 580.146 85.8835 580.146 75.7273C580.146 65.5402 582.039 56.8305 585.824 49.598C589.64 42.3348 594.811 36.7796 601.335 32.9325C607.891 29.0855 615.308 27.1619 623.587 27.1619C631.866 27.1619 639.267 29.0855 645.792 32.9325C652.347 36.7796 657.518 42.3348 661.303 49.598C665.12 56.8305 667.028 65.5402 667.028 75.7273ZM649.808 75.7273C649.808 68.5563 648.685 62.5088 646.438 57.5845C644.222 52.6295 641.145 48.8902 637.205 46.3665C633.266 43.812 628.727 42.5348 623.587 42.5348C618.447 42.5348 613.908 43.812 609.968 46.3665C606.029 48.8902 602.936 52.6295 600.689 57.5845C598.473 62.5088 597.365 68.5563 597.365 75.7273C597.365 82.8982 598.473 88.9612 600.689 93.9162C602.936 98.8404 606.029 102.58 609.968 105.134C613.908 107.658 618.447 108.92 623.587 108.92C628.727 108.92 633.266 107.658 637.205 105.134C641.145 102.58 644.222 98.8404 646.438 93.9162C648.685 88.9612 649.808 82.8982 649.808 75.7273ZM753.116 28.4545V123H737.881L693.332 58.6001H692.547V123H675.42V28.4545H690.747L735.25 92.9006H736.081V28.4545H753.116Z"/>
</mask>
<path d="M84.2521 60.3544V61.3544H85.3956L85.2432 60.2211L84.2521 60.3544ZM66.9865 60.3544L66.0013 60.5257L66.1454 61.3544H66.9865V60.3544ZM64.2628 52.8295L63.4042 53.3423L63.4074 53.3476L64.2628 52.8295ZM59.3232 47.1974L59.9388 46.4094L59.9388 46.4094L59.3232 47.1974ZM52.5831 43.7351L52.2775 44.6872L52.2845 44.6895L52.2915 44.6916L52.5831 43.7351ZM30.8395 46.4126L31.3806 47.2536L31.3852 47.2506L30.8395 46.4126ZM21.5142 57.6768L22.424 58.0919L22.425 58.0898L21.5142 57.6768ZM21.5142 94.0085L20.6034 94.4215L20.6066 94.4283L21.5142 94.0085ZM30.8395 105.18L30.3 106.022L30.3077 106.027L30.8395 105.18ZM52.3984 107.812L52.6858 108.77L52.6934 108.767L52.3984 107.812ZM59.0923 104.442L58.4983 103.637L58.4923 103.642L59.0923 104.442ZM64.1243 98.9943L63.2831 98.4535L63.2777 98.4621L64.1243 98.9943ZM66.9865 91.608L66.9919 90.608L66.1586 90.6035L66.0039 91.4223L66.9865 91.608ZM84.2521 91.7003L85.2419 91.8427L85.4054 90.7064L84.2575 90.7003L84.2521 91.7003ZM80.0511 104.349L79.1737 103.87L79.1709 103.875L80.0511 104.349ZM71.6953 114.783L72.35 115.539L72.3538 115.535L71.6953 114.783ZM59.6001 121.8L59.9389 122.741L59.9444 122.739L59.6001 121.8ZM21.9759 118.522L22.4838 117.661L22.4838 117.661L21.9759 118.522ZM6.55682 101.857L5.6685 102.316L5.6685 102.316L6.55682 101.857ZM6.60298 49.598L7.48896 50.0617L7.48977 50.0602L6.60298 49.598ZM22.0682 32.9325L21.5603 32.0711L21.5603 32.0711L22.0682 32.9325ZM58.9077 29.3778L59.2181 28.4272L59.2181 28.4272L58.9077 29.3778ZM71.0028 35.8871L70.374 36.6646L70.3781 36.6679L71.0028 35.8871ZM79.728 46.3203L78.8526 46.8038L78.8569 46.8115L79.728 46.3203ZM84.2521 59.3544H66.9865V61.3544H84.2521V59.3544ZM67.9717 60.1831C67.4606 57.2442 66.5136 54.6156 65.1181 52.3115L63.4074 53.3476C64.6588 55.4138 65.5276 57.8017 66.0013 60.5257L67.9717 60.1831ZM65.1213 52.3168C63.7368 49.9984 62.0089 48.0267 59.9388 46.4094L58.7075 47.9855C60.5768 49.4458 62.142 51.2288 63.4042 53.3423L65.1213 52.3168ZM59.9388 46.4094C57.8671 44.7909 55.5092 43.5818 52.8747 42.7786L52.2915 44.6916C54.7043 45.4272 56.8399 46.5264 58.7075 47.9855L59.9388 46.4094ZM52.8887 42.7829C50.2873 41.9479 47.4902 41.5348 44.5043 41.5348V43.5348C47.3043 43.5348 49.8931 43.9219 52.2775 44.6872L52.8887 42.7829ZM44.5043 41.5348C39.188 41.5348 34.4401 42.8747 30.2938 45.5746L31.3852 47.2506C35.1792 44.7801 39.5412 43.5348 44.5043 43.5348V41.5348ZM30.2984 45.5717C26.1429 48.2454 22.9172 52.161 20.6035 57.2639L22.425 58.0898C24.6046 53.2827 27.5958 49.6888 31.3806 47.2536L30.2984 45.5717ZM20.6044 57.2618C18.2827 62.3504 17.1442 68.5176 17.1442 75.7273H19.1442C19.1442 68.7182 20.2523 62.8518 22.424 58.0919L20.6044 57.2618ZM17.1442 75.7273C17.1442 83.0576 18.282 89.3015 20.6035 94.4215L22.425 93.5956C20.2531 88.8055 19.1442 82.8619 19.1442 75.7273H17.1442ZM20.6066 94.4283C22.951 99.4973 26.1759 103.38 30.3001 106.022L31.3789 104.338C27.6243 101.933 24.6323 98.3682 22.4218 93.5887L20.6066 94.4283ZM30.3077 106.027C34.4514 108.629 39.1786 109.92 44.4581 109.92V107.92C39.5198 107.92 35.1679 106.717 31.3713 104.334L30.3077 106.027ZM44.4581 109.92C47.3771 109.92 50.1215 109.539 52.6858 108.77L52.1111 106.854C49.7511 107.562 47.202 107.92 44.4581 107.92V109.92ZM52.6934 108.767C55.2895 107.966 57.6253 106.792 59.6923 105.242L58.4923 103.642C56.62 105.046 54.4931 106.119 52.1035 106.856L52.6934 108.767ZM59.6864 105.246C61.7897 103.693 63.5519 101.784 64.9709 99.5265L63.2777 98.4621C61.9884 100.513 60.3959 102.236 58.4983 103.637L59.6864 105.246ZM64.9655 99.5351C66.4267 97.2621 67.4245 94.6771 67.9691 91.7936L66.0039 91.4223C65.5021 94.0786 64.5918 96.4178 63.2831 98.4536L64.9655 99.5351ZM66.9812 92.6079L84.2468 92.7003L84.2575 90.7003L66.9919 90.608L66.9812 92.6079ZM83.2623 91.5579C82.6328 95.9343 81.2701 100.036 79.1738 103.87L80.9285 104.829C83.1409 100.784 84.5788 96.453 85.2419 91.8427L83.2623 91.5579ZM79.1709 103.875C77.1054 107.707 74.396 111.091 71.0368 114.03L72.3538 115.535C75.8886 112.442 78.7498 108.871 80.9314 104.824L79.1709 103.875ZM71.0406 114.027C67.6921 116.927 63.7676 119.207 59.2559 120.861L59.9444 122.739C64.6656 121.007 68.8045 118.609 72.35 115.539L71.0406 114.027ZM59.2614 120.859C54.7684 122.476 49.7607 123.293 44.2273 123.293V125.293C49.958 125.293 55.199 124.447 59.9389 122.741L59.2614 120.859ZM44.2273 123.293C36.0784 123.293 28.8398 121.408 22.4838 117.661L21.4679 119.383C28.1611 123.33 35.7568 125.293 44.2273 125.293V123.293ZM22.4838 117.661C16.1342 113.917 11.1206 108.507 7.44514 101.397L5.6685 102.316C9.50251 109.732 14.7683 115.433 21.4679 119.383L22.4838 117.661ZM7.44514 101.397C3.77944 94.3063 1.92472 85.7617 1.92472 75.7273H-0.0752839C-0.0752839 86.0053 1.82473 94.8803 5.6685 102.316L7.44514 101.397ZM1.92472 75.7273C1.92472 65.6625 3.79466 57.12 7.48896 50.0617L5.717 49.1343C1.84029 56.541 -0.0752839 65.418 -0.0752839 75.7273H1.92472ZM7.48977 50.0602C11.1961 42.9488 16.2257 37.5383 22.5761 33.7939L21.5603 32.0711C14.8614 36.0209 9.58086 41.7207 5.7162 49.1358L7.48977 50.0602ZM22.5761 33.7939C28.9333 30.0456 36.1414 28.1619 44.2273 28.1619V26.1619C35.8169 26.1619 28.2523 28.1253 21.5603 32.0711L22.5761 33.7939ZM44.2273 28.1619C49.3957 28.1619 54.1833 28.8872 58.5973 30.3284L59.2181 28.4272C54.5837 26.914 49.5844 26.1619 44.2273 26.1619V28.1619ZM58.5973 30.3284C63.011 31.7697 66.9337 33.8825 70.374 36.6646L71.6317 35.1095C67.9934 32.1672 63.8527 29.9406 59.2181 28.4272L58.5973 30.3284ZM70.3781 36.6679C73.8112 39.4144 76.6359 42.7897 78.8526 46.8037L80.6034 45.8369C78.2652 41.6028 75.2731 38.0226 71.6275 35.1062L70.3781 36.6679ZM78.8569 46.8115C81.0952 50.7807 82.5679 55.3345 83.2611 60.4877L85.2432 60.2211C84.5206 54.8487 82.9772 50.0464 80.599 45.8291L78.8569 46.8115ZM170.894 101.903L170.008 101.438L170.008 101.439L170.894 101.903ZM155.382 118.522L154.876 117.66L154.874 117.661L155.382 118.522ZM110.926 118.522L110.415 119.382L110.42 119.384L110.926 118.522ZM95.4143 101.857L94.5275 102.319L94.5299 102.323L95.4143 101.857ZM95.4143 49.598L94.5291 49.1329L94.5283 49.1343L95.4143 49.598ZM110.926 32.9325L110.42 32.0701L110.418 32.0711L110.926 32.9325ZM155.382 32.9325L154.874 33.7939L154.876 33.795L155.382 32.9325ZM170.894 49.598L170.007 50.0602L170.009 50.0647L170.894 49.598ZM156.029 57.5845L155.116 57.9928L155.119 57.9996L156.029 57.5845ZM146.796 46.3665L146.252 47.2055L146.256 47.2085L146.796 46.3665ZM119.558 46.3665L120.098 47.2085L120.103 47.2055L119.558 46.3665ZM110.279 57.5845L109.369 57.1716L109.367 57.1741L110.279 57.5845ZM110.279 93.9162L109.366 94.3244L109.37 94.3313L110.279 93.9162ZM119.558 105.134L119.014 105.973L119.019 105.976L119.558 105.134ZM146.796 105.134L147.335 105.976L147.34 105.973L146.796 105.134ZM156.029 93.9162L155.118 93.5032L155.117 93.5058L156.029 93.9162ZM175.618 75.7273C175.618 85.7907 173.733 94.3483 170.008 101.438L171.779 102.368C175.687 94.9305 177.618 86.0379 177.618 75.7273H175.618ZM170.008 101.439C166.302 108.518 161.258 113.914 154.876 117.66L155.888 119.384C162.617 115.436 167.914 109.752 171.78 102.366L170.008 101.439ZM154.874 117.661C148.518 121.409 141.294 123.293 133.177 123.293V125.293C141.617 125.293 149.198 123.33 155.89 119.383L154.874 117.661ZM133.177 123.293C125.06 123.293 117.82 121.409 111.432 117.66L110.42 119.384C117.142 123.33 124.737 125.293 133.177 125.293V123.293ZM111.437 117.662C105.083 113.886 100.036 108.473 96.2987 101.39L94.5299 102.323C98.4252 109.705 103.72 115.402 110.415 119.382L111.437 117.662ZM96.3011 101.394C92.6057 94.304 90.736 85.7605 90.736 75.7273H88.736C88.736 86.0065 90.6519 94.8825 94.5275 102.319L96.3011 101.394ZM90.736 75.7273C90.736 65.6625 92.606 57.12 96.3003 50.0617L94.5283 49.1343C90.6516 56.541 88.736 65.418 88.736 75.7273H90.736ZM96.2996 50.0631C100.037 42.9503 105.082 37.5387 111.434 33.7939L110.418 32.0711C103.72 36.0205 98.4244 41.7192 94.5291 49.1329L96.2996 50.0631ZM111.432 33.795C117.82 30.0459 125.06 28.1619 133.177 28.1619V26.1619C124.737 26.1619 117.142 28.125 110.42 32.0701L111.432 33.795ZM133.177 28.1619C141.294 28.1619 148.518 30.0459 154.874 33.7939L155.89 32.0711C149.198 28.125 141.617 26.1619 133.177 26.1619V28.1619ZM154.876 33.795C161.257 37.5396 166.301 42.95 170.007 50.0602L171.78 49.1358C167.915 41.7195 162.618 36.0196 155.888 32.0701L154.876 33.795ZM170.009 50.0647C173.733 57.1222 175.618 65.6636 175.618 75.7273H177.618C177.618 65.4168 175.687 56.5388 171.778 49.1313L170.009 50.0647ZM160.399 75.7273C160.399 68.4574 159.261 62.259 156.938 57.1694L155.119 57.9996C157.29 62.7585 158.399 68.6553 158.399 75.7273H160.399ZM156.942 57.1763C154.659 52.0725 151.464 48.1692 147.335 45.5244L146.256 47.2085C150.007 49.6111 152.966 53.1865 155.116 57.9928L156.942 57.1763ZM147.34 45.5274C143.223 42.858 138.491 41.5348 133.177 41.5348V43.5348C138.143 43.5348 142.49 44.766 146.252 47.2055L147.34 45.5274ZM133.177 41.5348C127.863 41.5348 123.131 42.858 119.014 45.5274L120.103 47.2055C123.865 44.766 128.211 43.5348 133.177 43.5348V41.5348ZM119.019 45.5244C114.892 48.1684 111.682 52.0699 109.369 57.1716L111.19 57.9975C113.37 53.1891 116.346 49.6119 120.098 47.2085L119.019 45.5244ZM109.367 57.1741C107.078 62.2624 105.956 68.459 105.956 75.7273H107.956C107.956 68.6537 109.049 62.7552 111.191 57.9949L109.367 57.1741ZM105.956 75.7273C105.956 82.9959 107.078 89.2068 109.366 94.3244L111.192 93.508C109.049 88.7156 107.956 82.8005 107.956 75.7273H105.956ZM109.37 94.3313C111.683 99.4017 114.892 103.3 119.014 105.973L120.103 104.295C116.346 101.859 113.369 98.2792 111.189 93.5011L109.37 94.3313ZM119.019 105.976C123.135 108.613 127.866 109.92 133.177 109.92V107.92C128.209 107.92 123.861 106.703 120.098 104.292L119.019 105.976ZM133.177 109.92C138.488 109.92 143.219 108.613 147.335 105.976L146.256 104.292C142.494 106.703 138.145 107.92 133.177 107.92V109.92ZM147.34 105.973C151.464 103.299 154.658 99.3991 156.941 94.3266L155.117 93.5058C152.968 98.2818 150.007 101.86 146.252 104.295L147.34 105.973ZM156.939 94.3291C159.26 89.2101 160.399 82.9974 160.399 75.7273H158.399C158.399 82.799 157.29 88.7122 155.118 93.5032L156.939 94.3291ZM185.01 123H184.01V124H185.01V123ZM185.01 28.4545V27.4545H184.01V28.4545H185.01ZM202.138 28.4545H203.138V27.4545H202.138V28.4545ZM202.138 108.643H201.138V109.643H202.138V108.643ZM243.778 108.643H244.778V107.643H243.778V108.643ZM243.778 123V124H244.778V123H243.778ZM186.01 123V28.4545H184.01V123H186.01ZM185.01 29.4545H202.138V27.4545H185.01V29.4545ZM201.138 28.4545V108.643H203.138V28.4545H201.138ZM202.138 109.643H243.778V107.643H202.138V109.643ZM242.778 108.643V123H244.778V108.643H242.778ZM243.778 122H185.01V124H243.778V122ZM250.843 123H249.843V124H250.843V123ZM250.843 28.4545V27.4545H249.843V28.4545H250.843ZM267.97 28.4545H268.97V27.4545H267.97V28.4545ZM267.97 108.643H266.97V109.643H267.97V108.643ZM309.611 108.643H310.611V107.643H309.611V108.643ZM309.611 123V124H310.611V123H309.611ZM251.843 123V28.4545H249.843V123H251.843ZM250.843 29.4545H267.97V27.4545H250.843V29.4545ZM266.97 28.4545V108.643H268.97V28.4545H266.97ZM267.97 109.643H309.611V107.643H267.97V109.643ZM308.611 108.643V123H310.611V108.643H308.611ZM309.611 122H250.843V124H309.611V122ZM316.676 123H315.676V124H316.676V123ZM316.676 28.4545V27.4545H315.676V28.4545H316.676ZM378.168 28.4545H379.168V27.4545H378.168V28.4545ZM378.168 42.8118V43.8118H379.168V42.8118H378.168ZM333.803 42.8118V41.8118H332.803V42.8118H333.803ZM333.803 68.4794H332.803V69.4794H333.803V68.4794ZM374.982 68.4794H375.982V67.4794H374.982V68.4794ZM374.982 82.8366V83.8366H375.982V82.8366H374.982ZM333.803 82.8366V81.8366H332.803V82.8366H333.803ZM333.803 108.643H332.803V109.643H333.803V108.643ZM378.537 108.643H379.537V107.643H378.537V108.643ZM378.537 123V124H379.537V123H378.537ZM317.676 123V28.4545H315.676V123H317.676ZM316.676 29.4545H378.168V27.4545H316.676V29.4545ZM377.168 28.4545V42.8118H379.168V28.4545H377.168ZM378.168 41.8118H333.803V43.8118H378.168V41.8118ZM332.803 42.8118V68.4794H334.803V42.8118H332.803ZM333.803 69.4794H374.982V67.4794H333.803V69.4794ZM373.982 68.4794V82.8366H375.982V68.4794H373.982ZM374.982 81.8366H333.803V83.8366H374.982V81.8366ZM332.803 82.8366V108.643H334.803V82.8366H332.803ZM333.803 109.643H378.537V107.643H333.803V109.643ZM377.537 108.643V123H379.537V108.643H377.537ZM378.537 122H316.676V124H378.537V122ZM468.768 60.3544V61.3544H469.911L469.759 60.2211L468.768 60.3544ZM451.502 60.3544L450.517 60.5257L450.661 61.3544H451.502V60.3544ZM448.778 52.8295L447.92 53.3423L447.923 53.3476L448.778 52.8295ZM443.839 47.1974L444.454 46.4094L444.454 46.4094L443.839 47.1974ZM437.099 43.7351L436.793 44.6872L436.8 44.6895L436.807 44.6916L437.099 43.7351ZM415.355 46.4126L415.896 47.2536L415.901 47.2506L415.355 46.4126ZM406.03 57.6768L406.94 58.0919L406.941 58.0898L406.03 57.6768ZM406.03 94.0085L405.119 94.4215L405.122 94.4283L406.03 94.0085ZM415.355 105.18L414.816 106.022L414.823 106.027L415.355 105.18ZM436.914 107.812L437.201 108.77L437.209 108.767L436.914 107.812ZM443.608 104.442L443.014 103.637L443.008 103.642L443.608 104.442ZM448.64 98.9943L447.799 98.4535L447.793 98.4621L448.64 98.9943ZM451.502 91.608L451.507 90.608L450.674 90.6035L450.52 91.4223L451.502 91.608ZM468.768 91.7003L469.758 91.8427L469.921 90.7064L468.773 90.7003L468.768 91.7003ZM464.567 104.349L463.689 103.87L463.687 103.875L464.567 104.349ZM456.211 114.783L456.866 115.539L456.869 115.535L456.211 114.783ZM444.116 121.8L444.454 122.741L444.46 122.739L444.116 121.8ZM406.491 118.522L406.999 117.661L406.999 117.661L406.491 118.522ZM391.072 101.857L390.184 102.316L390.184 102.316L391.072 101.857ZM391.119 49.598L392.005 50.0617L392.005 50.0602L391.119 49.598ZM406.584 32.9325L406.076 32.0711L406.076 32.0711L406.584 32.9325ZM443.423 29.3778L443.734 28.4272L443.734 28.4272L443.423 29.3778ZM455.518 35.8871L454.89 36.6646L454.894 36.6679L455.518 35.8871ZM464.244 46.3203L463.368 46.8038L463.373 46.8115L464.244 46.3203ZM468.768 59.3544H451.502V61.3544H468.768V59.3544ZM452.487 60.1831C451.976 57.2442 451.029 54.6156 449.634 52.3115L447.923 53.3476C449.174 55.4138 450.043 57.8017 450.517 60.5257L452.487 60.1831ZM449.637 52.3168C448.252 49.9984 446.525 48.0267 444.454 46.4094L443.223 47.9855C445.092 49.4458 446.658 51.2288 447.92 53.3423L449.637 52.3168ZM444.454 46.4094C442.383 44.7909 440.025 43.5818 437.39 42.7786L436.807 44.6916C439.22 45.4272 441.355 46.5264 443.223 47.9855L444.454 46.4094ZM437.404 42.7829C434.803 41.9479 432.006 41.5348 429.02 41.5348V43.5348C431.82 43.5348 434.409 43.9219 436.793 44.6872L437.404 42.7829ZM429.02 41.5348C423.704 41.5348 418.956 42.8747 414.809 45.5746L415.901 47.2506C419.695 44.7801 424.057 43.5348 429.02 43.5348V41.5348ZM414.814 45.5717C410.658 48.2454 407.433 52.161 405.119 57.2639L406.941 58.0898C409.12 53.2827 412.111 49.6888 415.896 47.2536L414.814 45.5717ZM405.12 57.2618C402.798 62.3504 401.66 68.5176 401.66 75.7273H403.66C403.66 68.7182 404.768 62.8518 406.94 58.0919L405.12 57.2618ZM401.66 75.7273C401.66 83.0576 402.798 89.3015 405.119 94.4215L406.941 93.5956C404.769 88.8055 403.66 82.8619 403.66 75.7273H401.66ZM405.122 94.4283C407.467 99.4973 410.692 103.38 414.816 106.022L415.895 104.338C412.14 101.933 409.148 98.3682 406.937 93.5887L405.122 94.4283ZM414.823 106.027C418.967 108.629 423.694 109.92 428.974 109.92V107.92C424.035 107.92 419.684 106.717 415.887 104.334L414.823 106.027ZM428.974 109.92C431.893 109.92 434.637 109.539 437.201 108.77L436.627 106.854C434.267 107.562 431.718 107.92 428.974 107.92V109.92ZM437.209 108.767C439.805 107.966 442.141 106.792 444.208 105.242L443.008 103.642C441.136 105.046 439.009 106.119 436.619 106.856L437.209 108.767ZM444.202 105.246C446.305 103.693 448.068 101.784 449.487 99.5265L447.793 98.4621C446.504 100.513 444.912 102.236 443.014 103.637L444.202 105.246ZM449.481 99.5351C450.942 97.2621 451.94 94.6771 452.485 91.7936L450.52 91.4223C450.018 94.0786 449.107 96.4178 447.799 98.4536L449.481 99.5351ZM451.497 92.6079L468.762 92.7003L468.773 90.7003L451.507 90.608L451.497 92.6079ZM467.778 91.5579C467.148 95.9343 465.786 100.036 463.689 103.87L465.444 104.829C467.656 100.784 469.094 96.453 469.758 91.8427L467.778 91.5579ZM463.687 103.875C461.621 107.707 458.912 111.091 455.552 114.03L456.869 115.535C460.404 112.442 463.265 108.871 465.447 104.824L463.687 103.875ZM455.556 114.027C452.208 116.927 448.283 119.207 443.772 120.861L444.46 122.739C449.181 121.007 453.32 118.609 456.866 115.539L455.556 114.027ZM443.777 120.859C439.284 122.476 434.276 123.293 428.743 123.293V125.293C434.474 125.293 439.715 124.447 444.454 122.741L443.777 120.859ZM428.743 123.293C420.594 123.293 413.355 121.408 406.999 117.661L405.984 119.383C412.677 123.33 420.272 125.293 428.743 125.293V123.293ZM406.999 117.661C400.65 113.917 395.636 108.507 391.961 101.397L390.184 102.316C394.018 109.732 399.284 115.433 405.984 119.383L406.999 117.661ZM391.961 101.397C388.295 94.3063 386.44 85.7617 386.44 75.7273H384.44C384.44 86.0053 386.34 94.8803 390.184 102.316L391.961 101.397ZM386.44 75.7273C386.44 65.6625 388.31 57.12 392.005 50.0617L390.233 49.1343C386.356 56.541 384.44 65.418 384.44 75.7273H386.44ZM392.005 50.0602C395.712 42.9488 400.741 37.5383 407.092 33.7939L406.076 32.0711C399.377 36.0209 394.096 41.7207 390.232 49.1358L392.005 50.0602ZM407.092 33.7939C413.449 30.0456 420.657 28.1619 428.743 28.1619V26.1619C420.333 26.1619 412.768 28.1253 406.076 32.0711L407.092 33.7939ZM428.743 28.1619C433.911 28.1619 438.699 28.8872 443.113 30.3284L443.734 28.4272C439.099 26.914 434.1 26.1619 428.743 26.1619V28.1619ZM443.113 30.3284C447.527 31.7697 451.449 33.8825 454.89 36.6646L456.147 35.1095C452.509 32.1672 448.368 29.9406 443.734 28.4272L443.113 30.3284ZM454.894 36.6679C458.327 39.4144 461.152 42.7897 463.368 46.8037L465.119 45.8369C462.781 41.6028 459.789 38.0226 456.143 35.1062L454.894 36.6679ZM463.373 46.8115C465.611 50.7807 467.084 55.3345 467.777 60.4877L469.759 60.2211C469.036 54.8487 467.493 50.0464 465.115 45.8291L463.373 46.8115ZM472.497 42.8118H471.497V43.8118H472.497V42.8118ZM472.497 28.4545V27.4545H471.497V28.4545H472.497ZM547.931 28.4545H548.931V27.4545H547.931V28.4545ZM547.931 42.8118V43.8118H548.931V42.8118H547.931ZM518.708 42.8118V41.8118H517.708V42.8118H518.708ZM518.708 123V124H519.708V123H518.708ZM501.72 123H500.72V124H501.72V123ZM501.72 42.8118H502.72V41.8118H501.72V42.8118ZM473.497 42.8118V28.4545H471.497V42.8118H473.497ZM472.497 29.4545H547.931V27.4545H472.497V29.4545ZM546.931 28.4545V42.8118H548.931V28.4545H546.931ZM547.931 41.8118H518.708V43.8118H547.931V41.8118ZM517.708 42.8118V123H519.708V42.8118H517.708ZM518.708 122H501.72V124H518.708V122ZM502.72 123V42.8118H500.72V123H502.72ZM501.72 41.8118H472.497V43.8118H501.72V41.8118ZM571.8 28.4545H572.8V27.4545H571.8V28.4545ZM571.8 123V124H572.8V123H571.8ZM554.673 123H553.673V124H554.673V123ZM554.673 28.4545V27.4545H553.673V28.4545H554.673ZM570.8 28.4545V123H572.8V28.4545H570.8ZM571.8 122H554.673V124H571.8V122ZM555.673 123V28.4545H553.673V123H555.673ZM554.673 29.4545H571.8V27.4545H554.673V29.4545ZM661.303 101.903L660.418 101.438L660.417 101.439L661.303 101.903ZM645.792 118.522L645.286 117.66L645.284 117.661L645.792 118.522ZM601.335 118.522L600.824 119.382L600.829 119.384L601.335 118.522ZM585.824 101.857L584.937 102.319L584.94 102.323L585.824 101.857ZM585.824 49.598L584.939 49.1329L584.938 49.1343L585.824 49.598ZM601.335 32.9325L600.829 32.0701L600.828 32.0711L601.335 32.9325ZM645.792 32.9325L645.284 33.7939L645.286 33.795L645.792 32.9325ZM661.303 49.598L660.417 50.0602L660.419 50.0647L661.303 49.598ZM646.438 57.5845L645.526 57.9928L645.529 57.9996L646.438 57.5845ZM637.205 46.3665L636.661 47.2055L636.666 47.2085L637.205 46.3665ZM609.968 46.3665L610.508 47.2085L610.512 47.2055L609.968 46.3665ZM600.689 57.5845L599.778 57.1716L599.777 57.1741L600.689 57.5845ZM600.689 93.9162L599.776 94.3244L599.779 94.3313L600.689 93.9162ZM609.968 105.134L609.424 105.973L609.429 105.976L609.968 105.134ZM637.205 105.134L637.745 105.976L637.75 105.973L637.205 105.134ZM646.438 93.9162L645.528 93.5032L645.526 93.5058L646.438 93.9162ZM666.028 75.7273C666.028 85.7907 664.143 94.3483 660.418 101.438L662.189 102.368C666.096 94.9305 668.028 86.0379 668.028 75.7273H666.028ZM660.417 101.439C656.712 108.518 651.668 113.914 645.286 117.66L646.298 119.384C653.027 115.436 658.324 109.752 662.189 102.366L660.417 101.439ZM645.284 117.661C638.928 121.409 631.704 123.293 623.587 123.293V125.293C632.027 125.293 639.607 123.33 646.3 119.383L645.284 117.661ZM623.587 123.293C615.47 123.293 608.23 121.409 601.842 117.66L600.829 119.384C607.552 123.33 615.146 125.293 623.587 125.293V123.293ZM601.846 117.662C595.492 113.886 590.446 108.473 586.708 101.39L584.94 102.323C588.835 109.705 594.129 115.402 600.825 119.382L601.846 117.662ZM586.711 101.394C583.015 94.304 581.146 85.7605 581.146 75.7273H579.146C579.146 86.0065 581.062 94.8825 584.937 102.319L586.711 101.394ZM581.146 75.7273C581.146 65.6625 583.016 57.12 586.71 50.0617L584.938 49.1343C581.061 56.541 579.146 65.418 579.146 75.7273H581.146ZM586.709 50.0631C590.447 42.9503 595.492 37.5387 601.843 33.7939L600.828 32.0711C594.129 36.0205 588.834 41.7192 584.939 49.1329L586.709 50.0631ZM601.842 33.795C608.23 30.0459 615.47 28.1619 623.587 28.1619V26.1619C615.146 26.1619 607.552 28.125 600.829 32.0701L601.842 33.795ZM623.587 28.1619C631.704 28.1619 638.928 30.0459 645.284 33.7939L646.3 32.0711C639.607 28.125 632.027 26.1619 623.587 26.1619V28.1619ZM645.286 33.795C651.667 37.5396 656.711 42.95 660.417 50.0602L662.19 49.1358C658.325 41.7195 653.028 36.0196 646.298 32.0701L645.286 33.795ZM660.419 50.0647C664.143 57.1222 666.028 65.6636 666.028 75.7273H668.028C668.028 65.4168 666.096 56.5388 662.188 49.1313L660.419 50.0647ZM650.808 75.7273C650.808 68.4574 649.67 62.259 647.348 57.1694L645.529 57.9996C647.7 62.7585 648.808 68.6553 648.808 75.7273H650.808ZM647.351 57.1763C645.069 52.0725 641.873 48.1692 637.745 45.5244L636.666 47.2085C640.416 49.6111 643.376 53.1865 645.526 57.9928L647.351 57.1763ZM637.75 45.5274C633.633 42.858 628.901 41.5348 623.587 41.5348V43.5348C628.552 43.5348 632.899 44.766 636.661 47.2055L637.75 45.5274ZM623.587 41.5348C618.273 41.5348 613.541 42.858 609.424 45.5274L610.512 47.2055C614.274 44.766 618.621 43.5348 623.587 43.5348V41.5348ZM609.429 45.5244C605.302 48.1684 602.092 52.0699 599.778 57.1716L601.6 57.9975C603.78 53.1891 606.756 49.6119 610.508 47.2085L609.429 45.5244ZM599.777 57.1741C597.487 62.2624 596.365 68.459 596.365 75.7273H598.365C598.365 68.6537 599.459 62.7552 601.601 57.9949L599.777 57.1741ZM596.365 75.7273C596.365 82.9959 597.488 89.2068 599.776 94.3244L601.602 93.508C599.459 88.7156 598.365 82.8005 598.365 75.7273H596.365ZM599.779 94.3313C602.093 99.4017 605.302 103.3 609.424 105.973L610.512 104.295C606.756 101.859 603.779 98.2792 601.599 93.5011L599.779 94.3313ZM609.429 105.976C613.545 108.613 618.276 109.92 623.587 109.92V107.92C618.619 107.92 614.27 106.703 610.508 104.292L609.429 105.976ZM623.587 109.92C628.898 109.92 633.629 108.613 637.745 105.976L636.666 104.292C632.903 106.703 628.555 107.92 623.587 107.92V109.92ZM637.75 105.973C641.873 103.299 645.068 99.3991 647.35 94.3266L645.526 93.5058C643.377 98.2818 640.416 101.86 636.661 104.295L637.75 105.973ZM647.349 94.3291C649.67 89.2101 650.808 82.9974 650.808 75.7273H648.808C648.808 82.799 647.7 88.7122 645.528 93.5032L647.349 94.3291ZM753.116 28.4545H754.116V27.4545H753.116V28.4545ZM753.116 123V124H754.116V123H753.116ZM737.881 123L737.059 123.569L737.357 124H737.881V123ZM693.332 58.6001L694.155 58.0312L693.856 57.6001H693.332V58.6001ZM692.547 58.6001V57.6001H691.547V58.6001H692.547ZM692.547 123V124H693.547V123H692.547ZM675.42 123H674.42V124H675.42V123ZM675.42 28.4545V27.4545H674.42V28.4545H675.42ZM690.747 28.4545L691.57 27.8863L691.272 27.4545H690.747V28.4545ZM735.25 92.9006L734.427 93.4688L734.725 93.9006H735.25V92.9006ZM736.081 92.9006V93.9006H737.081V92.9006H736.081ZM736.081 28.4545V27.4545H735.081V28.4545H736.081ZM752.116 28.4545V123H754.116V28.4545H752.116ZM753.116 122H737.881V124H753.116V122ZM738.704 122.431L694.155 58.0312L692.51 59.169L737.059 123.569L738.704 122.431ZM693.332 57.6001H692.547V59.6001H693.332V57.6001ZM691.547 58.6001V123H693.547V58.6001H691.547ZM692.547 122H675.42V124H692.547V122ZM676.42 123V28.4545H674.42V123H676.42ZM675.42 29.4545H690.747V27.4545H675.42V29.4545ZM689.924 29.0228L734.427 93.4688L736.073 92.3323L691.57 27.8863L689.924 29.0228ZM735.25 93.9006H736.081V91.9006H735.25V93.9006ZM737.081 92.9006V28.4545H735.081V92.9006H737.081ZM736.081 29.4545H753.116V27.4545H736.081V29.4545Z" fill="white" mask="url(#path-1-outside-1_221_533)"/>
</g>
<g clip-path="url(#clip1_221_533)">
<path d="M351.233 73.2667C352.816 73.2667 354.099 71.9805 354.099 70.3939C354.099 68.8073 352.816 67.5211 351.233 67.5211C349.65 67.5211 348.367 68.8073 348.367 70.3939C348.367 71.9805 349.65 73.2667 351.233 73.2667Z" fill="#F2F2F2"/>
<path d="M218.601 73.9742C218.368 74.1382 218.102 74.2489 217.821 74.2985C217.54 74.3482 217.252 74.3355 216.977 74.2615C216.701 74.1874 216.446 74.0538 216.228 73.8699C216.009 73.6861 215.834 73.4566 215.714 73.1975L208.821 73.897L210.49 70.6998L216.78 70.5257C217.228 70.3524 217.723 70.3496 218.173 70.518C218.622 70.6863 218.994 71.0141 219.219 71.4392C219.443 71.8643 219.505 72.3571 219.391 72.8243C219.277 73.2915 218.996 73.7007 218.601 73.9742Z" fill="#FFB6B6"/>
<path d="M198.711 77.1208L183.523 70.8126C182.319 70.3113 181.364 69.352 180.865 68.1452C180.366 66.9384 180.366 65.5827 180.864 64.3755C181.14 63.7075 181.559 63.1085 182.092 62.6213C182.626 62.134 183.259 61.7704 183.948 61.5562C184.637 61.342 185.365 61.2824 186.08 61.3818C186.795 61.4812 187.479 61.737 188.084 62.1312L200.321 70.1054L213.057 69.459L214.011 73.4341L198.711 77.1208Z" fill="#6C63FF"/>
<path d="M195.913 144.935H198.345L199.502 135.534L195.913 135.534L195.913 144.935Z" fill="#FFB6B6"/>
<path d="M195.09 143.733L198.934 143.503V145.154L202.589 147.684C202.769 147.808 202.905 147.988 202.977 148.196C203.048 148.404 203.051 148.629 202.986 148.839C202.921 149.049 202.79 149.232 202.614 149.363C202.437 149.493 202.223 149.563 202.004 149.563H197.427L196.638 147.93L196.33 149.563H194.605L195.09 143.733Z" fill="#2F2E41"/>
<path d="M180.267 144.935H182.699L183.856 135.534L180.267 135.534L180.267 144.935Z" fill="#FFB6B6"/>
<path d="M179.444 143.733L183.288 143.503V145.154L186.943 147.684C187.123 147.808 187.259 147.988 187.331 148.196C187.402 148.404 187.406 148.629 187.34 148.839C187.275 149.049 187.145 149.232 186.968 149.363C186.791 149.493 186.577 149.563 186.358 149.563H181.781L180.993 147.93L180.685 149.563H178.959L179.444 143.733Z" fill="#2F2E41"/>
<path d="M192.561 92.9445L202.041 111.797C202.561 112.827 202.722 114.001 202.498 115.134C202.305 116.101 202.01 117.045 201.616 117.949L200.344 133.078L199.204 137.823L195.103 138.174C195.103 138.174 195.42 134.196 194.309 128.618C193.198 123.04 195.103 114.917 195.103 114.917C195.103 114.917 191.608 109.185 187.635 106.316C183.662 103.448 192.561 92.9445 192.561 92.9445Z" fill="#2F2E41"/>
<path d="M182.392 84.4232C182.392 84.4232 180.425 87.917 178.972 89.7976C177.63 91.5005 176.98 93.6494 177.153 95.8128C177.294 97.3597 177.837 99.0281 179.215 100.35C179.215 100.35 180.167 102.738 179.691 104.014V115.326C179.691 115.326 177.141 128.683 179.365 132.665L180.326 141.603C180.326 141.603 183.697 142.551 183.856 140.96C183.856 140.96 184.297 137.464 184.467 136.348L184.595 124.917C184.621 123.431 185.081 121.986 185.918 120.76C186.579 119.785 187.24 118.272 187.329 116.119L192.561 92.9444L193.726 84.849L182.392 84.4232Z" fill="#2F2E41"/>
<path d="M179.464 71.9725L181.497 82.1638L177.042 92.5749L193.686 86.1441L193.912 85.5295L194.463 83.4365L193.81 76.9198C194.04 76.4413 197.302 73.4206 193.89 68.1096L190.205 59.4399L183.302 59.3346L183.273 59.3633C181.65 60.9873 180.453 62.9884 179.788 65.1883C179.123 67.3883 179.012 69.7188 179.464 71.9725Z" fill="#6C63FF"/>
<path d="M189.586 101.927C189.359 101.755 189.172 101.535 189.038 101.282C188.905 101.03 188.829 100.751 188.814 100.466C188.8 100.181 188.848 99.8956 188.956 99.631C189.064 99.3664 189.228 99.1287 189.437 98.9346L186.655 92.5748L190.204 93.1849L192.301 99.1307C192.603 99.5044 192.758 99.9762 192.736 100.457C192.714 100.937 192.518 101.393 192.183 101.738C191.848 102.082 191.399 102.292 190.92 102.327C190.442 102.362 189.967 102.22 189.586 101.927Z" fill="#FFB6B6"/>
<path d="M180.489 83.9222L181.813 67.4976C181.919 66.1958 182.537 64.9894 183.529 64.1432C184.522 63.297 185.809 62.8801 187.108 62.9839C187.827 63.0421 188.525 63.2584 189.151 63.6172C189.778 63.9761 190.318 64.4687 190.733 65.0602C191.148 65.6517 191.428 66.3276 191.553 67.0397C191.678 67.7519 191.645 68.483 191.457 69.181L187.644 83.303L192.17 95.2521L188.689 97.3826L180.489 83.9222Z" fill="#6C63FF"/>
<path d="M175.28 59.8582L192.129 56.4055C192.593 54.8544 193.482 53.43 191.028 51.0077C190.648 49.1438 189.561 47.5005 187.996 46.4239C186.431 45.3472 184.51 44.9212 182.638 45.2355C178.771 44.8905 176.598 47.6454 176.609 51.3433L175.28 59.8582Z" fill="#2F2E41"/>
<path d="M185.105 57.5255C188.268 57.5255 190.832 54.9554 190.832 51.7851C190.832 48.6147 188.268 46.0447 185.105 46.0447C181.942 46.0447 179.377 48.6147 179.377 51.7851C179.377 54.9554 181.942 57.5255 185.105 57.5255Z" fill="#FFB8B8"/>
<path d="M180.787 46.9829C181.56 45.8229 182.759 45.0162 184.123 44.7384L185.203 44.5171C186.578 44.2353 188.008 44.5125 189.179 45.2878C190.35 46.063 191.166 47.2727 191.447 48.6508C190.671 49.6637 186.07 50.4313 183.327 50.7659C184.095 53.5438 187.048 55.823 186.729 57.5123L175.928 59.7255L175.707 58.643C173.812 54.0759 176.455 49.4006 180.787 46.9829Z" fill="#2F2E41"/>
<path d="M175.233 60.1672L192.082 56.7145C192.546 55.1633 193.435 53.739 190.981 51.3166C190.601 49.4528 189.514 47.8095 187.949 46.7328C186.384 45.6562 184.463 45.2301 182.591 45.5444C178.724 45.1995 176.551 47.9544 176.562 51.6522L175.233 60.1672Z" fill="#2F2E41"/>
<path d="M185.058 57.8344C188.221 57.8344 190.786 55.2644 190.786 52.094C190.786 48.9237 188.221 46.3536 185.058 46.3536C181.895 46.3536 179.331 48.9237 179.331 52.094C179.331 55.2644 181.895 57.8344 185.058 57.8344Z" fill="#FFB8B8"/>
<path d="M180.74 47.2917C181.513 46.1318 182.712 45.325 184.076 45.0472L185.156 44.8259C186.531 44.5441 187.961 44.8214 189.132 45.5966C190.304 46.3718 191.119 47.5816 191.4 48.9597C190.624 49.9726 186.023 50.7402 183.28 51.0748C184.048 53.8527 187.001 56.1319 186.682 57.8211L175.881 60.0344L175.66 58.9518C173.765 54.3847 176.408 49.7095 180.74 47.2917Z" fill="#2F2E41"/>
<path d="M263.99 101.537H220.305C219.095 101.536 217.934 101.054 217.078 100.196C216.222 99.3379 215.741 98.1748 215.74 96.9617V39.8174C215.741 38.6043 216.222 37.4413 217.078 36.5835C217.934 35.7257 219.095 35.2432 220.305 35.2418H263.99C265.201 35.2432 266.361 35.7257 267.217 36.5835C268.073 37.4413 268.554 38.6043 268.556 39.8174V96.9617C268.554 98.1748 268.073 99.3379 267.217 100.196C266.361 101.054 265.201 101.536 263.99 101.537Z" fill="#F0F0F0"/>
<path d="M263.99 101.758H220.305C219.036 101.757 217.82 101.251 216.923 100.352C216.025 99.4525 215.521 98.2333 215.519 96.9616V39.8175C215.521 38.5458 216.025 37.3266 216.923 36.4274C217.82 35.5282 219.036 35.0223 220.305 35.0209H263.99C265.259 35.0223 266.476 35.5281 267.373 36.4273C268.27 37.3266 268.775 38.5458 268.776 39.8175V96.9616C268.775 98.2333 268.27 99.4526 267.373 100.352C266.476 101.251 265.259 101.757 263.99 101.758ZM220.305 35.4628C219.153 35.4641 218.049 35.9234 217.234 36.7397C216.42 37.5561 215.962 38.663 215.96 39.8175V96.9616C215.962 98.1161 216.42 99.223 217.234 100.039C218.049 100.856 219.153 101.315 220.305 101.316H263.99C265.142 101.315 266.247 100.856 267.061 100.039C267.876 99.2231 268.334 98.1162 268.335 96.9616V39.8175C268.334 38.6629 267.876 37.5561 267.061 36.7397C266.247 35.9233 265.142 35.4641 263.99 35.4628H220.305Z" fill="#6C63FF"/>
<path d="M334.96 101.537H291.275C290.065 101.536 288.904 101.054 288.048 100.196C287.193 99.3379 286.711 98.1748 286.71 96.9617V39.8174C286.711 38.6043 287.193 37.4413 288.048 36.5835C288.904 35.7257 290.065 35.2432 291.275 35.2418H334.96C336.171 35.2432 337.331 35.7257 338.187 36.5835C339.043 37.4413 339.524 38.6043 339.526 39.8174V96.9617C339.524 98.1748 339.043 99.3379 338.187 100.196C337.331 101.054 336.171 101.536 334.96 101.537Z" fill="#F0F0F0"/>
<path d="M355.781 15.0775H204.898C204.84 15.0762 204.784 15.052 204.743 15.0101C204.702 14.9681 204.679 14.9118 204.679 14.8532C204.679 14.7945 204.702 14.7382 204.743 14.6962C204.784 14.6543 204.84 14.6301 204.898 14.6288H355.781C355.84 14.6301 355.895 14.6543 355.936 14.6962C355.977 14.7382 356 14.7945 356 14.8532C356 14.9118 355.977 14.9681 355.936 15.0101C355.895 15.052 355.84 15.0762 355.781 15.0775Z" fill="#CACACA"/>
<path d="M209.827 11.9363C211.157 11.9363 212.236 10.8313 212.236 9.46814C212.236 8.10503 211.157 7 209.827 7C208.497 7 207.418 8.10503 207.418 9.46814C207.418 10.8313 208.497 11.9363 209.827 11.9363Z" fill="#3F3D56"/>
<path d="M218.148 11.9363C219.479 11.9363 220.557 10.8313 220.557 9.46814C220.557 8.10503 219.479 7 218.148 7C216.818 7 215.74 8.10503 215.74 9.46814C215.74 10.8313 216.818 11.9363 218.148 11.9363Z" fill="#3F3D56"/>
<path d="M226.47 11.9363C227.801 11.9363 228.879 10.8313 228.879 9.46814C228.879 8.10503 227.801 7 226.47 7C225.14 7 224.061 8.10503 224.061 9.46814C224.061 10.8313 225.14 11.9363 226.47 11.9363Z" fill="#3F3D56"/>
<path d="M350.795 8.50969H344.882C344.765 8.5071 344.654 8.45868 344.572 8.37481C344.49 8.29093 344.444 8.17827 344.444 8.06094C344.444 7.94361 344.49 7.83094 344.572 7.74707C344.654 7.66319 344.765 7.61477 344.882 7.61218H350.795C350.912 7.61477 351.024 7.66319 351.105 7.74707C351.187 7.83094 351.233 7.94361 351.233 8.06094C351.233 8.17827 351.187 8.29093 351.105 8.37481C351.024 8.45868 350.912 8.5071 350.795 8.50969Z" fill="#3F3D56"/>
<path d="M350.795 10.1926H344.882C344.765 10.19 344.654 10.1415 344.572 10.0577C344.49 9.97379 344.444 9.86113 344.444 9.7438C344.444 9.62647 344.49 9.5138 344.572 9.42993C344.654 9.34605 344.765 9.29763 344.882 9.29504H350.795C350.912 9.29763 351.024 9.34605 351.105 9.42993C351.187 9.5138 351.233 9.62647 351.233 9.7438C351.233 9.86113 351.187 9.97379 351.105 10.0577C351.024 10.1415 350.912 10.19 350.795 10.1926Z" fill="#3F3D56"/>
<path d="M350.795 11.8753H344.882C344.765 11.8727 344.654 11.8243 344.572 11.7404C344.49 11.6565 344.444 11.5439 344.444 11.4265C344.444 11.3092 344.49 11.1965 344.572 11.1127C344.654 11.0288 344.765 10.9804 344.882 10.9778H350.795C350.912 10.9804 351.024 11.0288 351.105 11.1127C351.187 11.1965 351.233 11.3092 351.233 11.4265C351.233 11.5439 351.187 11.6565 351.105 11.7404C351.024 11.8243 350.912 11.8727 350.795 11.8753Z" fill="#3F3D56"/>
<path d="M337.452 34.2024L337.448 34.2064C337.025 33.7756 336.453 33.5242 335.851 33.5043C335.249 33.4845 334.662 33.6976 334.212 34.0996C333.762 34.5017 333.484 35.0617 333.434 35.6638C333.385 36.2659 333.569 36.8639 333.948 37.3339L333.943 37.3378L337.072 40.8546L340.581 37.7191C341.046 37.3033 341.327 36.7193 341.363 36.0955C341.399 35.4718 341.186 34.8594 340.771 34.393C340.356 33.9267 339.773 33.6446 339.151 33.6088C338.529 33.5731 337.918 33.7866 337.452 34.2024Z" fill="#D1D3D4"/>
<path d="M227.516 71C227.443 70.8376 227.405 70.6613 227.406 70.4831C227.407 70.305 227.447 70.1291 227.522 69.9675L230.14 64.3247C230.399 63.4507 230.992 62.715 231.791 62.2789C232.59 61.8428 233.528 61.7419 234.401 61.9983C235.274 62.2547 236.009 62.8475 236.447 63.6467C236.884 64.4459 236.988 65.3863 236.734 66.2618L235.859 72.4435C235.834 72.6199 235.772 72.7888 235.676 72.9388C235.58 73.0888 235.452 73.2163 235.303 73.3125C235.153 73.4088 234.985 73.4717 234.809 73.4968C234.633 73.5219 234.453 73.5087 234.283 73.4581L228.292 71.679C228.121 71.6285 227.964 71.5417 227.83 71.4245C227.696 71.3073 227.589 71.1625 227.516 71Z" fill="#3F3D56"/>
<path d="M256.003 68.1849L250.013 69.9639C249.842 70.0145 249.663 70.0277 249.487 70.0026C249.311 69.9775 249.142 69.9147 248.993 69.8184C248.843 69.7221 248.716 69.5946 248.62 69.4447C248.524 69.2947 248.461 69.1258 248.436 68.9493L247.561 62.7677C247.308 61.8922 247.411 60.9517 247.849 60.1525C248.286 59.3533 249.022 58.7605 249.895 58.5041C250.767 58.2477 251.706 58.3487 252.505 58.7847C253.303 59.2208 253.897 59.9565 254.155 60.8305L256.774 66.4734C256.849 66.635 256.888 66.8109 256.889 66.989C256.89 67.1672 256.853 67.3435 256.78 67.506C256.707 67.6684 256.599 67.8131 256.465 67.9303C256.331 68.0474 256.174 68.1343 256.003 68.1849Z" fill="#3F3D56"/>
<path d="M232.435 63.1456L237.133 59.721L244.821 57.5806L251.228 58.8648L251.605 62.4131C252.063 66.7291 251.864 71.0898 251.015 75.3459L250.858 78.6259L234.357 79.1986L232.649 76.2021C232.649 76.2021 228.805 72.3494 231.795 68.0685L232.435 63.1456Z" fill="#3F3D56"/>
<path d="M323.292 56.3989V60.2046L322.921 64.854C322.921 64.854 322.804 68.914 322.662 72.1164C322.576 74.0631 322.48 75.6924 322.396 75.9029C322.293 76.1607 322.317 76.8639 322.377 77.6023C322.447 78.4564 322.562 79.3578 322.582 79.6595C322.618 80.2225 322.321 82.6409 322.321 82.6409C322.321 82.6409 321.988 88.7056 321.506 89.1896C321.023 89.6736 321.506 91.0504 321.506 91.0504C319.241 92.7235 316.382 90.6786 316.382 90.6786C317.014 89.6702 316.011 82.7865 316.011 82.7865C316.011 82.7865 315.864 80.4364 315.567 79.8051C315.269 79.1737 315.194 75.2294 315.194 75.2294V69.3875C315.194 69.3875 314.413 68.1914 314.303 67.6337C314.193 67.076 314.303 65.1047 314.303 65.1047L313.488 62.3513L312.93 64.5084C312.93 64.5084 311.484 70.5362 311.223 71.2799C311.082 71.7769 311.134 72.3093 311.371 72.7688C311.371 72.7688 311.743 73.9158 311.371 74.442C311.139 74.7716 310.962 75.1363 310.846 75.5223C310.846 75.5223 310.655 77.718 310.321 78.5037C309.986 79.2894 309.691 80.2575 309.691 80.2575C309.691 80.2575 309.769 81.7412 309.435 82.0762C309.101 82.4112 308.991 84.0861 308.991 84.0861C308.991 84.0861 309.064 85.9819 308.618 86.6519C308.172 87.3218 308.172 91.117 308.172 91.117C307.398 91.6147 306.506 91.8976 305.588 91.9367C304.669 91.9759 303.757 91.7699 302.943 91.3398C302.943 91.3398 303.384 90.9259 303.05 88.9967C302.716 87.0675 303.29 81.8149 303.29 81.8149C303.29 81.8149 303.216 80.482 303.587 79.8857C303.958 79.2894 303.4 78.1372 303.549 77.6163C303.698 77.0954 304.144 74.2666 304.144 74.2666C304.144 74.2666 303.958 67.3093 303.958 66.9375C303.914 66.2756 303.736 65.6298 303.433 65.0399C303.099 64.4453 303.433 60.1292 303.433 60.1292C303.433 60.1292 304.221 57.8984 303.958 57.4144C303.696 56.9303 304.133 56.0745 304.133 56.0745C304.133 56.0745 303.725 55.0695 304.133 54.8836C304.541 54.6977 304.616 53.9541 304.616 53.9541L304.9 50.3448C304.9 50.3448 305.006 48.7068 305.346 48.6331C305.685 48.5594 305.537 47.9281 305.871 47.4809C306.034 47.1785 306.146 46.8515 306.203 46.5128C306.251 46.3058 306.294 46.0901 306.331 45.8832C306.436 45.3219 306.501 44.8379 306.501 44.8379C308.692 46.6618 320.211 45.3833 320.223 45.3833C320.954 45.5429 321.824 48.0877 322.452 50.3062C323.011 52.2887 323.293 54.3389 323.292 56.3989Z" fill="#3F3D56"/>
<path d="M205.083 150H211.481C211.576 149.828 211.664 149.651 211.746 149.472C212.482 147.892 212.793 146.128 213.091 144.4L213.574 141.594C212.031 142.719 210.488 143.843 208.946 144.966C208.443 145.333 207.929 145.715 207.447 146.128C206.43 146.992 205.553 147.991 205.209 149.26C205.191 149.33 205.173 149.401 205.16 149.472C205.124 149.646 205.098 149.823 205.083 150Z" fill="#F0F0F0"/>
<path d="M204.186 149.472C204.185 149.483 204.186 149.494 204.188 149.505C204.209 149.674 204.249 149.84 204.307 150H207.18C207.27 149.83 207.347 149.654 207.409 149.472C207.496 149.229 207.559 148.978 207.596 148.723C207.692 147.856 207.641 146.979 207.447 146.128C207.392 145.852 207.332 145.574 207.272 145.3L206.933 143.735L205.233 146.473C204.664 147.39 204.073 148.4 204.186 149.472Z" fill="#F0F0F0"/>
<path d="M175 149.735C175 149.769 175.007 149.804 175.02 149.836C175.033 149.868 175.052 149.897 175.076 149.922C175.101 149.946 175.13 149.966 175.162 149.979C175.194 149.993 175.228 150 175.262 150H215.677C215.747 150 215.814 149.972 215.864 149.923C215.913 149.873 215.941 149.806 215.941 149.736C215.941 149.666 215.913 149.599 215.864 149.549C215.814 149.5 215.747 149.472 215.677 149.472H175.262C175.193 149.472 175.126 149.5 175.077 149.549C175.028 149.598 175 149.665 175 149.735Z" fill="#CACACA"/>
<path d="M241.375 108.61C245.736 108.61 249.271 105.067 249.271 100.696C249.271 96.3253 245.736 92.7822 241.375 92.7822C237.014 92.7822 233.479 96.3253 233.479 100.696C233.479 105.067 237.014 108.61 241.375 108.61Z" fill="#6C63FF"/>
<path d="M240.298 104.815C240.161 104.815 240.027 104.783 239.905 104.722C239.783 104.661 239.677 104.572 239.595 104.463L237.441 101.584C237.372 101.491 237.321 101.386 237.292 101.274C237.263 101.162 237.257 101.045 237.273 100.931C237.29 100.816 237.328 100.706 237.387 100.606C237.446 100.507 237.524 100.42 237.616 100.35C237.708 100.281 237.813 100.231 237.925 100.202C238.037 100.173 238.153 100.167 238.268 100.183C238.382 100.2 238.492 100.239 238.591 100.298C238.69 100.357 238.777 100.435 238.846 100.528L240.255 102.411L243.875 96.9691C243.939 96.8725 244.021 96.7895 244.117 96.7249C244.213 96.6602 244.32 96.6151 244.434 96.5922C244.547 96.5693 244.664 96.569 244.777 96.5914C244.891 96.6138 244.998 96.6584 245.095 96.7227C245.191 96.7869 245.273 96.8696 245.338 96.9659C245.402 97.0622 245.446 97.1702 245.469 97.2838C245.491 97.3975 245.491 97.5144 245.469 97.628C245.446 97.7416 245.401 97.8496 245.337 97.9457L241.028 104.423C240.951 104.54 240.846 104.637 240.723 104.705C240.6 104.773 240.462 104.81 240.322 104.814C240.314 104.815 240.306 104.815 240.298 104.815Z" fill="white"/>
<path d="M268.997 124.613C270.58 124.613 271.863 123.327 271.863 121.74C271.863 120.154 270.58 118.867 268.997 118.867C267.414 118.867 266.13 120.154 266.13 121.74C266.13 123.327 267.414 124.613 268.997 124.613Z" fill="#F2F2F2"/>
<path d="M291.682 124.613C293.265 124.613 294.549 123.327 294.549 121.74C294.549 120.154 293.265 118.867 291.682 118.867C290.099 118.867 288.816 120.154 288.816 121.74C288.816 123.327 290.099 124.613 291.682 124.613Z" fill="#F2F2F2"/>
<path d="M279.579 124.613C281.162 124.613 282.446 123.327 282.446 121.74C282.446 120.154 281.162 118.867 279.579 118.867C277.996 118.867 276.713 120.154 276.713 121.74C276.713 123.327 277.996 124.613 279.579 124.613Z" fill="#F2F2F2"/>
</g>
<g clip-path="url(#clip2_221_533)">
<path d="M143.862 149.836L144.352 149.826C144.162 144.362 143.581 138.919 142.613 133.538C140.495 122.018 136.973 114.452 132.144 111.051L131.863 111.453C143.142 119.399 143.856 149.532 143.862 149.836Z" fill="#2F2E41"/>
<path d="M137.739 149.718L138.229 149.709C138.218 149.165 137.912 136.338 132.879 132.793L132.598 133.195C137.428 136.597 137.737 149.588 137.739 149.718Z" fill="#2F2E41"/>
<path d="M129.076 111.498C130.429 111.498 131.525 110.398 131.525 109.041C131.525 107.684 130.429 106.583 129.076 106.583C127.723 106.583 126.627 107.684 126.627 109.041C126.627 110.398 127.723 111.498 129.076 111.498Z" fill="#6C63FF"/>
<path d="M130.289 132.63C131.642 132.63 132.738 131.53 132.738 130.173C132.738 128.816 131.642 127.716 130.289 127.716C128.936 127.716 127.84 128.816 127.84 130.173C127.84 131.53 128.936 132.63 130.289 132.63Z" fill="#6C63FF"/>
<path d="M138.881 112.971C138.42 115.921 139.62 118.559 139.62 118.559C139.62 118.559 141.566 116.415 142.026 113.465C142.487 110.515 141.287 107.877 141.287 107.877C141.287 107.877 139.341 110.021 138.881 112.971Z" fill="#2F2E41"/>
<path d="M130.875 120.135C133.689 121.103 136.488 120.378 136.488 120.378C136.488 120.378 134.723 118.082 131.908 117.113C129.093 116.144 126.294 116.87 126.294 116.87C126.294 116.87 128.06 119.166 130.875 120.135Z" fill="#2F2E41"/>
<path d="M130.784 138.85C132.058 139.251 133.415 139.31 134.719 139.02C133.891 137.963 132.776 137.168 131.508 136.732C130.241 136.295 128.874 136.236 127.574 136.561C128.426 137.593 129.533 138.382 130.784 138.85Z" fill="#2F2E41"/>
<path d="M73.6245 73.1361L57.8335 64.8979C57.8335 64.8979 52.5307 59.039 49.2004 56.3927C45.8702 53.7463 44.845 55.6904 44.845 55.6904L43.4451 58.0313L46.8283 62.7521L55.9669 70.5161L72.2961 76.9329C72.5514 77.3524 72.9202 77.6906 73.3596 77.9082C73.799 78.1258 74.2909 78.2139 74.7781 78.1622C75.2654 78.1105 75.728 77.9212 76.1123 77.6162C76.4966 77.3113 76.7867 76.9031 76.949 76.4393C77.1113 75.9755 77.1391 75.4749 77.0292 74.9959C76.9192 74.5168 76.6761 74.0789 76.3279 73.733C75.9798 73.3871 75.5409 73.1474 75.0624 73.0417C74.5839 72.9361 74.0853 72.9688 73.6245 73.1361Z" fill="#9F616A"/>
<path d="M32.5505 66.0111L31.6156 60.2728L28.9758 59.6107C28.9758 59.6107 26.8807 58.9633 26.391 63.1971C25.9013 67.431 26.281 75.3357 26.281 75.3357L20.9213 92.3635C20.4755 92.5715 20.0978 92.9023 19.8321 93.3174C19.5664 93.7325 19.4238 94.2148 19.4207 94.7081C19.4177 95.2014 19.5543 95.6854 19.8149 96.1038C20.0754 96.5221 20.449 96.8576 20.8922 97.0712C21.3354 97.2848 21.83 97.3677 22.3184 97.3102C22.8067 97.2527 23.2687 97.0572 23.6506 96.7464C24.0325 96.4357 24.3185 96.0225 24.4754 95.555C24.6323 95.0875 24.6536 94.5849 24.5367 94.1057L31.5606 77.9842L32.5505 66.0111Z" fill="#9F616A"/>
<path d="M54.3853 146.539L57.8394 146.539L59.4829 133.171L54.3845 133.172L54.3853 146.539Z" fill="#9F616A"/>
<path d="M53.5039 145.407L60.3067 145.407H60.307C61.4568 145.407 62.5594 145.866 63.3724 146.681C64.1854 147.497 64.6422 148.603 64.6423 149.757V149.898L53.5041 149.898L53.5039 145.407Z" fill="#2F2E41"/>
<path d="M16.7085 146.539L20.1629 146.539L21.8061 133.171L16.708 133.172L16.7085 146.539Z" fill="#9F616A"/>
<path d="M15.8274 145.407L22.6302 145.407H22.6305C23.7803 145.407 24.8829 145.866 25.6959 146.681C26.5089 147.497 26.9657 148.603 26.9658 149.757V149.898L15.8276 149.898L15.8274 145.407Z" fill="#2F2E41"/>
<path d="M33.762 54.5485L28.0325 59.4555L32.7346 74.3841L33.7955 77.7176C33.7955 77.7176 27.3172 83.7102 23.3088 100.45C19.3004 117.19 12.7432 139.434 12.7432 139.434L26.5844 143.409L37.8452 105.541L51.0906 135.25L52.6198 144.037L64.407 140.55L61.6265 118.513L47.7243 80.3657L49.1685 70.2536C49.1685 70.2536 51.3371 65.2063 47.5697 59.8626L46.388 54.8415L42.1549 53.7954L33.762 54.5485Z" fill="#2F2E41"/>
<path d="M43.2804 51.8808H27.79C27.4713 51.8805 27.1659 51.7533 26.9405 51.5273C26.7152 51.3012 26.5885 50.9947 26.5881 50.6751V43.9763C26.5881 41.5957 27.5308 39.3125 29.2087 37.6291C30.8866 35.9457 33.1623 35 35.5352 35C37.9081 35 40.1838 35.9457 41.8617 37.6291C43.5396 39.3125 44.4823 41.5957 44.4823 43.9763V50.6751C44.4819 50.9947 44.3552 51.3012 44.1299 51.5273C43.9045 51.7533 43.5991 51.8805 43.2804 51.8808Z" fill="#2F2E41"/>
<path d="M43.1295 48.3005C44.8672 45.1112 43.6989 41.1125 40.5201 39.3692C37.3412 37.6258 33.3556 38.7978 31.6178 41.9871C29.8801 45.1763 31.0484 49.175 34.2272 50.9184C37.4061 52.6618 41.3918 51.4897 43.1295 48.3005Z" fill="#9F616A"/>
<path d="M46.5988 44.6461H37.1268L37.0297 43.2818L36.544 44.6461H35.0855L34.893 41.9421L33.9305 44.6461H31.1084V44.5122C31.1105 42.6296 31.8568 40.8248 33.1837 39.4936C34.5105 38.1624 36.3094 37.4136 38.1859 37.4115H39.5213C41.3977 37.4136 43.1967 38.1624 44.5235 39.4936C45.8504 40.8248 46.5967 42.6296 46.5988 44.5122V44.6461Z" fill="#2F2E41"/>
<path d="M37.0494 53.1313C36.9781 53.1312 36.9069 53.1249 36.8367 53.1124L29.9009 51.8847V40.3843H37.5359L37.3469 40.6054C34.7169 43.6826 36.6983 48.6724 38.1134 51.3728C38.2177 51.5706 38.2642 51.7939 38.2476 52.0171C38.2309 52.2402 38.1518 52.4541 38.0193 52.6341C37.9084 52.788 37.7626 52.9133 37.594 52.9998C37.4254 53.0862 37.2388 53.1313 37.0494 53.1313Z" fill="#2F2E41"/>
<path d="M94.4083 113.423L33.6224 134.984C32.1195 135.515 30.4679 135.427 29.03 134.738C27.5921 134.049 26.4853 132.816 25.9525 131.309L15.5103 101.678C14.9809 100.17 15.0692 98.5135 15.7559 97.0709C16.4426 95.6283 17.6716 94.5179 19.1734 93.9833L79.9593 72.4216C81.4622 71.8904 83.1138 71.979 84.5517 72.668C85.9896 73.3569 87.0963 74.59 87.6292 76.0966L98.0713 105.728C98.6008 107.235 98.5125 108.892 97.8258 110.335C97.1391 111.778 95.91 112.888 94.4083 113.423Z" fill="white"/>
<path d="M98.0712 105.728L98.1265 105.884C98.6336 107.324 98.5499 108.907 97.8937 110.286C97.2374 111.664 96.0624 112.724 94.6271 113.232L33.5373 134.902C32.1023 135.411 30.5246 135.327 29.1512 134.669C27.7778 134.011 26.7212 132.832 26.2137 131.393L26.1584 131.236L98.0712 105.728Z" fill="#F2F2F2"/>
<path d="M29.829 100.863C25.7998 103.523 20.6358 101.521 18.8298 98.6053L19.1178 98.4412C22.548 96.2961 27.642 97.4912 29.829 100.863Z" fill="#6C63FF"/>
<path d="M80.3205 108.409C79.3343 108.759 78.4463 108.743 77.681 108.362C75.9511 107.499 75.1394 104.943 74.4872 102.888C74.2974 102.291 74.1182 101.726 73.9356 101.264L73.933 101.257C73.6155 100.342 73.6708 99.338 74.0869 98.4632C74.503 97.5885 75.2463 96.9139 76.1554 96.5858L84.3316 93.6856C85.3165 93.3362 86.2035 93.3521 86.9683 93.733C88.6977 94.5942 89.5101 97.1501 90.1629 99.2038C90.3532 99.8027 90.533 100.368 90.7162 100.831C91.0355 101.747 90.9813 102.753 90.5652 103.629C90.1492 104.505 89.4051 105.181 88.4947 105.51L80.3205 108.409ZM74.2756 101.133C74.4623 101.606 74.643 102.175 74.8342 102.777C75.4656 104.766 76.2514 107.241 77.843 108.034C78.5262 108.375 79.2969 108.385 80.1991 108.065L88.3728 105.166C89.1916 104.87 89.8611 104.263 90.236 103.475C90.6109 102.687 90.6609 101.783 90.3751 100.959C90.1898 100.492 90.0082 99.92 89.8158 99.3148C89.1839 97.3269 88.3975 94.8527 86.8063 94.0603C86.1238 93.7204 85.3539 93.7106 84.453 94.0301L76.2773 96.9302C75.4595 97.2255 74.7906 97.8323 74.4159 98.6192C74.0412 99.406 73.9908 100.309 74.2756 101.133Z" fill="#3F3D56"/>
<path d="M28.1342 101.821C26.6975 102.321 25.1498 102.406 23.6671 102.067C21.5018 101.59 19.5367 100.293 18.5387 98.6823L18.4387 98.5209L18.8881 98.2646C22.3699 96.0888 27.591 97.2683 29.8446 100.742L29.9434 100.894L29.7921 100.994C29.2749 101.336 28.7182 101.614 28.1342 101.821ZM18.9511 98.649C19.9277 100.105 21.7451 101.269 23.7452 101.71C25.6895 102.166 27.7344 101.835 29.4371 100.789C27.2326 97.5894 22.3486 96.5282 19.0778 98.5767L18.9511 98.649Z" fill="#3F3D56"/>
<path d="M30.2698 123.088C29.7594 123.291 29.2035 123.35 28.662 123.26C28.1204 123.17 27.6136 122.933 27.1958 122.576C26.7068 122.147 26.3362 121.599 26.1195 120.985C25.9028 120.371 25.8475 119.711 25.9588 119.069C26.0622 118.517 26.3159 118.004 26.692 117.587C27.0681 117.171 27.5517 116.867 28.0893 116.709L38.9834 112.845C39.5004 112.63 40.0665 112.563 40.6194 112.65C41.1722 112.737 41.6903 112.976 42.1165 113.34C42.6052 113.769 42.9756 114.317 43.192 114.931C43.4084 115.545 43.4635 116.205 43.352 116.846C43.1369 117.974 42.3779 118.805 41.221 119.203L30.3268 123.067C30.3077 123.074 30.2888 123.081 30.2698 123.088ZM28.1571 117.073C27.6923 117.216 27.2753 117.485 26.951 117.849C26.6268 118.212 26.4074 118.658 26.3166 119.138C26.2163 119.716 26.2662 120.31 26.4614 120.864C26.6566 121.417 26.9905 121.911 27.4311 122.297C27.8087 122.618 28.2676 122.828 28.7568 122.903C29.2461 122.978 29.7465 122.916 30.2028 122.724L41.1021 118.857C41.5781 118.72 42.0068 118.453 42.3407 118.086C42.6746 117.718 42.9008 117.266 42.9942 116.778C43.0947 116.2 43.045 115.605 42.8501 115.052C42.6551 114.499 42.3214 114.005 41.8811 113.619C41.5029 113.298 41.0438 113.088 40.5544 113.012C40.065 112.936 39.5642 112.997 39.1072 113.189L28.2071 117.055C28.1904 117.061 28.1736 117.067 28.1571 117.073Z" fill="#3F3D56"/>
<path d="M80.3933 99.6914L76.9591 100.91C76.7314 100.99 76.481 100.977 76.2631 100.873C76.0451 100.768 75.8775 100.581 75.797 100.353C75.7164 100.124 75.7297 99.8731 75.8338 99.6544C75.9379 99.4358 76.1243 99.2676 76.352 99.1868L79.7862 97.9686C80.0139 97.8879 80.2643 97.9012 80.4822 98.0056C80.7001 98.11 80.8678 98.297 80.9483 98.5255C81.0288 98.7539 81.0156 99.0051 80.9115 99.2237C80.8074 99.4424 80.621 99.6106 80.3933 99.6914Z" fill="#6C63FF"/>
<path d="M81.3647 102.448L77.9305 103.666C77.7028 103.747 77.4524 103.733 77.2345 103.629C77.0166 103.525 76.8489 103.338 76.7684 103.109C76.6879 102.881 76.7011 102.629 76.8052 102.411C76.9093 102.192 77.0957 102.024 77.3234 101.943L80.7576 100.725C80.9853 100.644 81.2357 100.657 81.4536 100.762C81.6716 100.866 81.8392 101.053 81.9197 101.282C82.0002 101.51 81.987 101.761 81.8829 101.98C81.7788 102.199 81.5924 102.367 81.3647 102.448Z" fill="#6C63FF"/>
<path d="M82.3362 105.204L78.9019 106.422C78.7892 106.462 78.6697 106.48 78.5503 106.473C78.4309 106.467 78.3139 106.437 78.2059 106.385C78.098 106.334 78.0013 106.261 77.9214 106.172C77.8414 106.083 77.7797 105.979 77.7398 105.865C77.7 105.752 77.6827 105.632 77.689 105.513C77.6953 105.393 77.7251 105.275 77.7766 105.167C77.8282 105.059 77.9005 104.962 77.9894 104.882C78.0783 104.801 78.1821 104.739 78.2948 104.699L81.7291 103.481C81.8418 103.441 81.9613 103.424 82.0807 103.43C82.2001 103.437 82.3172 103.467 82.4251 103.518C82.533 103.57 82.6297 103.642 82.7097 103.732C82.7896 103.821 82.8513 103.925 82.8912 104.038C82.931 104.151 82.9483 104.271 82.942 104.391C82.9357 104.511 82.9059 104.628 82.8544 104.736C82.8028 104.845 82.7305 104.942 82.6416 105.022C82.5527 105.102 82.4489 105.164 82.3362 105.204Z" fill="#6C63FF"/>
<path d="M86.4033 97.5595L82.9691 98.7777C82.8563 98.8177 82.7368 98.835 82.6174 98.8287C82.498 98.8223 82.381 98.7925 82.2731 98.7408C82.1652 98.6891 82.0685 98.6165 81.9885 98.5273C81.9085 98.4381 81.8468 98.334 81.807 98.2209C81.7671 98.1078 81.7498 97.9879 81.7562 97.8681C81.7625 97.7483 81.7922 97.6309 81.8438 97.5226C81.8953 97.4143 81.9676 97.3173 82.0565 97.2371C82.1454 97.1569 82.2492 97.095 82.362 97.055L85.7962 95.8368C86.0239 95.756 86.2743 95.7693 86.4922 95.8737C86.7101 95.9782 86.8778 96.1652 86.9583 96.3936C87.0388 96.6221 87.0256 96.8733 86.9215 97.0919C86.8174 97.3106 86.631 97.4788 86.4033 97.5595Z" fill="#6C63FF"/>
<path d="M87.3747 100.316L83.9405 101.534C83.8278 101.574 83.7083 101.591 83.5889 101.585C83.4694 101.579 83.3524 101.549 83.2445 101.497C83.1366 101.445 83.0399 101.373 82.9599 101.284C82.8799 101.194 82.8183 101.09 82.7784 100.977C82.7385 100.864 82.7213 100.744 82.7276 100.624C82.7339 100.505 82.7637 100.387 82.8152 100.279C82.8668 100.171 82.9391 100.074 83.028 99.9934C83.1169 99.9132 83.2207 99.8513 83.3334 99.8113L86.7676 98.5931C86.8804 98.5531 86.9999 98.5358 87.1193 98.5422C87.2387 98.5485 87.3557 98.5784 87.4636 98.6301C87.5715 98.6818 87.6682 98.7543 87.7482 98.8435C87.8282 98.9327 87.8899 99.0368 87.9297 99.15C87.9696 99.2631 87.9869 99.383 87.9806 99.5028C87.9742 99.6226 87.9445 99.74 87.8929 99.8482C87.8414 99.9565 87.7691 100.054 87.6802 100.134C87.5913 100.214 87.4875 100.276 87.3747 100.316Z" fill="#6C63FF"/>
<path d="M88.3459 103.072L84.9117 104.291C84.684 104.371 84.4336 104.358 84.2157 104.254C83.9978 104.149 83.8301 103.962 83.7496 103.734C83.6691 103.505 83.6823 103.254 83.7864 103.035C83.8905 102.817 84.0769 102.649 84.3046 102.568L87.7388 101.35C87.8516 101.31 87.9711 101.292 88.0905 101.299C88.2099 101.305 88.3269 101.335 88.4348 101.387C88.5427 101.438 88.6394 101.511 88.7194 101.6C88.7994 101.689 88.8611 101.793 88.9009 101.906C88.9408 102.02 88.9581 102.139 88.9518 102.259C88.9454 102.379 88.9157 102.496 88.8641 102.605C88.8126 102.713 88.7403 102.81 88.6514 102.89C88.5625 102.97 88.4587 103.032 88.3459 103.072Z" fill="#6C63FF"/>
<path d="M89.9027 82.5467L17.9897 108.055L18.1112 108.4L90.0241 82.8913L89.9027 82.5467Z" fill="#3F3D56"/>
<path d="M94.4083 113.423L33.6224 134.984C32.1195 135.515 30.4679 135.427 29.03 134.738C27.5921 134.049 26.4853 132.816 25.9525 131.309L15.5103 101.678C14.9809 100.17 15.0692 98.5135 15.7559 97.0709C16.4426 95.6283 17.6716 94.5179 19.1734 93.9833L79.9593 72.4216C81.4622 71.8904 83.1138 71.979 84.5517 72.668C85.9896 73.3569 87.0963 74.59 87.6292 76.0966L98.0713 105.728C98.6008 107.235 98.5125 108.892 97.8258 110.335C97.1391 111.778 95.91 112.888 94.4083 113.423ZM19.2948 94.3278C17.8841 94.83 16.7295 95.8731 16.0844 97.2283C15.4394 98.5835 15.3564 100.14 15.8538 101.556L26.2959 131.187C26.7965 132.603 27.8362 133.761 29.1869 134.408C30.5377 135.055 32.0891 135.139 33.501 134.64L94.2869 113.078C95.6976 112.576 96.8521 111.533 97.4972 110.178C98.1423 108.822 98.2253 107.266 97.7279 105.849L87.2858 76.2184C86.7852 74.8031 85.7455 73.6448 84.3947 72.9976C83.044 72.3504 81.4925 72.2672 80.0807 72.7661L19.2948 94.3278Z" fill="#3F3D56"/>
<path d="M174.755 150H-5.75507C-5.82003 150 -5.88233 149.974 -5.92826 149.928C-5.9742 149.882 -6 149.819 -6 149.754C-6 149.689 -5.9742 149.627 -5.92826 149.581C-5.88233 149.534 -5.82003 149.509 -5.75507 149.509H174.755C174.82 149.509 174.882 149.534 174.928 149.581C174.974 149.627 175 149.689 175 149.754C175 149.819 174.974 149.882 174.928 149.928C174.882 149.974 174.82 150 174.755 150Z" fill="#CBCBCB"/>
</g>
</g>
<defs>
<clipPath id="clip0_221_533">
<rect width="356" height="150" fill="white"/>
</clipPath>
<clipPath id="clip1_221_533">
<rect width="181" height="143" fill="white" transform="translate(175 7)"/>
</clipPath>
<clipPath id="clip2_221_533">
<rect width="181" height="115" fill="white" transform="translate(-6 35)"/>
</clipPath>
</defs>
</svg>
