<svg width="356" height="150" viewBox="0 0 356 150" fill="none" xmlns="http://www.w3.org/2000/svg">
<g clip-path="url(#clip0_221_534)">
<g opacity="0.3">
<mask id="path-1-outside-1_221_534" maskUnits="userSpaceOnUse" x="4" y="26" width="540" height="100" fill="black">
<rect fill="white" x="4" y="26" width="540" height="100"/>
<path d="M60.7067 54.4453C60.2758 50.4136 58.46 47.2744 55.2592 45.0277C52.0893 42.781 47.9652 41.6577 42.8871 41.6577C39.317 41.6577 36.2547 42.1963 33.7003 43.2734C31.1458 44.3506 29.1915 45.8125 27.8374 47.6591C26.4832 49.5057 25.7907 51.6139 25.7599 53.9837C25.7599 55.9534 26.2062 57.6615 27.0987 59.108C28.022 60.5544 29.2685 61.7855 30.8381 62.8011C32.4077 63.786 34.1465 64.6169 36.0547 65.294C37.9628 65.9711 39.8864 66.5405 41.8253 67.0021L50.6889 69.218C54.259 70.049 57.6906 71.1723 60.9837 72.5881C64.3075 74.0038 67.2775 75.7888 69.8935 77.9432C72.5402 80.0975 74.633 82.6982 76.1719 85.745C77.7107 88.7919 78.4801 92.362 78.4801 96.4553C78.4801 101.995 77.0644 106.873 74.233 111.089C71.4015 115.275 67.3082 118.553 61.9531 120.923C56.6288 123.262 50.1811 124.431 42.6101 124.431C35.2545 124.431 28.8684 123.292 23.4517 121.015C18.0658 118.737 13.8494 115.414 10.8026 111.043C7.78646 106.673 6.1553 101.349 5.90909 95.0703H22.7592C23.0054 98.3634 24.0211 101.103 25.8061 103.288C27.5911 105.473 29.9148 107.104 32.777 108.181C35.67 109.258 38.9015 109.797 42.4716 109.797C46.1956 109.797 49.4579 109.243 52.2585 108.135C55.09 106.996 57.3059 105.427 58.9062 103.426C60.5066 101.395 61.3222 99.0251 61.353 96.3168C61.3222 93.8546 60.599 91.8234 59.1832 90.223C57.7675 88.5919 55.7824 87.2377 53.228 86.1605C50.7043 85.0526 47.7498 84.0677 44.3643 83.206L33.608 80.4361C25.8215 78.4356 19.6662 75.4041 15.142 71.3416C10.6487 67.2483 8.40199 61.8163 8.40199 55.0454C8.40199 49.4749 9.91004 44.5968 12.9261 40.4112C15.973 36.2256 20.1125 32.9787 25.3445 30.6704C30.5765 28.3314 36.5009 27.1619 43.1179 27.1619C49.8272 27.1619 55.7055 28.3314 60.7528 30.6704C65.831 32.9787 69.8165 36.1948 72.7095 40.3189C75.6025 44.4122 77.0952 49.121 77.1875 54.4453H60.7067ZM170.431 75.7273C170.431 85.9143 168.523 94.6394 164.706 101.903C160.921 109.135 155.75 114.675 149.195 118.522C142.67 122.369 135.268 124.293 126.99 124.293C118.711 124.293 111.294 122.369 104.738 118.522C98.2136 114.644 93.0431 109.089 89.2268 101.857C85.4413 94.5933 83.5485 85.8835 83.5485 75.7273C83.5485 65.5402 85.4413 56.8305 89.2268 49.598C93.0431 42.3348 98.2136 36.7796 104.738 32.9325C111.294 29.0855 118.711 27.1619 126.99 27.1619C135.268 27.1619 142.67 29.0855 149.195 32.9325C155.75 36.7796 160.921 42.3348 164.706 49.598C168.523 56.8305 170.431 65.5402 170.431 75.7273ZM153.211 75.7273C153.211 68.5563 152.088 62.5088 149.841 57.5845C147.625 52.6295 144.548 48.8902 140.608 46.3665C136.669 43.812 132.129 42.5348 126.99 42.5348C121.85 42.5348 117.31 43.812 113.371 46.3665C109.432 48.8902 106.339 52.6295 104.092 57.5845C101.876 62.5088 100.768 68.5563 100.768 75.7273C100.768 82.8982 101.876 88.9612 104.092 93.9162C106.339 98.8404 109.432 102.58 113.371 105.134C117.31 107.658 121.85 108.92 126.99 108.92C132.129 108.92 136.669 107.658 140.608 105.134C144.548 102.58 147.625 98.8404 149.841 93.9162C152.088 88.9612 153.211 82.8982 153.211 75.7273ZM178.823 28.4545H199.782L227.85 96.9631H228.958L257.026 28.4545H277.985V123H261.55V58.0462H260.673L234.544 122.723H222.264L196.135 57.9077H195.258V123H178.823V28.4545ZM288.835 28.4545H309.794L337.862 96.9631H338.97L367.039 28.4545H387.997V123H371.563V58.0462H370.686L344.556 122.723H332.277L306.147 57.9077H305.27V123H288.835V28.4545ZM398.848 123V28.4545H460.339V42.8118H415.975V68.4794H457.154V82.8366H415.975V108.643H460.709V123H398.848ZM470.013 123V28.4545H505.467C512.731 28.4545 518.824 29.7164 523.749 32.2401C528.704 34.7637 532.443 38.303 534.967 42.8579C537.521 47.3821 538.798 52.6603 538.798 58.6925C538.798 64.7554 537.506 70.0182 534.92 74.4808C532.366 78.9126 528.596 82.3442 523.61 84.7756C518.624 87.1761 512.5 88.3764 505.237 88.3764H479.984V74.1577H502.928C507.175 74.1577 510.653 73.5729 513.362 72.4034C516.07 71.2031 518.07 69.4642 519.363 67.1868C520.686 64.8785 521.348 62.0471 521.348 58.6925C521.348 55.3378 520.686 52.4756 519.363 50.1058C518.04 47.7053 516.024 45.8894 513.315 44.6584C510.607 43.3965 507.114 42.7656 502.836 42.7656H487.14V123H470.013ZM518.855 80.1591L542.261 123H523.148L500.158 80.1591H518.855Z"/>
</mask>
<path d="M60.7067 54.4453L59.7123 54.5516L59.8079 55.4453H60.7067V54.4453ZM55.2592 45.0277L54.681 45.8436L54.6847 45.8462L55.2592 45.0277ZM33.7003 43.2734L34.0888 44.1949H34.0888L33.7003 43.2734ZM27.8374 47.6591L27.031 47.0677H27.031L27.8374 47.6591ZM25.7599 53.9837L24.7599 53.9707V53.9837H25.7599ZM27.0987 59.108L26.2477 59.6331L26.2517 59.6396L26.2558 59.646L27.0987 59.108ZM30.8381 62.8011L30.2948 63.6408L30.3066 63.6482L30.8381 62.8011ZM36.0547 65.294L35.7203 66.2365H35.7203L36.0547 65.294ZM41.8253 67.0021L42.0678 66.0319L42.0569 66.0293L41.8253 67.0021ZM50.6889 69.218L50.4464 70.1882L50.4543 70.1902L50.4622 70.192L50.6889 69.218ZM60.9837 72.5881L60.5887 73.5068L60.5918 73.5081L60.9837 72.5881ZM69.8935 77.9432L69.2578 78.7151L69.2622 78.7187L69.8935 77.9432ZM74.233 111.089L75.0612 111.65L75.0631 111.647L74.233 111.089ZM61.9531 120.923L62.3553 121.838L62.3578 121.837L61.9531 120.923ZM23.4517 121.015L23.0622 121.936L23.0641 121.937L23.4517 121.015ZM10.8026 111.043L9.97952 111.611L9.98224 111.615L10.8026 111.043ZM5.90909 95.0703V94.0703H4.86911L4.90986 95.1095L5.90909 95.0703ZM22.7592 95.0703L23.7565 94.9958L23.6873 94.0703H22.7592V95.0703ZM25.8061 103.288L26.5806 102.655H26.5806L25.8061 103.288ZM32.777 108.181L32.4248 109.117L32.4281 109.118L32.777 108.181ZM52.2585 108.135L52.6264 109.065L52.6317 109.063L52.2585 108.135ZM58.9062 103.426L59.6871 104.051L59.6917 104.045L58.9062 103.426ZM61.353 96.3168L62.3529 96.3281L62.3531 96.3162L62.3529 96.3043L61.353 96.3168ZM59.1832 90.223L58.428 90.8785L58.4342 90.8856L59.1832 90.223ZM53.228 86.1605L52.826 87.0762L52.8327 87.0791L52.8394 87.0819L53.228 86.1605ZM44.3643 83.206L44.115 84.1744L44.1177 84.1751L44.3643 83.206ZM33.608 80.4361L33.8573 79.4677L33.8568 79.4675L33.608 80.4361ZM15.142 71.3416L14.4686 72.0809L14.4739 72.0857L15.142 71.3416ZM12.9261 40.4112L12.1176 39.8227L12.1148 39.8266L12.9261 40.4112ZM25.3445 30.6704L25.7481 31.5854L25.7526 31.5834L25.3445 30.6704ZM60.7528 30.6704L60.3324 31.5778L60.339 31.5808L60.7528 30.6704ZM72.7095 40.3189L71.8909 40.8932L71.8929 40.8961L72.7095 40.3189ZM77.1875 54.4453V55.4453H78.205L78.1873 54.428L77.1875 54.4453ZM61.701 54.339C61.2408 50.0325 59.2804 46.6285 55.8338 44.2092L54.6847 45.8462C57.6396 47.9203 59.3108 50.7946 59.7123 54.5516L61.701 54.339ZM55.8375 44.2118C52.4534 41.8134 48.1092 40.6577 42.8871 40.6577V42.6577C47.8212 42.6577 51.7252 43.7486 54.681 45.8436L55.8375 44.2118ZM42.8871 40.6577C39.2203 40.6577 36.019 41.2104 33.3117 42.352L34.0888 44.1949C36.4904 43.1821 39.4137 42.6577 42.8871 42.6577V40.6577ZM33.3117 42.352C30.6259 43.4846 28.5125 45.0474 27.031 47.0677L28.6438 48.2505C29.8705 46.5776 31.6658 45.2166 34.0888 44.1949L33.3117 42.352ZM27.031 47.0677C25.5491 49.0884 24.7934 51.4004 24.76 53.9707L26.7599 53.9967C26.788 51.8273 27.4173 49.9229 28.6438 48.2504L27.031 47.0677ZM24.7599 53.9837C24.7599 56.1088 25.2432 58.005 26.2477 59.6331L27.9498 58.5828C27.1693 57.3179 26.7599 55.7979 26.7599 53.9837H24.7599ZM26.2558 59.646C27.2629 61.2238 28.6158 62.5543 30.2948 63.6407L31.3813 61.9616C29.9212 61.0168 28.7811 59.8851 27.9416 58.5699L26.2558 59.646ZM30.3066 63.6482C31.9436 64.6754 33.7495 65.5371 35.7203 66.2365L36.3891 64.3516C34.5436 63.6968 32.8717 62.8966 31.3696 61.9541L30.3066 63.6482ZM35.7203 66.2365C37.6616 66.9253 39.6194 67.5049 41.5937 67.9749L42.0569 66.0293C40.1533 65.5761 38.2641 65.0169 36.3891 64.3516L35.7203 66.2365ZM41.5828 67.9723L50.4464 70.1882L50.9315 68.2479L42.0678 66.032L41.5828 67.9723ZM50.4622 70.192C53.976 71.0099 57.3512 72.1149 60.5887 73.5068L61.3786 71.6694C58.03 70.2298 54.542 69.0881 50.9156 68.2441L50.4622 70.192ZM60.5918 73.5081C63.8335 74.8888 66.7203 76.6254 69.2578 78.7151L70.5292 77.1712C67.8347 74.9522 64.7815 73.1188 61.3755 71.668L60.5918 73.5081ZM69.2622 78.7187C71.8 80.7844 73.8038 83.2743 75.2793 86.1958L77.0645 85.2942C75.4623 82.122 73.2805 79.4107 70.5247 77.1676L69.2622 78.7187ZM75.2793 86.1958C76.7348 89.0777 77.4801 92.4877 77.4801 96.4553H79.4801C79.4801 92.2363 78.6866 88.5061 77.0645 85.2942L75.2793 86.1958ZM77.4801 96.4553C77.4801 101.815 76.1135 106.495 73.4028 110.532L75.0631 111.647C78.0153 107.251 79.4801 102.175 79.4801 96.4553H77.4801ZM73.4047 110.529C70.6942 114.536 66.7597 117.702 61.5485 120.008L62.3578 121.837C67.8568 119.404 72.1088 116.014 75.0612 111.65L73.4047 110.529ZM61.5509 120.007C56.3854 122.276 50.0826 123.431 42.6101 123.431V125.431C50.2796 125.431 56.8721 124.247 62.3553 121.838L61.5509 120.007ZM42.6101 123.431C35.3552 123.431 29.1066 122.308 23.8393 120.093L23.0641 121.937C28.6302 124.277 35.1538 125.431 42.6101 125.431V123.431ZM23.8412 120.094C18.6114 117.882 14.5515 114.672 11.6229 110.471L9.98224 111.615C13.1474 116.155 17.5203 119.592 23.0622 121.936L23.8412 120.094ZM11.6256 110.475C8.73555 106.288 7.14849 101.155 6.90832 95.0311L4.90986 95.1095C5.16212 101.542 6.83736 107.058 9.97953 111.611L11.6256 110.475ZM5.90909 96.0703H22.7592V94.0703H5.90909V96.0703ZM21.762 95.1449C22.0208 98.6066 23.0959 101.551 25.0317 103.92L26.5806 102.655C24.9462 100.654 23.9901 98.1202 23.7565 94.9958L21.762 95.1449ZM25.0317 103.92C26.9375 106.253 29.4118 107.983 32.4248 109.117L33.1292 107.245C30.4177 106.225 28.2448 104.692 26.5806 102.655L25.0317 103.92ZM32.4281 109.118C35.4487 110.243 38.8007 110.797 42.4716 110.797V108.797C39.0023 108.797 35.8913 108.274 33.1259 107.244L32.4281 109.118ZM42.4716 110.797C46.2927 110.797 49.6845 110.229 52.6264 109.065L51.8907 107.205C49.2312 108.257 46.0984 108.797 42.4716 108.797V110.797ZM52.6317 109.063C55.5922 107.872 57.9603 106.209 59.6871 104.051L58.1254 102.801C56.6514 104.644 54.5877 106.12 51.8854 107.207L52.6317 109.063ZM59.6917 104.045C61.4354 101.832 62.3198 99.2458 62.3529 96.3281L60.3531 96.3054C60.3247 98.8043 59.5778 100.958 58.1208 102.807L59.6917 104.045ZM62.3529 96.3043C62.3196 93.6411 61.5308 91.3675 59.9322 89.5604L58.4342 90.8856C59.6672 92.2793 60.3248 94.0682 60.3531 96.3293L62.3529 96.3043ZM59.9385 89.5675C58.3982 87.7929 56.2733 86.3594 53.6165 85.2391L52.8394 87.0819C55.2916 88.116 57.1369 89.3908 58.428 90.8785L59.9385 89.5675ZM53.63 85.2449C51.0449 84.1099 48.0362 83.1087 44.611 82.2369L44.1177 84.1751C47.4633 85.0267 50.3637 85.9952 52.826 87.0762L53.63 85.2449ZM44.6137 82.2376L33.8573 79.4677L33.3586 81.4045L44.115 84.1744L44.6137 82.2376ZM33.8568 79.4675C26.1779 77.4947 20.1824 74.5236 15.8102 70.5976L14.4739 72.0857C19.15 76.2846 25.4651 79.3765 33.3591 81.4046L33.8568 79.4675ZM15.8155 70.6024C11.5551 66.7213 9.40199 61.5705 9.40199 55.0454H7.40199C7.40199 62.062 9.74227 67.7754 14.4686 72.0809L15.8155 70.6024ZM9.40199 55.0454C9.40199 49.6671 10.854 44.9974 13.7374 40.9958L12.1148 39.8266C8.96611 44.1963 7.40199 49.2827 7.40199 55.0454H9.40199ZM13.7346 40.9997C16.6671 36.9713 20.6601 33.8301 25.7481 31.5854L24.9408 29.7555C19.5648 32.1273 15.2789 35.4799 12.1177 39.8227L13.7346 40.9997ZM25.7526 31.5834C30.8378 29.31 36.62 28.1619 43.1179 28.1619V26.1619C36.3819 26.1619 30.3151 27.3529 24.9363 29.7575L25.7526 31.5834ZM43.1179 28.1619C49.7114 28.1619 55.4411 29.3111 60.3324 31.5778L61.1733 29.7631C55.9699 27.3518 49.943 26.1619 43.1179 26.1619V28.1619ZM60.339 31.5808C65.2725 33.8233 69.1111 36.9306 71.8909 40.8932L73.5282 39.7446C70.5219 35.4591 66.3894 32.1341 61.1666 29.7601L60.339 31.5808ZM71.8929 40.8961C74.6626 44.8149 76.0986 49.3259 76.1877 54.4627L78.1873 54.428C78.0918 48.9161 76.5424 44.0094 73.5261 39.7417L71.8929 40.8961ZM77.1875 53.4453H60.7067V55.4453H77.1875V53.4453ZM164.706 101.903L163.821 101.438L163.82 101.439L164.706 101.903ZM149.195 118.522L148.689 117.66L148.687 117.661L149.195 118.522ZM104.738 118.522L104.227 119.382L104.232 119.384L104.738 118.522ZM89.2268 101.857L88.34 102.319L88.3424 102.323L89.2268 101.857ZM89.2268 49.598L88.3416 49.1329L88.3408 49.1343L89.2268 49.598ZM104.738 32.9325L104.232 32.0701L104.23 32.0711L104.738 32.9325ZM149.195 32.9325L148.687 33.7939L148.689 33.795L149.195 32.9325ZM164.706 49.598L163.819 50.0602L163.822 50.0647L164.706 49.598ZM149.841 57.5845L148.928 57.9928L148.931 57.9996L149.841 57.5845ZM140.608 46.3665L140.064 47.2055L140.069 47.2085L140.608 46.3665ZM113.371 46.3665L113.91 47.2085L113.915 47.2055L113.371 46.3665ZM104.092 57.5845L103.181 57.1716L103.18 57.1741L104.092 57.5845ZM104.092 93.9162L103.179 94.3244L103.182 94.3313L104.092 93.9162ZM113.371 105.134L112.827 105.973L112.832 105.976L113.371 105.134ZM140.608 105.134L141.148 105.976L141.152 105.973L140.608 105.134ZM149.841 93.9162L148.93 93.5032L148.929 93.5058L149.841 93.9162ZM169.431 75.7273C169.431 85.7907 167.546 94.3483 163.821 101.438L165.591 102.368C169.499 94.9305 171.431 86.0379 171.431 75.7273H169.431ZM163.82 101.439C160.115 108.518 155.071 113.914 148.689 117.66L149.701 119.384C156.43 115.436 161.727 109.752 165.592 102.366L163.82 101.439ZM148.687 117.661C142.33 121.409 135.107 123.293 126.99 123.293V125.293C135.43 125.293 143.01 123.33 149.703 119.383L148.687 117.661ZM126.99 123.293C118.872 123.293 111.633 121.409 105.244 117.66L104.232 119.384C110.954 123.33 118.549 125.293 126.99 125.293V123.293ZM105.249 117.662C98.895 113.886 93.8485 108.473 90.1112 101.39L88.3424 102.323C92.2377 109.705 97.5321 115.402 104.227 119.382L105.249 117.662ZM90.1136 101.394C86.4182 94.304 84.5485 85.7605 84.5485 75.7273H82.5485C82.5485 86.0065 84.4644 94.8825 88.34 102.319L90.1136 101.394ZM84.5485 75.7273C84.5485 65.6625 86.4185 57.12 90.1128 50.0617L88.3408 49.1343C84.4641 56.541 82.5485 65.418 82.5485 75.7273H84.5485ZM90.1121 50.0631C93.8493 42.9503 98.8949 37.5387 105.246 33.7939L104.23 32.0711C97.5322 36.0205 92.2369 41.7192 88.3416 49.1329L90.1121 50.0631ZM105.244 33.795C111.633 30.0459 118.872 28.1619 126.99 28.1619V26.1619C118.549 26.1619 110.954 28.125 104.232 32.0701L105.244 33.795ZM126.99 28.1619C135.107 28.1619 142.33 30.0459 148.687 33.7939L149.703 32.0711C143.01 28.125 135.43 26.1619 126.99 26.1619V28.1619ZM148.689 33.795C155.07 37.5396 160.114 42.95 163.819 50.0602L165.593 49.1358C161.728 41.7195 156.431 36.0196 149.701 32.0701L148.689 33.795ZM163.822 50.0647C167.546 57.1222 169.431 65.6636 169.431 75.7273H171.431C171.431 65.4168 169.499 56.5388 165.591 49.1313L163.822 50.0647ZM154.211 75.7273C154.211 68.4574 153.073 62.259 150.751 57.1694L148.931 57.9996C151.103 62.7585 152.211 68.6553 152.211 75.7273H154.211ZM150.754 57.1763C148.472 52.0725 145.276 48.1692 141.148 45.5244L140.069 47.2085C143.819 49.6111 146.779 53.1865 148.928 57.9928L150.754 57.1763ZM141.152 45.5274C137.036 42.858 132.303 41.5348 126.99 41.5348V43.5348C131.955 43.5348 136.302 44.766 140.064 47.2055L141.152 45.5274ZM126.99 41.5348C121.676 41.5348 116.944 42.858 112.827 45.5274L113.915 47.2055C117.677 44.766 122.024 43.5348 126.99 43.5348V41.5348ZM112.832 45.5244C108.704 48.1684 105.494 52.0699 103.181 57.1716L105.003 57.9975C107.183 53.1891 110.159 49.6119 113.91 47.2085L112.832 45.5244ZM103.18 57.1741C100.89 62.2624 99.768 68.459 99.768 75.7273H101.768C101.768 68.6537 102.862 62.7552 105.004 57.9949L103.18 57.1741ZM99.768 75.7273C99.768 82.9959 100.89 89.2068 103.179 94.3244L105.005 93.5079C102.862 88.7156 101.768 82.8005 101.768 75.7273H99.768ZM103.182 94.3313C105.495 99.4017 108.704 103.3 112.827 105.973L113.915 104.295C110.159 101.859 107.182 98.2792 105.002 93.5011L103.182 94.3313ZM112.832 105.976C116.948 108.613 121.678 109.92 126.99 109.92V107.92C122.022 107.92 117.673 106.703 113.91 104.292L112.832 105.976ZM126.99 109.92C132.301 109.92 137.032 108.613 141.148 105.976L140.069 104.292C136.306 106.703 131.958 107.92 126.99 107.92V109.92ZM141.152 105.973C145.276 103.299 148.47 99.3991 150.753 94.3266L148.929 93.5058C146.78 98.2818 143.819 101.86 140.064 104.295L141.152 105.973ZM150.752 94.3291C153.073 89.2101 154.211 82.9974 154.211 75.7273H152.211C152.211 82.799 151.103 88.7122 148.93 93.5032L150.752 94.3291ZM178.823 28.4545V27.4545H177.823V28.4545H178.823ZM199.782 28.4545L200.707 28.0754L200.453 27.4545H199.782V28.4545ZM227.85 96.9631L226.925 97.3422L227.179 97.9631H227.85V96.9631ZM228.958 96.9631V97.9631H229.629L229.883 97.3422L228.958 96.9631ZM257.026 28.4545V27.4545H256.355L256.101 28.0754L257.026 28.4545ZM277.985 28.4545H278.985V27.4545H277.985V28.4545ZM277.985 123V124H278.985V123H277.985ZM261.55 123H260.55V124H261.55V123ZM261.55 58.0462H262.55V57.0462H261.55V58.0462ZM260.673 58.0462V57.0462H259.999L259.746 57.6716L260.673 58.0462ZM234.544 122.723V123.723H235.218L235.471 123.098L234.544 122.723ZM222.264 122.723L221.337 123.097L221.589 123.723H222.264V122.723ZM196.135 57.9077L197.062 57.5338L196.81 56.9077H196.135V57.9077ZM195.258 57.9077V56.9077H194.258V57.9077H195.258ZM195.258 123V124H196.258V123H195.258ZM178.823 123H177.823V124H178.823V123ZM178.823 29.4545H199.782V27.4545H178.823V29.4545ZM198.856 28.8337L226.925 97.3422L228.775 96.5839L200.707 28.0754L198.856 28.8337ZM227.85 97.9631H228.958V95.9631H227.85V97.9631ZM229.883 97.3422L257.951 28.8337L256.101 28.0754L228.033 96.5839L229.883 97.3422ZM257.026 29.4545H277.985V27.4545H257.026V29.4545ZM276.985 28.4545V123H278.985V28.4545H276.985ZM277.985 122H261.55V124H277.985V122ZM262.55 123V58.0462H260.55V123H262.55ZM261.55 57.0462H260.673V59.0462H261.55V57.0462ZM259.746 57.6716L233.617 122.348L235.471 123.098L261.6 58.4207L259.746 57.6716ZM234.544 121.723H222.264V123.723H234.544V121.723ZM223.191 122.349L197.062 57.5338L195.207 58.2816L221.337 123.097L223.191 122.349ZM196.135 56.9077H195.258V58.9077H196.135V56.9077ZM194.258 57.9077V123H196.258V57.9077H194.258ZM195.258 122H178.823V124H195.258V122ZM179.823 123V28.4545H177.823V123H179.823ZM288.835 28.4545V27.4545H287.835V28.4545H288.835ZM309.794 28.4545L310.72 28.0754L310.465 27.4545H309.794V28.4545ZM337.862 96.9631L336.937 97.3422L337.191 97.9631H337.862V96.9631ZM338.97 96.9631V97.9631H339.641L339.896 97.3422L338.97 96.9631ZM367.039 28.4545V27.4545H366.368L366.113 28.0754L367.039 28.4545ZM387.997 28.4545H388.997V27.4545H387.997V28.4545ZM387.997 123V124H388.997V123H387.997ZM371.563 123H370.563V124H371.563V123ZM371.563 58.0462H372.563V57.0462H371.563V58.0462ZM370.686 58.0462V57.0462H370.011L369.758 57.6716L370.686 58.0462ZM344.556 122.723V123.723H345.231L345.484 123.098L344.556 122.723ZM332.276 122.723L331.349 123.097L331.601 123.723H332.276V122.723ZM306.147 57.9077L307.075 57.5338L306.822 56.9077H306.147V57.9077ZM305.27 57.9077V56.9077H304.27V57.9077H305.27ZM305.27 123V124H306.27V123H305.27ZM288.835 123H287.835V124H288.835V123ZM288.835 29.4545H309.794V27.4545H288.835V29.4545ZM308.869 28.8337L336.937 97.3422L338.788 96.5839L310.72 28.0754L308.869 28.8337ZM337.862 97.9631H338.97V95.9631H337.862V97.9631ZM339.896 97.3422L367.964 28.8337L366.113 28.0754L338.045 96.5839L339.896 97.3422ZM367.039 29.4545H387.997V27.4545H367.039V29.4545ZM386.997 28.4545V123H388.997V28.4545H386.997ZM387.997 122H371.563V124H387.997V122ZM372.563 123V58.0462H370.563V123H372.563ZM371.563 57.0462H370.686V59.0462H371.563V57.0462ZM369.758 57.6716L343.629 122.348L345.484 123.098L371.613 58.4207L369.758 57.6716ZM344.556 121.723H332.276V123.723H344.556V121.723ZM333.204 122.349L307.075 57.5338L305.22 58.2816L331.349 123.097L333.204 122.349ZM306.147 56.9077H305.27V58.9077H306.147V56.9077ZM304.27 57.9077V123H306.27V57.9077H304.27ZM305.27 122H288.835V124H305.27V122ZM289.835 123V28.4545H287.835V123H289.835ZM398.848 123H397.848V124H398.848V123ZM398.848 28.4545V27.4545H397.848V28.4545H398.848ZM460.339 28.4545H461.339V27.4545H460.339V28.4545ZM460.339 42.8118V43.8118H461.339V42.8118H460.339ZM415.975 42.8118V41.8118H414.975V42.8118H415.975ZM415.975 68.4794H414.975V69.4794H415.975V68.4794ZM457.154 68.4794H458.154V67.4794H457.154V68.4794ZM457.154 82.8366V83.8366H458.154V82.8366H457.154ZM415.975 82.8366V81.8366H414.975V82.8366H415.975ZM415.975 108.643H414.975V109.643H415.975V108.643ZM460.709 108.643H461.709V107.643H460.709V108.643ZM460.709 123V124H461.709V123H460.709ZM399.848 123V28.4545H397.848V123H399.848ZM398.848 29.4545H460.339V27.4545H398.848V29.4545ZM459.339 28.4545V42.8118H461.339V28.4545H459.339ZM460.339 41.8118H415.975V43.8118H460.339V41.8118ZM414.975 42.8118V68.4794H416.975V42.8118H414.975ZM415.975 69.4794H457.154V67.4794H415.975V69.4794ZM456.154 68.4794V82.8366H458.154V68.4794H456.154ZM457.154 81.8366H415.975V83.8366H457.154V81.8366ZM414.975 82.8366V108.643H416.975V82.8366H414.975ZM415.975 109.643H460.709V107.643H415.975V109.643ZM459.709 108.643V123H461.709V108.643H459.709ZM460.709 122H398.848V124H460.709V122ZM470.013 123H469.013V124H470.013V123ZM470.013 28.4545V27.4545H469.013V28.4545H470.013ZM523.749 32.2401L523.292 33.13L523.295 33.1311L523.749 32.2401ZM534.967 42.8579L534.092 43.3426L534.096 43.3496L534.967 42.8579ZM534.92 74.4808L534.055 73.9796L534.054 73.9814L534.92 74.4808ZM523.61 84.7756L524.044 85.6766L524.048 85.6744L523.61 84.7756ZM479.984 88.3764H478.984V89.3764H479.984V88.3764ZM479.984 74.1577V73.1577H478.984V74.1577H479.984ZM513.362 72.4034L513.758 73.3215L513.767 73.3176L513.362 72.4034ZM519.363 67.1868L518.495 66.6894L518.493 66.6932L519.363 67.1868ZM519.363 50.1058L518.487 50.5886L518.49 50.5934L519.363 50.1058ZM513.315 44.6584L512.893 45.5649L512.902 45.5687L513.315 44.6584ZM487.14 42.7656V41.7656H486.14V42.7656H487.14ZM487.14 123V124H488.14V123H487.14ZM518.855 80.1591L519.733 79.6796L519.448 79.1591H518.855V80.1591ZM542.261 123V124H543.946L543.138 122.521L542.261 123ZM523.148 123L522.267 123.473L522.55 124H523.148V123ZM500.158 80.1591V79.1591H498.487L499.277 80.6319L500.158 80.1591ZM471.013 123V28.4545H469.013V123H471.013ZM470.013 29.4545H505.467V27.4545H470.013V29.4545ZM505.467 29.4545C512.62 29.4545 518.547 30.6977 523.292 33.13L524.205 31.3501C519.102 28.7351 512.841 27.4545 505.467 27.4545V29.4545ZM523.295 33.1311C528.085 35.5708 531.672 38.9741 534.092 43.3426L535.841 42.3733C533.214 37.6319 529.322 33.9567 524.202 31.349L523.295 33.1311ZM534.096 43.3496C536.553 47.7011 537.798 52.8046 537.798 58.6925H539.798C539.798 52.516 538.489 47.0631 535.837 42.3663L534.096 43.3496ZM537.798 58.6925C537.798 64.6106 536.538 69.6941 534.055 73.9796L535.786 74.9821C538.474 70.3423 539.798 64.9003 539.798 58.6925H537.798ZM534.054 73.9814C531.608 78.2257 527.994 81.5251 523.172 83.8767L524.048 85.6744C529.198 83.1633 533.124 79.5996 535.787 74.9802L534.054 73.9814ZM523.176 83.8746C518.361 86.1929 512.395 87.3764 505.237 87.3764V89.3764C512.605 89.3764 518.887 88.1594 524.044 85.6766L523.176 83.8746ZM505.237 87.3764H479.984V89.3764H505.237V87.3764ZM480.984 88.3764V74.1577H478.984V88.3764H480.984ZM479.984 75.1577H502.928V73.1577H479.984V75.1577ZM502.928 75.1577C507.257 75.1577 510.882 74.5633 513.758 73.3215L512.965 71.4853C510.424 72.5825 507.094 73.1577 502.928 73.1577V75.1577ZM513.767 73.3176C516.644 72.0424 518.821 70.1683 520.233 67.6804L518.493 66.6932C517.32 68.7602 515.496 70.3638 512.956 71.4892L513.767 73.3176ZM520.23 67.6842C521.661 65.1899 522.348 62.1768 522.348 58.6925H520.348C520.348 61.9174 519.712 64.5672 518.495 66.6894L520.23 67.6842ZM522.348 58.6925C522.348 55.207 521.66 52.1684 520.236 49.6183L518.49 50.5934C519.713 52.7829 520.348 55.4687 520.348 58.6925H522.348ZM520.239 49.623C518.802 47.0176 516.616 45.0601 513.729 43.748L512.902 45.5687C515.432 46.7188 517.277 48.3929 518.487 50.5886L520.239 49.623ZM513.738 43.7519C510.853 42.4078 507.201 41.7656 502.836 41.7656V43.7656C507.026 43.7656 510.361 44.3853 512.893 45.5648L513.738 43.7519ZM502.836 41.7656H487.14V43.7656H502.836V41.7656ZM486.14 42.7656V123H488.14V42.7656H486.14ZM487.14 122H470.013V124H487.14V122ZM517.978 80.6385L541.383 123.479L543.138 122.521L519.733 79.6796L517.978 80.6385ZM542.261 122H523.148V124H542.261V122ZM524.03 122.527L501.04 79.6862L499.277 80.6319L522.267 123.473L524.03 122.527ZM500.158 81.1591H518.855V79.1591H500.158V81.1591Z" fill="white" mask="url(#path-1-outside-1_221_534)"/>
</g>
<g clip-path="url(#clip1_221_534)">
<path d="M254.506 64.6248C270.26 64.6248 283.031 51.8486 283.031 36.0883C283.031 20.328 270.26 7.55176 254.506 7.55176C238.752 7.55176 225.981 20.328 225.981 36.0883C225.981 51.8486 238.752 64.6248 254.506 64.6248Z" fill="#FF6884"/>
<path d="M297.122 11.0269L242.18 41.3028C235.833 49.4434 356.429 49.9466 355.434 41.3327L302.157 11.0568C300.641 10.1951 298.653 10.1832 297.122 11.0269Z" fill="#6C63FF"/>
<path opacity="0.2" d="M297.122 11.0269L242.18 41.3028C235.833 49.4434 356.429 49.9466 355.434 41.3327L302.157 11.0568C300.641 10.1951 298.653 10.1832 297.122 11.0269Z" fill="black"/>
<path opacity="0.8" d="M355.206 150L341.23 149.702H245.398L219 149.106C306.518 128.414 279.609 130.196 355.206 150Z" fill="#F2F2F2"/>
<path d="M342.34 149.106L341.23 149.702H245.398C310.907 136.174 271.632 137.365 342.34 149.106Z" fill="#E6E6E6"/>
<path d="M296.035 8.49944H300.159L298.768 0.65635C298.682 0.171786 298.353 0 298.097 0C297.841 0 297.512 0.171786 297.426 0.65635L296.035 8.49944Z" fill="#3F3D56"/>
<path d="M300.191 34.3773H295.644V145.34H300.191V34.3773Z" fill="#3F3D56"/>
<path d="M297.93 51.6994C295.99 51.6994 294.166 50.9478 292.787 49.5783L281.31 38.1787L282.248 37.2338L293.725 48.6334C294.866 49.7669 296.373 50.3856 297.989 50.3676C299.597 50.3524 301.099 49.7081 302.219 48.5534L313.186 37.2426L314.141 38.1698L303.174 49.4806C301.805 50.8927 299.968 51.6805 298.001 51.6992C297.978 51.6994 297.954 51.6994 297.93 51.6994Z" fill="#3F3D56"/>
<path d="M299.521 42.9965C293.873 42.9965 288.181 42.9771 282.656 42.938C270.951 42.8547 260.958 42.6903 253.756 42.4622C241.482 42.0735 241.351 41.6317 241.295 41.4433C241.282 41.3997 241.278 41.3151 241.393 41.2389L296.184 5.19274C297.502 4.32374 299.197 4.33555 300.503 5.22373L355.897 41.2686C356.012 41.347 356.007 41.4318 355.993 41.4754C355.924 41.697 355.714 42.3712 331.392 42.7672C322.138 42.9179 310.923 42.9965 299.521 42.9965Z" fill="#6C63FF"/>
<path d="M310.069 96.481L303.125 96.4886C302.348 98.2174 303.41 100.239 304.769 101.561C306.127 102.882 307.831 103.896 308.834 105.504C311.06 109.073 308.962 113.766 309.697 117.908C310.687 123.485 316.532 126.995 318.312 132.372C319.318 135.414 318.861 138.905 317.104 141.585C316.78 142.079 316.405 142.568 316.292 143.148C316.138 143.938 316.553 144.804 317.265 145.179C317.976 145.553 318.926 145.404 319.488 144.829C318.939 145.453 319.119 146.508 319.736 147.066C320.352 147.624 321.271 147.743 322.085 147.571C324.721 147.014 326.049 143.967 326.155 141.273C326.262 138.579 325.586 135.85 326.113 133.206C326.45 137 330.741 139.41 331.077 143.204C331.14 143.907 327.255 146.022 327.617 146.629C328.531 148.161 330.708 148.167 332.483 147.983C335.537 147.667 338.93 147.174 340.846 144.773C342.137 143.156 342.471 140.979 342.514 138.909C342.625 133.507 341.016 128.082 337.978 123.614C333.934 117.667 327.507 113.453 324.333 107C323.254 104.807 322.594 102.429 321.544 100.221C320.494 98.0139 318.95 95.9019 316.717 94.9114C314.483 93.9208 311.476 94.4094 310.187 96.4858" fill="#3F3D56"/>
<path d="M331.601 143.955C331.463 143.955 331.328 143.926 331.2 143.866C331.101 143.82 331.058 143.702 331.104 143.603C331.151 143.504 331.268 143.46 331.368 143.507C331.586 143.609 331.797 143.542 331.935 143.468C332.219 143.316 332.441 143.004 332.488 142.693C332.579 142.091 332.277 141.475 332.011 140.933C331.235 139.35 330.468 137.655 330.353 135.864C330.223 133.845 331.056 131.964 332.476 131.073C333.531 130.41 334.926 130.236 336.404 130.584C337.669 130.882 338.836 131.506 340.019 132.175C340.114 132.229 340.148 132.35 340.094 132.445C340.04 132.541 339.919 132.574 339.824 132.52C338.623 131.841 337.529 131.256 336.313 130.97C334.939 130.647 333.651 130.803 332.686 131.408C331.389 132.224 330.628 133.963 330.749 135.839C330.859 137.557 331.609 139.211 332.367 140.758C332.644 141.323 332.99 142.027 332.88 142.752C332.814 143.188 332.517 143.606 332.123 143.817C331.951 143.909 331.774 143.955 331.601 143.955Z" fill="#2F2E41"/>
<path d="M320.049 99.9326C321.068 101.956 320.53 104.642 318.811 106.117C318.442 106.433 318.026 106.698 317.696 107.056C317.366 107.413 317.124 107.897 317.207 108.376C316.081 107.258 314.932 106.11 314.251 104.676C313.57 103.243 313.437 101.444 314.323 100.128C314.746 99.4997 315.363 99.0289 315.843 98.4435C316.323 97.8581 316.669 97.061 316.41 96.3497" fill="#2F2E41"/>
<path d="M340.303 138.786C339.764 140.433 340.651 142.329 342.106 143.271C343.561 144.212 345.441 144.309 347.121 143.884C350.369 143.06 353.036 140.278 353.724 136.997C354.01 135.633 353.989 134.17 354.637 132.936C355.044 132.16 355.715 131.459 355.734 130.583C355.75 129.871 355.288 129.195 354.658 128.864C354.028 128.533 353.26 128.521 352.582 128.737C350.965 129.251 349.973 130.889 349.458 132.506C348.944 134.124 348.752 135.853 348.004 137.377C347.257 138.9 345.711 140.23 344.031 139.998C342.577 139.797 341.347 138.486 339.891 138.665" fill="#3F3D56"/>
<path d="M259.09 118.227C257.124 118.528 255.686 119.787 255.878 121.039C256.07 122.29 257.819 123.06 259.786 122.758C260.573 122.649 261.322 122.352 261.971 121.893L276.193 119.749L276.729 114.835L261.435 118.397C260.678 118.154 259.874 118.095 259.09 118.227Z" fill="#FFB6B6"/>
<path d="M294.914 107.979L291.691 114.822L275.486 120.28L276.275 114.718L291.229 107.648L294.914 107.979Z" fill="#E6E6E6"/>
<path d="M265.026 133.963L262.132 141.286L258.387 138.731L260.6 131.067L265.026 133.963Z" fill="#FFB6B6"/>
<path d="M252.939 131.238L245.278 138.561L248.343 141.797L256.174 135.666L252.939 131.238Z" fill="#FFB6B6"/>
<path d="M296.35 107.394L296.265 106.798L294.307 102.966L287.838 104.669L289.03 109.949L296.35 107.394Z" fill="#FFB6B6"/>
<path d="M293.626 132.941L293.825 135.499C293.825 135.499 294.648 146.225 288.008 147.076C281.369 147.928 278.475 148.779 274.559 142.137L268.431 131.238L264.851 135.499L260.089 131.748C260.089 131.748 263.494 118.464 266.218 117.953C266.558 117.89 266.899 117.858 267.234 117.851C269.489 117.804 271.614 118.907 272.964 120.715L280.688 131.067L283.497 129.79L293.626 132.941Z" fill="#2F2E41"/>
<path d="M256.854 140.945L258.575 138.406L262.523 140.281C262.523 140.281 263.834 144.862 262.302 145.373C260.77 145.884 256.514 145.203 256.514 145.203C256.514 145.203 248.683 146.906 248.513 145.373C248.342 143.84 252.088 143.5 252.088 143.5L256.854 140.945Z" fill="#FFB6B6"/>
<path d="M273.538 138.901L261.706 131.443L255.663 136.858L251.577 132.089C251.577 132.089 259.068 121.019 261.281 120.508C263.494 119.997 267.069 119.656 267.069 119.656L277.964 129.705L273.538 138.901Z" fill="#2F2E41"/>
<path d="M246.103 137.907L248.605 141.478L248.507 142.579C248.507 142.579 247.491 147.005 245.108 145.508C242.725 144.011 242.554 143.67 242.554 143.67C242.554 143.67 235.745 145.203 235.064 142.478C234.383 139.753 236.255 140.264 236.255 140.264L237.956 141.286L244.584 139.069L246.103 137.907Z" fill="#FFB6B6"/>
<path d="M289.881 106.543C292.89 106.543 295.329 104.103 295.329 101.093C295.329 98.0829 292.89 95.6429 289.881 95.6429C286.872 95.6429 284.433 98.0829 284.433 101.093C284.433 104.103 286.872 106.543 289.881 106.543Z" fill="#FFB6B6"/>
<path d="M288.604 108.842L296.435 106.458C296.435 106.458 299.5 113.611 298.989 116.846C298.478 120.082 293.825 135.499 293.825 135.499L283.497 129.79C283.497 129.79 283.327 126.384 282.816 124.851C282.305 123.318 280.688 118.635 284.263 114.718C287.838 110.8 288.604 108.842 288.604 108.842Z" fill="#E6E6E6"/>
<path d="M271.369 144.604C270.094 146.131 269.849 148.027 270.821 148.838C271.793 149.65 273.613 149.069 274.888 147.541C275.405 146.937 275.771 146.218 275.954 145.445L288.018 131.912L284.28 129.89L273.24 143.179C272.511 143.497 271.87 143.986 271.369 144.604Z" fill="#FFB6B6"/>
<path d="M294.611 112.278L296.462 119.613L287.403 134.12L288.22 133.933L283.269 130.294L284.484 129.321L291.554 114.362L294.611 112.278Z" fill="#E6E6E6"/>
<path d="M284.859 100.156C286.256 100.153 286.335 100.162 286.561 100.156C288.294 100.11 288.747 99.4284 289.626 99.4749C291.193 99.5579 289.124 107.421 288.264 111.056C287.42 114.621 290.272 117.816 290.477 118.039C293.372 121.188 298.457 121.764 299.329 120.423C300.035 119.337 297.532 117.687 298.138 115.314C298.729 112.994 301.46 113.241 302.223 111.056C303.023 108.767 300.336 107.613 298.648 102.03C297.679 98.8228 297.85 98.2252 296.946 96.239C294.528 90.93 282.677 93.1905 284.008 98.1124C284.265 99.0645 283.58 100.159 284.859 100.156Z" fill="#2F2E41"/>
</g>
<g clip-path="url(#clip2_221_534)">
<path d="M123.244 87.7392H105.719L109.68 23.7028L112.264 8.61056L112.757 6.06425C113.34 3.04928 117.741 3.45191 117.775 6.52341C117.856 13.6645 114.886 20.385 115.031 23.7028C115.685 38.7231 117.051 60.0216 119.685 66.2997C121.641 70.9642 122.686 85.9845 123.244 87.7392Z" fill="#3F3D56"/>
<path d="M225.729 87.7392H209.527L207.825 23.7029L204.56 8.61341C204.523 5.53463 208.928 5.03599 209.569 8.0464C209.569 8.0464 212.785 14.7618 213.176 23.7029C213.83 38.7232 219.536 60.0216 222.17 66.2997C224.126 70.9642 225.172 85.9846 225.729 87.7392Z" fill="#3F3D56"/>
<path d="M128.575 45.777C132.24 46.0739 140.756 50.5727 140.756 50.5727C147.373 57.2471 157.256 57.6429 163.857 57.9072C173.671 58.3003 181.101 55.2228 186.538 52.9705C186.538 52.9705 199.249 50.0212 199.419 50.0085C199.621 49.9933 199.813 50.4965 199.839 50.5727C200.258 51.8222 195.646 56.4509 190.318 58.0483C189.592 58.2659 187.946 58.6994 186.258 60.023C185.21 60.8447 184.595 61.658 184.438 61.8566C183.008 63.6692 175.412 70.5741 166.797 70.8838C159.43 71.1486 153.54 66.5098 146.916 61.2924C144.289 59.2231 144.604 59.0703 141.316 56.4967C133.859 50.6602 130.13 47.742 128.435 46.7643C128.2 46.6289 127.378 46.1657 127.455 45.9181C127.526 45.692 128.312 45.7557 128.575 45.777Z" fill="#6C63FF"/>
<path d="M127.455 46.0591C127.43 46.0591 127.404 46.0522 127.381 46.0379L109.152 34.6382C109.086 34.5972 109.066 34.5102 109.107 34.444C109.147 34.3777 109.234 34.3573 109.299 34.3985L127.529 45.7982C127.595 45.8393 127.615 45.9263 127.574 45.9925C127.547 46.0354 127.502 46.0591 127.455 46.0591Z" fill="#3F3D56"/>
<path d="M199.419 50.1495C199.368 50.1495 199.32 50.122 199.295 50.0737C199.259 50.0047 199.285 49.9195 199.354 49.8834L215.125 41.5857C215.193 41.5496 215.278 41.5763 215.313 41.6454C215.349 41.7144 215.323 41.7996 215.254 41.8357L199.484 50.1335C199.463 50.1444 199.441 50.1495 199.419 50.1495Z" fill="#3F3D56"/>
<path d="M104 87.8322C104 87.9253 104.074 88 104.167 88H126.468C126.561 88 126.635 87.9253 126.635 87.8322C126.635 87.7391 126.561 87.6643 126.468 87.6643H104.167C104.074 87.6643 104 87.7391 104 87.8322Z" fill="#3F3D56"/>
<path d="M203.825 87.8322C203.825 87.9253 203.899 88 203.992 88H227.833C227.926 88 228 87.9253 228 87.8322C228 87.7391 227.926 87.6643 227.833 87.6643H203.992C203.899 87.6643 203.825 87.7391 203.825 87.8322Z" fill="#3F3D56"/>
<path d="M159.303 87.8322C159.303 87.9253 159.377 88 159.469 88H183.311C183.404 88 183.478 87.9253 183.478 87.8322C183.478 87.7391 183.404 87.6643 183.311 87.6643H159.469C159.377 87.6643 159.303 87.7391 159.303 87.8322Z" fill="#3F3D56"/>
<path d="M143.009 48.3693C143.009 48.3693 142.116 49.784 142.851 50.617C143.586 51.4501 148.03 54.769 148.03 54.769C148.03 54.769 150.83 56.4985 150.556 54.1166C150.282 51.7347 146.29 49.1857 146.29 49.1857L143.009 48.3693Z" fill="#E6E6E6"/>
<path d="M150.275 44.6252C149.796 44.5787 149.35 45.1545 149.278 45.9116C149.245 46.2136 149.284 46.5192 149.392 46.8029L149.321 47.6618L149.306 47.6633L148.31 51.6074C148.079 52.5245 148.268 53.507 148.854 54.2464C149.203 54.6863 149.613 54.9547 149.987 54.5581C150.607 53.8999 150.587 50.6835 150.522 48.8443L150.727 46.9327C150.887 46.675 150.984 46.3825 151.009 46.0796C151.081 45.3228 150.753 44.6716 150.275 44.6252Z" fill="#FFB6B6"/>
<path d="M151.698 44.4545L151.692 44.3951C151.688 44.3479 151.667 44.3053 151.635 44.2764C151.602 44.2475 151.56 44.2368 151.519 44.2444L149.55 44.6797C149.509 44.6889 149.475 44.7162 149.453 44.7558C149.432 44.7969 149.425 44.8456 149.436 44.8913L149.454 44.9704L149.585 45.5381L150.091 47.7297C150.109 47.8088 150.173 47.8605 150.241 47.8545C150.248 47.8545 150.253 47.8545 150.26 47.8529L151.817 47.4968C151.832 47.4938 151.847 47.4877 151.86 47.4785C151.91 47.4466 151.94 47.3827 151.935 47.3142L151.698 44.4545Z" fill="#6C63FF"/>
<path d="M151.659 44.1242C151.631 44.1249 151.594 44.1263 151.548 44.1286C151.558 44.101 151.559 44.0697 151.55 44.0391L151.491 43.8266C151.476 43.7715 151.432 43.734 151.382 43.7337C151.084 43.7319 150.065 43.7588 149.469 44.187C149.432 44.2138 149.411 44.2634 149.416 44.3141L149.436 44.5473C149.438 44.5761 149.448 44.6017 149.463 44.6219C149.412 44.6462 149.362 44.6714 149.312 44.6981C149.281 44.7149 149.261 44.7518 149.261 44.7918L149.263 44.8923C149.263 44.956 149.314 45.0033 149.367 44.991L151.72 44.4505C151.774 44.4382 151.805 44.3727 151.785 44.3136L151.743 44.1892C151.73 44.1491 151.696 44.1232 151.659 44.1242Z" fill="#3F3D56"/>
<path d="M145.572 47.2722L144.968 49.2507L142.399 48.642L142.248 45.4459L145.572 47.2722Z" fill="#FFB6B6"/>
<path d="M141.946 48.1854L145.27 48.4898L146.601 49.8002L148.442 51.3815C148.442 51.3815 149.5 52.9034 149.198 54.8819L151.01 56.4038L146.478 61.0846L140.738 56.2516C140.738 56.2516 138.774 50.3161 141.946 48.1854Z" fill="#E6E6E6"/>
<path d="M149.802 56.556L151.121 56.4038L153.262 56.556L160.296 52.3358C161.181 51.8051 162.325 52.0824 162.873 52.9607L168.534 62.0349L166.721 63.2524L161.132 57.4691L154.161 63.2524C154.161 63.2524 147.083 66.983 146.478 61.0846L149.802 56.556Z" fill="#2F2E41"/>
<path d="M154.183 61.8828L165.513 60.8174L176.239 63.5569L176.843 61.274L162.189 55.9473L156.902 57.317L154.183 61.8828Z" fill="#2F2E41"/>
<path d="M141.476 49.4231C141.476 49.4231 140.437 50.7329 141.079 51.6407C141.721 52.5485 145.785 56.3294 145.785 56.3294C145.785 56.3294 148.384 58.352 148.366 55.9542C148.347 53.5565 144.651 50.5901 144.651 50.5901L141.476 49.4231Z" fill="#E6E6E6"/>
<path d="M144.691 47.3677C146.275 47.3677 147.559 46.074 147.559 44.4781C147.559 42.8822 146.275 41.5885 144.691 41.5885C143.107 41.5885 141.823 42.8822 141.823 44.4781C141.823 46.074 143.107 47.3677 144.691 47.3677Z" fill="#FFB6B6"/>
<path d="M147.335 43.9815C146.599 43.9797 146.558 43.9847 146.439 43.9815C145.526 43.9572 145.288 43.5956 144.825 43.6203C144 43.6643 145.089 47.8333 145.542 49.7607C145.987 51.6509 144.485 53.3447 144.377 53.463C142.853 55.133 140.176 55.4383 139.716 54.7272C139.344 54.1515 140.662 53.2763 140.344 52.0182C140.032 50.7883 138.594 50.9193 138.193 49.7607C137.772 48.5473 139.186 47.9354 140.075 44.9748C140.585 43.2745 140.495 42.9577 140.971 41.9046C142.244 39.0897 148.484 40.2882 147.783 42.8979C147.648 43.4027 148.008 43.9831 147.335 43.9815Z" fill="#2F2E41"/>
<path d="M127.665 45.8475C131.33 46.1444 139.781 52.328 139.781 52.328C146.398 59.0024 156.282 59.3983 162.882 59.6626C172.696 60.0556 180.126 56.9782 185.563 54.7259C185.563 54.7259 196.829 56.5717 198.164 52.187C198.177 52.1452 198.275 51.7765 198.444 51.7638C198.647 51.7487 198.838 52.2518 198.864 52.328C199.284 53.5775 194.671 58.2062 189.344 59.8036C188.618 60.0213 186.971 60.4547 185.283 61.7783C184.235 62.6001 183.62 63.4134 183.463 63.612C182.034 65.4246 174.437 72.3294 165.822 72.6391C158.455 72.904 152.565 68.2652 145.941 63.0478C143.314 60.9784 143.629 60.8256 140.341 58.2521C132.884 52.4156 129.156 49.4973 127.46 48.5197C127.226 48.3842 126.888 45.9541 126.965 45.7065C127.036 45.4804 127.402 45.8262 127.665 45.8475Z" fill="#6C63FF"/>
<path d="M157.149 60.933C157.361 60.4993 156.986 59.8745 156.309 59.5375C156.04 59.3991 155.743 59.3275 155.441 59.3287L154.669 58.9565L154.673 58.9421L151.367 56.6044C150.598 56.0608 149.619 55.8899 148.725 56.1794C148.193 56.3516 147.798 56.6431 148.033 57.1358C148.424 57.9534 151.416 59.0768 153.146 59.6681L154.847 60.5403C155.029 60.7825 155.266 60.9773 155.538 61.1082C156.215 61.4453 156.936 61.3668 157.149 60.933Z" fill="#FFB6B6"/>
<path d="M175.715 39.276C175.715 39.276 174.627 37.0842 174.845 35.1116L171.224 37.0021L171.364 40.591L175.715 39.276Z" fill="#A0616A"/>
<path d="M172.517 38.0145C174.321 38.0145 175.783 36.5414 175.783 34.7243C175.783 32.9072 174.321 31.4341 172.517 31.4341C170.713 31.4341 169.251 32.9072 169.251 34.7243C169.251 36.5414 170.713 38.0145 172.517 38.0145Z" fill="#A0616A"/>
<path d="M176.804 86.3929L174.812 86.3927L173.864 78.6486L176.805 78.6488L176.804 86.3929Z" fill="#A0616A"/>
<path d="M169.977 86.3474C169.914 86.4526 169.882 86.7925 169.882 86.9149C169.882 87.2912 170.185 87.5963 170.558 87.5963H176.73C176.985 87.5963 177.191 87.3882 177.191 87.1314V86.8726C177.191 86.8726 177.497 86.0946 176.868 85.1356C176.868 85.1356 176.087 85.8865 174.919 84.7104L174.575 84.0822L172.083 85.9182L170.702 86.0894C170.4 86.1269 170.132 86.0836 169.977 86.3474Z" fill="#2F2E41"/>
<path d="M170.929 39.2761L175.715 38.6185L179.414 40.372L179.631 53.961C179.631 53.961 170.533 55.0569 169.099 53.6323C167.665 52.2076 168.753 40.8103 168.753 40.8103L170.929 39.2761Z" fill="#E6E6E6"/>
<path d="M173.334 35.5625H174.212C174.212 35.5625 174.974 34.6178 174.871 35.1934C174.769 35.769 175.179 36.3884 175.179 36.3884L175.794 36.182C175.794 36.182 177.023 30.9725 173.334 30.6863C169.645 30.4001 168.825 33.291 168.825 33.291C168.825 33.291 169.03 34.7365 169.44 34.3235C169.85 33.9105 172.104 33.704 172.104 33.704L173.334 35.5625Z" fill="#2F2E41"/>
<path d="M168.713 71.0603L166.89 71.8722L162.914 65.1762L165.604 63.9778L168.713 71.0603Z" fill="#A0616A"/>
<path d="M162.45 73.8011C162.436 73.9227 162.542 74.2468 162.591 74.3588C162.743 74.7029 163.142 74.8586 163.484 74.7063L169.128 72.1912C169.361 72.0874 169.466 71.8128 169.363 71.578L169.259 71.3413C169.259 71.3413 169.226 70.5054 168.266 69.8845C168.266 69.8845 167.853 70.8896 166.314 70.2898L165.746 69.8555L164.205 72.55L163.01 73.2696C162.749 73.427 162.487 73.4966 162.45 73.8011Z" fill="#2F2E41"/>
<path d="M178.978 52.6459L179.631 54.634V61.4683L177.499 67.6596L177.673 82.0952H173.848L173.416 67.3706L173.757 60.098L171.146 59.0021L164.289 59.4284L167.496 67.3705L163.967 69.7418C163.967 69.7418 158.689 57.624 159.479 56.45C160.268 55.276 169.515 53.205 169.515 53.205C169.515 53.205 178.978 52.8651 178.978 52.6459Z" fill="#2F2E41"/>
<path d="M180.937 44.7555L181.988 46.491C181.988 46.491 183.475 52.3789 181.988 52.4028C180.501 52.4268 177.499 49.4023 177.499 49.4023L177.891 47.824L178.979 48.2624L178.761 44.7555H180.937Z" fill="#A0616A"/>
<path d="M177.673 40.3443C177.673 40.3443 181.154 39.7265 181.48 42.0218C181.807 44.3172 181.988 46.491 181.988 46.491L178.217 46.8058L177.673 40.3443Z" fill="#E6E6E6"/>
<path d="M178.429 49.2093C178.743 48.7641 178.282 47.8893 177.398 47.2552C176.515 46.6212 175.543 46.468 175.229 46.9132C174.914 47.3583 175.375 48.2331 176.259 48.8672C177.143 49.5012 178.114 49.6544 178.429 49.2093Z" fill="#A0616A"/>
<path d="M172.982 43.9607L172.974 43.8706C172.968 43.799 172.936 43.7342 172.886 43.6903C172.837 43.6464 172.773 43.6302 172.711 43.6418L169.72 44.3028C169.658 44.3167 169.607 44.3583 169.573 44.4183C169.541 44.4807 169.531 44.5547 169.547 44.624L169.575 44.7442L169.774 45.6062L170.541 48.9343C170.569 49.0544 170.667 49.133 170.77 49.1238C170.78 49.1238 170.788 49.1238 170.798 49.1215L173.163 48.5807C173.187 48.576 173.209 48.5668 173.228 48.5529C173.304 48.5044 173.35 48.4073 173.342 48.3033L172.982 43.9607Z" fill="#6C63FF"/>
<path d="M172.924 43.459C172.881 43.4601 172.824 43.4622 172.755 43.4657C172.769 43.4238 172.771 43.3763 172.758 43.3298L172.668 43.0072C172.645 42.9234 172.578 42.8665 172.502 42.8661C172.051 42.8634 170.503 42.9041 169.598 43.5544C169.541 43.5951 169.51 43.6705 169.517 43.7475L169.547 44.1016C169.551 44.1453 169.566 44.1841 169.589 44.2148C169.512 44.2517 169.435 44.29 169.359 44.3306C169.312 44.356 169.282 44.4121 169.282 44.4729L169.284 44.6254C169.285 44.7221 169.362 44.7941 169.443 44.7753L173.016 43.9546C173.097 43.9359 173.144 43.8364 173.114 43.7466L173.051 43.5578C173.031 43.4969 172.98 43.4575 172.924 43.459Z" fill="#3F3D56"/>
<path d="M166.238 44.8965L165.187 46.632C165.187 46.632 163.7 52.5198 165.187 52.5438C166.674 52.5677 169.676 49.5432 169.676 49.5432L169.284 47.965L168.196 48.4033L168.414 44.8965H166.238Z" fill="#A0616A"/>
<path d="M169.502 40.4853C169.502 40.4853 166.021 39.8675 165.695 42.1628C165.368 44.4582 165.187 46.632 165.187 46.632L168.958 46.9468L169.502 40.4853Z" fill="#E6E6E6"/>
<path d="M170.916 49.0082C171.8 48.3741 172.261 47.4993 171.946 47.0542C171.632 46.6091 170.66 46.7622 169.777 47.3963C168.893 48.0303 168.432 48.9052 168.746 49.3503C169.061 49.7954 170.032 49.6422 170.916 49.0082Z" fill="#A0616A"/>
</g>
<g clip-path="url(#clip3_221_534)">
<path d="M63.6224 133.254L106.524 131.354L130.492 150H49.7249L63.6224 133.254Z" fill="#F2F2F2"/>
<path d="M97.9085 43.367C96.1572 42.1319 93.7486 42.4303 92.3549 44.0551L85.1618 52.4411L69.0472 50.2972L66.0642 49.7034C65.4179 49.135 64.6444 48.7289 63.8082 48.5193C61.7241 47.966 59.7479 48.5881 59.3944 49.9085C59.0411 51.2289 60.444 52.7473 62.529 53.3005C63.3588 53.5328 64.2324 53.5639 65.0769 53.3912L66.2923 53.6975L84.5596 60.3728L98.0459 50.0055C100.253 48.309 100.184 44.9716 97.9085 43.367Z" fill="#FFB6B6"/>
<path d="M94.4867 38.3209L91.8568 33.6652L87.5986 37.4384L88.6903 43.6687L94.4867 38.3209Z" fill="#FFB6B6"/>
<path d="M84.7551 39.6043C88.4009 39.6043 91.3565 36.6623 91.3565 33.0331C91.3565 29.4039 88.4009 26.4618 84.7551 26.4618C81.1092 26.4618 78.1537 29.4039 78.1537 33.0331C78.1537 36.6623 81.1092 39.6043 84.7551 39.6043Z" fill="#FFB6B6"/>
<path d="M86.3573 35.1492L82.5439 34.484L81.9991 32.3271C81.9991 32.3271 78.6077 37.077 77.3195 32.7825C76.0313 28.4881 82.0195 24.9542 83.7983 25.0101C85.5771 25.0661 90.796 24.4503 91.7187 27.918C92.6414 31.3856 92.4855 35.1738 92.4855 35.1738L90.4153 35.3214C90.4153 35.3214 88.1662 32.1311 87.5401 32.7849C86.9139 33.4388 86.3573 35.1492 86.3573 35.1492Z" fill="#2F2E41"/>
<path d="M77.95 92.5496L76.2245 108.295L83.7973 131.179C84.1129 132.133 84.2029 133.146 84.0602 134.14C83.8297 135.747 83.0054 137.21 81.7485 138.243L77.4754 141.757C77.2364 141.954 77.1252 142.265 77.186 142.568C77.286 143.065 77.8035 143.361 78.2855 143.196L83.722 141.336C85.6128 140.689 87.5983 140.359 89.5977 140.359H90.6016C91.3972 140.359 92.0421 139.717 92.0421 138.925C92.0421 138.737 92.0053 138.552 91.9336 138.379L90.029 133.774L84.8523 109.44L86.2903 101.138L77.95 92.5496Z" fill="#FFB6B6"/>
<path d="M89.7415 99.4203L91.1795 108.868L94.9182 132.343L93.4802 137.496L87.5072 142.341C86.7303 142.971 86.9574 144.206 87.9081 144.522C88.165 144.607 88.4425 144.608 88.7002 144.525L97.2189 141.79L99.5304 140.968C100.559 140.603 101.245 139.633 101.245 138.546C101.245 138.23 101.187 137.917 101.073 137.623L99.8073 134.347L98.5131 109.011L98.6569 99.7066L89.7415 99.4203Z" fill="#FFB6B6"/>
<path d="M82.28 75.6954L80.725 58.8903C80.4168 55.5586 81.2242 52.159 82.9987 49.3172L86.9216 43.0525L94.4919 37.2559L97.8176 40.115C99.7621 41.7866 100.684 44.388 100.225 46.9045L96.9324 64.9304L97.5161 71.9035L82.28 75.6954Z" fill="#6C63FF"/>
<path d="M100.675 132.629H94.6537L94.6328 132.511L88.5499 98.2925L85.1447 108.733L89.4783 129.727L83.761 131.225L75.0124 110.221C74.3058 108.525 74.164 106.61 74.6135 104.828L82.1132 75.1051L97.4003 71.6387L97.455 71.6842C104.263 77.3548 99.4939 85.0928 99.0897 85.719L100.675 132.629Z" fill="#2F2E41"/>
<path d="M135.521 86.1941C135.078 87.3909 134.353 88.4357 133.43 89.2602C132.507 90.0876 131.385 90.6916 130.143 91.0038C121.969 93.0564 102.37 96.3743 80.6276 88.4873C77.257 87.262 73.8634 86.0911 70.4353 85.032C64.5397 83.2083 59.2968 81.2558 54.6406 79.249C52.501 78.3271 50.4878 77.3967 48.5925 76.4578C46.0359 75.1952 43.6891 73.9241 41.5436 72.6616C39.4327 71.4249 37.5144 70.1967 35.7717 68.9943C23.569 60.5776 20 53.4722 20 53.4722C20 53.4722 27.0001 50.034 42.0124 49.4585C44.1665 49.3755 46.4845 49.3525 48.9722 49.4041C51.5059 49.4585 54.2121 49.5931 57.0967 49.8306C59.2393 50.0024 61.4767 50.2343 63.8149 50.5263C71.5108 51.4911 80.2824 53.14 90.1728 55.7624C123.81 64.6773 132.926 74.9662 135.354 80.4542C136.156 82.2722 136.211 84.3305 135.521 86.1941Z" fill="#E6E6E6"/>
<path d="M94.2003 40.9469C92.0542 40.9193 90.2413 42.5258 90.0201 44.6509L88.8787 55.6192L74.3884 62.9579L71.5937 64.1542C70.7376 64.0513 69.8692 64.1539 69.0612 64.4537C67.0298 65.1756 65.7574 66.8042 66.2192 68.0911C66.681 69.3778 68.7019 69.8355 70.7339 69.1131C71.5496 68.8355 72.2866 68.3676 72.8834 67.7483L74.0588 67.3139L90.9445 62.9918C92.1646 62.6795 93.138 61.7652 93.5219 60.5708L98.0982 46.3351C98.9481 43.6914 96.9885 40.9827 94.2003 40.9469Z" fill="#FFB6B6"/>
<path d="M48.9721 49.404L41.5436 72.6615C39.4327 71.4248 37.5144 70.1966 35.7716 68.9942L42.0124 49.4584C44.1664 49.3753 46.4845 49.3524 48.9721 49.404Z" fill="#3F3D56"/>
<path d="M63.8149 50.5263L54.6406 79.249C52.501 78.3271 50.4878 77.3967 48.5925 76.4577L57.0967 49.8306C59.2392 50.0024 61.4767 50.2343 63.8149 50.5263Z" fill="#3F3D56"/>
<path d="M96.7238 58.8564L87.0664 56.8217L89.9845 43.098C90.2231 41.9758 90.8864 41.0133 91.8523 40.3876C92.818 39.7622 93.9708 39.5492 95.0982 39.786L96.3148 40.0423C98.6419 40.5327 100.134 42.8162 99.6419 45.1328L96.7238 58.8564Z" fill="#6C63FF"/>
</g>
</g>
<defs>
<clipPath id="clip0_221_534">
<rect width="356" height="150" fill="white"/>
</clipPath>
<clipPath id="clip1_221_534">
<rect width="137" height="150" fill="white" transform="translate(219)"/>
</clipPath>
<clipPath id="clip2_221_534">
<rect width="124" height="84" fill="white" transform="translate(104 4)"/>
</clipPath>
<clipPath id="clip3_221_534">
<rect width="116" height="125" fill="white" transform="translate(20 25)"/>
</clipPath>
</defs>
</svg>
