<svg width="356" height="150" viewBox="0 0 356 150" fill="none" xmlns="http://www.w3.org/2000/svg">
<g clip-path="url(#clip0_221_632)">
<g opacity="0.3">
<mask id="path-1-outside-1_221_632" maskUnits="userSpaceOnUse" x="4" y="26" width="539" height="100" fill="black">
<rect fill="white" x="4" y="26" width="539" height="100"/>
<path d="M60.7067 54.4453C60.2758 50.4136 58.46 47.2744 55.2592 45.0277C52.0893 42.781 47.9652 41.6577 42.8871 41.6577C39.317 41.6577 36.2547 42.1963 33.7003 43.2734C31.1458 44.3506 29.1915 45.8125 27.8374 47.6591C26.4832 49.5057 25.7907 51.6139 25.7599 53.9837C25.7599 55.9534 26.2062 57.6615 27.0987 59.108C28.022 60.5544 29.2685 61.7855 30.8381 62.8011C32.4077 63.786 34.1465 64.6169 36.0547 65.294C37.9628 65.9711 39.8864 66.5405 41.8253 67.0021L50.6889 69.218C54.259 70.049 57.6906 71.1723 60.9837 72.5881C64.3075 74.0038 67.2775 75.7888 69.8935 77.9432C72.5402 80.0975 74.633 82.6982 76.1719 85.745C77.7107 88.7919 78.4801 92.362 78.4801 96.4553C78.4801 101.995 77.0644 106.873 74.233 111.089C71.4015 115.275 67.3082 118.553 61.9531 120.923C56.6288 123.262 50.1811 124.431 42.6101 124.431C35.2545 124.431 28.8684 123.292 23.4517 121.015C18.0658 118.737 13.8494 115.414 10.8026 111.043C7.78646 106.673 6.1553 101.349 5.90909 95.0703H22.7592C23.0054 98.3634 24.0211 101.103 25.8061 103.288C27.5911 105.473 29.9148 107.104 32.777 108.181C35.67 109.258 38.9015 109.797 42.4716 109.797C46.1956 109.797 49.4579 109.243 52.2585 108.135C55.09 106.996 57.3059 105.427 58.9062 103.426C60.5066 101.395 61.3222 99.0251 61.353 96.3168C61.3222 93.8546 60.599 91.8234 59.1832 90.223C57.7675 88.5919 55.7824 87.2377 53.228 86.1605C50.7043 85.0526 47.7498 84.0677 44.3643 83.206L33.608 80.4361C25.8215 78.4356 19.6662 75.4041 15.142 71.3416C10.6487 67.2483 8.40199 61.8163 8.40199 55.0454C8.40199 49.4749 9.91004 44.5968 12.9261 40.4112C15.973 36.2256 20.1125 32.9787 25.3445 30.6704C30.5765 28.3314 36.5009 27.1619 43.1179 27.1619C49.8272 27.1619 55.7055 28.3314 60.7528 30.6704C65.831 32.9787 69.8165 36.1948 72.7095 40.3189C75.6025 44.4122 77.0952 49.121 77.1875 54.4453H60.7067ZM85.9491 123V28.4545H103.076V68.4794H146.887V28.4545H164.06V123H146.887V82.8366H103.076V123H85.9491ZM259.369 75.7273C259.369 85.9143 257.461 94.6394 253.644 101.903C249.859 109.135 244.689 114.675 238.133 118.522C231.609 122.369 224.207 124.293 215.928 124.293C207.649 124.293 200.232 122.369 193.676 118.522C187.152 114.644 181.981 109.089 178.165 101.857C174.38 94.5933 172.487 85.8835 172.487 75.7273C172.487 65.5402 174.38 56.8305 178.165 49.598C181.981 42.3348 187.152 36.7796 193.676 32.9325C200.232 29.0855 207.649 27.1619 215.928 27.1619C224.207 27.1619 231.609 29.0855 238.133 32.9325C244.689 36.7796 249.859 42.3348 253.644 49.598C257.461 56.8305 259.369 65.5402 259.369 75.7273ZM242.149 75.7273C242.149 68.5563 241.026 62.5088 238.779 57.5845C236.564 52.6295 233.486 48.8902 229.546 46.3665C225.607 43.812 221.068 42.5348 215.928 42.5348C210.788 42.5348 206.249 43.812 202.309 46.3665C198.37 48.8902 195.277 52.6295 193.03 57.5845C190.814 62.5088 189.706 68.5563 189.706 75.7273C189.706 82.8982 190.814 88.9612 193.03 93.9162C195.277 98.8404 198.37 102.58 202.309 105.134C206.249 107.658 210.788 108.92 215.928 108.92C221.068 108.92 225.607 107.658 229.546 105.134C233.486 102.58 236.564 98.8404 238.779 93.9162C241.026 88.9612 242.149 82.8982 242.149 75.7273ZM267.761 123V28.4545H303.216C310.479 28.4545 316.573 29.8087 321.497 32.517C326.452 35.2254 330.191 38.9493 332.715 43.6889C335.27 48.3977 336.547 53.7528 336.547 59.7543C336.547 65.8172 335.27 71.2031 332.715 75.9119C330.161 80.6207 326.39 84.3293 321.405 87.0376C316.419 89.7152 310.279 91.054 302.985 91.054H279.487V76.9737H300.677C304.924 76.9737 308.402 76.2351 311.11 74.7578C313.818 73.2805 315.819 71.2493 317.111 68.6641C318.435 66.0788 319.096 63.1089 319.096 59.7543C319.096 56.3996 318.435 53.4451 317.111 50.8906C315.819 48.3362 313.803 46.3511 311.064 44.9354C308.355 43.4889 304.862 42.7656 300.584 42.7656H284.888V123H267.761ZM360.75 28.4545V123H343.623V28.4545H360.75ZM449.192 28.4545V123H433.958L389.409 58.6001H388.624V123H371.497V28.4545H386.824L431.327 92.9006H432.158V28.4545H449.192ZM523.393 58.6463C522.623 56.1534 521.561 53.9221 520.207 51.9524C518.884 49.9519 517.284 48.2438 515.406 46.8281C513.56 45.4124 511.436 44.3506 509.035 43.6428C506.635 42.9041 504.019 42.5348 501.187 42.5348C496.109 42.5348 491.585 43.812 487.615 46.3665C483.645 48.9209 480.521 52.6757 478.244 57.6307C475.997 62.5549 474.873 68.5563 474.873 75.6349C474.873 82.7751 475.997 88.8227 478.244 93.7777C480.49 98.7327 483.614 102.503 487.615 105.088C491.616 107.643 496.263 108.92 501.557 108.92C506.358 108.92 510.513 107.996 514.021 106.15C517.561 104.303 520.284 101.687 522.192 98.3018C524.101 94.8857 525.055 90.8847 525.055 86.299L528.932 86.8991H503.265V73.5114H541.628V84.8679C541.628 92.9621 539.904 99.9638 536.457 105.873C533.01 111.782 528.271 116.337 522.239 119.538C516.206 122.708 509.282 124.293 501.464 124.293C492.755 124.293 485.107 122.338 478.521 118.43C471.965 114.49 466.841 108.904 463.148 101.672C459.485 94.4086 457.654 85.7912 457.654 75.8196C457.654 68.187 458.731 61.37 460.886 55.3686C463.071 49.3672 466.118 44.2737 470.026 40.0881C473.935 35.8717 478.521 32.6709 483.783 30.4858C489.046 28.2699 494.771 27.1619 500.957 27.1619C506.189 27.1619 511.067 27.9313 515.591 29.4702C520.115 30.9782 524.131 33.1326 527.64 35.9332C531.179 38.7339 534.088 42.0578 536.365 45.9048C538.642 49.7519 540.135 53.9991 540.843 58.6463H523.393Z"/>
</mask>
<path d="M60.7067 54.4453L59.7123 54.5516L59.8079 55.4453H60.7067V54.4453ZM55.2592 45.0277L54.681 45.8436L54.6847 45.8462L55.2592 45.0277ZM33.7003 43.2734L34.0888 44.1949L34.0888 44.1949L33.7003 43.2734ZM27.8374 47.6591L27.031 47.0677L27.031 47.0677L27.8374 47.6591ZM25.7599 53.9837L24.7599 53.9707V53.9837H25.7599ZM27.0987 59.108L26.2477 59.6331L26.2517 59.6396L26.2558 59.646L27.0987 59.108ZM30.8381 62.8011L30.2948 63.6408L30.3066 63.6482L30.8381 62.8011ZM36.0547 65.294L35.7203 66.2365L35.7203 66.2365L36.0547 65.294ZM41.8253 67.0021L42.0678 66.0319L42.0569 66.0293L41.8253 67.0021ZM50.6889 69.218L50.4464 70.1882L50.4543 70.1902L50.4622 70.192L50.6889 69.218ZM60.9837 72.5881L60.5887 73.5068L60.5918 73.5081L60.9837 72.5881ZM69.8935 77.9432L69.2578 78.7151L69.2622 78.7187L69.8935 77.9432ZM74.233 111.089L75.0612 111.65L75.0631 111.647L74.233 111.089ZM61.9531 120.923L62.3553 121.838L62.3578 121.837L61.9531 120.923ZM23.4517 121.015L23.0622 121.936L23.0641 121.937L23.4517 121.015ZM10.8026 111.043L9.97952 111.611L9.98224 111.615L10.8026 111.043ZM5.90909 95.0703V94.0703H4.86911L4.90986 95.1095L5.90909 95.0703ZM22.7592 95.0703L23.7565 94.9958L23.6873 94.0703H22.7592V95.0703ZM25.8061 103.288L26.5806 102.655L26.5806 102.655L25.8061 103.288ZM32.777 108.181L32.4248 109.117L32.4281 109.118L32.777 108.181ZM52.2585 108.135L52.6264 109.065L52.6317 109.063L52.2585 108.135ZM58.9062 103.426L59.6871 104.051L59.6917 104.045L58.9062 103.426ZM61.353 96.3168L62.3529 96.3281L62.3531 96.3162L62.3529 96.3043L61.353 96.3168ZM59.1832 90.223L58.428 90.8785L58.4342 90.8856L59.1832 90.223ZM53.228 86.1605L52.826 87.0762L52.8327 87.0791L52.8394 87.0819L53.228 86.1605ZM44.3643 83.206L44.115 84.1744L44.1177 84.1751L44.3643 83.206ZM33.608 80.4361L33.8573 79.4677L33.8568 79.4675L33.608 80.4361ZM15.142 71.3416L14.4686 72.0809L14.4739 72.0857L15.142 71.3416ZM12.9261 40.4112L12.1176 39.8227L12.1148 39.8266L12.9261 40.4112ZM25.3445 30.6704L25.7481 31.5854L25.7526 31.5834L25.3445 30.6704ZM60.7528 30.6704L60.3324 31.5778L60.339 31.5808L60.7528 30.6704ZM72.7095 40.3189L71.8909 40.8932L71.8929 40.8961L72.7095 40.3189ZM77.1875 54.4453V55.4453H78.205L78.1873 54.428L77.1875 54.4453ZM61.701 54.339C61.2408 50.0325 59.2804 46.6285 55.8338 44.2092L54.6847 45.8462C57.6396 47.9203 59.3108 50.7946 59.7123 54.5516L61.701 54.339ZM55.8375 44.2118C52.4534 41.8134 48.1092 40.6577 42.8871 40.6577V42.6577C47.8212 42.6577 51.7252 43.7486 54.681 45.8436L55.8375 44.2118ZM42.8871 40.6577C39.2203 40.6577 36.019 41.2104 33.3117 42.352L34.0888 44.1949C36.4904 43.1821 39.4137 42.6577 42.8871 42.6577V40.6577ZM33.3117 42.352C30.6259 43.4846 28.5125 45.0474 27.031 47.0677L28.6438 48.2504C29.8705 46.5776 31.6658 45.2166 34.0888 44.1949L33.3117 42.352ZM27.031 47.0677C25.5491 49.0884 24.7934 51.4004 24.76 53.9707L26.7599 53.9967C26.788 51.8273 27.4173 49.9229 28.6438 48.2504L27.031 47.0677ZM24.7599 53.9837C24.7599 56.1088 25.2432 58.005 26.2477 59.6331L27.9498 58.5828C27.1693 57.3179 26.7599 55.7979 26.7599 53.9837H24.7599ZM26.2558 59.646C27.2629 61.2238 28.6158 62.5543 30.2948 63.6407L31.3813 61.9616C29.9212 61.0168 28.7811 59.8851 27.9416 58.5699L26.2558 59.646ZM30.3066 63.6482C31.9436 64.6754 33.7495 65.5371 35.7203 66.2365L36.3891 64.3516C34.5436 63.6968 32.8717 62.8966 31.3696 61.9541L30.3066 63.6482ZM35.7203 66.2365C37.6616 66.9253 39.6194 67.5049 41.5937 67.9749L42.0569 66.0293C40.1533 65.5761 38.2641 65.0169 36.3891 64.3516L35.7203 66.2365ZM41.5828 67.9723L50.4464 70.1882L50.9315 68.2479L42.0678 66.032L41.5828 67.9723ZM50.4622 70.192C53.976 71.0099 57.3512 72.1149 60.5887 73.5068L61.3786 71.6694C58.03 70.2298 54.542 69.0881 50.9156 68.2441L50.4622 70.192ZM60.5918 73.5081C63.8335 74.8888 66.7203 76.6254 69.2578 78.7151L70.5292 77.1713C67.8347 74.9522 64.7815 73.1187 61.3755 71.668L60.5918 73.5081ZM69.2622 78.7187C71.8 80.7844 73.8038 83.2743 75.2793 86.1958L77.0645 85.2942C75.4623 82.122 73.2805 79.4107 70.5247 77.1676L69.2622 78.7187ZM75.2793 86.1958C76.7348 89.0777 77.4801 92.4877 77.4801 96.4553H79.4801C79.4801 92.2363 78.6866 88.5061 77.0645 85.2942L75.2793 86.1958ZM77.4801 96.4553C77.4801 101.815 76.1135 106.495 73.4028 110.532L75.0631 111.647C78.0153 107.251 79.4801 102.175 79.4801 96.4553H77.4801ZM73.4047 110.529C70.6942 114.536 66.7597 117.702 61.5485 120.008L62.3578 121.837C67.8568 119.404 72.1088 116.014 75.0612 111.65L73.4047 110.529ZM61.5509 120.007C56.3854 122.276 50.0826 123.431 42.6101 123.431V125.431C50.2796 125.431 56.8721 124.247 62.3553 121.838L61.5509 120.007ZM42.6101 123.431C35.3552 123.431 29.1066 122.308 23.8393 120.093L23.0641 121.937C28.6302 124.277 35.1538 125.431 42.6101 125.431V123.431ZM23.8412 120.094C18.6114 117.882 14.5515 114.672 11.6229 110.471L9.98224 111.615C13.1474 116.155 17.5203 119.592 23.0622 121.936L23.8412 120.094ZM11.6256 110.475C8.73555 106.288 7.14849 101.155 6.90832 95.0311L4.90986 95.1095C5.16212 101.542 6.83736 107.058 9.97953 111.611L11.6256 110.475ZM5.90909 96.0703H22.7592V94.0703H5.90909V96.0703ZM21.762 95.1449C22.0208 98.6066 23.0959 101.551 25.0317 103.92L26.5806 102.655C24.9462 100.654 23.9901 98.1202 23.7565 94.9958L21.762 95.1449ZM25.0317 103.92C26.9375 106.253 29.4118 107.983 32.4248 109.117L33.1292 107.245C30.4177 106.225 28.2448 104.692 26.5806 102.655L25.0317 103.92ZM32.4281 109.118C35.4487 110.243 38.8007 110.797 42.4716 110.797V108.797C39.0023 108.797 35.8913 108.274 33.1259 107.244L32.4281 109.118ZM42.4716 110.797C46.2927 110.797 49.6845 110.229 52.6264 109.065L51.8907 107.205C49.2312 108.257 46.0984 108.797 42.4716 108.797V110.797ZM52.6317 109.063C55.5922 107.872 57.9603 106.209 59.6871 104.051L58.1254 102.801C56.6514 104.644 54.5877 106.12 51.8854 107.207L52.6317 109.063ZM59.6917 104.045C61.4354 101.832 62.3198 99.2459 62.3529 96.3281L60.353 96.3054C60.3247 98.8043 59.5778 100.958 58.1208 102.807L59.6917 104.045ZM62.3529 96.3043C62.3196 93.6411 61.5308 91.3675 59.9322 89.5604L58.4342 90.8856C59.6672 92.2793 60.3248 94.0682 60.3531 96.3293L62.3529 96.3043ZM59.9385 89.5675C58.3982 87.7929 56.2733 86.3594 53.6165 85.2391L52.8394 87.0819C55.2916 88.116 57.1369 89.3908 58.428 90.8785L59.9385 89.5675ZM53.63 85.2449C51.0449 84.1099 48.0362 83.1087 44.611 82.2369L44.1177 84.1751C47.4633 85.0267 50.3637 85.9952 52.826 87.0762L53.63 85.2449ZM44.6137 82.2376L33.8573 79.4677L33.3586 81.4045L44.115 84.1744L44.6137 82.2376ZM33.8568 79.4675C26.1779 77.4947 20.1824 74.5236 15.8102 70.5976L14.4739 72.0857C19.15 76.2846 25.4651 79.3765 33.3591 81.4046L33.8568 79.4675ZM15.8155 70.6024C11.5551 66.7213 9.40199 61.5705 9.40199 55.0454H7.40199C7.40199 62.062 9.74227 67.7754 14.4686 72.0809L15.8155 70.6024ZM9.40199 55.0454C9.40199 49.6671 10.854 44.9974 13.7374 40.9958L12.1148 39.8266C8.96611 44.1963 7.40199 49.2827 7.40199 55.0454H9.40199ZM13.7346 40.9997C16.6671 36.9713 20.6601 33.8301 25.7481 31.5854L24.9408 29.7555C19.5648 32.1273 15.2789 35.4799 12.1177 39.8227L13.7346 40.9997ZM25.7526 31.5834C30.8378 29.31 36.62 28.1619 43.1179 28.1619V26.1619C36.3819 26.1619 30.3151 27.3529 24.9363 29.7575L25.7526 31.5834ZM43.1179 28.1619C49.7114 28.1619 55.4411 29.3111 60.3324 31.5778L61.1733 29.7631C55.9699 27.3518 49.943 26.1619 43.1179 26.1619V28.1619ZM60.339 31.5808C65.2725 33.8233 69.1111 36.9306 71.8909 40.8932L73.5282 39.7446C70.5219 35.4591 66.3894 32.1341 61.1666 29.7601L60.339 31.5808ZM71.8929 40.8961C74.6626 44.8149 76.0986 49.3259 76.1877 54.4627L78.1873 54.428C78.0918 48.9161 76.5424 44.0094 73.5261 39.7417L71.8929 40.8961ZM77.1875 53.4453H60.7067V55.4453H77.1875V53.4453ZM85.9491 123H84.9491V124H85.9491V123ZM85.9491 28.4545V27.4545H84.9491V28.4545H85.9491ZM103.076 28.4545H104.076V27.4545H103.076V28.4545ZM103.076 68.4794H102.076V69.4794H103.076V68.4794ZM146.887 68.4794V69.4794H147.887V68.4794H146.887ZM146.887 28.4545V27.4545H145.887V28.4545H146.887ZM164.06 28.4545H165.06V27.4545H164.06V28.4545ZM164.06 123V124H165.06V123H164.06ZM146.887 123H145.887V124H146.887V123ZM146.887 82.8366H147.887V81.8366H146.887V82.8366ZM103.076 82.8366V81.8366H102.076V82.8366H103.076ZM103.076 123V124H104.076V123H103.076ZM86.9491 123V28.4545H84.9491V123H86.9491ZM85.9491 29.4545H103.076V27.4545H85.9491V29.4545ZM102.076 28.4545V68.4794H104.076V28.4545H102.076ZM103.076 69.4794H146.887V67.4794H103.076V69.4794ZM147.887 68.4794V28.4545H145.887V68.4794H147.887ZM146.887 29.4545H164.06V27.4545H146.887V29.4545ZM163.06 28.4545V123H165.06V28.4545H163.06ZM164.06 122H146.887V124H164.06V122ZM147.887 123V82.8366H145.887V123H147.887ZM146.887 81.8366H103.076V83.8366H146.887V81.8366ZM102.076 82.8366V123H104.076V82.8366H102.076ZM103.076 122H85.9491V124H103.076V122ZM253.644 101.903L252.759 101.438L252.759 101.439L253.644 101.903ZM238.133 118.522L237.627 117.66L237.625 117.661L238.133 118.522ZM193.676 118.522L193.166 119.382L193.17 119.384L193.676 118.522ZM178.165 101.857L177.278 102.319L177.281 102.323L178.165 101.857ZM178.165 49.598L177.28 49.1329L177.279 49.1343L178.165 49.598ZM193.676 32.9325L193.17 32.0701L193.169 32.0711L193.676 32.9325ZM238.133 32.9325L237.625 33.7939L237.627 33.795L238.133 32.9325ZM253.644 49.598L252.758 50.0602L252.76 50.0647L253.644 49.598ZM238.779 57.5845L237.867 57.9928L237.87 57.9996L238.779 57.5845ZM229.546 46.3665L229.002 47.2055L229.007 47.2085L229.546 46.3665ZM202.309 46.3665L202.849 47.2085L202.853 47.2055L202.309 46.3665ZM193.03 57.5845L192.119 57.1716L192.118 57.1741L193.03 57.5845ZM193.03 93.9162L192.117 94.3244L192.12 94.3313L193.03 93.9162ZM202.309 105.134L201.765 105.973L201.77 105.976L202.309 105.134ZM229.546 105.134L230.086 105.976L230.091 105.973L229.546 105.134ZM238.779 93.9162L237.869 93.5032L237.868 93.5058L238.779 93.9162ZM258.369 75.7273C258.369 85.7907 256.484 94.3483 252.759 101.438L254.53 102.368C258.437 94.9305 260.369 86.0379 260.369 75.7273H258.369ZM252.759 101.439C249.053 108.518 244.009 113.914 237.627 117.66L238.639 119.384C245.368 115.436 250.665 109.752 254.53 102.366L252.759 101.439ZM237.625 117.661C231.269 121.409 224.045 123.293 215.928 123.293V125.293C224.368 125.293 231.948 123.33 238.641 119.383L237.625 117.661ZM215.928 123.293C207.811 123.293 200.571 121.409 194.183 117.66L193.17 119.384C199.893 123.33 207.487 125.293 215.928 125.293V123.293ZM194.187 117.662C187.833 113.886 182.787 108.473 179.05 101.39L177.281 102.323C181.176 109.705 186.47 115.402 193.166 119.382L194.187 117.662ZM179.052 101.394C175.356 94.304 173.487 85.7605 173.487 75.7273H171.487C171.487 86.0065 173.403 94.8825 177.278 102.319L179.052 101.394ZM173.487 75.7273C173.487 65.6625 175.357 57.12 179.051 50.0617L177.279 49.1343C173.402 56.541 171.487 65.418 171.487 75.7273H173.487ZM179.05 50.0631C182.788 42.9503 187.833 37.5387 194.184 33.7939L193.169 32.0711C186.47 36.0205 181.175 41.7192 177.28 49.1329L179.05 50.0631ZM194.183 33.795C200.571 30.0459 207.811 28.1619 215.928 28.1619V26.1619C207.487 26.1619 199.893 28.125 193.17 32.0701L194.183 33.795ZM215.928 28.1619C224.045 28.1619 231.269 30.0459 237.625 33.7939L238.641 32.0711C231.948 28.125 224.368 26.1619 215.928 26.1619V28.1619ZM237.627 33.795C244.008 37.5396 249.052 42.95 252.758 50.0602L254.531 49.1358C250.666 41.7195 245.369 36.0196 238.639 32.0701L237.627 33.795ZM252.76 50.0647C256.484 57.1222 258.369 65.6636 258.369 75.7273H260.369C260.369 65.4168 258.438 56.5388 254.529 49.1313L252.76 50.0647ZM243.149 75.7273C243.149 68.4574 242.011 62.259 239.689 57.1694L237.87 57.9996C240.041 62.7585 241.149 68.6553 241.149 75.7273H243.149ZM239.692 57.1763C237.41 52.0725 234.214 48.1692 230.086 45.5244L229.007 47.2085C232.757 49.6111 235.717 53.1865 237.867 57.9928L239.692 57.1763ZM230.091 45.5274C225.974 42.858 221.242 41.5348 215.928 41.5348V43.5348C220.893 43.5348 225.24 44.766 229.002 47.2055L230.091 45.5274ZM215.928 41.5348C210.614 41.5348 205.882 42.858 201.765 45.5274L202.853 47.2055C206.615 44.766 210.962 43.5348 215.928 43.5348V41.5348ZM201.77 45.5244C197.643 48.1684 194.433 52.0699 192.119 57.1716L193.941 57.9975C196.121 53.1891 199.097 49.6119 202.849 47.2085L201.77 45.5244ZM192.118 57.1741C189.829 62.2624 188.706 68.459 188.706 75.7273H190.706C190.706 68.6537 191.8 62.7552 193.942 57.9949L192.118 57.1741ZM188.706 75.7273C188.706 82.9959 189.829 89.2068 192.117 94.3244L193.943 93.508C191.8 88.7156 190.706 82.8005 190.706 75.7273H188.706ZM192.12 94.3313C194.434 99.4017 197.643 103.3 201.765 105.973L202.853 104.295C199.097 101.859 196.12 98.2792 193.94 93.5011L192.12 94.3313ZM201.77 105.976C205.886 108.613 210.617 109.92 215.928 109.92V107.92C210.96 107.92 206.611 106.703 202.849 104.292L201.77 105.976ZM215.928 109.92C221.239 109.92 225.97 108.613 230.086 105.976L229.007 104.292C225.244 106.703 220.896 107.92 215.928 107.92V109.92ZM230.091 105.973C234.214 103.299 237.409 99.3991 239.691 94.3266L237.868 93.5058C235.718 98.2818 232.757 101.86 229.002 104.295L230.091 105.973ZM239.69 94.3291C242.011 89.2101 243.149 82.9974 243.149 75.7273H241.149C241.149 82.799 240.041 88.7122 237.869 93.5032L239.69 94.3291ZM267.761 123H266.761V124H267.761V123ZM267.761 28.4545V27.4545H266.761V28.4545H267.761ZM321.497 32.517L321.015 33.3933L321.017 33.3945L321.497 32.517ZM332.715 43.6889L331.832 44.1589L331.836 44.1658L332.715 43.6889ZM332.715 75.9119L333.594 76.3888L333.594 76.3888L332.715 75.9119ZM321.405 87.0376L321.878 87.9186L321.882 87.9164L321.405 87.0376ZM279.487 91.054H278.487V92.054H279.487V91.054ZM279.487 76.9737V75.9737H278.487V76.9737H279.487ZM311.11 74.7578L311.589 75.6357L311.589 75.6357L311.11 74.7578ZM317.111 68.6641L316.221 68.2084L316.217 68.2168L317.111 68.6641ZM317.111 50.8906L316.219 51.3422L316.223 51.3506L317.111 50.8906ZM311.064 44.9354L310.593 45.8175L310.605 45.8237L311.064 44.9354ZM284.888 42.7656V41.7656H283.888V42.7656H284.888ZM284.888 123V124H285.888V123H284.888ZM268.761 123V28.4545H266.761V123H268.761ZM267.761 29.4545H303.216V27.4545H267.761V29.4545ZM303.216 29.4545C310.358 29.4545 316.275 30.7865 321.015 33.3933L321.979 31.6408C316.87 28.8309 310.6 27.4545 303.216 27.4545V29.4545ZM321.017 33.3945C325.811 36.0144 329.405 39.6007 331.832 44.1589L333.598 43.2189C330.977 38.298 327.094 34.4364 321.977 31.6396L321.017 33.3945ZM331.836 44.1658C334.302 48.7113 335.547 53.899 335.547 59.7543H337.547C337.547 53.6067 336.237 48.0842 333.594 43.2121L331.836 44.1658ZM335.547 59.7543C335.547 65.6729 334.301 70.8911 331.836 75.4351L333.594 76.3888C336.238 71.5152 337.547 65.9615 337.547 59.7543H335.547ZM331.836 75.4351C329.379 79.9637 325.754 83.5372 320.927 86.1589L321.882 87.9164C327.027 85.1215 330.942 81.2778 333.594 76.3888L331.836 75.4351ZM320.932 86.1566C316.127 88.7367 310.16 90.054 302.985 90.054V92.054C310.398 92.054 316.711 90.6936 321.878 87.9186L320.932 86.1566ZM302.985 90.054H279.487V92.054H302.985V90.054ZM280.487 91.054V76.9737H278.487V91.054H280.487ZM279.487 77.9737H300.677V75.9737H279.487V77.9737ZM300.677 77.9737C305.031 77.9737 308.689 77.2176 311.589 75.6357L310.631 73.8799C308.115 75.2526 304.817 75.9737 300.677 75.9737V77.9737ZM311.589 75.6357C314.464 74.0676 316.616 71.8917 318.006 69.1113L316.217 68.2168C315.022 70.6069 313.173 72.4935 310.631 73.8799L311.589 75.6357ZM318.002 69.1197C319.408 66.373 320.096 63.2427 320.096 59.7543H318.096C318.096 62.9751 317.462 65.7846 316.221 68.2084L318.002 69.1197ZM320.096 59.7543C320.096 56.2661 319.408 53.1491 317.999 50.4306L316.223 51.3506C317.462 53.741 318.096 56.5331 318.096 59.7543H320.096ZM318.004 50.4391C316.609 47.6825 314.434 45.5514 311.523 44.047L310.605 45.8237C313.172 47.1508 315.029 48.9899 316.219 51.3421L318.004 50.4391ZM311.535 44.0533C308.636 42.5049 304.966 41.7656 300.584 41.7656V43.7656C304.759 43.7656 308.075 44.4728 310.593 45.8174L311.535 44.0533ZM300.584 41.7656H284.888V43.7656H300.584V41.7656ZM283.888 42.7656V123H285.888V42.7656H283.888ZM284.888 122H267.761V124H284.888V122ZM360.75 28.4545H361.75V27.4545H360.75V28.4545ZM360.75 123V124H361.75V123H360.75ZM343.623 123H342.623V124H343.623V123ZM343.623 28.4545V27.4545H342.623V28.4545H343.623ZM359.75 28.4545V123H361.75V28.4545H359.75ZM360.75 122H343.623V124H360.75V122ZM344.623 123V28.4545H342.623V123H344.623ZM343.623 29.4545H360.75V27.4545H343.623V29.4545ZM449.192 28.4545H450.192V27.4545H449.192V28.4545ZM449.192 123V124H450.192V123H449.192ZM433.958 123L433.136 123.569L433.434 124H433.958V123ZM389.409 58.6001L390.231 58.0312L389.933 57.6001H389.409V58.6001ZM388.624 58.6001V57.6001H387.624V58.6001H388.624ZM388.624 123V124H389.624V123H388.624ZM371.497 123H370.497V124H371.497V123ZM371.497 28.4545V27.4545H370.497V28.4545H371.497ZM386.824 28.4545L387.647 27.8863L387.349 27.4545H386.824V28.4545ZM431.327 92.9006L430.504 93.4688L430.802 93.9006H431.327V92.9006ZM432.158 92.9006V93.9006H433.158V92.9006H432.158ZM432.158 28.4545V27.4545H431.158V28.4545H432.158ZM448.192 28.4545V123H450.192V28.4545H448.192ZM449.192 122H433.958V124H449.192V122ZM434.781 122.431L390.231 58.0312L388.587 59.169L433.136 123.569L434.781 122.431ZM389.409 57.6001H388.624V59.6001H389.409V57.6001ZM387.624 58.6001V123H389.624V58.6001H387.624ZM388.624 122H371.497V124H388.624V122ZM372.497 123V28.4545H370.497V123H372.497ZM371.497 29.4545H386.824V27.4545H371.497V29.4545ZM386.001 29.0228L430.504 93.4688L432.15 92.3323L387.647 27.8863L386.001 29.0228ZM431.327 93.9006H432.158V91.9006H431.327V93.9006ZM433.158 92.9006V28.4545H431.158V92.9006H433.158ZM432.158 29.4545H449.192V27.4545H432.158V29.4545ZM523.393 58.6463L522.437 58.9412L522.655 59.6463H523.393V58.6463ZM520.207 51.9524L519.373 52.5042L519.378 52.5116L519.383 52.5189L520.207 51.9524ZM515.406 46.8281L514.798 47.6218L514.804 47.6266L515.406 46.8281ZM509.035 43.6428L508.741 44.5986L508.753 44.6019L509.035 43.6428ZM487.615 46.3665L488.156 47.2074L488.156 47.2074L487.615 46.3665ZM478.244 57.6307L477.335 57.2131L477.334 57.2156L478.244 57.6307ZM478.244 93.7777L477.333 94.1906L477.333 94.1906L478.244 93.7777ZM487.615 105.088L487.072 105.928L487.077 105.931L487.615 105.088ZM514.021 106.15L513.559 105.263L513.555 105.265L514.021 106.15ZM522.192 98.3018L523.064 98.7929L523.065 98.7895L522.192 98.3018ZM525.055 86.299L525.208 85.3108L524.055 85.1323V86.299H525.055ZM528.932 86.8991V87.8991L529.085 85.9109L528.932 86.8991ZM503.265 86.8991H502.265V87.8991H503.265V86.8991ZM503.265 73.5114V72.5114H502.265V73.5114H503.265ZM541.628 73.5114H542.628V72.5114H541.628V73.5114ZM536.457 105.873L537.321 106.377L537.321 106.377L536.457 105.873ZM522.239 119.538L522.704 120.423L522.707 120.421L522.239 119.538ZM478.521 118.43L478.005 119.287L478.01 119.29L478.521 118.43ZM463.148 101.672L462.255 102.122L462.257 102.127L463.148 101.672ZM460.886 55.3686L459.946 55.0265L459.944 55.0307L460.886 55.3686ZM470.026 40.0881L470.757 40.7706L470.76 40.7679L470.026 40.0881ZM483.783 30.4858L484.167 31.4094L484.171 31.4074L483.783 30.4858ZM515.591 29.4702L515.269 30.4169L515.275 30.4189L515.591 29.4702ZM527.64 35.9332L527.016 36.7148L527.019 36.7174L527.64 35.9332ZM536.365 45.9048L537.225 45.3954L537.225 45.3954L536.365 45.9048ZM540.843 58.6463V59.6463H542.007L541.832 58.4957L540.843 58.6463ZM524.348 58.3514C523.552 55.7706 522.448 53.4462 521.031 51.3859L519.383 52.5189C520.675 54.398 521.695 56.5362 522.437 58.9412L524.348 58.3514ZM521.041 51.4007C519.656 49.3073 517.978 47.5152 516.008 46.0297L514.804 47.6266C516.589 48.9724 518.111 50.5966 519.373 52.5042L521.041 51.4007ZM516.015 46.0345C514.063 44.5386 511.828 43.4235 509.318 42.6836L508.753 44.6019C511.044 45.2777 513.056 46.2862 514.798 47.6217L516.015 46.0345ZM509.33 42.687C506.822 41.9156 504.106 41.5348 501.187 41.5348V43.5348C503.932 43.5348 506.447 43.8927 508.741 44.5985L509.33 42.687ZM501.187 41.5348C495.933 41.5348 491.218 42.8593 487.074 45.5255L488.156 47.2074C491.953 44.7647 496.286 43.5348 501.187 43.5348V41.5348ZM487.074 45.5255C482.92 48.1984 479.679 52.1122 477.335 57.2131L479.152 58.0483C481.363 53.2391 484.37 49.6435 488.156 47.2074L487.074 45.5255ZM477.334 57.2156C475.012 62.3037 473.873 68.4553 473.873 75.6349H475.873C475.873 68.6574 476.981 62.8061 479.153 58.0458L477.334 57.2156ZM473.873 75.6349C473.873 82.875 475.012 89.0721 477.333 94.1906L479.154 93.3647C476.982 88.5733 475.873 82.6752 475.873 75.6349H473.873ZM477.333 94.1906C479.647 99.2949 482.888 103.224 487.072 105.928L488.158 104.248C484.34 101.781 481.333 98.1706 479.154 93.3647L477.333 94.1906ZM487.077 105.931C491.257 108.6 496.095 109.92 501.557 109.92V107.92C496.431 107.92 491.975 106.685 488.153 104.245L487.077 105.931ZM501.557 109.92C506.486 109.92 510.808 108.971 514.487 107.035L513.555 105.265C510.218 107.022 506.229 107.92 501.557 107.92V109.92ZM514.484 107.036C518.19 105.103 521.058 102.352 523.064 98.7929L521.321 97.8108C519.511 101.023 516.931 103.504 513.559 105.263L514.484 107.036ZM523.065 98.7895C525.07 95.2004 526.055 91.0259 526.055 86.299H524.055C524.055 90.7435 523.131 94.5709 521.319 97.8142L523.065 98.7895ZM524.902 87.2872L528.779 87.8874L529.085 85.9109L525.208 85.3108L524.902 87.2872ZM528.932 85.8991H503.265V87.8991H528.932V85.8991ZM504.265 86.8991V73.5114H502.265V86.8991H504.265ZM503.265 74.5114H541.628V72.5114H503.265V74.5114ZM540.628 73.5114V84.8679H542.628V73.5114H540.628ZM540.628 84.8679C540.628 92.8177 538.936 99.6388 535.594 105.369L537.321 106.377C540.872 100.289 542.628 93.1065 542.628 84.8679H540.628ZM535.594 105.369C532.24 111.118 527.637 115.541 521.77 118.654L522.707 120.421C528.904 117.133 533.78 112.446 537.321 106.377L535.594 105.369ZM521.773 118.652C515.904 121.737 509.144 123.293 501.464 123.293V125.293C509.42 125.293 516.508 123.679 522.704 120.423L521.773 118.652ZM501.464 123.293C492.909 123.293 485.442 121.375 479.031 117.57L478.01 119.29C484.771 123.302 492.6 125.293 501.464 125.293V123.293ZM479.036 117.573C472.651 113.736 467.652 108.294 464.038 101.217L462.257 102.127C466.03 109.515 471.28 115.245 478.005 119.287L479.036 117.573ZM464.041 101.222C460.463 94.126 458.654 85.6695 458.654 75.8196H456.654C456.654 85.9128 458.508 94.6912 462.255 102.122L464.041 101.222ZM458.654 75.8196C458.654 68.2801 459.718 61.5805 461.827 55.7065L459.944 55.0307C457.744 61.1595 456.654 68.0939 456.654 75.8196H458.654ZM461.825 55.7107C463.97 49.8211 466.95 44.8472 470.757 40.7706L469.295 39.4056C465.285 43.7002 462.172 48.9133 459.946 55.0265L461.825 55.7107ZM470.76 40.7679C474.571 36.656 479.038 33.5388 484.167 31.4093L483.4 29.5622C478.003 31.803 473.298 35.0874 469.293 39.4082L470.76 40.7679ZM484.171 31.4074C489.301 29.2474 494.893 28.1619 500.957 28.1619V26.1619C494.648 26.1619 488.791 27.2923 483.395 29.5642L484.171 31.4074ZM500.957 28.1619C506.089 28.1619 510.858 28.9165 515.269 30.4169L515.913 28.5234C511.276 26.9462 506.288 26.1619 500.957 26.1619V28.1619ZM515.275 30.4189C519.694 31.892 523.605 33.992 527.016 36.7148L528.264 35.1517C524.658 32.2732 520.536 30.0644 515.907 28.5215L515.275 30.4189ZM527.019 36.7174C530.463 39.4427 533.29 42.6737 535.504 46.4143L537.225 45.3954C534.885 41.4418 531.895 38.0251 528.26 35.1491L527.019 36.7174ZM535.504 46.4142C537.713 50.1454 539.165 54.2697 539.854 58.7969L541.832 58.4957C541.105 53.7284 539.572 49.3584 537.225 45.3954L535.504 46.4142ZM540.843 57.6463H523.393V59.6463H540.843V57.6463Z" fill="white" mask="url(#path-1-outside-1_221_632)"/>
</g>
<g clip-path="url(#clip1_221_632)">
<path d="M197.713 143.499C200.016 147.752 204.903 149.577 204.903 149.577C204.903 149.577 206.057 144.508 203.754 140.256C201.451 136.003 196.565 134.178 196.565 134.178C196.565 134.178 195.411 139.247 197.713 143.499Z" fill="#2F2E41"/>
<path d="M199.296 142.1C203.453 144.591 205.054 149.538 205.054 149.538C205.054 149.538 199.915 150.447 195.758 147.957C191.601 145.466 190 140.519 190 140.519C190 140.519 195.139 139.61 199.296 142.1Z" fill="#6C63FF"/>
<path d="M298.428 33.0159H298.057V36.4291H298.428V33.0159Z" fill="#F2F2F2"/>
<path d="M321.586 41.3184H321.216V44.7316H321.586V41.3184Z" fill="#F2F2F2"/>
<path d="M318.992 126.926H318.622V130.339H318.992V126.926Z" fill="#F2F2F2"/>
<path d="M324.365 98.6975H323.995V102.111H324.365V98.6975Z" fill="#F2F2F2"/>
<path d="M257.921 119.002H214.611L205.24 88.2009H267.572L267.515 88.3823L257.921 119.002Z" fill="#F2F2F2"/>
<path d="M257.078 141.552H213.209V141.238H256.762V125.995H216.897L214.961 121.977L215.245 121.841L217.096 125.68H257.078V141.552Z" fill="#2F2E41"/>
<path d="M219.048 149.253C220.878 149.253 222.362 147.775 222.362 145.952C222.362 144.13 220.878 142.652 219.048 142.652C217.218 142.652 215.734 144.13 215.734 145.952C215.734 147.775 217.218 149.253 219.048 149.253Z" fill="#3F3D56"/>
<path d="M251.713 149.253C253.543 149.253 255.027 147.775 255.027 145.952C255.027 144.13 253.543 142.652 251.713 142.652C249.883 142.652 248.399 144.13 248.399 145.952C248.399 147.775 249.883 149.253 251.713 149.253Z" fill="#3F3D56"/>
<path d="M290.216 77.9078C291.349 77.9078 292.268 76.9932 292.268 75.8649C292.268 74.7367 291.349 73.822 290.216 73.822C289.083 73.822 288.165 74.7367 288.165 75.8649C288.165 76.9932 289.083 77.9078 290.216 77.9078Z" fill="#3F3D56"/>
<path d="M261.77 120.809H212.461L201.792 86.0795H272.758L272.693 86.2838L261.77 120.809ZM212.695 120.495H261.539L272.327 86.3938H202.219L212.695 120.495Z" fill="#2F2E41"/>
<path d="M273.642 82.9768L273.337 82.8961L275.419 75.0791H287.534V75.3935H275.662L273.642 82.9768Z" fill="#2F2E41"/>
<path d="M237.432 86.2366H237.116V120.652H237.432V86.2366Z" fill="#2F2E41"/>
<path d="M251.562 86.2267L249.296 120.641L249.611 120.662L251.877 86.2473L251.562 86.2267Z" fill="#2F2E41"/>
<path d="M222.993 86.2264L222.678 86.2468L224.93 120.662L225.245 120.642L222.993 86.2264Z" fill="#2F2E41"/>
<path d="M265.548 108.187H208.797V108.502H265.548V108.187Z" fill="#2F2E41"/>
<path d="M269.212 96.6083H205.24V96.9226H269.212V96.6083Z" fill="#2F2E41"/>
<path d="M356 149.452H190V149.821H356V149.452Z" fill="#2F2E41"/>
<path d="M300.31 23.4161C300.31 23.4161 303.019 31.0924 301.352 32.2734C299.685 33.4544 306.977 43.099 306.977 43.099L315.727 40.737L310.935 32.6671C310.935 32.6671 310.31 24.5971 310.31 23.4161C310.31 22.2351 300.31 23.4161 300.31 23.4161Z" fill="#A0616A"/>
<path opacity="0.1" d="M300.31 23.4161C300.31 23.4161 303.019 31.0924 301.352 32.2734C299.685 33.4544 306.977 43.099 306.977 43.099L315.727 40.737L310.935 32.6671C310.935 32.6671 310.31 24.5971 310.31 23.4161C310.31 22.2351 300.31 23.4161 300.31 23.4161Z" fill="black"/>
<path d="M295.765 78.1344C295.765 78.1344 294.974 87.9758 295.765 93.0934C296.555 98.2109 297.741 112.383 297.741 112.383C297.741 112.383 297.741 139.151 302.089 139.545C306.438 139.939 309.6 140.332 309.995 138.758C310.391 137.183 308.019 136.396 309.205 135.608C310.391 134.821 310.786 132.065 309.205 128.916C307.623 125.767 309.205 93.8807 309.205 93.8807L316.715 113.957C316.715 113.957 317.506 130.491 318.296 132.853C319.087 135.215 317.506 139.545 320.273 139.939C323.04 140.332 326.202 137.97 327.784 137.183C329.365 136.396 325.412 136.396 326.202 136.002C326.993 135.608 329.365 134.427 328.574 134.034C327.784 133.64 326.993 114.745 326.993 114.745C326.993 114.745 324.819 74.3946 322.052 72.82C319.285 71.2454 317.506 73.9576 317.506 73.9576L295.765 78.1344Z" fill="#2F2E41"/>
<path d="M302.88 137.97V141.12C302.88 141.12 299.322 149.68 302.88 149.68C306.438 149.68 309.205 150.567 309.205 149.386V138.758L302.88 137.97Z" fill="#2F2E41"/>
<path d="M326.202 137.965V141.114C326.202 141.114 329.76 149.675 326.202 149.675C322.645 149.675 319.878 150.562 319.878 149.381V138.752L326.202 137.965Z" fill="#2F2E41"/>
<path d="M305.845 29.1241C309.774 29.1241 312.96 25.9516 312.96 22.0382C312.96 18.1248 309.774 14.9524 305.845 14.9524C301.915 14.9524 298.729 18.1248 298.729 22.0382C298.729 25.9516 301.915 29.1241 305.845 29.1241Z" fill="#A0616A"/>
<path d="M303.67 35.2258C303.67 35.2258 305.647 41.1307 308.809 39.9497L311.972 38.7687L317.506 76.5598C317.506 76.5598 313.158 82.8584 306.833 78.9218C300.508 74.9852 303.67 35.2258 303.67 35.2258Z" fill="#6C63FF"/>
<path d="M309.205 34.0448L310.983 30.3051C310.983 30.3051 321.459 35.2258 323.04 36.8004C324.621 38.375 324.621 40.737 324.621 40.737L321.854 50.5784C321.854 50.5784 322.645 72.2295 322.645 73.0169C322.645 73.8042 325.412 78.1344 323.435 76.5598C321.459 74.9852 321.064 73.4105 319.482 75.7725C317.901 78.1344 314.344 80.89 314.344 80.89L309.205 34.0448Z" fill="#3F3D56"/>
<path d="M323.04 62.3882L321.854 73.4106C321.854 73.4106 314.739 79.7091 316.32 80.1028C317.901 80.4964 318.692 78.9218 318.692 78.9218C318.692 78.9218 321.459 81.6774 323.04 80.1028C324.621 78.5281 328.574 63.5692 328.574 63.5692L323.04 62.3882Z" fill="#A0616A"/>
<path d="M305.996 12.024C304.419 11.9678 302.731 11.94 301.401 12.7865C300.789 13.2114 300.252 13.7346 299.813 14.3348C298.517 15.9655 297.398 18.0172 297.879 20.0405L298.438 19.8234C298.438 20.3635 298.317 20.8968 298.085 21.3848C298.164 21.1569 298.427 21.5253 298.357 21.7558L297.741 23.7669C298.753 23.3975 300.012 24.1455 300.166 25.2078C300.236 22.8718 300.48 20.1932 302.383 18.8254C303.342 18.1356 304.557 17.925 305.725 17.738C306.803 17.5655 307.933 17.401 308.966 17.7544C309.998 18.1078 310.877 19.1594 310.643 20.2213C311.119 20.058 311.652 20.3884 311.887 20.8318C312.122 21.2751 312.135 21.7981 312.142 22.2995C312.649 22.6566 313.227 21.9474 313.434 21.3639C313.919 19.9941 314.351 18.536 314.089 17.1069C313.827 15.6779 312.658 14.3122 311.199 14.3073C311.377 14.1137 311.471 13.859 311.463 13.5972L310.261 13.4961C310.566 13.453 310.847 13.3057 311.055 13.0792C310.572 13.6081 306.777 12.0517 305.996 12.024Z" fill="#2F2E41"/>
<path d="M305.647 32.8638C305.647 32.8638 302.429 29.7235 301.271 29.9158C300.113 30.1082 298.532 32.8638 298.532 32.8638C298.532 32.8638 289.044 36.0131 289.44 39.1623C289.835 42.3116 294.183 57.6642 294.183 57.6642C294.183 57.6642 297.741 76.1661 294.579 78.1344C291.416 80.1027 309.6 85.2202 309.995 82.8583C310.391 80.4963 311.181 56.8769 309.995 53.334C308.809 49.7911 305.647 32.8638 305.647 32.8638Z" fill="#3F3D56"/>
<path d="M319.482 39.1624H324.37C324.37 39.1624 327.784 54.1213 328.179 55.696C328.574 57.2706 329.365 64.7501 328.97 64.7501C328.574 64.7501 320.668 63.1754 320.668 64.3564L319.482 39.1624Z" fill="#3F3D56"/>
<path d="M319.317 76.2056H300.605C298.779 67.8404 298.626 59.7582 300.605 52.0363H319.317C316.297 59.6193 316.109 67.6462 319.317 76.2056Z" fill="#F2F2F2"/>
<path d="M292.997 65.9311L298.532 68.293C298.532 68.293 309.205 69.8676 309.205 65.5374C309.205 61.2072 298.532 63.5691 298.532 63.5691L294.974 62.4363L292.997 65.9311Z" fill="#A0616A"/>
<path d="M294.183 36.8004L289.44 37.9814L285.882 58.8452C285.882 58.8452 284.696 64.3564 286.673 64.7501C288.649 65.1437 294.183 68.293 294.183 68.293C294.183 68.293 294.974 62.3881 296.555 62.3881L292.602 59.2389L294.974 45.4609L294.183 36.8004Z" fill="#3F3D56"/>
</g>
<path d="M35.9181 124.688H71.0873L78.6971 99.6763H28.0813L28.1273 99.8235L35.9181 124.688Z" fill="#F2F2F2"/>
<path d="M36.6026 143H72.2258V142.745H36.859V130.366H69.2311L70.8037 127.104L70.5726 126.993L69.0698 130.111H36.6026V143Z" fill="#2F2E41"/>
<path d="M67.4846 149.253C65.9985 149.253 64.7937 148.053 64.7937 146.573C64.7937 145.093 65.9985 143.893 67.4846 143.893C68.9708 143.893 70.1756 145.093 70.1756 146.573C70.1756 148.053 68.9708 149.253 67.4846 149.253Z" fill="#3F3D56"/>
<path d="M40.9594 149.253C39.4732 149.253 38.2685 148.053 38.2685 146.573C38.2685 145.093 39.4732 143.893 40.9594 143.893C42.4456 143.893 43.6504 145.093 43.6504 146.573C43.6504 148.053 42.4456 149.253 40.9594 149.253Z" fill="#3F3D56"/>
<path d="M9.69299 91.3178C8.77297 91.3178 8.02715 90.5751 8.02715 89.6589C8.02715 88.7427 8.77297 88 9.69299 88C10.613 88 11.3588 88.7427 11.3588 89.6589C11.3588 90.5751 10.613 91.3178 9.69299 91.3178Z" fill="#3F3D56"/>
<path d="M32.7925 126.155H72.8332L81.4971 97.9535H23.8701L23.9225 98.1194L32.7925 126.155ZM72.6436 125.9H32.9805L24.2195 98.2087H81.1507L72.6436 125.9Z" fill="#2F2E41"/>
<path d="M23.1521 95.434L23.3999 95.3685L21.7088 89.0208H11.8713V89.276H21.5115L23.1521 95.434Z" fill="#2F2E41"/>
<path d="M52.5562 98.0811H52.8125V126.028H52.5562V98.0811Z" fill="#2F2E41"/>
<path d="M41.0819 98.073L42.9216 126.019L42.6659 126.035L40.8262 98.0897L41.0819 98.073Z" fill="#2F2E41"/>
<path d="M64.2813 98.0729L64.5371 98.0895L62.7081 126.036L62.4523 126.019L64.2813 98.0729Z" fill="#2F2E41"/>
<path d="M29.7246 115.906H75.8087V116.161H29.7246V115.906Z" fill="#2F2E41"/>
<path d="M26.7497 106.503H78.6973V106.759H26.7497V106.503Z" fill="#2F2E41"/>
<path d="M133.127 129.5H161.406L167.525 109.389H126.825L126.862 109.507L133.127 129.5Z" fill="#F2F2F2"/>
<path d="M133.677 144.225H162.321V144.019H133.883V134.066H159.913L161.178 131.443L160.992 131.354L159.783 133.861H133.677V144.225Z" fill="#2F2E41"/>
<path d="M158.509 149.252C157.314 149.252 156.345 148.288 156.345 147.098C156.345 145.908 157.314 144.943 158.509 144.943C159.704 144.943 160.673 145.908 160.673 147.098C160.673 148.288 159.704 149.252 158.509 149.252Z" fill="#3F3D56"/>
<path d="M137.18 149.252C135.985 149.252 135.016 148.288 135.016 147.098C135.016 145.908 135.985 144.943 137.18 144.943C138.375 144.943 139.344 145.908 139.344 147.098C139.344 148.288 138.375 149.252 137.18 149.252Z" fill="#3F3D56"/>
<path d="M112.039 102.668C111.299 102.668 110.7 102.071 110.7 101.334C110.7 100.597 111.299 100 112.039 100C112.779 100 113.379 100.597 113.379 101.334C113.379 102.071 112.779 102.668 112.039 102.668Z" fill="#3F3D56"/>
<path d="M130.613 130.68H162.81L169.776 108.004H123.439L123.481 108.137L130.613 130.68ZM162.657 130.475H130.764L123.72 108.209H169.498L162.657 130.475Z" fill="#2F2E41"/>
<path d="M122.862 105.978L123.061 105.925L121.701 100.821H113.791V101.026H121.542L122.862 105.978Z" fill="#2F2E41"/>
<path d="M146.505 108.106H146.711V130.578H146.505V108.106Z" fill="#2F2E41"/>
<path d="M137.279 108.1L138.758 130.571L138.552 130.584L137.073 108.113L137.279 108.1Z" fill="#2F2E41"/>
<path d="M155.933 108.099L156.139 108.113L154.668 130.584L154.462 130.571L155.933 108.099Z" fill="#2F2E41"/>
<path d="M128.146 122.439H165.202V122.644H128.146V122.439Z" fill="#2F2E41"/>
<path d="M125.754 114.878H167.525V115.084H125.754V114.878Z" fill="#2F2E41"/>
<g clip-path="url(#clip2_221_632)">
<path d="M67.747 72.2421L52.2899 75.75C52.2899 75.75 49.1381 75.3891 52.1271 70.9618C52.3954 70.563 52.7141 70.1341 53.0885 69.6683L61.0991 65.7131L61.0246 65.1813L59.3191 53.0801L58.6596 48.3965L63.6873 43.6941L64.6472 42.7958L77.4073 54.6702L77.3161 54.8392L71.9821 64.5391L67.747 72.2421Z" fill="#A0616A"/>
<path d="M62.0318 68.7154L46.5747 72.2233C46.3427 72.1969 46.1188 72.1212 45.918 72.0013C45.7171 71.8813 45.5439 71.7199 45.4096 71.5277C45.2754 71.3354 45.1832 71.1167 45.1391 70.8859C45.0951 70.6552 45.1002 70.4177 45.1541 70.1891C45.229 69.7368 45.3698 69.2981 45.572 68.8872C46.0629 67.9038 46.6675 66.9822 47.3733 66.1416L55.3839 62.1863L54.4016 55.217L53.9123 51.7414L53.5957 49.4943L52.9444 44.8698L58.932 39.269L65.4532 45.336L71.6921 51.1435L70.85 52.6724L69.8462 54.4998L65.0284 63.2659L64.0468 65.0515L62.0318 68.7154Z" fill="#A0616A"/>
<path d="M88.9047 66.2656C88.9047 66.2656 83.113 65.8778 80.9468 61.9357C80.2612 60.6315 79.9968 59.1446 80.1908 57.6821L77.8303 52.9874L74.4706 46.2983L65.9003 44.9368L65.4531 45.336L59.2387 50.8906L57.3375 52.5902L54.4015 55.217L40.1636 67.9436C39.5967 68.9597 38.8683 69.8755 38.0073 70.6548C37.2159 71.3935 36.3452 72.0412 35.4111 72.5857C32.6944 74.1717 28.6332 75.4046 22.7936 74.7571L-7.99128 83L-11 62.2288L14.8207 53.6878L52.6881 28.7681L78.2509 35.3496L90.1048 52.2834L88.9047 66.2656Z" fill="#A0616A"/>
<path d="M176.438 11H68.6314C68.2171 11.0005 67.82 11.1662 67.5271 11.4609C67.2342 11.7556 67.0694 12.1551 67.069 12.5719V76.7941C67.0694 77.2108 67.2342 77.6104 67.5271 77.9051C67.82 78.1998 68.2171 78.3655 68.6314 78.366H176.438C176.852 78.3655 177.249 78.1997 177.542 77.9051C177.835 77.6104 178 77.2108 178 76.7941V12.5719C178 12.1551 177.835 11.7556 177.542 11.4609C177.249 11.1663 176.852 11.0005 176.438 11Z" fill="white"/>
<path d="M176.438 11H68.6314C68.2171 11.0005 67.82 11.1662 67.5271 11.4609C67.2342 11.7556 67.0694 12.1551 67.069 12.5719V76.7941C67.0694 77.2108 67.2342 77.6104 67.5271 77.9051C67.82 78.1998 68.2171 78.3655 68.6314 78.366H176.438C176.852 78.3655 177.249 78.1997 177.542 77.9051C177.835 77.6104 178 77.2108 178 76.7941V12.5719C178 12.1551 177.835 11.7556 177.542 11.4609C177.249 11.1663 176.852 11.0005 176.438 11ZM177.554 76.7941C177.553 77.0918 177.436 77.3774 177.227 77.5879C177.017 77.7984 176.734 77.9167 176.438 77.9169H68.6314C68.3354 77.9168 68.0516 77.7984 67.8424 77.5879C67.6331 77.3774 67.5155 77.0918 67.5154 76.7941V12.5719C67.5155 12.2741 67.6331 11.9886 67.8424 11.7781C68.0516 11.5676 68.3354 11.4492 68.6314 11.4491H176.438C176.734 11.4492 177.017 11.5676 177.227 11.7781C177.436 11.9886 177.553 12.2741 177.554 12.5719V76.7941Z" fill="#3F3D56"/>
<path d="M79.121 19.7581C78.5913 19.7581 78.0735 19.6 77.633 19.3039C77.1925 19.0078 76.8492 18.587 76.6465 18.0946C76.4438 17.6022 76.3907 17.0604 76.4941 16.5377C76.5974 16.015 76.8525 15.5349 77.2271 15.158C77.6017 14.7812 78.0789 14.5245 78.5985 14.4206C79.1181 14.3166 79.6566 14.3699 80.146 14.5739C80.6354 14.7778 81.0537 15.1232 81.348 15.5664C81.6424 16.0095 81.7995 16.5305 81.7995 17.0634C81.7995 17.7781 81.5173 18.4635 81.015 18.9688C80.5127 19.4742 79.8314 19.7581 79.121 19.7581ZM79.121 14.8179C78.6796 14.8179 78.248 14.9496 77.881 15.1963C77.5139 15.4431 77.2279 15.7938 77.0589 16.2041C76.89 16.6144 76.8458 17.0659 76.9319 17.5015C77.018 17.9371 77.2306 18.3372 77.5428 18.6512C77.8549 18.9653 78.2526 19.1792 78.6856 19.2658C79.1186 19.3524 79.5673 19.308 79.9752 19.138C80.383 18.9681 80.7316 18.6802 80.9769 18.311C81.2221 17.9417 81.353 17.5075 81.353 17.0634C81.353 16.7685 81.2953 16.4765 81.1831 16.2041C81.071 15.9316 80.9066 15.6841 80.6993 15.4756C80.4921 15.2671 80.246 15.1017 79.9752 14.9888C79.7044 14.876 79.4142 14.8179 79.121 14.8179Z" fill="#6C63FF"/>
<path d="M74.9578 17.0635C74.9579 16.5495 75.1174 16.0483 75.4139 15.6297C75.7105 15.2112 76.1295 14.8961 76.6124 14.7284C76.2426 14.6001 75.8477 14.5625 75.4605 14.6188C75.0733 14.6751 74.7051 14.8237 74.3866 15.0521C74.068 15.2806 73.8083 15.5823 73.6292 15.9322C73.45 16.282 73.3565 16.6699 73.3565 17.0635C73.3565 17.457 73.45 17.8449 73.6292 18.1948C73.8083 18.5446 74.068 18.8464 74.3866 19.0748C74.7051 19.3033 75.0733 19.4518 75.4605 19.5082C75.8477 19.5645 76.2426 19.5269 76.6124 19.3985C76.1295 19.2308 75.7105 18.9158 75.4139 18.4972C75.1174 18.0787 74.9579 17.5775 74.9578 17.0635Z" fill="#6C63FF"/>
<path d="M89.9783 48.9002C89.4458 48.8996 88.9352 48.6865 88.5586 48.3076C88.182 47.9287 87.9702 47.415 87.9695 46.8792V40.8163C87.9702 40.2807 88.1821 39.7673 88.5588 39.3888C88.9354 39.0103 89.446 38.7977 89.9783 38.7977C90.5107 38.7977 91.0213 39.0103 91.3979 39.3888C91.7746 39.7673 91.9865 40.2807 91.9871 40.8163V46.8792C91.9865 47.415 91.7747 47.9287 91.3981 48.3076C91.0215 48.6865 90.5109 48.8996 89.9783 48.9002Z" fill="#6C63FF"/>
<path d="M95.3352 48.9002C94.8026 48.8996 94.292 48.6865 93.9154 48.3076C93.5388 47.9287 93.327 47.415 93.3264 46.8792V40.8163C93.327 40.2807 93.5389 39.7673 93.9156 39.3888C94.2922 39.0103 94.8028 38.7977 95.3352 38.7977C95.8675 38.7977 96.3781 39.0103 96.7548 39.3888C97.1314 39.7673 97.3433 40.2807 97.344 40.8163V46.8792C97.3434 47.415 97.1315 47.9287 96.7549 48.3076C96.3783 48.6865 95.8677 48.8996 95.3352 48.9002Z" fill="#6C63FF"/>
<path d="M100.692 48.9002C100.159 48.8996 99.6489 48.6865 99.2723 48.3076C98.8957 47.9287 98.6838 47.415 98.6832 46.8792V40.8163C98.6839 40.2807 98.8958 39.7673 99.2724 39.3888C99.6491 39.0103 100.16 38.7977 100.692 38.7977C101.224 38.7977 101.735 39.0103 102.112 39.3888C102.488 39.7673 102.7 40.2807 102.701 40.8163V46.8792C102.7 47.415 102.488 47.9287 102.112 48.3076C101.735 48.6865 101.225 48.8996 100.692 48.9002Z" fill="#6C63FF"/>
<path d="M108.95 48.9002C108.418 48.8996 107.907 48.6865 107.531 48.3076C107.154 47.9287 106.942 47.415 106.942 46.8792V40.8163C106.942 40.2807 107.154 39.7673 107.531 39.3888C107.908 39.0103 108.418 38.7977 108.95 38.7977C109.483 38.7977 109.993 39.0103 110.37 39.3888C110.747 39.7673 110.959 40.2807 110.959 40.8163V46.8792C110.959 47.415 110.747 47.9287 110.37 48.3076C109.994 48.6865 109.483 48.8996 108.95 48.9002Z" fill="#6C63FF"/>
<path d="M114.307 48.9002C113.775 48.8996 113.264 48.6865 112.887 48.3076C112.511 47.9287 112.299 47.415 112.298 46.8792V40.8163C112.299 40.2807 112.511 39.7673 112.888 39.3888C113.264 39.0103 113.775 38.7977 114.307 38.7977C114.84 38.7977 115.35 39.0103 115.727 39.3888C116.104 39.7673 116.315 40.2807 116.316 40.8163V46.8792C116.315 47.415 116.104 47.9287 115.727 48.3076C115.35 48.6865 114.84 48.8996 114.307 48.9002Z" fill="#6C63FF"/>
<path d="M119.664 48.9002C119.131 48.8996 118.621 48.6865 118.244 48.3076C117.868 47.9287 117.656 47.415 117.655 46.8792V40.8163C117.656 40.2807 117.868 39.7673 118.244 39.3888C118.621 39.0103 119.132 38.7977 119.664 38.7977C120.196 38.7977 120.707 39.0103 121.084 39.3888C121.46 39.7673 121.672 40.2807 121.673 40.8163V46.8792C121.672 47.415 121.46 47.9287 121.084 48.3076C120.707 48.6865 120.197 48.8996 119.664 48.9002Z" fill="#6C63FF"/>
<path d="M127.923 48.9002C127.39 48.8996 126.879 48.6865 126.503 48.3076C126.126 47.9287 125.914 47.415 125.914 46.8792V40.8163C125.914 40.2807 126.126 39.7673 126.503 39.3888C126.88 39.0103 127.39 38.7977 127.923 38.7977C128.455 38.7977 128.965 39.0103 129.342 39.3888C129.719 39.7673 129.931 40.2807 129.931 40.8163V46.8792C129.931 47.415 129.719 47.9287 129.342 48.3076C128.966 48.6865 128.455 48.8996 127.923 48.9002Z" fill="#6C63FF"/>
<path d="M133.279 48.9002C132.747 48.8996 132.236 48.6865 131.86 48.3076C131.483 47.9287 131.271 47.415 131.271 46.8792V40.8163C131.271 40.2807 131.483 39.7673 131.86 39.3888C132.236 39.0103 132.747 38.7977 133.279 38.7977C133.812 38.7977 134.322 39.0103 134.699 39.3888C135.076 39.7673 135.288 40.2807 135.288 40.8163V46.8792C135.288 47.415 135.076 47.9287 134.699 48.3076C134.323 48.6865 133.812 48.8996 133.279 48.9002Z" fill="#6C63FF"/>
<path d="M138.636 48.9002C138.104 48.8996 137.593 48.6865 137.216 48.3076C136.84 47.9287 136.628 47.415 136.627 46.8792V40.8163C136.628 40.2807 136.84 39.7673 137.217 39.3888C137.593 39.0103 138.104 38.7977 138.636 38.7977C139.169 38.7977 139.679 39.0103 140.056 39.3888C140.432 39.7673 140.644 40.2807 140.645 40.8163V46.8792C140.644 47.415 140.433 47.9287 140.056 48.3076C139.679 48.6865 139.169 48.8996 138.636 48.9002Z" fill="#6C63FF"/>
<path d="M146.895 48.9002C146.362 48.8996 145.851 48.6865 145.475 48.3076C145.098 47.9287 144.886 47.415 144.886 46.8792V40.8163C144.886 40.2807 145.098 39.7673 145.475 39.3888C145.852 39.0103 146.362 38.7977 146.895 38.7977C147.427 38.7977 147.938 39.0103 148.314 39.3888C148.691 39.7673 148.903 40.2807 148.903 40.8163V46.8792C148.903 47.415 148.691 47.9287 148.314 48.3076C147.938 48.6865 147.427 48.8996 146.895 48.9002Z" fill="#6C63FF"/>
<path d="M152.251 48.9002C151.719 48.8996 151.208 48.6865 150.832 48.3076C150.455 47.9287 150.243 47.415 150.243 46.8792V40.8163C150.243 40.2807 150.455 39.7673 150.832 39.3888C151.209 39.0103 151.719 38.7977 152.251 38.7977C152.784 38.7977 153.294 39.0103 153.671 39.3888C154.048 39.7673 154.26 40.2807 154.26 40.8163V46.8792C154.26 47.415 154.048 47.9287 153.671 48.3076C153.295 48.6865 152.784 48.8996 152.251 48.9002Z" fill="#6C63FF"/>
<path d="M157.608 48.9002C157.076 48.8996 156.565 48.6865 156.189 48.3076C155.812 47.9287 155.6 47.415 155.599 46.8792V40.8163C155.6 40.2807 155.812 39.7673 156.189 39.3888C156.565 39.0103 157.076 38.7977 157.608 38.7977C158.141 38.7977 158.651 39.0103 159.028 39.3888C159.405 39.7673 159.616 40.2807 159.617 40.8163V46.8792C159.617 47.415 159.405 47.9287 159.028 48.3076C158.651 48.6865 158.141 48.8996 157.608 48.9002Z" fill="#6C63FF"/>
<path d="M103.598 71.3929H74.7064C74.529 71.3932 74.3533 71.3582 74.1893 71.2901C74.0253 71.222 73.8763 71.122 73.7507 70.9959C73.6252 70.8698 73.5256 70.72 73.4576 70.5551C73.3896 70.3902 73.3547 70.2135 73.3547 70.035C73.3547 69.8565 73.3896 69.6797 73.4576 69.5148C73.5256 69.3499 73.6252 69.2002 73.7507 69.074C73.8763 68.9479 74.0253 68.8479 74.1893 68.7798C74.3533 68.7117 74.529 68.6767 74.7064 68.677H103.598C103.955 68.6775 104.298 68.8208 104.551 69.0754C104.804 69.3301 104.945 69.6752 104.945 70.035C104.945 70.3948 104.804 70.7399 104.551 70.9945C104.298 71.2491 103.955 71.3924 103.598 71.3929Z" fill="#E6E6E6"/>
<path d="M94.3348 65.5545H83.9693C83.6113 65.5545 83.268 65.4115 83.0149 65.1568C82.7617 64.9021 82.6195 64.5567 82.6195 64.1966C82.6195 63.8364 82.7617 63.491 83.0149 63.2364C83.268 62.9817 83.6113 62.8386 83.9693 62.8386H94.3348C94.6928 62.8386 95.0361 62.9817 95.2893 63.2364C95.5424 63.491 95.6846 63.8364 95.6846 64.1966C95.6846 64.5567 95.5424 64.9021 95.2893 65.1568C95.0361 65.4115 94.6928 65.5545 94.3348 65.5545Z" fill="#E6E6E6"/>
<path d="M177.473 24.4238H67.4351V24.8729H177.473V24.4238Z" fill="#3F3D56"/>
<path opacity="0.15" d="M54.8531 69.9652L54.619 69.4336L64.159 65.1771L66.4333 57.1502L63.0051 54.3617L63.3684 53.9092L67.094 56.9397L64.6408 65.5985L54.8531 69.9652Z" fill="black"/>
<path opacity="0.1" d="M45.572 68.8872L43.0643 70.116L38.0073 70.6548C37.216 71.3936 36.3452 72.0412 35.4111 72.5857L30.9765 72.4378L23.4866 72.2019L48.8077 50.4801L53.9123 51.7414C53.9123 51.7414 45.3355 69.3942 45.572 68.8872Z" fill="black"/>
<path d="M80.9468 61.9357C80.2822 62.0645 79.5535 62.1711 78.7481 62.2527C74.591 62.6709 65.8032 63.2267 65.0283 63.2658C59.8233 63.5123 56.5509 63.5094 56.5509 63.5094L45.5719 68.8872L43.0643 70.1159L22.7386 72.2816L50.2615 48.6709L53.5956 49.4943L59.2387 50.8906L65.4556 52.4283L70.85 52.6724L77.8303 52.9874L83.4724 53.2423C84.4499 53.2764 85.3742 53.6983 86.0436 54.4158C86.713 55.1333 87.0729 56.0882 87.0449 57.0718C86.9563 58.9443 85.6655 61.0132 80.9468 61.9357Z" fill="#A0616A"/>
<path opacity="0.15" d="M83.0864 60.5123C82.9965 60.4846 80.8768 59.8138 80.2041 57.9366C79.7518 56.6745 80.0702 55.1978 81.1503 53.5474L81.6331 53.8671C80.6597 55.3545 80.3614 56.6562 80.7467 57.7358C81.3185 59.3384 83.2365 59.9501 83.2557 59.9561L83.0864 60.5123Z" fill="black"/>
<path opacity="0.15" d="M55.6621 63.6204L45.949 68.3801L46.2021 68.903L55.9153 64.1434L55.6621 63.6204Z" fill="black"/>
<path opacity="0.15" d="M52.0353 50.1255L65.7941 44.6661L66.0063 45.2073L54.1165 49.9251L64.2214 51.8241L64.115 52.3958L52.0353 50.1255Z" fill="black"/>
</g>
</g>
<defs>
<clipPath id="clip0_221_632">
<rect width="356" height="150" fill="white"/>
</clipPath>
<clipPath id="clip1_221_632">
<rect width="166" height="138" fill="white" transform="translate(190 12)"/>
</clipPath>
<clipPath id="clip2_221_632">
<rect width="189" height="72" fill="white" transform="translate(-11 11)"/>
</clipPath>
</defs>
</svg>
