<svg width="356" height="150" viewBox="0 0 356 150" fill="none" xmlns="http://www.w3.org/2000/svg">
<g clip-path="url(#clip0_221_583)">
<g opacity="0.3">
<mask id="path-1-outside-1_221_583" maskUnits="userSpaceOnUse" x="8" y="26" width="357" height="100" fill="black">
<rect fill="white" x="8" y="26" width="357" height="100"/>
<path d="M9.32528 123V28.4545H26.4524V68.4794H70.2628V28.4545H87.4361V123H70.2628V82.8366H26.4524V123H9.32528ZM182.745 75.7273C182.745 85.9143 180.837 94.6394 177.021 101.903C173.235 109.135 168.065 114.675 161.509 118.522C154.985 122.369 147.583 124.293 139.304 124.293C131.025 124.293 123.608 122.369 117.053 118.522C110.528 114.644 105.358 109.089 101.541 101.857C97.7557 94.5933 95.863 85.8835 95.863 75.7273C95.863 65.5402 97.7557 56.8305 101.541 49.598C105.358 42.3348 110.528 36.7796 117.053 32.9325C123.608 29.0855 131.025 27.1619 139.304 27.1619C147.583 27.1619 154.985 29.0855 161.509 32.9325C168.065 36.7796 173.235 42.3348 177.021 49.598C180.837 56.8305 182.745 65.5402 182.745 75.7273ZM165.526 75.7273C165.526 68.5563 164.402 62.5088 162.156 57.5845C159.94 52.6295 156.862 48.8902 152.923 46.3665C148.983 43.812 144.444 42.5348 139.304 42.5348C134.164 42.5348 129.625 43.812 125.685 46.3665C121.746 48.8902 118.653 52.6295 116.406 57.5845C114.19 62.5088 113.082 68.5563 113.082 75.7273C113.082 82.8982 114.19 88.9612 116.406 93.9162C118.653 98.8404 121.746 102.58 125.685 105.134C129.625 107.658 134.164 108.92 139.304 108.92C144.444 108.92 148.983 107.658 152.923 105.134C156.862 102.58 159.94 98.8404 162.156 93.9162C164.402 88.9612 165.526 82.8982 165.526 75.7273ZM191.137 28.4545H212.096L240.164 96.9631H241.272L269.341 28.4545H290.299V123H273.865V58.0462H272.988L246.858 122.723H234.578L208.449 57.9077H207.572V123H191.137V28.4545ZM301.15 123V28.4545H362.641V42.8118H318.277V68.4794H359.456V82.8366H318.277V108.643H363.011V123H301.15Z"/>
</mask>
<path d="M9.32528 123H8.32528V124H9.32528V123ZM9.32528 28.4545V27.4545H8.32528V28.4545H9.32528ZM26.4524 28.4545H27.4524V27.4545H26.4524V28.4545ZM26.4524 68.4794H25.4524V69.4794H26.4524V68.4794ZM70.2628 68.4794V69.4794H71.2628V68.4794H70.2628ZM70.2628 28.4545V27.4545H69.2628V28.4545H70.2628ZM87.4361 28.4545H88.4361V27.4545H87.4361V28.4545ZM87.4361 123V124H88.4361V123H87.4361ZM70.2628 123H69.2628V124H70.2628V123ZM70.2628 82.8366H71.2628V81.8366H70.2628V82.8366ZM26.4524 82.8366V81.8366H25.4524V82.8366H26.4524ZM26.4524 123V124H27.4524V123H26.4524ZM10.3253 123V28.4545H8.32528V123H10.3253ZM9.32528 29.4545H26.4524V27.4545H9.32528V29.4545ZM25.4524 28.4545V68.4794H27.4524V28.4545H25.4524ZM26.4524 69.4794H70.2628V67.4794H26.4524V69.4794ZM71.2628 68.4794V28.4545H69.2628V68.4794H71.2628ZM70.2628 29.4545H87.4361V27.4545H70.2628V29.4545ZM86.4361 28.4545V123H88.4361V28.4545H86.4361ZM87.4361 122H70.2628V124H87.4361V122ZM71.2628 123V82.8366H69.2628V123H71.2628ZM70.2628 81.8366H26.4524V83.8366H70.2628V81.8366ZM25.4524 82.8366V123H27.4524V82.8366H25.4524ZM26.4524 122H9.32528V124H26.4524V122ZM177.021 101.903L176.135 101.438L176.135 101.439L177.021 101.903ZM161.509 118.522L161.003 117.66L161.001 117.661L161.509 118.522ZM117.053 118.522L116.542 119.382L116.546 119.384L117.053 118.522ZM101.541 101.857L100.654 102.319L100.657 102.323L101.541 101.857ZM101.541 49.598L100.656 49.1329L100.655 49.1343L101.541 49.598ZM117.053 32.9325L116.546 32.0701L116.545 32.0711L117.053 32.9325ZM161.509 32.9325L161.001 33.7939L161.003 33.795L161.509 32.9325ZM177.021 49.598L176.134 50.0602L176.136 50.0647L177.021 49.598ZM162.156 57.5845L161.243 57.9928L161.246 57.9996L162.156 57.5845ZM152.923 46.3665L152.379 47.2055L152.383 47.2085L152.923 46.3665ZM125.685 46.3665L126.225 47.2085L126.23 47.2055L125.685 46.3665ZM116.406 57.5845L115.496 57.1716L115.494 57.1741L116.406 57.5845ZM116.406 93.9162L115.493 94.3244L115.497 94.3313L116.406 93.9162ZM125.685 105.134L125.141 105.973L125.146 105.976L125.685 105.134ZM152.923 105.134L153.462 105.976L153.467 105.973L152.923 105.134ZM162.156 93.9162L161.245 93.5032L161.244 93.5058L162.156 93.9162ZM181.745 75.7273C181.745 85.7907 179.86 94.3483 176.135 101.438L177.906 102.368C181.814 94.9305 183.745 86.0379 183.745 75.7273H181.745ZM176.135 101.439C172.429 108.518 167.385 113.914 161.003 117.66L162.015 119.384C168.744 115.436 174.041 109.752 177.907 102.366L176.135 101.439ZM161.001 117.661C154.645 121.409 147.421 123.293 139.304 123.293V125.293C147.744 125.293 155.325 123.33 162.017 119.383L161.001 117.661ZM139.304 123.293C131.187 123.293 123.947 121.409 117.559 117.66L116.546 119.384C123.269 123.33 130.864 125.293 139.304 125.293V123.293ZM117.564 117.662C111.209 113.886 106.163 108.473 102.426 101.39L100.657 102.323C104.552 109.705 109.847 115.402 116.542 119.382L117.564 117.662ZM102.428 101.394C98.7327 94.304 96.863 85.7605 96.863 75.7273H94.863C94.863 86.0065 96.7788 94.8825 100.654 102.319L102.428 101.394ZM96.863 75.7273C96.863 65.6625 98.7329 57.12 102.427 50.0617L100.655 49.1343C96.7786 56.541 94.863 65.418 94.863 75.7273H96.863ZM102.427 50.0631C106.164 42.9503 111.209 37.5387 117.561 33.7939L116.545 32.0711C109.847 36.0205 104.551 41.7192 100.656 49.1329L102.427 50.0631ZM117.559 33.795C123.947 30.0459 131.187 28.1619 139.304 28.1619V26.1619C130.864 26.1619 123.269 28.125 116.546 32.0701L117.559 33.795ZM139.304 28.1619C147.421 28.1619 154.645 30.0459 161.001 33.7939L162.017 32.0711C155.325 28.125 147.744 26.1619 139.304 26.1619V28.1619ZM161.003 33.795C167.384 37.5396 172.428 42.95 176.134 50.0602L177.907 49.1358C174.042 41.7195 168.745 36.0196 162.015 32.0701L161.003 33.795ZM176.136 50.0647C179.86 57.1222 181.745 65.6636 181.745 75.7273H183.745C183.745 65.4168 181.814 56.5388 177.905 49.1313L176.136 50.0647ZM166.526 75.7273C166.526 68.4574 165.388 62.259 163.065 57.1694L161.246 57.9996C163.417 62.7585 164.526 68.6553 164.526 75.7273H166.526ZM163.068 57.1763C160.786 52.0725 157.591 48.1692 153.462 45.5244L152.383 47.2085C156.134 49.6111 159.093 53.1865 161.243 57.9928L163.068 57.1763ZM153.467 45.5274C149.35 42.858 144.618 41.5348 139.304 41.5348V43.5348C144.27 43.5348 148.616 44.766 152.379 47.2055L153.467 45.5274ZM139.304 41.5348C133.99 41.5348 129.258 42.858 125.141 45.5274L126.23 47.2055C129.992 44.766 134.338 43.5348 139.304 43.5348V41.5348ZM125.146 45.5244C121.019 48.1684 117.809 52.0699 115.496 57.1716L117.317 57.9975C119.497 53.1891 122.473 49.6119 126.225 47.2085L125.146 45.5244ZM115.494 57.1741C113.205 62.2624 112.082 68.459 112.082 75.7273H114.082C114.082 68.6537 115.176 62.7552 117.318 57.9949L115.494 57.1741ZM112.082 75.7273C112.082 82.9959 113.205 89.2068 115.493 94.3244L117.319 93.508C115.176 88.7156 114.082 82.8005 114.082 75.7273H112.082ZM115.497 94.3313C117.81 99.4017 121.019 103.3 125.141 105.973L126.23 104.295C122.473 101.859 119.496 98.2792 117.316 93.5011L115.497 94.3313ZM125.146 105.976C129.262 108.613 133.993 109.92 139.304 109.92V107.92C134.336 107.92 129.988 106.703 126.225 104.292L125.146 105.976ZM139.304 109.92C144.615 109.92 149.346 108.613 153.462 105.976L152.383 104.292C148.621 106.703 144.272 107.92 139.304 107.92V109.92ZM153.467 105.973C157.591 103.299 160.785 99.3991 163.068 94.3266L161.244 93.5058C159.095 98.2818 156.134 101.86 152.379 104.295L153.467 105.973ZM163.066 94.3291C165.387 89.2101 166.526 82.9974 166.526 75.7273H164.526C164.526 82.799 163.417 88.7122 161.245 93.5032L163.066 94.3291ZM191.137 28.4545V27.4545H190.137V28.4545H191.137ZM212.096 28.4545L213.022 28.0754L212.767 27.4545H212.096V28.4545ZM240.164 96.9631L239.239 97.3422L239.493 97.9631H240.164V96.9631ZM241.272 96.9631V97.9631H241.943L242.198 97.3422L241.272 96.9631ZM269.341 28.4545V27.4545H268.67L268.415 28.0754L269.341 28.4545ZM290.299 28.4545H291.299V27.4545H290.299V28.4545ZM290.299 123V124H291.299V123H290.299ZM273.865 123H272.865V124H273.865V123ZM273.865 58.0462H274.865V57.0462H273.865V58.0462ZM272.988 58.0462V57.0462H272.313L272.06 57.6716L272.988 58.0462ZM246.858 122.723V123.723H247.533L247.785 123.098L246.858 122.723ZM234.578 122.723L233.651 123.097L233.903 123.723H234.578V122.723ZM208.449 57.9077L209.377 57.5338L209.124 56.9077H208.449V57.9077ZM207.572 57.9077V56.9077H206.572V57.9077H207.572ZM207.572 123V124H208.572V123H207.572ZM191.137 123H190.137V124H191.137V123ZM191.137 29.4545H212.096V27.4545H191.137V29.4545ZM211.171 28.8337L239.239 97.3422L241.09 96.5839L213.022 28.0754L211.171 28.8337ZM240.164 97.9631H241.272V95.9631H240.164V97.9631ZM242.198 97.3422L270.266 28.8337L268.415 28.0754L240.347 96.5839L242.198 97.3422ZM269.341 29.4545H290.299V27.4545H269.341V29.4545ZM289.299 28.4545V123H291.299V28.4545H289.299ZM290.299 122H273.865V124H290.299V122ZM274.865 123V58.0462H272.865V123H274.865ZM273.865 57.0462H272.988V59.0462H273.865V57.0462ZM272.06 57.6716L245.931 122.348L247.785 123.098L273.915 58.4207L272.06 57.6716ZM246.858 121.723H234.578V123.723H246.858V121.723ZM235.506 122.349L209.377 57.5338L207.522 58.2816L233.651 123.097L235.506 122.349ZM208.449 56.9077H207.572V58.9077H208.449V56.9077ZM206.572 57.9077V123H208.572V57.9077H206.572ZM207.572 122H191.137V124H207.572V122ZM192.137 123V28.4545H190.137V123H192.137ZM301.15 123H300.15V124H301.15V123ZM301.15 28.4545V27.4545H300.15V28.4545H301.15ZM362.641 28.4545H363.641V27.4545H362.641V28.4545ZM362.641 42.8118V43.8118H363.641V42.8118H362.641ZM318.277 42.8118V41.8118H317.277V42.8118H318.277ZM318.277 68.4794H317.277V69.4794H318.277V68.4794ZM359.456 68.4794H360.456V67.4794H359.456V68.4794ZM359.456 82.8366V83.8366H360.456V82.8366H359.456ZM318.277 82.8366V81.8366H317.277V82.8366H318.277ZM318.277 108.643H317.277V109.643H318.277V108.643ZM363.011 108.643H364.011V107.643H363.011V108.643ZM363.011 123V124H364.011V123H363.011ZM302.15 123V28.4545H300.15V123H302.15ZM301.15 29.4545H362.641V27.4545H301.15V29.4545ZM361.641 28.4545V42.8118H363.641V28.4545H361.641ZM362.641 41.8118H318.277V43.8118H362.641V41.8118ZM317.277 42.8118V68.4794H319.277V42.8118H317.277ZM318.277 69.4794H359.456V67.4794H318.277V69.4794ZM358.456 68.4794V82.8366H360.456V68.4794H358.456ZM359.456 81.8366H318.277V83.8366H359.456V81.8366ZM317.277 82.8366V108.643H319.277V82.8366H317.277ZM318.277 109.643H363.011V107.643H318.277V109.643ZM362.011 108.643V123H364.011V108.643H362.011ZM363.011 122H301.15V124H363.011V122Z" fill="white" mask="url(#path-1-outside-1_221_583)"/>
</g>
<g clip-path="url(#clip1_221_583)">
<path d="M290.09 150.706C293.981 150.706 297.136 150.18 297.136 149.531C297.136 148.882 293.981 148.355 290.09 148.355C286.198 148.355 283.043 148.882 283.043 149.531C283.043 150.18 286.198 150.706 290.09 150.706Z" fill="#F2F2F2"/>
<path d="M298.311 37.288H297.723V49.6288H298.311V37.288Z" fill="#F2F2F2"/>
<path d="M291.851 29.3546H288.328V151H291.851V29.3546Z" fill="#F2F2F2"/>
<path d="M306.219 38.904H273.96C273.606 38.904 273.257 38.8287 272.934 38.6831C272.611 38.5375 272.323 38.3249 272.089 38.0594C271.855 37.7939 271.68 37.4816 271.576 37.1432C271.471 36.8048 271.44 36.4481 271.484 36.0967L275.594 3.1878C275.671 2.5841 275.964 2.02892 276.42 1.6262C276.876 1.22349 277.463 1.00086 278.071 1H302.109C302.717 1.00086 303.304 1.22349 303.76 1.6262C304.216 2.02892 304.509 2.5841 304.585 3.1878L308.696 36.0967C308.74 36.4481 308.708 36.8048 308.604 37.1432C308.5 37.4816 308.325 37.7939 308.09 38.0594C307.856 38.3249 307.568 38.5375 307.246 38.6831C306.923 38.8287 306.573 38.904 306.219 38.904Z" fill="#F2F2F2"/>
<path d="M298.017 51.6856C299.152 51.6856 300.072 50.7648 300.072 49.6288C300.072 48.4929 299.152 47.572 298.017 47.572C296.882 47.572 295.962 48.4929 295.962 49.6288C295.962 50.7648 296.882 51.6856 298.017 51.6856Z" fill="#F2F2F2"/>
<path d="M81.8642 118.345C80.3809 123.495 76.0499 127.1 71.5321 130.162C70.9013 130.59 70.2703 131.007 69.6391 131.415C69.6348 131.417 69.6304 131.421 69.6261 131.423C69.5957 131.443 69.5653 131.462 69.537 131.482C69.4067 131.566 69.2764 131.65 69.1472 131.733L69.2181 131.765C69.2181 131.765 69.2878 131.802 69.2116 131.771C69.1889 131.762 69.1651 131.753 69.1425 131.743C66.5179 130.684 63.8467 129.547 61.8354 127.562C59.749 125.501 58.5296 122.269 59.6594 119.562C59.8079 119.207 59.9955 118.87 60.2187 118.557C60.3103 118.426 60.409 118.3 60.5118 118.177C61.135 117.416 61.9495 116.834 62.8717 116.493C63.7938 116.151 64.7902 116.061 65.7585 116.233C66.7268 116.404 67.632 116.831 68.381 117.468C69.13 118.106 69.6957 118.932 70.0201 119.861C70.3521 116.768 67.8038 114.177 65.3515 112.266C62.8982 110.355 60.1104 108.274 59.6361 105.199C59.3713 103.488 59.9659 101.829 61.049 100.498C61.0825 100.458 61.116 100.417 61.1506 100.378C62.469 98.8273 64.3235 97.8316 66.3435 97.5897C70.1054 97.1984 73.7596 99.1913 76.4925 101.809C80.8912 106.021 83.5504 112.49 81.8642 118.345Z" fill="#F2F2F2"/>
<path d="M74.7932 111.609C75.5152 112.733 76.0695 113.957 76.4387 115.241C76.7508 116.389 76.8898 117.577 76.8509 118.766C76.7502 121.213 76.0638 123.599 74.8496 125.725C73.935 127.338 72.8203 128.829 71.5322 130.162C70.9013 130.59 70.2703 131.007 69.6391 131.415C69.6349 131.417 69.6305 131.421 69.6261 131.423C69.5958 131.443 69.5653 131.462 69.537 131.482C69.4068 131.566 69.2764 131.65 69.1472 131.733C69.1472 131.733 69.2879 131.802 69.2117 131.771C69.189 131.762 69.1652 131.753 69.1425 131.744C69.3778 129.813 69.1473 127.855 68.4705 126.032C67.7937 124.21 66.6903 122.576 65.2527 121.268C63.8116 119.98 62.0867 119.051 60.2188 118.557C60.3104 118.426 60.4091 118.3 60.5119 118.177C61.2333 118.38 61.9355 118.645 62.6101 118.972C65.0217 120.131 66.9964 122.036 68.2418 124.406C69.3595 126.557 69.8405 128.983 69.6284 131.399C69.7362 131.301 69.8442 131.201 69.9489 131.102C71.9433 129.242 73.7147 127.106 74.9135 124.641C75.9536 122.553 76.4647 120.242 76.402 117.91C76.3042 115.367 75.2919 113.012 73.8263 110.962C72.22 108.774 70.3223 106.817 68.1861 105.144C66.0333 103.419 63.6775 101.963 61.1714 100.81C61.1149 100.784 61.0707 100.737 61.0479 100.679C61.0251 100.621 61.0256 100.556 61.0491 100.498C61.0658 100.446 61.1023 100.403 61.1506 100.378C61.1755 100.367 61.2025 100.362 61.2296 100.363C61.2566 100.364 61.2831 100.372 61.307 100.385C61.6164 100.527 61.9237 100.672 62.2285 100.822C64.7673 102.078 67.1403 103.645 69.2932 105.486C71.3727 107.26 73.3304 109.288 74.7932 111.609Z" fill="white"/>
<path d="M60.4507 131.313H76.7054C76.8837 131.313 77.0599 131.351 77.2225 131.425C77.385 131.498 77.5301 131.605 77.6481 131.739C77.7661 131.873 77.8543 132.03 77.9069 132.201C77.9595 132.371 77.9752 132.551 77.9531 132.728L75.882 149.31C75.8436 149.614 75.6957 149.894 75.466 150.097C75.2363 150.3 74.9406 150.412 74.6342 150.412H62.5218C62.2155 150.412 61.9197 150.3 61.6901 150.097C61.4604 149.894 61.3125 149.614 61.2741 149.31L59.203 132.728C59.1808 132.551 59.1966 132.371 59.2492 132.201C59.3018 132.03 59.39 131.873 59.508 131.739C59.626 131.605 59.7711 131.498 59.9336 131.425C60.0961 131.351 60.2724 131.313 60.4507 131.313Z" fill="#F2F2F2"/>
<path d="M113.449 150.54C114.572 150.54 115.483 149.628 115.483 148.504C115.483 147.38 114.572 146.468 113.449 146.468C112.325 146.468 111.415 147.38 111.415 148.504C111.415 149.628 112.325 150.54 113.449 150.54Z" fill="#CCCCCC"/>
<path d="M241.946 150.54C243.07 150.54 243.981 149.628 243.981 148.504C243.981 147.38 243.07 146.468 241.946 146.468C240.823 146.468 239.912 147.38 239.912 148.504C239.912 149.628 240.823 150.54 241.946 150.54Z" fill="#CCCCCC"/>
<path d="M150.744 120.172H118.874C117.39 120.17 115.969 119.579 114.92 118.53C113.871 117.48 113.281 116.057 113.279 114.573V92.857C113.281 91.3727 113.871 89.9497 114.92 88.9001C115.969 87.8505 117.39 87.2601 118.874 87.2584H150.744C152.227 87.2601 153.649 87.8505 154.698 88.9001C155.746 89.9497 156.336 91.3727 156.338 92.857V114.573C156.336 116.057 155.746 117.48 154.698 118.53C153.649 119.579 152.227 120.17 150.744 120.172Z" fill="#E6E6E6"/>
<path d="M193.633 120.341H161.763C160.279 120.34 158.857 119.749 157.809 118.7C156.76 117.65 156.17 116.227 156.168 114.743V93.0267C156.17 91.5424 156.76 90.1193 157.809 89.0698C158.857 88.0202 160.279 87.4298 161.763 87.4281H193.633C195.116 87.4298 196.538 88.0202 197.586 89.0698C198.635 90.1193 199.225 91.5424 199.227 93.0267V114.743C199.225 116.227 198.635 117.65 197.586 118.7C196.538 119.749 195.116 120.34 193.633 120.341Z" fill="#E6E6E6"/>
<path d="M236.522 120.511H204.651C203.168 120.509 201.746 119.919 200.698 118.869C199.649 117.82 199.059 116.397 199.057 114.912V93.1964C199.059 91.7121 199.649 90.289 200.698 89.2394C201.746 88.1898 203.168 87.5995 204.651 87.5978H236.522C238.005 87.5995 239.427 88.1898 240.475 89.2394C241.524 90.289 242.114 91.7121 242.116 93.1964V114.912C242.114 116.397 241.524 117.82 240.475 118.869C239.427 119.919 238.005 120.509 236.522 120.511Z" fill="#E6E6E6"/>
<path d="M248.727 118.984H108.363V148.334H248.727V118.984Z" fill="#E6E6E6"/>
<path d="M113.449 148.504H107.346C104.262 148.504 101.752 145.652 101.752 142.147V111.519H113.449V148.504Z" fill="#E6E6E6"/>
<path d="M248.049 148.504H241.946V106.769H253.643V141.331C253.643 145.286 251.134 148.504 248.049 148.504Z" fill="#E6E6E6"/>
<path d="M156.507 125.092H113.449V115.93C127.802 107.691 142.155 107.691 156.507 115.93V125.092Z" fill="#CCCCCC"/>
<path d="M199.396 125.261H156.338V116.1C170.691 107.86 185.044 107.86 199.396 116.1V125.261Z" fill="#CCCCCC"/>
<path d="M242.285 125.431H199.227V116.269C213.58 108.03 227.933 108.03 242.285 116.269V125.431Z" fill="#CCCCCC"/>
<path d="M105.142 119.323C110.666 119.323 115.144 114.842 115.144 109.314C115.144 103.785 110.666 99.304 105.142 99.304C99.6186 99.304 95.1406 103.785 95.1406 109.314C95.1406 114.842 99.6186 119.323 105.142 119.323Z" fill="#CCCCCC"/>
<path d="M251.609 118.984C257.133 118.984 261.611 114.502 261.611 108.974C261.611 103.446 257.133 98.9646 251.609 98.9646C246.085 98.9646 241.607 103.446 241.607 108.974C241.607 114.502 246.085 118.984 251.609 118.984Z" fill="#CCCCCC"/>
<path d="M222.147 89.3646C222.17 89.5255 222.18 89.688 222.178 89.8506L234.167 98.1201L237.364 96.6053L240.279 101.135L234.879 104.367C234.443 104.628 233.934 104.741 233.428 104.688C232.923 104.635 232.448 104.419 232.076 104.073L219.934 92.7951C219.332 92.9648 218.692 92.9469 218.1 92.7438C217.508 92.5406 216.992 92.162 216.62 91.6581C216.248 91.1542 216.039 90.549 216.019 89.923C215.999 89.2969 216.17 88.6797 216.51 88.1535C216.849 87.6272 217.341 87.2169 217.919 86.9769C218.497 86.737 219.134 86.6789 219.746 86.8104C220.358 86.9419 220.915 87.2567 221.344 87.713C221.773 88.1692 222.053 88.7453 222.147 89.3646Z" fill="#FFB8B8"/>
<path d="M234.398 97.4084C234.451 97.2259 234.542 97.0569 234.666 96.913C234.79 96.7691 234.943 96.6536 235.116 96.5745L241.144 93.8101C241.958 93.2798 242.949 93.0941 243.9 93.2938C244.851 93.4935 245.683 94.0623 246.216 94.8755C246.748 95.6887 246.936 96.6799 246.739 97.6318C246.542 98.5838 245.976 99.4188 245.165 99.9537L240.182 104.364C240.04 104.49 239.872 104.583 239.69 104.639C239.508 104.694 239.317 104.709 239.129 104.684C238.941 104.658 238.76 104.592 238.6 104.491C238.44 104.389 238.303 104.254 238.199 104.095L234.559 98.4976C234.456 98.3384 234.388 98.1587 234.36 97.9707C234.332 97.7827 234.345 97.5909 234.398 97.4084Z" fill="#6C63FF"/>
<path d="M221.995 89.9036L221.935 89.9079L221.771 87.6322C221.718 86.9047 221.248 86.346 220.72 86.3842L217.225 86.6373C216.697 86.6755 215.727 87.3386 215.779 88.066L215.822 88.6521L216.682 100.551C216.735 101.278 217.791 101.795 218.318 101.757L221.814 101.503C222.341 101.465 222.726 100.845 222.673 100.117L222.052 91.5279L222.113 91.5235L221.995 89.9036Z" fill="#3F3D56"/>
<path d="M221.568 87.6561L222.469 100.123C222.509 100.666 222.221 101.129 221.827 101.158L218.315 101.412C217.921 101.441 217.57 101.024 217.531 100.48L216.629 88.0137C216.59 87.4704 216.878 87.0069 217.271 86.9784L217.697 86.9475C217.668 87.0585 217.674 87.1759 217.716 87.283C217.757 87.39 217.831 87.4812 217.928 87.5434C217.968 87.5629 218.013 87.5716 218.058 87.5686L220.06 87.4236C220.248 87.4099 220.384 87.1894 220.365 86.9312C220.361 86.8716 220.348 86.813 220.328 86.7571L220.784 86.724C221.178 86.6955 221.529 87.1128 221.568 87.6561Z" fill="white"/>
<path d="M172.293 116.443L171.134 113.032L183.728 106.937L185.438 111.971L172.293 116.443Z" fill="#FFB8B8"/>
<path d="M169.285 118.437L165.549 107.439L165.688 107.392C166.25 107.201 166.844 107.122 167.436 107.161C168.028 107.2 168.606 107.354 169.138 107.617C169.671 107.879 170.146 108.244 170.537 108.69C170.929 109.136 171.228 109.655 171.419 110.217L173.701 116.934L169.285 118.437Z" fill="#2F2E41"/>
<path d="M222.275 118.877C219.574 119.029 216.881 118.464 214.468 117.241L199.659 107.159L182.368 113.567C181.909 113.723 181.407 113.699 180.965 113.5C180.523 113.301 180.173 112.941 179.986 112.494L179.138 110.454C178.945 109.995 178.939 109.478 179.123 109.015C179.306 108.552 179.664 108.18 180.119 107.978L196.638 100.554C198.622 99.6655 200.847 99.4729 202.953 100.007L225.887 105.856L231.949 113.061L231.881 113.153C228.906 117.262 225.376 118.652 222.275 118.877Z" fill="#2F2E41"/>
<path d="M241.005 88.7708C244.988 88.7708 248.216 85.5397 248.216 81.554C248.216 77.5683 244.988 74.3373 241.005 74.3373C237.023 74.3373 233.794 77.5683 233.794 81.554C233.794 85.5397 237.023 88.7708 241.005 88.7708Z" fill="#FFB8B8"/>
<path d="M233.603 116.273L221.997 107.629L229.912 102C229.686 101.27 228.682 97.1015 234.174 94.2598C235.913 93.3604 237.165 92.5862 237.897 91.9588C238.936 91.0622 240.266 90.5766 241.637 90.5934C242.501 90.6072 243.351 90.8221 244.118 91.2211C244.885 91.6201 245.549 92.1923 246.057 92.8925C246.564 93.5926 246.903 94.4014 247.044 95.2549C247.186 96.1084 247.127 96.9832 246.872 97.81C245.727 101.536 243.903 106.473 241.715 108.834C239.241 111.502 236.557 113.967 233.691 116.207L233.603 116.273Z" fill="#6C63FF"/>
<path d="M174.133 119.465L172.974 116.054L185.568 109.959L187.278 114.993L174.133 119.465Z" fill="#FFB8B8"/>
<path d="M171.125 121.459L167.39 110.462L167.529 110.414C168.09 110.223 168.684 110.145 169.276 110.183C169.868 110.222 170.447 110.377 170.979 110.639C171.511 110.901 171.986 111.266 172.378 111.712C172.769 112.158 173.069 112.677 173.26 113.239L175.541 119.956L171.125 121.459Z" fill="#2F2E41"/>
<path d="M224.116 121.899C221.415 122.051 218.721 121.487 216.308 120.263L201.499 110.181L184.208 116.589C183.749 116.745 183.248 116.721 182.806 116.522C182.363 116.323 182.013 115.963 181.826 115.516L180.978 113.476C180.785 113.017 180.78 112.5 180.963 112.038C181.146 111.575 181.504 111.202 181.959 111L198.479 103.576C200.462 102.688 202.687 102.495 204.793 103.029L227.727 108.878L233.789 116.083L233.722 116.176C230.746 120.285 227.216 121.675 224.116 121.899Z" fill="#2F2E41"/>
<path d="M220.787 98.0216C220.877 98.1571 220.956 98.2995 221.023 98.4474L235.396 100.784L237.637 98.0448L242.209 100.89L238.712 106.124C238.43 106.547 238.018 106.867 237.538 107.035C237.059 107.204 236.537 107.212 236.053 107.059L220.255 102.07C219.784 102.481 219.198 102.739 218.576 102.809C217.954 102.879 217.325 102.758 216.774 102.462C216.222 102.166 215.774 101.709 215.488 101.152C215.203 100.595 215.094 99.9634 215.175 99.3424C215.257 98.7214 215.525 98.14 215.945 97.6755C216.365 97.2109 216.916 96.8853 217.525 96.7419C218.134 96.5986 218.773 96.6442 219.356 96.8728C219.938 97.1014 220.438 97.5021 220.787 98.0216Z" fill="#FFB8B8"/>
<path d="M235.3 100.041C235.269 99.8539 235.28 99.662 235.33 99.4788C235.381 99.2956 235.47 99.1255 235.592 98.98L239.857 93.8988C240.366 93.0706 241.182 92.4782 242.127 92.2513C243.071 92.0244 244.067 92.1817 244.896 92.6885C245.725 93.1953 246.319 94.0104 246.549 94.9551C246.778 95.8997 246.624 96.8969 246.12 97.7278L243.503 103.849C243.428 104.023 243.316 104.18 243.176 104.308C243.035 104.435 242.869 104.531 242.688 104.589C242.507 104.646 242.316 104.664 242.127 104.641C241.939 104.618 241.758 104.554 241.596 104.455L235.912 100.956C235.75 100.857 235.612 100.724 235.506 100.566C235.4 100.408 235.33 100.229 235.3 100.041Z" fill="#6C63FF"/>
<path d="M239.077 89.502C241.173 86.804 242.335 83.4973 242.388 80.0806C241.402 80.8142 240.285 81.3538 239.098 81.671C237.838 82.0069 236.453 82.0744 235.266 81.5335C233.596 80.7721 232.608 78.8303 232.798 77.0034C232.987 75.1765 234.249 73.5445 235.891 72.7252C237.573 71.9383 239.491 71.8221 241.255 72.4003C242.188 71.6049 243.33 71.0956 244.545 70.9333C245.76 70.771 246.996 70.9626 248.105 71.4853C250.658 72.739 252.07 75.6424 252.314 78.4774C252.559 81.3124 251.831 84.1312 251.11 86.8836L251.028 87.1946C250.804 88.0515 250.151 89.6955 250.151 89.6955C250.151 89.6955 246.359 88.9466 244.852 88.4665C242.668 89.2563 239.077 89.502 239.077 89.502Z" fill="#2F2E41"/>
<path d="M221.001 90.1936L217.911 90.4174C217.834 90.423 217.757 90.3975 217.698 90.3465C217.639 90.2955 217.603 90.2232 217.597 90.1455C217.592 90.0678 217.617 89.991 217.668 89.9321C217.719 89.8731 217.791 89.8369 217.869 89.8312L220.959 89.6075C220.997 89.6046 221.036 89.6094 221.073 89.6215C221.109 89.6336 221.143 89.6528 221.173 89.6781C221.202 89.7033 221.226 89.7341 221.243 89.7686C221.26 89.8032 221.271 89.8408 221.273 89.8793C221.276 89.9178 221.271 89.9566 221.259 89.9932C221.247 90.0299 221.228 90.0638 221.203 90.093C221.177 90.1222 221.146 90.1461 221.112 90.1634C221.077 90.1806 221.04 90.1909 221.001 90.1936Z" fill="#3F3D56"/>
<path d="M221.107 91.6589L218.017 91.8827C217.979 91.8855 217.94 91.8808 217.904 91.8687C217.867 91.8565 217.833 91.8373 217.804 91.8121C217.775 91.7868 217.751 91.7561 217.733 91.7215C217.716 91.687 217.706 91.6494 217.703 91.6109C217.7 91.5723 217.705 91.5336 217.717 91.4969C217.729 91.4603 217.748 91.4264 217.774 91.3972C217.799 91.368 217.83 91.3441 217.864 91.3268C217.899 91.3095 217.937 91.2992 217.975 91.2965L221.065 91.0728C221.142 91.0672 221.219 91.0927 221.278 91.1436C221.337 91.1946 221.373 91.2669 221.379 91.3446C221.384 91.4224 221.359 91.4992 221.308 91.5581C221.257 91.617 221.185 91.6533 221.107 91.6589Z" fill="#3F3D56"/>
<path d="M221.213 93.1242L218.123 93.348C218.046 93.3534 217.969 93.3279 217.91 93.2769C217.852 93.2259 217.816 93.1537 217.81 93.0761C217.804 92.9985 217.83 92.9218 217.881 92.8629C217.931 92.804 218.003 92.7676 218.081 92.7619L221.171 92.5381C221.248 92.5325 221.325 92.558 221.384 92.609C221.443 92.6599 221.479 92.7323 221.485 92.81C221.49 92.8877 221.465 92.9645 221.414 93.0234C221.363 93.0824 221.291 93.1186 221.213 93.1242Z" fill="#3F3D56"/>
<path d="M186.156 53.1547H156.503C155.802 53.1539 155.13 52.8751 154.635 52.3793C154.14 51.8835 153.861 51.2114 153.86 50.5103V24.9471C153.861 24.246 154.14 23.5738 154.635 23.078C155.13 22.5823 155.802 22.3034 156.503 22.3026H186.156C186.857 22.3034 187.528 22.5823 188.024 23.078C188.519 23.5738 188.798 24.246 188.798 24.9471V50.5103C188.798 51.2114 188.519 51.8835 188.024 52.3793C187.528 52.875 186.857 53.1539 186.156 53.1547ZM156.503 22.8903C155.958 22.8909 155.435 23.1078 155.05 23.4934C154.665 23.879 154.448 24.4018 154.447 24.9471V50.5103C154.448 51.0556 154.665 51.5784 155.05 51.964C155.435 52.3496 155.958 52.5664 156.503 52.5671H186.156C186.701 52.5664 187.223 52.3496 187.609 51.964C187.994 51.5784 188.211 51.0556 188.211 50.5103V24.9471C188.211 24.4018 187.994 23.879 187.609 23.4934C187.223 23.1078 186.701 22.8909 186.156 22.8903H156.503Z" fill="#F2F2F2"/>
<path d="M181.82 49.188H160.838C160.176 49.1873 159.542 48.9239 159.074 48.4557C158.606 47.9874 158.343 47.3526 158.343 46.6904V28.7668C158.343 28.1047 158.606 27.4698 159.074 27.0016C159.542 26.5334 160.176 26.27 160.838 26.2693H181.82C182.482 26.27 183.116 26.5334 183.584 27.0016C184.052 27.4698 184.315 28.1047 184.316 28.7668V46.6904C184.315 47.3526 184.052 47.9874 183.584 48.4557C183.116 48.9239 182.482 49.1873 181.82 49.188Z" fill="#E6E6E6"/>
<path d="M171.476 18.4829C172.287 18.4829 172.944 17.8251 172.944 17.0137C172.944 16.2023 172.287 15.5446 171.476 15.5446C170.665 15.5446 170.008 16.2023 170.008 17.0137C170.008 17.8251 170.665 18.4829 171.476 18.4829Z" fill="#F2F2F2"/>
<path d="M174.563 22.7475L171.477 17.587L168.409 22.7466L167.904 22.4463L171.475 16.4404L175.066 22.4454L174.563 22.7475Z" fill="#F2F2F2"/>
<path d="M174.852 35.6718C174.852 35.2271 174.803 34.7838 174.707 34.3496H170.302C169.99 34.3496 169.692 34.4734 169.471 34.6939C169.251 34.9143 169.127 35.2132 169.127 35.5249V41.82C170.682 41.7096 172.136 41.014 173.199 39.8732C174.261 38.7324 174.852 37.2312 174.852 35.6718Z" fill="#6C63FF"/>
<path d="M168.687 42.1361C167.469 42.1366 166.275 41.7922 165.244 41.1428C164.213 40.4933 163.386 39.5653 162.86 38.4658C162.333 37.3664 162.128 36.1403 162.268 34.9291C162.408 33.718 162.888 32.5711 163.651 31.621C164.414 30.6709 165.431 29.9562 166.583 29.5594C167.735 29.1627 168.975 29.1001 170.161 29.3789C171.347 29.6576 172.43 30.2664 173.286 31.1348C174.141 32.0033 174.733 33.096 174.994 34.287L175.072 34.6435H170.302C170.068 34.6438 169.844 34.7367 169.679 34.902C169.514 35.0672 169.421 35.2913 169.421 35.525V42.0938L169.097 42.1168C168.961 42.1267 168.825 42.1361 168.687 42.1361ZM168.687 29.7953C167.13 29.7953 165.636 30.4144 164.535 31.5165C163.434 32.6186 162.815 34.1133 162.815 35.6719C162.815 37.2305 163.434 38.7252 164.535 39.8273C165.636 40.9293 167.13 41.5485 168.687 41.5485C168.736 41.5485 168.785 41.5471 168.834 41.5448V35.525C168.834 35.1355 168.989 34.7621 169.264 34.4866C169.539 34.2112 169.913 34.0563 170.302 34.0558H174.33C173.975 32.8315 173.233 31.7551 172.216 30.9872C171.199 30.2194 169.961 29.8013 168.687 29.7953Z" fill="white"/>
<path d="M177.348 44.046H170.302C169.913 44.0455 169.539 43.8906 169.264 43.6152C168.989 43.3398 168.834 42.9663 168.834 42.5768V41.5463L169.107 41.5269C169.947 41.4688 170.765 41.2299 171.505 40.8265C172.245 40.423 172.889 39.8645 173.393 39.1891C173.898 38.5137 174.251 37.7373 174.428 36.913C174.605 36.0886 174.602 35.2357 174.42 34.4125L174.342 34.0558H177.348C177.737 34.0562 178.11 34.2112 178.386 34.4866C178.661 34.762 178.816 35.1354 178.816 35.5249V42.5768C178.816 42.9663 178.661 43.3398 178.386 43.6152C178.11 43.8906 177.737 44.0455 177.348 44.046ZM169.421 42.0879V42.5768C169.421 42.8105 169.514 43.0346 169.679 43.1999C169.844 43.3651 170.068 43.4581 170.302 43.4583H177.348C177.582 43.4581 177.805 43.3651 177.971 43.1999C178.136 43.0346 178.229 42.8105 178.229 42.5768V35.5249C178.229 35.2912 178.136 35.0672 177.971 34.9019C177.805 34.7367 177.582 34.6437 177.348 34.6434H175.062C175.117 34.9834 175.146 35.3273 175.146 35.6718C175.141 37.2569 174.555 38.785 173.5 39.9673C172.445 41.1495 170.994 41.9039 169.421 42.0879Z" fill="white"/>
</g>
</g>
<defs>
<clipPath id="clip0_221_583">
<rect width="356" height="150" fill="white"/>
</clipPath>
<clipPath id="clip1_221_583">
<rect width="266" height="150" fill="white" transform="translate(45 1)"/>
</clipPath>
</defs>
</svg>
