<svg width="1536" height="200" viewBox="0 0 1536 200" fill="none" xmlns="http://www.w3.org/2000/svg">
<g clip-path="url(#clip0_218_279)">
<g opacity="0.1">
<path d="M1324.65 197.05C1328.34 197.05 1331.32 193.15 1331.32 188.339C1331.32 183.527 1328.34 179.627 1324.65 179.627C1320.97 179.627 1317.99 183.527 1317.99 188.339C1317.99 193.15 1320.97 197.05 1324.65 197.05Z" fill="#3F3D56"/>
<path d="M1329.93 151.071C1330.87 149.452 1331.35 147.614 1331.33 145.746C1331.33 140.925 1328.35 137.035 1324.67 137.035C1320.98 137.035 1318 140.934 1318 145.746C1317.98 147.613 1318.46 149.451 1319.39 151.071C1318.48 152.697 1318 154.53 1318 156.393C1318 158.257 1318.48 160.09 1319.39 161.716C1318.48 163.343 1318 165.176 1318 167.041C1318 168.905 1318.48 170.739 1319.39 172.365C1318.46 173.985 1317.98 175.823 1318 177.69C1318 182.511 1320.99 186.401 1324.67 186.401C1328.35 186.401 1331.33 182.502 1331.33 177.69C1331.35 175.823 1330.87 173.985 1329.94 172.365C1330.86 170.739 1331.33 168.905 1331.33 167.041C1331.33 165.176 1330.86 163.343 1329.94 161.716C1330.86 160.09 1331.33 158.257 1331.33 156.393C1331.33 154.53 1330.86 152.697 1329.94 151.071H1329.93Z" fill="#3F3D56"/>
<path d="M1324.65 143.811C1328.34 143.811 1331.32 139.911 1331.32 135.1C1331.32 130.289 1328.34 126.389 1324.65 126.389C1320.97 126.389 1317.99 130.289 1317.99 135.1C1317.99 139.911 1320.97 143.811 1324.65 143.811Z" fill="#3F3D56"/>
<path d="M1324.65 133.162C1328.34 133.162 1331.32 129.262 1331.32 124.451C1331.32 119.64 1328.34 115.74 1324.65 115.74C1320.97 115.74 1317.99 119.64 1317.99 124.451C1317.99 129.262 1320.97 133.162 1324.65 133.162Z" fill="#3F3D56"/>
<path d="M1349.61 51.5842C1350.52 50.4261 1351.35 49.2068 1352.09 47.9351L1334.59 45.0634L1353.53 45.2051C1355.35 41.2573 1356.34 36.9813 1356.44 32.6386C1356.54 28.2958 1355.76 23.9775 1354.14 19.9478L1328.71 33.1038L1352.16 15.91C1349.96 12.1244 1347.01 8.83085 1343.48 6.23432C1339.95 3.63779 1335.93 1.79388 1331.66 0.817374C1327.39 -0.159132 1322.96 -0.247335 1318.65 0.558258C1314.34 1.36385 1310.25 3.046 1306.62 5.49998C1302.99 7.95397 1299.91 11.1273 1297.56 14.8223C1295.21 18.5174 1293.65 22.6552 1292.98 26.9781C1292.3 31.301 1292.52 35.7165 1293.63 39.9497C1294.74 44.1829 1296.71 48.1432 1299.42 51.5842C1298 53.3857 1296.78 55.3345 1295.77 57.3968L1318.51 69.1907L1294.27 61.0549C1292.56 66.0768 1292.14 71.4442 1293.03 76.671C1293.93 81.8978 1296.12 86.8189 1299.4 90.9888C1295.7 95.6908 1293.39 101.339 1292.75 107.287C1292.11 113.235 1293.16 119.243 1295.78 124.624C1298.39 130.005 1302.48 134.542 1307.55 137.716C1312.63 140.891 1318.51 142.574 1324.5 142.574C1330.49 142.574 1336.36 140.891 1341.44 137.716C1346.52 134.542 1350.6 130.005 1353.22 124.624C1355.84 119.243 1356.89 113.235 1356.25 107.287C1355.6 101.339 1353.3 95.6908 1349.6 90.9888C1354.02 85.3701 1356.43 78.429 1356.43 71.2804C1356.43 64.1319 1354.02 57.1908 1349.6 51.5721L1349.61 51.5842Z" fill="#6C63FF"/>
<path opacity="0.1" d="M1292.58 71.2939C1292.57 78.4438 1294.98 85.3879 1299.41 91.0007C1295.71 95.7028 1293.41 101.351 1292.76 107.299C1292.12 113.247 1293.17 119.255 1295.79 124.636C1298.41 130.017 1302.49 134.554 1307.57 137.728C1312.65 140.903 1318.52 142.586 1324.51 142.586C1330.5 142.586 1336.38 140.903 1341.46 137.728C1346.53 134.554 1350.62 130.017 1353.24 124.636C1355.85 119.255 1356.9 113.247 1356.26 107.299C1355.62 101.351 1353.31 95.7028 1349.61 91.0007C1353.89 85.5768 1292.58 67.7141 1292.58 71.2939Z" fill="black"/>
</g>
<g opacity="0.1">
<path d="M1137.65 187.733C1139.89 187.733 1141.71 185.359 1141.71 182.43C1141.71 179.501 1139.89 177.126 1137.65 177.126C1135.41 177.126 1133.59 179.501 1133.59 182.43C1133.59 185.359 1135.41 187.733 1137.65 187.733Z" fill="#3F3D56"/>
<path d="M1140.88 159.743C1141.44 158.756 1141.74 157.637 1141.72 156.5C1141.72 153.571 1139.91 151.197 1137.66 151.197C1135.42 151.197 1133.61 153.571 1133.61 156.5C1133.6 157.637 1133.89 158.756 1134.45 159.743C1133.9 160.733 1133.61 161.849 1133.61 162.983C1133.61 164.118 1133.9 165.234 1134.45 166.224C1133.9 167.215 1133.61 168.33 1133.61 169.465C1133.61 170.6 1133.9 171.715 1134.45 172.706C1133.89 173.691 1133.6 174.809 1133.61 175.945C1133.61 178.877 1135.42 181.251 1137.66 181.251C1139.91 181.251 1141.72 178.877 1141.72 175.945C1141.74 174.809 1141.44 173.691 1140.88 172.706C1141.43 171.716 1141.72 170.6 1141.72 169.465C1141.72 168.33 1141.43 167.214 1140.88 166.224C1141.43 165.234 1141.72 164.118 1141.72 162.983C1141.72 161.849 1141.43 160.733 1140.88 159.743Z" fill="#3F3D56"/>
<path d="M1137.65 155.322C1139.89 155.322 1141.71 152.948 1141.71 150.019C1141.71 147.09 1139.89 144.716 1137.65 144.716C1135.41 144.716 1133.59 147.09 1133.59 150.019C1133.59 152.948 1135.41 155.322 1137.65 155.322Z" fill="#3F3D56"/>
<path d="M1137.65 148.841C1139.89 148.841 1141.71 146.466 1141.71 143.537C1141.71 140.608 1139.89 138.234 1137.65 138.234C1135.41 138.234 1133.59 140.608 1133.59 143.537C1133.59 146.466 1135.41 148.841 1137.65 148.841Z" fill="#3F3D56"/>
<path d="M1122.46 99.1759C1121.91 98.4714 1121.41 97.7294 1120.95 96.9551L1131.62 95.2074L1120.09 95.2948C1118.98 92.8927 1118.38 90.2912 1118.31 87.6491C1118.25 85.0069 1118.73 82.3795 1119.71 79.9271L1135.18 87.9454L1120.91 77.4592C1122.25 75.1562 1124.05 73.1527 1126.19 71.5735C1128.34 69.9942 1130.79 68.8729 1133.39 68.2794C1135.99 67.6858 1138.68 67.6327 1141.31 68.1233C1143.93 68.614 1146.42 69.6378 1148.63 71.1312C1150.83 72.6246 1152.71 74.5556 1154.14 76.8041C1155.57 79.0526 1156.52 81.5704 1156.93 84.2009C1157.34 86.8315 1157.21 89.5184 1156.53 92.0947C1155.86 94.6709 1154.66 97.0813 1153.02 99.1759C1153.88 100.271 1154.62 101.456 1155.23 102.71L1141.39 109.894L1156.15 104.949C1157.19 108.008 1157.44 111.276 1156.89 114.458C1156.35 117.64 1155.01 120.635 1153.02 123.174C1155.27 126.036 1156.67 129.474 1157.06 133.095C1157.45 136.716 1156.82 140.373 1155.22 143.649C1153.63 146.924 1151.14 149.686 1148.05 151.618C1144.96 153.551 1141.38 154.575 1137.74 154.575C1134.09 154.575 1130.51 153.551 1127.42 151.618C1124.33 149.686 1121.85 146.924 1120.25 143.649C1118.66 140.373 1118.02 136.716 1118.41 133.095C1118.8 129.474 1120.2 126.036 1122.46 123.174C1119.76 119.753 1118.3 115.527 1118.3 111.175C1118.3 106.823 1119.76 102.597 1122.46 99.1759H1122.46Z" fill="#6C63FF"/>
<path opacity="0.1" d="M1157.17 111.175C1157.18 115.528 1155.72 119.756 1153.02 123.173C1155.27 126.036 1156.67 129.474 1157.06 133.095C1157.45 136.716 1156.81 140.373 1155.22 143.649C1153.63 146.924 1151.14 149.686 1148.05 151.618C1144.96 153.551 1141.38 154.575 1137.74 154.575C1134.09 154.575 1130.51 153.551 1127.42 151.618C1124.33 149.686 1121.85 146.924 1120.25 143.649C1118.66 140.373 1118.02 136.716 1118.41 133.095C1118.8 129.474 1120.2 126.036 1122.46 123.173C1119.85 119.886 1157.17 108.996 1157.17 111.175Z" fill="black"/>
</g>
<g opacity="0.1">
<path d="M1229.11 192.349C1232.1 192.349 1234.54 189.172 1234.54 185.253C1234.54 181.334 1232.1 178.157 1229.11 178.157C1226.11 178.157 1223.68 181.334 1223.68 185.253C1223.68 189.172 1226.11 192.349 1229.11 192.349Z" fill="#3F3D56"/>
<path d="M1233.4 154.891C1234.16 153.571 1234.55 152.073 1234.54 150.552C1234.54 146.635 1232.12 143.456 1229.1 143.456C1226.08 143.456 1223.67 146.635 1223.67 150.552C1223.65 152.074 1224.05 153.572 1224.8 154.891C1224.06 156.216 1223.67 157.71 1223.67 159.229C1223.67 160.748 1224.06 162.242 1224.8 163.567C1224.06 164.891 1223.67 166.384 1223.67 167.903C1223.67 169.421 1224.06 170.914 1224.8 172.239C1224.05 173.558 1223.65 175.056 1223.67 176.578C1223.67 180.495 1226.1 183.674 1229.1 183.674C1232.1 183.674 1234.54 180.495 1234.54 176.578C1234.55 175.057 1234.16 173.559 1233.4 172.239C1234.15 170.914 1234.54 169.421 1234.54 167.903C1234.54 166.385 1234.15 164.892 1233.4 163.567C1234.15 162.241 1234.54 160.748 1234.54 159.229C1234.54 157.71 1234.15 156.217 1233.4 154.891Z" fill="#3F3D56"/>
<path d="M1229.11 148.976C1232.1 148.976 1234.54 145.799 1234.54 141.88C1234.54 137.961 1232.1 134.784 1229.11 134.784C1226.11 134.784 1223.68 137.961 1223.68 141.88C1223.68 145.799 1226.11 148.976 1229.11 148.976Z" fill="#3F3D56"/>
<path d="M1229.11 140.301C1232.1 140.301 1234.54 137.124 1234.54 133.205C1234.54 129.286 1232.1 126.109 1229.11 126.109C1226.11 126.109 1223.68 129.286 1223.68 133.205C1223.68 137.124 1226.11 140.301 1229.11 140.301Z" fill="#3F3D56"/>
<path d="M1208.79 73.8433C1208.05 72.9009 1207.37 71.9081 1206.77 70.8722L1221.03 68.5339L1205.6 68.6484C1204.12 65.4326 1203.32 61.9491 1203.23 58.4109C1203.14 54.8727 1203.78 51.3543 1205.11 48.0708L1225.81 58.792L1206.72 44.7803C1208.5 41.6849 1210.9 38.9902 1213.78 36.8644C1216.65 34.7387 1219.94 33.2276 1223.42 32.4256C1226.91 31.6236 1230.52 31.5479 1234.04 32.2033C1237.55 32.8587 1240.9 34.2311 1243.86 36.2347C1246.82 38.2382 1249.34 40.83 1251.25 43.848C1253.16 46.8659 1254.43 50.2452 1254.98 53.7748C1255.52 57.3043 1255.33 60.9081 1254.42 64.3611C1253.51 67.8142 1251.89 71.0421 1249.67 73.8433C1250.83 75.3115 1251.82 76.8996 1252.63 78.5802L1234.11 88.1865L1253.86 81.5573C1255.25 85.6496 1255.59 90.0227 1254.86 94.2808C1254.13 98.5388 1252.34 102.547 1249.67 105.944C1252.69 109.774 1254.56 114.375 1255.09 119.22C1255.61 124.066 1254.75 128.96 1252.62 133.343C1250.49 137.727 1247.16 141.423 1243.03 144.008C1238.89 146.594 1234.1 147.965 1229.22 147.965C1224.34 147.965 1219.56 146.594 1215.42 144.008C1211.28 141.423 1207.96 137.727 1205.83 133.343C1203.69 128.96 1202.84 124.066 1203.36 119.22C1203.88 114.375 1205.76 109.774 1208.78 105.944C1205.17 101.366 1203.21 95.7111 1203.21 89.8875C1203.21 84.0639 1205.17 78.4093 1208.78 73.8313L1208.79 73.8433Z" fill="#6C63FF"/>
<path opacity="0.1" d="M1255.24 89.901C1255.24 95.7256 1253.28 101.383 1249.67 105.956C1252.69 109.786 1254.56 114.387 1255.09 119.232C1255.61 124.078 1254.75 128.972 1252.62 133.355C1250.49 137.739 1247.16 141.435 1243.03 144.02C1238.89 146.606 1234.1 147.977 1229.22 147.977C1224.34 147.977 1219.56 146.606 1215.42 144.02C1211.28 141.435 1207.96 137.739 1205.83 133.355C1203.69 128.972 1202.84 124.078 1203.36 119.232C1203.88 114.387 1205.76 109.786 1208.78 105.956C1205.29 101.538 1255.24 86.9841 1255.24 89.901Z" fill="black"/>
</g>
<path d="M1416 191.711C1416 193.781 1400.84 195.673 1375.78 197.134C1371.22 197.397 1366.34 197.647 1361.16 197.882C1356.68 198.083 1351.99 198.272 1347.09 198.451C1342.33 198.62 1337.4 198.777 1332.28 198.921C1316.12 199.382 1298.26 199.714 1279.28 199.88C1274.67 199.922 1270 199.954 1265.27 199.976C1260.35 199.998 1255.37 200.008 1250.33 200.006C1158.83 200.006 1084.66 196.297 1084.66 191.72C1084.66 187.142 1158.83 183.433 1250.33 183.433C1289.72 183.433 1325.9 184.123 1354.33 185.268L1357.44 185.395H1357.46C1393.27 186.91 1416 189.191 1416 191.711Z" fill="#3F3D56"/>
<path opacity="0.15" d="M1416 191.711C1416 193.781 1400.84 195.673 1375.78 197.134C1371.22 197.397 1366.34 197.647 1361.16 197.882C1356.68 198.083 1351.99 198.272 1347.09 198.451C1342.33 198.62 1337.4 198.777 1332.28 198.921C1316.12 199.382 1298.26 199.714 1279.28 199.88C1274.67 199.922 1270 199.954 1265.27 199.976C1260.35 199.998 1255.37 200.008 1250.33 200.006C1158.83 200.006 1084.66 196.297 1084.66 191.72C1084.66 187.142 1158.83 183.433 1250.33 183.433C1289.72 183.433 1325.9 184.123 1354.33 185.268L1357.44 185.395H1357.46C1393.27 186.91 1416 189.191 1416 191.711Z" fill="black"/>
<path d="M1402.34 190.252C1402.34 191.982 1387.18 193.567 1362.12 194.772C1357.57 194.992 1352.68 195.2 1347.5 195.396C1343.03 195.564 1338.34 195.723 1333.43 195.872C1328.68 196.012 1323.74 196.144 1318.63 196.267C1302.46 196.652 1284.6 196.929 1265.62 197.068C1261.02 197.102 1256.35 197.128 1251.62 197.146C1246.69 197.165 1241.71 197.174 1236.67 197.174C1145.17 197.174 1071 194.073 1071 190.243C1071 186.413 1145.17 183.312 1236.67 183.312C1276.06 183.312 1312.24 183.888 1340.67 184.846L1343.78 184.952H1343.8C1379.63 186.238 1402.34 188.134 1402.34 190.252Z" fill="#3F3D56"/>
<path d="M1113.79 127.296L1109.63 114.583L1209.24 113.495L1213.32 126.082L1113.79 127.296Z" fill="#3F3D56"/>
<path opacity="0.15" d="M1113.79 127.296L1109.63 114.583L1209.24 113.495L1213.32 126.082L1113.79 127.296Z" fill="black"/>
<path d="M1107.15 127.296L1102.99 114.583L1202.6 113.495L1206.68 126.082L1107.15 127.296Z" fill="#3F3D56"/>
<path d="M1277.19 107.761C1266.89 107.761 1258.77 103.68 1252.84 95.5179C1246.91 87.3559 1243.94 77.4684 1243.94 65.8552C1243.94 54.1637 1246.81 44.2962 1252.55 36.2528C1258.29 28.2094 1266.38 24.1917 1276.83 24.1997C1287.92 24.1997 1296.27 28.4374 1301.89 36.9127C1307.5 45.3881 1310.31 55.1973 1310.32 66.3403C1310.32 77.4031 1307.41 87.0737 1301.59 95.3521C1295.78 103.631 1287.64 107.767 1277.19 107.761ZM1277.49 98.5794C1284.27 98.5794 1289.33 95.6314 1292.68 89.7354C1296.03 83.8394 1297.71 76.4067 1297.71 67.4372C1297.71 57.4532 1296 49.2782 1292.56 42.9121C1289.13 36.5461 1283.87 33.3621 1276.78 33.3601C1263.3 33.3601 1256.56 44.0512 1256.56 65.4334C1256.56 87.5327 1263.53 98.5814 1277.48 98.5794H1277.49ZM1280.88 186.504H1265.99L1363.51 25.8359H1378.12L1280.88 186.504ZM1367.15 188.152C1356.7 188.152 1348.55 184.034 1342.71 175.798C1336.86 167.561 1333.93 157.673 1333.9 146.132C1333.9 134.519 1336.75 124.69 1342.45 116.647C1348.15 108.604 1356.26 104.586 1366.8 104.594C1377.8 104.594 1386.09 108.832 1391.67 117.307C1397.25 125.782 1400.04 135.59 1400.05 146.731C1400.05 157.722 1397.16 167.374 1391.38 175.689C1385.6 184.004 1377.53 188.158 1367.15 188.152H1367.15ZM1367.33 178.735C1374.07 178.735 1379.11 175.838 1382.44 170.042C1385.77 164.247 1387.43 156.844 1387.43 147.834C1387.43 138.192 1385.75 130.105 1382.38 123.574C1379.01 117.044 1373.76 113.773 1366.63 113.763C1353.07 113.763 1346.29 124.454 1346.29 145.837C1346.28 167.771 1353.29 178.737 1367.32 178.735H1367.33Z" fill="#3F3D56"/>
<path d="M1277.19 107.761C1266.89 107.761 1258.77 103.68 1252.84 95.5179C1246.91 87.3559 1243.94 77.4684 1243.94 65.8552C1243.94 54.1637 1246.81 44.2962 1252.55 36.2528C1258.29 28.2094 1266.38 24.1917 1276.83 24.1997C1287.92 24.1997 1296.27 28.4374 1301.89 36.9127C1307.5 45.3881 1310.31 55.1973 1310.32 66.3403C1310.32 77.4031 1307.41 87.0737 1301.59 95.3521C1295.78 103.631 1287.64 107.767 1277.19 107.761ZM1277.49 98.5794C1284.27 98.5794 1289.33 95.6314 1292.68 89.7354C1296.03 83.8394 1297.71 76.4067 1297.71 67.4372C1297.71 57.4532 1296 49.2782 1292.56 42.9121C1289.13 36.5461 1283.87 33.3621 1276.78 33.3601C1263.3 33.3601 1256.56 44.0512 1256.56 65.4334C1256.56 87.5327 1263.53 98.5814 1277.48 98.5794H1277.49ZM1280.88 186.504H1265.99L1363.51 25.8359H1378.12L1280.88 186.504ZM1367.15 188.152C1356.7 188.152 1348.55 184.034 1342.71 175.798C1336.86 167.561 1333.93 157.673 1333.9 146.132C1333.9 134.519 1336.75 124.69 1342.45 116.647C1348.15 108.604 1356.26 104.586 1366.8 104.594C1377.8 104.594 1386.09 108.832 1391.67 117.307C1397.25 125.782 1400.04 135.59 1400.05 146.731C1400.05 157.722 1397.16 167.374 1391.38 175.689C1385.6 184.004 1377.53 188.158 1367.15 188.152H1367.15ZM1367.33 178.735C1374.07 178.735 1379.11 175.838 1382.44 170.042C1385.77 164.247 1387.43 156.844 1387.43 147.834C1387.43 138.192 1385.75 130.105 1382.38 123.574C1379.01 117.044 1373.76 113.773 1366.63 113.763C1353.07 113.763 1346.29 124.454 1346.29 145.837C1346.28 167.771 1353.29 178.737 1367.32 178.735H1367.33Z" fill="#3F3D56"/>
<path opacity="0.15" d="M1277.19 107.761C1266.89 107.761 1258.77 103.68 1252.84 95.5179C1246.91 87.3559 1243.94 77.4684 1243.94 65.8552C1243.94 54.1637 1246.81 44.2962 1252.55 36.2528C1258.29 28.2094 1266.38 24.1917 1276.83 24.1997C1287.92 24.1997 1296.27 28.4374 1301.89 36.9127C1307.5 45.3881 1310.31 55.1973 1310.32 66.3403C1310.32 77.4031 1307.41 87.0737 1301.59 95.3521C1295.78 103.631 1287.64 107.767 1277.19 107.761ZM1277.49 98.5794C1284.27 98.5794 1289.33 95.6314 1292.68 89.7354C1296.03 83.8394 1297.71 76.4067 1297.71 67.4372C1297.71 57.4532 1296 49.2782 1292.56 42.9121C1289.13 36.5461 1283.87 33.3621 1276.78 33.3601C1263.3 33.3601 1256.56 44.0512 1256.56 65.4334C1256.56 87.5327 1263.53 98.5814 1277.48 98.5794H1277.49ZM1280.88 186.504H1265.99L1363.51 25.8359H1378.12L1280.88 186.504ZM1367.15 188.152C1356.7 188.152 1348.55 184.034 1342.71 175.798C1336.86 167.561 1333.93 157.673 1333.9 146.132C1333.9 134.519 1336.75 124.69 1342.45 116.647C1348.15 108.604 1356.26 104.586 1366.8 104.594C1377.8 104.594 1386.09 108.832 1391.67 117.307C1397.25 125.782 1400.04 135.59 1400.05 146.731C1400.05 157.722 1397.16 167.374 1391.38 175.689C1385.6 184.004 1377.53 188.158 1367.15 188.152H1367.15ZM1367.33 178.735C1374.07 178.735 1379.11 175.838 1382.44 170.042C1385.77 164.247 1387.43 156.844 1387.43 147.834C1387.43 138.192 1385.75 130.105 1382.38 123.574C1379.01 117.044 1373.76 113.773 1366.63 113.763C1353.07 113.763 1346.29 124.454 1346.29 145.837C1346.28 167.771 1353.29 178.737 1367.32 178.735H1367.33Z" fill="black"/>
<path d="M1267.83 107.761C1257.53 107.761 1249.42 103.68 1243.48 95.5179C1237.55 87.3559 1234.58 77.4684 1234.58 65.8552C1234.58 54.1637 1237.45 44.2962 1243.19 36.2528C1248.93 28.2094 1257.02 24.1917 1267.48 24.1997C1278.56 24.1997 1286.91 28.4374 1292.53 36.9127C1298.15 45.3881 1300.96 55.1973 1300.96 66.3403C1300.96 77.4031 1298.05 87.0737 1292.23 95.3521C1286.42 103.631 1278.29 107.767 1267.83 107.761ZM1268.13 98.5794C1274.91 98.5794 1279.97 95.6314 1283.32 89.7354C1286.68 83.8394 1288.35 76.4067 1288.35 67.4372C1288.35 57.4532 1286.64 49.2782 1283.21 42.9121C1279.78 36.5461 1274.51 33.3621 1267.42 33.3601C1253.94 33.3601 1247.2 44.0512 1247.2 65.4334C1247.2 87.5327 1254.17 98.5814 1268.13 98.5794H1268.13ZM1271.53 186.504H1256.63L1354.15 25.8359H1368.76L1271.53 186.504ZM1357.8 188.152C1347.34 188.152 1339.19 184.034 1333.35 175.798C1327.5 167.561 1324.57 157.673 1324.54 146.132C1324.54 134.519 1327.39 124.69 1333.09 116.647C1338.79 108.604 1346.91 104.586 1357.44 104.594C1368.44 104.594 1376.74 108.832 1382.32 117.307C1387.9 125.782 1390.69 135.59 1390.69 146.731C1390.69 157.722 1387.8 167.374 1382.02 175.689C1376.25 184.004 1368.17 188.158 1357.79 188.152H1357.8ZM1357.97 178.735C1364.72 178.735 1369.75 175.838 1373.08 170.042C1376.41 164.247 1378.08 156.844 1378.08 147.834C1378.08 138.192 1376.39 130.105 1373.02 123.574C1369.65 117.044 1364.4 113.773 1357.26 113.763C1343.7 113.763 1336.92 124.454 1336.92 145.837C1336.92 167.771 1343.94 178.737 1357.97 178.735H1357.97Z" fill="#3F3D56"/>
<path d="M1300.42 190.535C1301.66 188.233 1300.25 185.413 1298.62 183.358C1297 181.303 1295.02 179.169 1295.06 176.551C1295.12 172.793 1299.12 170.572 1302.31 168.578C1304.68 167.099 1306.86 165.345 1308.82 163.352C1309.64 162.585 1310.32 161.679 1310.82 160.677C1311.48 159.206 1311.46 157.534 1311.43 155.925C1311.29 150.557 1311.02 145.198 1310.63 139.846" stroke="#3F3D56" stroke-width="4" stroke-miterlimit="10"/>
<path d="M1316.7 139.551C1316.66 138.569 1316.36 137.614 1315.85 136.775C1315.34 135.935 1314.62 135.238 1313.77 134.748L1312.46 137.345L1312.49 134.199C1311.87 134.016 1311.21 133.938 1310.56 133.967C1309.4 134.022 1308.28 134.418 1307.35 135.107C1306.41 135.796 1305.7 136.746 1305.31 137.837C1304.91 138.928 1304.85 140.111 1305.13 141.236C1305.41 142.362 1306.02 143.38 1306.88 144.16C1307.74 144.941 1308.81 145.45 1309.96 145.623C1311.11 145.796 1312.28 145.625 1313.33 145.131C1314.38 144.638 1315.27 143.844 1315.87 142.851C1316.47 141.858 1316.76 140.709 1316.7 139.551Z" fill="#6C63FF"/>
<path d="M1306.23 179.248C1305.61 180.443 1304.6 181.391 1303.37 181.932C1302.14 182.472 1300.75 182.573 1299.46 182.218C1298.16 181.862 1297.02 181.072 1296.23 179.979C1295.45 178.886 1295.07 177.557 1295.15 176.215C1295.23 174.873 1295.77 173.599 1296.68 172.607C1297.59 171.616 1298.81 170.967 1300.14 170.769C1301.48 170.571 1302.83 170.836 1303.99 171.52C1305.15 172.204 1306.04 173.265 1306.51 174.526L1302.84 177.506L1306.89 176.566C1306.88 177.499 1306.66 178.419 1306.23 179.248Z" fill="#6C63FF"/>
<path d="M1303.33 167.854C1302.56 167.89 1301.79 167.775 1301.06 167.514C1300.34 167.252 1299.67 166.851 1299.1 166.333C1298.53 165.814 1298.06 165.189 1297.74 164.492C1297.41 163.795 1297.22 163.04 1297.18 162.271C1297.14 161.352 1297.31 160.436 1297.69 159.598C1298.04 158.815 1298.56 158.118 1299.21 157.556C1299.86 156.994 1300.63 156.581 1301.45 156.347L1301.42 158.757L1302.75 156.13C1304.31 156.057 1305.83 156.604 1306.98 157.652C1308.13 158.699 1308.82 160.16 1308.89 161.713C1308.97 163.267 1308.42 164.786 1307.37 165.936C1306.32 167.086 1304.86 167.773 1303.3 167.845L1303.33 167.854Z" fill="#6C63FF"/>
<path d="M1317.59 158.384C1316.81 158.435 1316.02 158.331 1315.28 158.078C1314.55 157.824 1313.86 157.426 1313.28 156.906C1312.7 156.386 1312.23 155.756 1311.89 155.052C1311.55 154.347 1311.36 153.583 1311.33 152.804C1311.29 152.025 1311.41 151.246 1311.68 150.513C1311.95 149.781 1312.36 149.109 1312.89 148.538C1313.42 147.966 1314.06 147.506 1314.77 147.184C1315.49 146.863 1316.26 146.686 1317.04 146.665C1318.13 146.612 1319.22 146.87 1320.18 147.409L1319.14 150.248L1321.28 148.202C1322.43 149.246 1323.11 150.701 1323.18 152.249C1323.21 152.791 1323.16 153.335 1323.03 153.864C1322.74 155.106 1322.05 156.22 1321.07 157.035C1320.09 157.851 1318.86 158.324 1317.59 158.384Z" fill="#6C63FF"/>
<path opacity="0.1" d="M1315.91 141.115C1314.56 141.262 1313.24 141.684 1311.88 141.769C1310.52 141.853 1309.02 141.528 1308.16 140.47C1307.7 139.903 1307.47 139.183 1307.08 138.562C1306.7 137.985 1306.2 137.507 1305.6 137.173C1305.22 137.917 1305.01 138.732 1304.97 139.564C1304.93 140.396 1305.07 141.227 1305.38 142C1305.69 142.774 1306.16 143.473 1306.77 144.05C1307.37 144.627 1308.09 145.07 1308.87 145.349C1309.66 145.627 1310.5 145.736 1311.33 145.666C1312.16 145.596 1312.97 145.351 1313.7 144.945C1314.42 144.54 1315.06 143.984 1315.56 143.314C1316.05 142.645 1316.4 141.878 1316.58 141.063C1316.35 141.076 1316.13 141.091 1315.91 141.115Z" fill="black"/>
<path opacity="0.1" d="M1317.59 158.384C1316.57 158.43 1315.57 158.214 1314.66 157.757C1313.76 157.3 1312.99 156.618 1312.43 155.776C1311.86 154.935 1311.53 153.962 1311.45 152.954C1311.38 151.945 1311.57 150.934 1312 150.019C1312.46 150.334 1312.86 150.735 1313.18 151.2C1313.6 151.83 1313.85 152.559 1314.34 153.138C1315.25 154.213 1316.82 154.563 1318.24 154.5C1319.65 154.436 1321.02 154.032 1322.44 153.897C1322.63 153.879 1322.83 153.867 1323.04 153.861C1322.75 155.105 1322.06 156.22 1321.07 157.036C1320.09 157.852 1318.86 158.325 1317.59 158.384Z" fill="black"/>
<path opacity="0.1" d="M1303.33 167.855C1302.56 167.891 1301.79 167.775 1301.06 167.514C1300.34 167.253 1299.67 166.851 1299.1 166.333C1298.53 165.814 1298.06 165.189 1297.74 164.492C1297.41 163.795 1297.22 163.04 1297.18 162.271C1297.14 161.352 1297.31 160.436 1297.69 159.598C1298.18 159.92 1298.6 160.329 1298.93 160.803C1299.39 161.445 1299.68 162.187 1300.21 162.78C1301.2 163.88 1302.87 164.269 1304.37 164.233C1305.87 164.196 1307.22 163.847 1308.67 163.735C1308.31 164.886 1307.6 165.899 1306.65 166.636C1305.69 167.373 1304.53 167.799 1303.33 167.855Z" fill="black"/>
<path opacity="0.1" d="M1306.23 179.247C1305.54 180.588 1304.37 181.616 1302.95 182.117C1301.53 182.618 1299.97 182.555 1298.59 181.94C1297.22 181.326 1296.13 180.207 1295.56 178.815C1294.99 177.423 1294.97 175.865 1295.52 174.462C1296 174.78 1296.44 175.167 1296.81 175.61C1297.37 176.291 1297.73 177.063 1298.38 177.696C1299.59 178.871 1301.52 179.356 1303.25 179.401C1304.24 179.409 1305.24 179.358 1306.23 179.247Z" fill="black"/>
<path d="M1391.27 190.234C1392.51 187.932 1391.1 185.111 1389.48 183.056C1387.85 181.001 1385.87 178.868 1385.92 176.249C1385.98 172.492 1389.97 170.271 1393.16 168.276C1395.53 166.798 1397.72 165.044 1399.67 163.051C1400.49 162.284 1401.17 161.378 1401.67 160.375C1402.34 158.905 1402.31 157.233 1402.28 155.624C1402.14 150.256 1401.87 144.896 1401.48 139.545" stroke="#3F3D56" stroke-width="4" stroke-miterlimit="10"/>
<path d="M1407.55 139.249C1407.51 138.267 1407.22 137.313 1406.7 136.473C1406.19 135.634 1405.48 134.937 1404.62 134.446L1403.31 137.044L1403.35 133.898C1402.72 133.715 1402.07 133.636 1401.41 133.666C1400.25 133.72 1399.13 134.117 1398.2 134.805C1397.26 135.494 1396.56 136.444 1396.16 137.535C1395.77 138.626 1395.71 139.809 1395.99 140.935C1396.27 142.06 1396.87 143.078 1397.73 143.859C1398.59 144.64 1399.66 145.149 1400.81 145.321C1401.96 145.494 1403.13 145.323 1404.19 144.83C1405.24 144.336 1406.12 143.543 1406.72 142.55C1407.32 141.556 1407.61 140.408 1407.55 139.249Z" fill="#6C63FF"/>
<path d="M1397.08 178.946C1396.46 180.142 1395.46 181.089 1394.22 181.63C1392.99 182.171 1391.61 182.272 1390.31 181.916C1389.01 181.561 1387.87 180.77 1387.09 179.677C1386.3 178.584 1385.92 177.255 1386 175.913C1386.08 174.571 1386.62 173.297 1387.53 172.306C1388.44 171.314 1389.66 170.665 1391 170.467C1392.33 170.269 1393.69 170.535 1394.85 171.219C1396.01 171.903 1396.9 172.964 1397.36 174.224L1393.69 177.204L1397.74 176.264C1397.74 177.198 1397.51 178.117 1397.08 178.946Z" fill="#6C63FF"/>
<path d="M1394.18 167.553C1393.41 167.589 1392.64 167.473 1391.91 167.212C1391.19 166.951 1390.52 166.55 1389.95 166.031C1389.38 165.513 1388.92 164.887 1388.59 164.19C1388.26 163.493 1388.07 162.739 1388.04 161.969C1387.99 161.051 1388.17 160.135 1388.54 159.297C1388.9 158.513 1389.41 157.816 1390.06 157.255C1390.71 156.693 1391.48 156.28 1392.31 156.045L1392.27 158.456L1393.6 155.828H1393.62C1394.39 155.792 1395.16 155.908 1395.88 156.169C1396.61 156.431 1397.28 156.832 1397.85 157.35C1398.42 157.869 1398.88 158.494 1399.21 159.191C1399.54 159.888 1399.72 160.643 1399.76 161.412C1399.8 162.181 1399.68 162.95 1399.42 163.675C1399.16 164.399 1398.76 165.065 1398.24 165.634C1397.72 166.204 1397.09 166.666 1396.39 166.993C1395.69 167.321 1394.94 167.508 1394.17 167.544L1394.18 167.553Z" fill="#6C63FF"/>
<path d="M1408.44 158.082C1407.66 158.134 1406.88 158.03 1406.14 157.776C1405.4 157.523 1404.72 157.124 1404.14 156.605C1403.55 156.085 1403.08 155.455 1402.74 154.75C1402.41 154.046 1402.22 153.282 1402.18 152.503C1402.14 151.724 1402.26 150.945 1402.53 150.212C1402.8 149.48 1403.21 148.808 1403.74 148.236C1404.28 147.665 1404.92 147.205 1405.63 146.883C1406.34 146.562 1407.11 146.385 1407.89 146.364C1408.99 146.31 1410.08 146.568 1411.03 147.108L1410 149.947L1412.13 147.901C1413.28 148.944 1413.97 150.4 1414.04 151.947C1414.06 152.49 1414.01 153.034 1413.89 153.563C1413.6 154.805 1412.91 155.918 1411.92 156.734C1410.94 157.55 1409.72 158.023 1408.44 158.082Z" fill="#6C63FF"/>
<path opacity="0.1" d="M1406.76 140.813C1405.41 140.961 1404.09 141.383 1402.73 141.467C1401.37 141.551 1399.88 141.226 1399.02 140.168C1398.55 139.602 1398.32 138.882 1397.93 138.261C1397.56 137.683 1397.05 137.206 1396.45 136.872C1396.07 137.615 1395.86 138.43 1395.82 139.262C1395.79 140.095 1395.93 140.925 1396.24 141.699C1396.55 142.472 1397.02 143.171 1397.62 143.749C1398.22 144.326 1398.94 144.769 1399.73 145.047C1400.51 145.326 1401.35 145.434 1402.18 145.364C1403.01 145.295 1403.82 145.049 1404.55 144.644C1405.28 144.238 1405.91 143.682 1406.41 143.013C1406.91 142.344 1407.25 141.576 1407.43 140.762C1407.21 140.774 1406.99 140.789 1406.76 140.813Z" fill="black"/>
<path opacity="0.1" d="M1408.44 158.082C1407.43 158.128 1406.42 157.913 1405.52 157.456C1404.61 156.999 1403.84 156.317 1403.28 155.475C1402.72 154.633 1402.38 153.661 1402.31 152.652C1402.23 151.644 1402.42 150.633 1402.85 149.718C1403.32 150.032 1403.72 150.433 1404.03 150.899C1404.45 151.529 1404.71 152.258 1405.2 152.836C1406.1 153.912 1407.68 154.262 1409.09 154.198C1410.51 154.135 1411.88 153.731 1413.29 153.596C1413.49 153.578 1413.69 153.565 1413.89 153.559C1413.6 154.803 1412.91 155.918 1411.93 156.735C1410.94 157.551 1409.72 158.024 1408.44 158.082Z" fill="black"/>
<path opacity="0.1" d="M1394.18 167.553C1393.41 167.589 1392.64 167.473 1391.91 167.212C1391.19 166.951 1390.52 166.55 1389.95 166.031C1389.38 165.513 1388.92 164.887 1388.59 164.19C1388.26 163.493 1388.07 162.739 1388.04 161.969C1387.99 161.051 1388.17 160.135 1388.54 159.297C1389.03 159.619 1389.45 160.027 1389.79 160.502C1390.24 161.144 1390.53 161.885 1391.06 162.479C1392.05 163.578 1393.72 163.967 1395.22 163.931C1396.67 163.901 1398.07 163.545 1399.52 163.434C1399.16 164.585 1398.46 165.598 1397.5 166.335C1396.55 167.072 1395.39 167.497 1394.18 167.553Z" fill="black"/>
<path opacity="0.1" d="M1397.08 178.946C1396.4 180.287 1395.22 181.315 1393.8 181.816C1392.38 182.317 1390.82 182.254 1389.45 181.639C1388.07 181.024 1386.98 179.905 1386.41 178.514C1385.84 177.122 1385.82 175.563 1386.37 174.161C1386.85 174.479 1387.29 174.866 1387.66 175.309C1388.22 175.99 1388.59 176.762 1389.23 177.394C1390.44 178.57 1392.37 179.055 1394.1 179.1C1395.09 179.108 1396.09 179.057 1397.08 178.946Z" fill="black"/>
<path d="M1104.18 186.317C1102.94 184.015 1104.35 181.194 1105.97 179.139C1107.6 177.084 1109.58 174.951 1109.54 172.332C1109.48 168.575 1105.48 166.354 1102.29 164.359C1099.92 162.881 1097.73 161.127 1095.78 159.134C1094.96 158.366 1094.28 157.461 1093.78 156.458C1093.12 154.988 1093.14 153.315 1093.17 151.706C1093.31 146.339 1093.58 140.979 1093.97 135.627" stroke="#3F3D56" stroke-width="4" stroke-miterlimit="10"/>
<path d="M1087.9 135.332C1087.94 134.35 1088.23 133.396 1088.75 132.556C1089.26 131.717 1089.97 131.02 1090.83 130.529L1092.14 133.126L1092.1 129.981C1092.73 129.797 1093.39 129.719 1094.04 129.748C1095.2 129.803 1096.32 130.199 1097.25 130.888C1098.19 131.577 1098.9 132.527 1099.29 133.618C1099.68 134.709 1099.75 135.892 1099.47 137.018C1099.19 138.143 1098.58 139.161 1097.72 139.942C1096.86 140.722 1095.79 141.231 1094.64 141.404C1093.49 141.577 1092.32 141.406 1091.27 140.913C1090.21 140.419 1089.33 139.626 1088.73 138.632C1088.13 137.639 1087.84 136.491 1087.9 135.332Z" fill="#6C63FF"/>
<path d="M1098.37 175.029C1098.99 176.224 1100 177.172 1101.23 177.713C1102.46 178.254 1103.84 178.355 1105.14 177.999C1106.44 177.644 1107.58 176.853 1108.36 175.76C1109.15 174.667 1109.53 173.338 1109.45 171.996C1109.37 170.654 1108.83 169.38 1107.92 168.389C1107.01 167.397 1105.79 166.748 1104.46 166.55C1103.12 166.352 1101.76 166.617 1100.6 167.301C1099.44 167.985 1098.56 169.047 1098.09 170.307L1101.76 173.287L1097.71 172.347C1097.71 173.281 1097.94 174.2 1098.37 175.029Z" fill="#6C63FF"/>
<path d="M1101.27 163.636C1102.04 163.672 1102.81 163.556 1103.54 163.295C1104.26 163.034 1104.93 162.633 1105.5 162.114C1106.07 161.596 1106.53 160.97 1106.86 160.273C1107.19 159.576 1107.38 158.822 1107.41 158.052C1107.46 157.134 1107.29 156.218 1106.91 155.379C1106.56 154.596 1106.04 153.899 1105.39 153.337C1104.74 152.776 1103.97 152.363 1103.15 152.128L1103.18 154.539L1101.85 151.911C1100.29 151.838 1098.77 152.386 1097.62 153.433C1096.47 154.48 1095.78 155.941 1095.71 157.495C1095.63 159.048 1096.18 160.567 1097.23 161.717C1098.28 162.867 1099.74 163.554 1101.3 163.627L1101.27 163.636Z" fill="#6C63FF"/>
<path d="M1087.01 154.165C1087.79 154.217 1088.57 154.113 1089.31 153.859C1090.05 153.605 1090.73 153.207 1091.32 152.687C1091.9 152.168 1092.37 151.537 1092.71 150.833C1093.04 150.129 1093.24 149.365 1093.27 148.585C1093.31 147.806 1093.19 147.027 1092.92 146.295C1092.65 145.562 1092.24 144.89 1091.71 144.319C1091.18 143.747 1090.54 143.287 1089.82 142.966C1089.11 142.644 1088.34 142.468 1087.56 142.446C1086.47 142.396 1085.38 142.654 1084.43 143.191L1085.47 146.029L1083.32 143.992C1082.17 145.034 1081.49 146.486 1081.41 148.03C1081.39 148.573 1081.44 149.117 1081.56 149.645C1081.86 150.888 1082.55 152.001 1083.53 152.817C1084.51 153.632 1085.74 154.106 1087.01 154.165Z" fill="#6C63FF"/>
<path opacity="0.1" d="M1088.69 136.896C1090.04 137.044 1091.36 137.465 1092.72 137.55C1094.08 137.634 1095.58 137.309 1096.44 136.251C1096.9 135.685 1097.13 134.964 1097.52 134.344C1097.89 133.766 1098.4 133.289 1099 132.955C1099.38 133.698 1099.59 134.513 1099.63 135.345C1099.67 136.177 1099.52 137.008 1099.21 137.782C1098.9 138.555 1098.43 139.254 1097.83 139.831C1097.23 140.409 1096.51 140.851 1095.73 141.13C1094.94 141.409 1094.1 141.517 1093.27 141.447C1092.44 141.378 1091.63 141.132 1090.9 140.726C1090.17 140.321 1089.54 139.765 1089.04 139.096C1088.55 138.426 1088.2 137.659 1088.02 136.845C1088.24 136.857 1088.46 136.872 1088.69 136.896Z" fill="black"/>
<path opacity="0.1" d="M1087.01 154.165C1088.02 154.211 1089.03 153.995 1089.94 153.539C1090.84 153.082 1091.61 152.399 1092.17 151.558C1092.73 150.716 1093.07 149.744 1093.14 148.735C1093.22 147.726 1093.03 146.715 1092.6 145.8C1092.13 146.115 1091.73 146.516 1091.42 146.981C1091 147.611 1090.75 148.34 1090.25 148.919C1089.35 149.995 1087.78 150.344 1086.36 150.281C1084.95 150.218 1083.57 149.814 1082.16 149.678C1081.97 149.66 1081.77 149.648 1081.56 149.642C1081.85 150.886 1082.54 152.001 1083.53 152.817C1084.51 153.634 1085.73 154.107 1087.01 154.165Z" fill="black"/>
<path opacity="0.1" d="M1101.27 163.636C1102.04 163.672 1102.81 163.556 1103.54 163.295C1104.26 163.034 1104.93 162.633 1105.5 162.114C1106.07 161.596 1106.53 160.97 1106.86 160.273C1107.19 159.576 1107.38 158.821 1107.41 158.052C1107.46 157.134 1107.29 156.218 1106.91 155.379C1106.42 155.702 1106 156.11 1105.67 156.585C1105.21 157.227 1104.92 157.968 1104.39 158.561C1103.4 159.661 1101.73 160.05 1100.23 160.014C1098.78 159.984 1097.38 159.628 1095.93 159.517C1096.29 160.668 1096.99 161.681 1097.95 162.418C1098.91 163.155 1100.07 163.58 1101.27 163.636Z" fill="black"/>
<path opacity="0.1" d="M1098.37 175.029C1099.05 176.37 1100.23 177.397 1101.65 177.899C1103.07 178.4 1104.63 178.337 1106 177.722C1107.38 177.107 1108.47 175.988 1109.04 174.596C1109.61 173.204 1109.63 171.646 1109.08 170.244C1108.6 170.562 1108.16 170.948 1107.79 171.392C1107.23 172.073 1106.86 172.844 1106.22 173.477C1105.01 174.652 1103.08 175.137 1101.35 175.183C1100.36 175.191 1099.36 175.139 1098.37 175.029Z" fill="black"/>
<path d="M1274.29 158.079C1274.29 157.349 1274.13 156.627 1273.8 155.972C1273.48 155.317 1273.01 154.747 1272.42 154.307C1272.35 151.544 1270.38 149.287 1267.84 148.937C1267.64 147.998 1267.2 147.128 1266.56 146.413C1265.92 145.697 1265.1 145.163 1264.19 144.863C1263.97 144.793 1263.74 144.74 1263.51 144.704H1263.45L1263.33 144.688H1263.23H1263.13H1263H1262.92H1262.71C1260.12 144.688 1257.96 146.665 1257.52 149.272C1255.84 148.886 1254.31 149.386 1254.03 150.444C1253.96 150.724 1253.98 151.019 1254.08 151.291C1254.36 152.11 1255.28 152.894 1256.54 153.282L1256.7 153.331C1256.78 153.355 1256.86 153.373 1256.94 153.391H1257C1256.54 154.371 1256.47 155.49 1256.82 156.517C1257.16 157.544 1257.88 158.4 1258.84 158.908C1258.8 158.929 1258.77 158.952 1258.73 158.977C1258.58 159.119 1258.46 159.292 1258.37 159.484C1258.07 160.014 1257.83 160.58 1257.67 161.168C1257.55 161.671 1257.53 162.199 1257.37 162.696C1257.1 163.6 1256.39 164.392 1256.31 165.354C1256.27 165.781 1256.34 166.285 1256.04 166.577C1255.96 166.642 1255.88 166.702 1255.79 166.755C1255.58 166.901 1255.4 167.09 1255.26 167.309C1255.17 167.491 1255.05 167.656 1254.91 167.797C1254.64 168.005 1254.18 167.984 1254.05 168.304C1253.91 168.623 1254.26 169 1254.18 169.349C1254.11 169.632 1253.8 169.762 1253.58 169.952C1253.32 170.226 1253.15 170.561 1253.06 170.925C1252.61 171.012 1252.15 170.998 1251.7 170.885C1251.26 170.772 1250.84 170.563 1250.49 170.271C1250.61 170.582 1250.7 170.904 1250.75 171.232C1250.39 170.85 1249.8 170.738 1249.36 170.539C1248.8 170.281 1248.3 169.907 1247.89 169.443L1248.68 169.334L1245.18 164.031L1244.14 163.82L1245.07 165.595C1244.99 165.631 1244.93 165.684 1244.88 165.75C1244.82 165.816 1244.79 165.892 1244.77 165.974C1244.72 166.171 1244.71 166.376 1244.73 166.577C1244.78 167.053 1244.86 167.525 1244.97 167.99L1245.24 169.238C1245.26 169.355 1245.29 169.47 1245.33 169.584C1244.98 169.572 1244.63 169.611 1244.29 169.702C1243.59 169.445 1242.87 169.274 1242.14 169.192C1241.97 169.164 1241.81 169.172 1241.65 169.217C1241.47 169.299 1241.31 169.426 1241.2 169.584C1240.59 170.281 1240.06 171.034 1239.6 171.832C1237.72 175.098 1235.21 177.949 1232.85 180.902C1231.23 181.562 1229.59 182.189 1227.96 182.809L1224.43 184.15C1223.73 184.418 1223 184.693 1222.25 184.644C1221.91 184.623 1221.5 184.572 1221.31 184.858C1221.22 185 1221.15 185.155 1221.1 185.316C1220.97 185.316 1220.85 185.347 1220.74 185.353H1220.71C1220.49 184.798 1220.3 184.205 1219.87 183.801C1219.78 183.814 1219.7 183.848 1219.63 183.901C1219.56 183.954 1219.51 184.023 1219.47 184.102C1219.39 184.259 1219.34 184.431 1219.24 184.575C1219.05 184.852 1218.72 184.988 1218.48 185.223C1218.25 185.458 1218.1 185.826 1217.85 186.055C1217.49 186.312 1217.08 186.473 1216.64 186.522C1215.99 186.675 1215.36 186.914 1214.77 187.233C1214.55 187.367 1214.31 187.474 1214.07 187.552C1213.8 187.604 1213.53 187.613 1213.26 187.579L1211.39 187.444C1211.23 187.422 1211.06 187.429 1210.9 187.465C1210.7 187.535 1210.54 187.667 1210.43 187.84C1210.32 188.013 1210.27 188.217 1210.29 188.42C1210.31 188.622 1210.38 188.817 1210.48 188.993C1210.58 189.169 1210.72 189.323 1210.88 189.445C1211.2 189.682 1211.56 189.868 1211.94 189.996C1213.56 190.623 1215.24 191.112 1216.94 191.458V191.834C1218.12 192.428 1219.42 192.737 1220.74 192.738C1220.84 192.746 1220.94 192.728 1221.03 192.687C1221.15 192.595 1221.24 192.463 1221.27 192.313C1221.66 191.132 1221.91 189.906 1222.01 188.664C1222.25 188.649 1222.47 188.591 1222.69 188.492C1223.33 188.318 1223.97 188.758 1224.63 188.83C1225.44 188.917 1226.2 188.444 1226.97 188.152C1227.08 188.11 1227.19 188.074 1227.3 188.037C1227.08 188.321 1226.82 188.572 1226.53 188.782C1226.21 189.011 1225.85 189.179 1225.54 189.418C1225.28 189.655 1225 189.872 1224.7 190.065C1224.5 190.162 1224.28 190.245 1224.06 190.312C1223.74 190.428 1223.44 190.581 1223.16 190.767C1222.9 190.917 1222.69 191.123 1222.53 191.37C1222.45 191.485 1222.4 191.619 1222.39 191.759C1222.37 191.899 1222.39 192.04 1222.45 192.168C1222.51 192.297 1222.59 192.409 1222.71 192.494C1222.82 192.579 1222.95 192.634 1223.09 192.654C1223.34 192.698 1223.6 192.706 1223.85 192.675C1224.86 192.6 1225.87 192.506 1226.87 192.416C1227.3 192.387 1227.72 192.327 1228.14 192.235C1228.36 192.181 1228.57 192.108 1228.79 192.051C1229.17 191.952 1229.56 191.895 1229.94 191.879C1230.06 191.87 1230.17 191.882 1230.28 191.913C1230.52 191.988 1230.68 192.214 1230.92 192.274C1231.07 192.289 1231.23 192.267 1231.38 192.211C1232.11 192.051 1232.86 191.971 1233.62 191.973C1233.94 191.955 1234.33 191.891 1234.48 191.587C1234.67 191.21 1234.36 190.789 1234.23 190.382C1234.17 190.123 1234.14 189.858 1234.13 189.592C1234.07 188.936 1233.88 188.297 1233.58 187.715C1233.41 187.443 1233.27 187.157 1233.16 186.859C1234.6 186.312 1235.98 185.613 1237.28 184.774C1238.02 184.313 1238.79 183.816 1239.63 183.647C1240.61 183.451 1241.61 183.71 1242.58 183.988C1244.87 184.65 1247.13 185.436 1249.33 186.341C1250.39 186.772 1251.45 187.23 1252.53 187.546C1252.84 187.972 1253.23 188.344 1253.66 188.649C1254.38 189.116 1255.27 189.252 1256.12 189.318C1257.27 189.423 1258.42 189.466 1259.58 189.448C1260.46 189.433 1261.37 189.372 1262.16 188.972C1262.35 188.873 1262.53 188.754 1262.7 188.616C1263.3 188.724 1263.92 188.402 1264.39 187.989C1265.02 187.457 1265.47 186.748 1265.69 185.955C1265.97 184.867 1265.75 183.599 1266.42 182.71C1266.6 182.472 1266.84 182.279 1267.01 182.038C1267.23 181.715 1267.33 181.332 1267.31 180.944L1267.34 180.899C1267.49 180.549 1267.6 180.18 1267.64 179.802C1267.72 179.507 1267.82 179.218 1267.95 178.937C1268.29 178.097 1268.58 177.239 1268.83 176.367C1269.01 175.789 1269.15 175.2 1269.24 174.604C1269.32 174.128 1269.36 173.649 1269.4 173.17C1269.45 172.42 1269.59 171.68 1269.83 170.967C1270.43 169.267 1270.77 167.488 1270.83 165.688C1270.83 165.652 1270.83 165.619 1270.83 165.583C1271.71 165.487 1272.52 165.068 1273.1 164.408C1273.68 163.748 1274 162.895 1273.99 162.015C1273.99 161.484 1273.88 160.96 1273.66 160.475C1274.08 159.745 1274.29 158.919 1274.29 158.079ZM1257.22 178.784C1257.27 178.967 1257.33 179.151 1257.39 179.335C1257.11 179.061 1256.84 178.778 1256.56 178.506C1256.67 178.54 1256.78 178.576 1256.89 178.615C1257.01 178.661 1257.12 178.717 1257.22 178.784H1257.22ZM1255.87 177.88C1254.22 176.451 1252.31 175.343 1250.62 173.962C1251.53 174.417 1252.43 174.945 1253.34 175.451C1254.39 176.054 1255.46 176.63 1256.54 177.181C1256.36 177.449 1256.14 177.682 1255.88 177.868L1255.87 177.88ZM1256.57 174.282L1256.65 174.2C1256.65 174.402 1256.65 174.592 1256.65 174.764C1256.5 174.716 1256.35 174.668 1256.2 174.613C1256.33 174.507 1256.46 174.392 1256.57 174.27L1256.57 174.282ZM1242.06 178.151C1242.74 177.385 1243.33 176.545 1243.82 175.647C1244.47 176.789 1245.53 177.612 1246.44 178.567C1244.99 178.362 1243.53 178.202 1242.06 178.139L1242.06 178.151Z" fill="url(#paint0_linear_218_279)"/>
<path d="M1244.42 164.26L1245.46 164.47L1249 169.701L1247.44 169.912L1244.42 164.26Z" fill="#2F2E41"/>
<path d="M1219.2 185.491C1219.48 186.418 1219.82 187.324 1220.23 188.203C1221.41 187.958 1222.56 187.628 1223.69 187.218C1223.47 186.878 1223.23 186.553 1222.97 186.244C1222.69 185.937 1222.36 185.682 1221.99 185.494C1221.64 185.337 1221.19 185.455 1220.81 185.476C1220.27 185.496 1219.73 185.501 1219.2 185.491Z" fill="#FBBEBE"/>
<path d="M1222 186.889C1221.41 186.705 1221.06 186.115 1220.82 185.545C1220.58 184.976 1220.39 184.355 1219.93 183.936C1219.85 183.95 1219.77 183.984 1219.7 184.037C1219.63 184.089 1219.57 184.158 1219.53 184.238C1219.45 184.388 1219.4 184.56 1219.3 184.705C1219.11 184.976 1218.78 185.108 1218.54 185.34C1218.3 185.572 1218.15 185.925 1217.9 186.157C1217.54 186.413 1217.12 186.572 1216.69 186.621C1216.03 186.77 1215.39 187.005 1214.8 187.32C1214.58 187.448 1214.34 187.549 1214.1 187.622C1213.83 187.673 1213.55 187.682 1213.28 187.649L1211.4 187.513C1211.23 187.492 1211.06 187.5 1210.9 187.537C1210.71 187.604 1210.54 187.733 1210.43 187.903C1210.32 188.073 1210.28 188.276 1210.3 188.477C1210.32 188.678 1210.39 188.872 1210.49 189.045C1210.59 189.219 1210.73 189.369 1210.9 189.487C1211.23 189.72 1211.59 189.903 1211.97 190.029C1213.61 190.644 1215.29 191.125 1217.01 191.466V191.837C1218.2 192.427 1219.51 192.736 1220.84 192.741C1220.95 192.75 1221.05 192.733 1221.15 192.69C1221.27 192.6 1221.35 192.47 1221.39 192.322C1221.84 191.006 1222.1 189.632 1222.17 188.242C1222.2 187.891 1222.18 187.536 1222.09 187.194C1221.99 186.856 1222.34 186.998 1222.01 186.865" fill="#2F2E41"/>
<path d="M1258.05 179.814C1252.48 180.151 1246.97 178.518 1241.39 178.343C1240.69 178.301 1240 178.346 1239.32 178.476C1238.61 178.666 1237.92 178.933 1237.26 179.272C1234.27 180.661 1231.18 181.812 1228.08 182.963L1224.53 184.283C1223.82 184.545 1223.09 184.813 1222.33 184.768C1221.99 184.747 1221.58 184.695 1221.38 184.979C1220.81 185.831 1221.08 187.088 1221.46 188.046C1221.59 188.348 1221.79 188.694 1222.13 188.73C1222.36 188.714 1222.59 188.656 1222.81 188.558C1223.45 188.387 1224.1 188.821 1224.76 188.89C1225.59 188.977 1226.35 188.51 1227.12 188.224C1228.41 187.751 1229.82 187.766 1231.17 187.54C1233.44 187.163 1235.54 186.112 1237.51 184.912C1238.26 184.457 1239.02 183.969 1239.87 183.804C1240.86 183.611 1241.88 183.864 1242.85 184.138C1245.16 184.791 1247.43 185.564 1249.66 186.455C1250.82 186.958 1252.01 187.391 1253.22 187.751C1255.86 188.445 1258.66 188.283 1261.2 187.287C1262.11 186.934 1263.06 186.314 1263.11 185.352C1263.14 184.804 1262.72 184.322 1262.43 183.846C1262.25 183.544 1262.07 183.243 1261.87 182.957C1260.91 181.559 1259.74 179.712 1258.05 179.814Z" fill="#2F2E41"/>
<path opacity="0.1" d="M1258.05 179.814C1252.48 180.151 1246.97 178.518 1241.39 178.343C1240.69 178.301 1240 178.346 1239.32 178.476C1238.61 178.666 1237.92 178.933 1237.26 179.272C1234.27 180.661 1231.18 181.812 1228.08 182.963L1224.53 184.283C1223.82 184.545 1223.09 184.813 1222.33 184.768C1221.99 184.747 1221.58 184.695 1221.38 184.979C1220.81 185.831 1221.08 187.088 1221.46 188.046C1221.59 188.348 1221.79 188.694 1222.13 188.73C1222.36 188.714 1222.59 188.656 1222.81 188.558C1223.45 188.387 1224.1 188.821 1224.76 188.89C1225.59 188.977 1226.35 188.51 1227.12 188.224C1228.41 187.751 1229.82 187.766 1231.17 187.54C1233.44 187.163 1235.54 186.112 1237.51 184.912C1238.26 184.457 1239.02 183.969 1239.87 183.804C1240.86 183.611 1241.88 183.864 1242.85 184.138C1245.16 184.791 1247.43 185.564 1249.66 186.455C1250.82 186.958 1252.01 187.391 1253.22 187.751C1255.86 188.445 1258.66 188.283 1261.2 187.287C1262.11 186.934 1263.06 186.314 1263.11 185.352C1263.14 184.804 1262.72 184.322 1262.43 183.846C1262.25 183.544 1262.07 183.243 1261.87 182.957C1260.91 181.559 1259.74 179.712 1258.05 179.814Z" fill="black"/>
<path d="M1229.9 185.762C1230.77 186.058 1231.65 186.331 1232.53 186.582C1233.03 185.765 1233.96 185.199 1234.17 184.268C1234.19 184.227 1234.19 184.184 1234.17 184.144C1234.15 184.104 1234.12 184.073 1234.07 184.054C1233.44 183.703 1232.73 183.497 1232.01 183.451C1231.43 183.415 1231.17 184.012 1230.91 184.43C1230.82 184.599 1230.13 185.841 1229.9 185.762Z" fill="#FBBEBE"/>
<path d="M1231.12 185.166C1230.86 185.122 1230.61 185.025 1230.39 184.88C1230.17 184.736 1229.98 184.546 1229.84 184.325C1229.72 184.111 1229.59 183.822 1229.34 183.837C1229.09 183.852 1229.01 184.123 1228.96 184.349C1228.79 185.193 1228.55 186.021 1228.24 186.823C1227.92 187.627 1227.39 188.327 1226.69 188.845C1226.37 189.068 1226.01 189.237 1225.69 189.472C1225.43 189.707 1225.15 189.92 1224.85 190.11C1224.64 190.206 1224.42 190.287 1224.2 190.351C1223.87 190.465 1223.56 190.616 1223.27 190.8C1223.02 190.949 1222.8 191.156 1222.64 191.403C1222.57 191.529 1222.52 191.671 1222.51 191.818C1222.5 191.965 1222.53 192.112 1222.59 192.247C1222.65 192.356 1222.74 192.45 1222.84 192.523C1222.95 192.597 1223.07 192.647 1223.19 192.672C1223.45 192.714 1223.71 192.72 1223.96 192.69C1224.98 192.614 1225.99 192.524 1227.01 192.434C1227.44 192.407 1227.86 192.349 1228.28 192.259C1228.51 192.205 1228.72 192.132 1228.95 192.075C1229.33 191.978 1229.71 191.922 1230.11 191.906C1230.22 191.898 1230.34 191.909 1230.45 191.939C1230.68 192.015 1230.85 192.241 1231.09 192.295C1231.24 192.311 1231.4 192.291 1231.55 192.235C1232.29 192.078 1233.05 191.999 1233.8 192C1234.14 191.982 1234.53 191.918 1234.68 191.62C1234.87 191.249 1234.56 190.834 1234.43 190.436C1234.37 190.181 1234.33 189.921 1234.32 189.658C1234.27 189.011 1234.08 188.382 1233.77 187.811C1233.51 187.335 1233.16 186.811 1233.33 186.305C1233.43 186.147 1233.48 185.971 1233.51 185.789C1233.46 184.973 1231.58 185.274 1231.12 185.166Z" fill="#2F2E41"/>
<path d="M1249.69 170.889C1248.71 170.454 1247.91 169.669 1247.47 168.686C1247.38 168.475 1247.3 168.255 1247.22 168.041C1246.92 167.334 1246.47 166.705 1245.89 166.203C1245.83 166.135 1245.75 166.081 1245.66 166.045C1245.58 166.009 1245.49 165.992 1245.4 165.995C1245.31 166.022 1245.23 166.071 1245.16 166.139C1245.1 166.207 1245.05 166.29 1245.03 166.381C1244.98 166.577 1244.97 166.782 1244.99 166.984C1245.05 167.451 1245.13 167.915 1245.24 168.373L1245.51 169.602C1245.54 169.791 1245.6 169.975 1245.68 170.151C1245.79 170.357 1245.95 170.54 1246.13 170.69C1246.38 170.919 1246.63 171.139 1246.88 171.353C1247.02 171.479 1247.17 171.59 1247.34 171.684C1247.6 171.811 1247.89 171.894 1248.18 171.931C1249.29 172.136 1250.42 172.432 1251.35 173.137C1251.35 173.137 1251.35 172.314 1251.33 172.233C1251.32 171.994 1251.24 171.765 1251.09 171.573C1250.74 171.196 1250.14 171.085 1249.69 170.889Z" fill="#FBBEBE"/>
<path opacity="0.1" d="M1249.69 170.889C1248.71 170.454 1247.91 169.669 1247.47 168.686C1247.38 168.475 1247.3 168.255 1247.22 168.041C1246.92 167.334 1246.47 166.705 1245.89 166.203C1245.83 166.135 1245.75 166.081 1245.66 166.045C1245.58 166.009 1245.49 165.992 1245.4 165.995C1245.31 166.022 1245.23 166.071 1245.16 166.139C1245.1 166.207 1245.05 166.29 1245.03 166.381C1244.98 166.577 1244.97 166.782 1244.99 166.984C1245.05 167.451 1245.13 167.915 1245.24 168.373L1245.51 169.602C1245.54 169.791 1245.6 169.975 1245.68 170.151C1245.79 170.357 1245.95 170.54 1246.13 170.69C1246.38 170.919 1246.63 171.139 1246.88 171.353C1247.02 171.479 1247.17 171.59 1247.34 171.684C1247.6 171.811 1247.89 171.894 1248.18 171.931C1249.29 172.136 1250.42 172.432 1251.35 173.137C1251.35 173.137 1251.35 172.314 1251.33 172.233C1251.32 171.994 1251.24 171.765 1251.09 171.573C1250.74 171.196 1250.14 171.085 1249.69 170.889Z" fill="black"/>
<path d="M1261.04 161.487C1261.79 161.487 1262.4 160.878 1262.4 160.125C1262.4 159.373 1261.79 158.763 1261.04 158.763C1260.29 158.763 1259.69 159.373 1259.69 160.125C1259.69 160.878 1260.29 161.487 1261.04 161.487Z" fill="#2F2E41"/>
<path d="M1260.2 159.303C1259.84 159.22 1259.46 159.275 1259.13 159.457C1258.98 159.595 1258.85 159.766 1258.77 159.957C1258.46 160.477 1258.22 161.034 1258.06 161.614C1257.94 162.111 1257.92 162.629 1257.76 163.121C1257.48 164.025 1256.77 164.793 1256.69 165.736C1256.65 166.158 1256.72 166.655 1256.41 166.941C1256.34 167.005 1256.25 167.063 1256.17 167.113C1255.95 167.257 1255.77 167.444 1255.63 167.662C1255.54 167.857 1255.41 168.034 1255.26 168.183C1254.98 168.388 1254.52 168.367 1254.39 168.683C1254.25 169 1254.6 169.367 1254.52 169.711C1254.45 169.991 1254.14 170.12 1253.92 170.313C1253.66 170.582 1253.48 170.914 1253.4 171.275C1252.95 171.36 1252.48 171.346 1252.03 171.234C1251.59 171.122 1251.17 170.915 1250.81 170.627C1251.18 171.558 1251.19 172.585 1251.21 173.589C1251.25 173.91 1251.17 174.235 1250.97 174.493C1252.05 174.517 1253.1 174.794 1254.15 175.044C1254.61 175.195 1255.09 175.195 1255.54 175.044C1255.78 174.915 1256 174.743 1256.18 174.538C1256.75 173.956 1257.35 173.333 1257.49 172.522C1257.53 172.066 1257.54 171.608 1257.52 171.151C1257.57 170.587 1257.69 170.03 1257.86 169.491C1258.17 168.371 1258.37 167.226 1258.47 166.071C1258.53 165.356 1259.15 164.784 1259.47 164.145C1260.08 162.94 1260.71 161.689 1260.76 160.339C1260.8 159.899 1260.65 159.36 1260.2 159.303Z" fill="#2F2E41"/>
<path opacity="0.1" d="M1260.2 159.303C1259.84 159.22 1259.46 159.275 1259.13 159.457C1258.98 159.595 1258.85 159.766 1258.77 159.957C1258.46 160.477 1258.22 161.034 1258.06 161.614C1257.94 162.111 1257.92 162.629 1257.76 163.121C1257.48 164.025 1256.77 164.793 1256.69 165.736C1256.65 166.158 1256.72 166.655 1256.41 166.941C1256.34 167.005 1256.25 167.063 1256.17 167.113C1255.95 167.257 1255.77 167.444 1255.63 167.662C1255.54 167.857 1255.41 168.034 1255.26 168.183C1254.98 168.388 1254.52 168.367 1254.39 168.683C1254.25 169 1254.6 169.367 1254.52 169.711C1254.45 169.991 1254.14 170.12 1253.92 170.313C1253.66 170.582 1253.48 170.914 1253.4 171.275C1252.95 171.36 1252.48 171.346 1252.03 171.234C1251.59 171.122 1251.17 170.915 1250.81 170.627C1251.18 171.558 1251.19 172.585 1251.21 173.589C1251.25 173.91 1251.17 174.235 1250.97 174.493C1252.05 174.517 1253.1 174.794 1254.15 175.044C1254.61 175.195 1255.09 175.195 1255.54 175.044C1255.78 174.915 1256 174.743 1256.18 174.538C1256.75 173.956 1257.35 173.333 1257.49 172.522C1257.53 172.066 1257.54 171.608 1257.52 171.151C1257.57 170.587 1257.69 170.03 1257.86 169.491C1258.17 168.371 1258.37 167.226 1258.47 166.071C1258.53 165.356 1259.15 164.784 1259.47 164.145C1260.08 162.94 1260.71 161.689 1260.76 160.339C1260.8 159.899 1260.65 159.36 1260.2 159.303Z" fill="black"/>
<path d="M1258.94 180.986C1257.77 180.435 1256.93 179.407 1255.99 178.527C1254.19 176.846 1252 175.659 1250.12 174.083C1248.87 173.04 1247.76 171.826 1246.38 170.952C1245.17 170.183 1243.8 169.703 1242.38 169.551C1242.22 169.523 1242.05 169.531 1241.89 169.575C1241.71 169.655 1241.55 169.78 1241.44 169.937C1240.83 170.621 1240.29 171.363 1239.82 172.151C1237.43 176.195 1234.04 179.597 1231.23 183.361C1231.14 183.449 1231.09 183.569 1231.08 183.695C1231.08 183.821 1231.12 183.945 1231.2 184.042L1231.77 185.16C1232.09 185.783 1232.6 186.513 1233.28 186.389C1233.59 186.3 1233.87 186.123 1234.08 185.88L1236.65 183.43L1239.33 180.863C1240.91 179.356 1242.51 177.819 1243.54 175.897C1244.35 177.286 1245.77 178.196 1246.75 179.471C1247.12 179.953 1247.42 180.486 1247.75 180.998C1248.29 181.821 1248.89 182.592 1249.49 183.361L1252.58 187.293C1252.97 187.853 1253.45 188.342 1254.01 188.739C1254.74 189.201 1255.63 189.324 1256.49 189.399C1257.65 189.505 1258.81 189.547 1259.98 189.526C1260.86 189.511 1261.79 189.454 1262.57 189.059C1263.36 188.664 1264.02 187.854 1263.98 186.971C1263.93 186.508 1263.78 186.062 1263.54 185.666C1262.45 183.647 1261.01 181.96 1258.94 180.986Z" fill="#2F2E41"/>
<path d="M1261.88 162.114C1262.45 162.114 1262.92 161.646 1262.92 161.069C1262.92 160.491 1262.45 160.023 1261.88 160.023C1261.3 160.023 1260.83 160.491 1260.83 161.069C1260.83 161.646 1261.3 162.114 1261.88 162.114Z" fill="#E8E8F0"/>
<path d="M1261.65 160.282C1261.88 160.75 1261.92 161.291 1261.76 161.789C1261.6 162.278 1261.37 162.744 1261.09 163.175C1260.85 163.619 1260.55 164.036 1260.22 164.416C1261.83 164.495 1263.39 163.865 1264.81 163.099C1265.95 162.497 1267.09 161.728 1267.7 160.58C1267.52 160.624 1267.33 160.628 1267.15 160.595C1266.96 160.561 1266.79 160.489 1266.64 160.384C1266.33 160.171 1266.05 159.915 1265.82 159.625L1265.01 158.721C1264.82 158.523 1264.65 158.303 1264.51 158.067C1264.34 157.746 1264.26 157.38 1264.3 157.016C1263.98 157.351 1263.62 157.648 1263.23 157.902C1262.65 158.278 1262.02 158.549 1261.44 158.92C1261.24 159.053 1260.78 159.267 1260.9 159.523C1261.02 159.779 1261.48 159.993 1261.65 160.282Z" fill="#FBBEBE"/>
<path opacity="0.1" d="M1261.65 160.282C1261.88 160.75 1261.92 161.291 1261.76 161.789C1261.6 162.278 1261.37 162.744 1261.09 163.175C1260.85 163.619 1260.55 164.036 1260.22 164.416C1261.83 164.495 1263.39 163.865 1264.81 163.099C1265.95 162.497 1267.09 161.728 1267.7 160.58C1267.52 160.624 1267.33 160.628 1267.15 160.595C1266.96 160.561 1266.79 160.489 1266.64 160.384C1266.33 160.171 1266.05 159.915 1265.82 159.625L1265.01 158.721C1264.82 158.523 1264.65 158.303 1264.51 158.067C1264.34 157.746 1264.26 157.38 1264.3 157.016C1263.98 157.351 1263.62 157.648 1263.23 157.902C1262.65 158.278 1262.02 158.549 1261.44 158.92C1261.24 159.053 1260.78 159.267 1260.9 159.523C1261.02 159.779 1261.48 159.993 1261.65 160.282Z" fill="black"/>
<path d="M1261.67 160.439C1261.5 160.668 1261.42 160.943 1261.42 161.224C1261.42 161.505 1261.5 161.779 1261.67 162.009C1261.71 162.066 1261.88 162.425 1261.97 162.428C1262.04 162.421 1262.11 162.388 1262.15 162.334C1262.52 161.954 1262.86 161.551 1263.17 161.129C1263.49 160.701 1263.95 160.4 1264.47 160.279C1265.1 160.18 1265.71 160.514 1266.26 160.834C1266.5 160.951 1266.71 161.122 1266.87 161.334C1266.98 161.543 1267.05 161.776 1267.07 162.015C1267.23 163.451 1267.29 164.897 1267.25 166.342C1267.28 167.383 1267.21 168.426 1267.04 169.454C1266.94 169.985 1266.79 170.503 1266.71 171.039C1266.66 171.512 1266.64 171.987 1266.65 172.462V174.45C1266.64 174.815 1266.66 175.18 1266.73 175.538C1266.85 175.966 1267 176.388 1267.17 176.801C1267.31 177.293 1267.42 177.797 1267.47 178.307L1267.74 180.366C1267.83 181.016 1267.89 181.725 1267.5 182.246C1267.32 182.484 1267.09 182.671 1266.89 182.906C1266.21 183.768 1266.44 185.018 1266.14 186.088C1265.91 186.873 1265.46 187.571 1264.83 188.092C1264.35 188.498 1263.73 188.821 1263.1 188.694C1262.27 188.538 1261.76 187.667 1261.53 186.844C1261.31 186.021 1261.23 185.124 1260.73 184.433C1260.32 183.864 1259.7 183.508 1259.14 183.102C1258.57 182.695 1258.02 182.174 1257.89 181.486C1257.84 181.185 1257.87 180.884 1257.84 180.583C1257.8 180.198 1257.65 179.834 1257.41 179.526C1257.18 179.219 1256.87 178.98 1256.51 178.835C1256.08 178.669 1255.55 178.609 1255.3 178.232C1255.91 177.847 1256.36 177.246 1256.55 176.548C1256.74 175.86 1256.84 175.151 1256.86 174.438L1257 172.046C1257.06 170.976 1257.09 169.916 1257.57 168.954C1257.78 168.526 1258.04 168.123 1258.26 167.698C1258.55 167.101 1258.8 166.485 1259 165.854C1259.34 164.874 1259.68 163.892 1259.99 162.901C1260.11 162.42 1260.29 161.958 1260.53 161.524C1260.81 161.072 1261.18 160.529 1261.67 160.439Z" fill="#E8E8F0"/>
<path d="M1256.35 175.984L1256.98 176.005L1257.12 175.05C1257.13 174.859 1257.18 174.671 1257.25 174.493C1257.35 174.304 1257.48 174.126 1257.61 173.959C1258.24 173.079 1258.19 171.91 1258.35 170.841C1258.55 169.415 1259.15 168.077 1259.74 166.764L1260.97 164.025C1261.08 163.799 1261.17 163.564 1261.24 163.322C1261.29 163.056 1261.32 162.784 1261.31 162.512C1261.31 162.09 1261.45 160.55 1261.46 160.125C1261.46 159.969 1261.12 160.056 1261.04 159.917C1260.89 159.616 1260.68 160.436 1260.39 160.617C1260.12 160.825 1259.92 161.115 1259.82 161.445C1259.56 162.135 1259.39 162.861 1259.14 163.554C1258.93 164.264 1258.53 164.906 1257.99 165.42C1257.74 165.643 1257.45 165.817 1257.21 166.052C1256.45 166.809 1256.37 168.002 1256.35 169.066C1256.33 169.726 1256.2 175.984 1256.35 175.984Z" fill="#2F2E41"/>
<path d="M1265.48 159.297C1264.87 159.538 1264.52 160.201 1264.35 160.846C1264.18 161.49 1264.11 162.171 1263.77 162.744C1263 164.088 1261.03 164.48 1260.48 165.932C1260.35 166.422 1260.27 166.929 1260.26 167.439C1260.17 168.478 1259.82 169.485 1259.72 170.524C1259.67 171.333 1259.69 172.145 1259.78 172.95L1260.47 181.155C1260.6 182.363 1260.53 183.586 1260.26 184.771C1260.97 184.873 1261.69 184.754 1262.33 184.43C1262.98 184.129 1263.57 183.731 1264.19 183.388C1265.27 182.785 1266.45 182.378 1267.38 181.58C1267.55 181.448 1267.7 181.288 1267.82 181.107C1267.97 180.762 1268.07 180.398 1268.12 180.025C1268.2 179.735 1268.3 179.451 1268.42 179.175C1268.77 178.348 1269.07 177.503 1269.33 176.644C1269.5 176.074 1269.64 175.493 1269.74 174.905C1269.81 174.438 1269.85 173.965 1269.9 173.495C1269.94 172.756 1270.09 172.026 1270.33 171.326C1270.93 169.654 1271.27 167.901 1271.34 166.128C1271.36 165.872 1271.34 165.614 1271.29 165.362C1271.18 165.058 1271.04 164.767 1270.87 164.495C1270.58 163.955 1270.41 163.362 1270.14 162.816C1269.54 161.581 1268.45 160.644 1267.32 159.857C1266.74 159.474 1266.1 159.059 1265.48 159.297Z" fill="#2F2E41"/>
<path d="M1251.07 172.685C1250.58 172.429 1250.13 172.093 1249.75 171.69C1249.58 171.489 1249.45 171.263 1249.26 171.064C1248.82 170.592 1248.25 170.264 1247.61 170.123C1246.99 169.985 1246.34 169.924 1245.7 169.94C1245.27 169.91 1244.84 169.962 1244.43 170.093C1244.22 170.161 1244.04 170.279 1243.89 170.437C1243.74 170.595 1243.64 170.788 1243.58 170.997C1243.49 171.51 1243.83 172.007 1244.23 172.332C1244.6 172.637 1245.04 172.85 1245.51 172.956C1245.89 173.022 1246.28 173.068 1246.67 173.092C1248.95 173.33 1250.99 174.568 1252.99 175.698C1254.74 176.688 1256.53 177.616 1258.36 178.479C1258.43 177.934 1258.46 177.384 1258.45 176.834C1258.45 176.424 1258.42 175.797 1258.03 175.556C1257.58 175.273 1256.82 175.21 1256.32 175.041C1255.15 174.658 1254 174.195 1252.88 173.655C1252.25 173.351 1251.65 173.028 1251.07 172.685Z" fill="#FBBEBE"/>
<path d="M1261.04 159.815C1263.29 159.815 1265.11 157.987 1265.11 155.732C1265.11 153.477 1263.29 151.649 1261.04 151.649C1258.8 151.649 1256.98 153.477 1256.98 155.732C1256.98 157.987 1258.8 159.815 1261.04 159.815Z" fill="#FBBEBE"/>
<path d="M1266.64 163.925C1266.32 164.379 1266.05 164.872 1265.85 165.392C1265.35 166.426 1264.56 167.312 1264.17 168.406C1263.75 169.542 1263.77 170.895 1262.96 171.79C1262.8 171.925 1262.68 172.102 1262.61 172.302C1262.6 172.426 1262.59 172.55 1262.56 172.673C1262.45 172.998 1261.92 173.013 1261.82 173.344C1261.79 173.441 1261.82 173.546 1261.77 173.646C1261.69 173.86 1261.41 173.89 1261.21 174.019C1260.82 174.288 1260.91 174.908 1260.61 175.294C1260.49 175.437 1260.33 175.546 1260.15 175.608C1259.97 175.67 1259.78 175.685 1259.6 175.65C1259.23 175.572 1258.87 175.439 1258.54 175.255C1258.42 175.19 1258.3 175.15 1258.16 175.137C1258.01 175.141 1257.85 175.192 1257.73 175.285C1256.97 175.761 1256.62 176.707 1256.63 177.599C1256.68 178.491 1256.89 179.367 1257.25 180.185C1257.29 180.326 1257.37 180.457 1257.46 180.57C1257.71 180.832 1258.14 180.79 1258.47 180.643C1258.79 180.459 1259.12 180.311 1259.46 180.203C1260.09 180.088 1260.7 180.522 1261.34 180.486C1261.81 180.415 1262.25 180.222 1262.61 179.925C1263.26 179.534 1263.84 179.04 1264.33 178.464C1264.6 178.099 1264.81 177.684 1265.05 177.295C1265.37 176.817 1265.71 176.36 1266.08 175.927L1268.43 173.061C1268.66 172.79 1268.87 172.499 1269.06 172.19C1269.27 171.774 1269.43 171.335 1269.55 170.883C1269.8 170.127 1269.96 169.346 1270.03 168.553C1270.05 167.897 1269.99 167.242 1269.86 166.598C1269.78 165.957 1269.61 165.331 1269.36 164.739C1268.84 163.684 1267.6 162.81 1266.64 163.925Z" fill="#2F2E41"/>
<path d="M1274.81 158.607C1274.81 157.883 1274.64 157.168 1274.31 156.523C1273.99 155.877 1273.51 155.318 1272.92 154.891C1272.91 153.606 1272.43 152.369 1271.58 151.401C1270.74 150.432 1269.57 149.795 1268.3 149.603C1268.06 148.386 1267.39 147.294 1266.41 146.521C1265.44 145.747 1264.23 145.341 1262.98 145.375C1261.74 145.408 1260.55 145.879 1259.62 146.704C1258.69 147.529 1258.08 148.654 1257.9 149.883C1256.21 149.504 1254.66 149.998 1254.38 151.037C1254.08 152.125 1255.29 153.397 1257.07 153.879C1257.63 154.037 1258.22 154.095 1258.8 154.051C1259.21 154.66 1259.75 155.175 1260.38 155.565C1261 155.954 1261.71 156.208 1262.44 156.311C1262.65 157.294 1263.14 158.197 1263.84 158.919C1264.54 159.642 1265.43 160.155 1266.41 160.4C1266.68 161.052 1267.1 161.632 1267.63 162.093C1267.63 162.22 1267.61 162.349 1267.61 162.482C1267.59 162.945 1267.67 163.407 1267.83 163.841C1267.99 164.275 1268.24 164.671 1268.57 165.005C1268.89 165.34 1269.27 165.606 1269.7 165.788C1270.13 165.97 1270.59 166.064 1271.05 166.064C1271.52 166.064 1271.98 165.97 1272.4 165.788C1272.83 165.606 1273.22 165.34 1273.54 165.005C1273.86 164.671 1274.11 164.275 1274.27 163.841C1274.44 163.407 1274.51 162.945 1274.49 162.482C1274.49 161.962 1274.38 161.448 1274.16 160.975C1274.59 160.258 1274.81 159.44 1274.81 158.607Z" fill="#F86D70"/>
<path opacity="0.1" d="M1255.53 151.245C1255.81 150.206 1257.34 149.711 1259.04 150.091C1259.24 148.843 1259.88 147.705 1260.83 146.878C1261.79 146.051 1263.01 145.588 1264.28 145.571C1264.39 145.571 1264.51 145.571 1264.63 145.571C1264.14 145.422 1263.63 145.347 1263.12 145.348C1261.85 145.365 1260.63 145.828 1259.68 146.655C1258.72 147.482 1258.08 148.62 1257.89 149.868C1256.2 149.488 1254.65 149.983 1254.37 151.022C1254.07 152.11 1255.28 153.382 1257.06 153.864C1257.39 153.956 1257.74 154.014 1258.08 154.038C1256.38 153.544 1255.24 152.309 1255.53 151.245Z" fill="black"/>
<path opacity="0.1" d="M1268.76 162.693C1268.76 162.56 1268.76 162.431 1268.78 162.301C1268.24 161.841 1267.82 161.262 1267.55 160.611C1266.58 160.363 1265.69 159.849 1264.99 159.127C1264.29 158.404 1263.8 157.501 1263.58 156.519C1262.85 156.416 1262.15 156.163 1261.52 155.773C1260.9 155.384 1260.36 154.868 1259.94 154.259C1259.61 154.285 1259.27 154.276 1258.93 154.231C1259.35 154.793 1259.87 155.266 1260.47 155.623C1261.08 155.98 1261.74 156.214 1262.44 156.311C1262.65 157.294 1263.14 158.197 1263.84 158.919C1264.54 159.642 1265.43 160.155 1266.41 160.4C1266.68 161.052 1267.1 161.632 1267.63 162.093C1267.63 162.22 1267.61 162.349 1267.61 162.482C1267.6 163.406 1267.95 164.298 1268.59 164.964C1269.23 165.63 1270.11 166.016 1271.03 166.037C1270.36 165.777 1269.78 165.318 1269.37 164.72C1268.97 164.123 1268.75 163.415 1268.76 162.693Z" fill="black"/>
<path d="M1262.9 157.228C1263.18 157.019 1263.18 156.551 1262.9 156.184C1262.62 155.817 1262.17 155.689 1261.89 155.899C1261.62 156.108 1261.62 156.575 1261.9 156.942C1262.18 157.31 1262.63 157.437 1262.9 157.228Z" fill="#FBBEBE"/>
<path d="M1165.72 177.545L1169.74 175.186C1169.19 174.259 1168.5 173.429 1167.68 172.73L1160.1 175.083L1166.04 171.597C1164.57 170.793 1162.91 170.385 1161.24 170.413C1159.56 170.442 1157.92 170.905 1156.48 171.759C1155.03 172.612 1153.84 173.826 1153.01 175.281C1152.18 176.736 1151.74 178.381 1151.74 180.055C1151.74 185.38 1156.07 185.563 1161.4 185.563C1166.73 185.563 1171.06 185.38 1171.06 180.055C1171.06 178.706 1170.78 177.371 1170.23 176.138L1165.72 177.545Z" fill="#6C63FF"/>
<path opacity="0.1" d="M1166.74 182.722C1166.31 182.293 1165.83 181.918 1165.31 181.604C1164.59 181.119 1163.83 180.625 1162.97 180.462C1162.21 180.317 1161.44 180.441 1160.67 180.396C1159.33 180.314 1158.07 179.738 1157.14 178.78C1156.59 178.214 1156.16 177.518 1155.5 177.084C1154.76 176.646 1153.89 176.486 1153.04 176.635C1152.79 176.669 1152.55 176.718 1152.31 176.783C1151.93 177.832 1151.74 178.94 1151.74 180.055C1151.74 185.38 1156.07 185.563 1161.4 185.563C1163.99 185.563 1166.34 185.521 1168.07 184.867L1167.77 184.328C1167.5 183.751 1167.15 183.211 1166.74 182.722Z" fill="black"/>
</g>
<defs>
<linearGradient id="paint0_linear_218_279" x1="1242.29" y1="192.741" x2="1242.29" y2="144.637" gradientUnits="userSpaceOnUse">
<stop stop-color="#808080" stop-opacity="0.25"/>
<stop offset="0.54" stop-color="#808080" stop-opacity="0.12"/>
<stop offset="1" stop-color="#808080" stop-opacity="0.1"/>
</linearGradient>
<clipPath id="clip0_218_279">
<rect width="345" height="200" fill="white" transform="translate(1071)"/>
</clipPath>
</defs>
</svg>
